<svg width="300" height="300" viewBox="0 0 300 300" fill="none" xmlns="http://www.w3.org/2000/svg">
<path d="M59.9 119.84H20V229.36H59.9V119.84Z" stroke="#231F20" stroke-width="0.75" stroke-miterlimit="10"/>
<path d="M183.509 119.84H143.609V229.36H183.509V119.84Z" stroke="#231F20" stroke-width="0.75" stroke-miterlimit="10"/>
<path d="M61.8584 130.01H59.8984V140.18H61.8584V130.01Z" fill="#231F20"/>
<path d="M61.8584 206.68H59.8984V216.85H61.8584V206.68Z" fill="#231F20"/>
<path d="M143.222 130.01H141.262V140.18H143.222V130.01Z" fill="#231F20"/>
<path d="M143.222 206.68H141.262V216.85H143.222V206.68Z" fill="#231F20"/>
<path d="M141.649 119.449H61.8594V243.049H141.649V119.449Z" stroke="#231F20" stroke-width="0.75" stroke-miterlimit="10"/>
<path d="M101.36 230.93H64.5898V241.1H101.36V230.93Z" stroke="#231F20" stroke-width="0.75" stroke-miterlimit="10"/>
<path d="M138.911 230.93H102.141V241.1H138.911V230.93Z" stroke="#231F20" stroke-width="0.75" stroke-miterlimit="10"/>
<path d="M82.9819 235.62C83.8435 235.62 84.5419 234.922 84.5419 234.06C84.5419 233.198 83.8435 232.5 82.9819 232.5C82.1203 232.5 81.4219 233.198 81.4219 234.06C81.4219 234.922 82.1203 235.62 82.9819 235.62Z" fill="#231F20"/>
<path d="M120.529 235.62C121.39 235.62 122.089 234.922 122.089 234.06C122.089 233.198 121.39 232.5 120.529 232.5C119.667 232.5 118.969 233.198 118.969 234.06C118.969 234.922 119.667 235.62 120.529 235.62Z" fill="#231F20"/>
<path d="M138.91 123.75H64.5898V228.58H138.91V123.75Z" stroke="#231F20" stroke-width="0.75" stroke-miterlimit="10"/>
<path d="M138.91 132.359H64.5898V134.709H138.91V132.359Z" fill="#231F20"/>
<path d="M105.27 182.42H70.0703V184.77H105.27V182.42Z" stroke="#231F20" stroke-width="0.75" stroke-miterlimit="10"/>
<path d="M102.919 198.07H67.7188V200.42H102.919V198.07Z" stroke="#231F20" stroke-width="0.75" stroke-miterlimit="10"/>
<path d="M104.098 210.98H68.8984V213.33H104.098V210.98Z" stroke="#231F20" stroke-width="0.75" stroke-miterlimit="10"/>
<path d="M99.7902 177.34H83.3702C82.2877 177.34 81.4102 178.215 81.4102 179.295C81.4102 180.375 82.2877 181.25 83.3702 181.25H99.7902C100.873 181.25 101.75 180.375 101.75 179.295C101.75 178.215 100.873 177.34 99.7902 177.34Z" fill="#231F20"/>
<path d="M85.712 191.42H69.292C68.2096 191.42 67.332 192.295 67.332 193.375C67.332 194.455 68.2096 195.33 69.292 195.33H85.712C86.7945 195.33 87.672 194.455 87.672 193.375C87.672 192.295 86.7945 191.42 85.712 191.42Z" fill="#231F20"/>
<path d="M85.712 193.77H69.292C68.2096 193.77 67.332 194.645 67.332 195.725C67.332 196.804 68.2096 197.68 69.292 197.68H85.712C86.7945 197.68 87.672 196.804 87.672 195.725C87.672 194.645 86.7945 193.77 85.712 193.77Z" fill="#231F20"/>
<path d="M102.92 194.549C103.195 194.929 103.328 195.394 103.295 195.862C103.262 196.33 103.066 196.771 102.74 197.109C102.371 197.47 101.876 197.674 101.36 197.679H90.4102C89.8797 197.679 89.371 197.468 88.9959 197.093C88.6209 196.718 88.4102 196.209 88.4102 195.679C88.4137 195.258 88.5502 194.848 88.8002 194.509C88.5979 194.214 88.4783 193.87 88.4539 193.514C88.4295 193.157 88.5012 192.8 88.6616 192.481C88.8219 192.161 89.0649 191.89 89.3654 191.696C89.6659 191.503 90.0129 191.393 90.3702 191.379H101.36C101.891 191.379 102.399 191.59 102.774 191.965C103.149 192.34 103.36 192.848 103.36 193.379C103.342 193.806 103.188 194.216 102.92 194.549V194.549Z" stroke="#231F20" stroke-miterlimit="10"/>
<path d="M81.5794 187.811H69.0694C67.9869 187.811 67.1094 188.686 67.1094 189.766C67.1094 190.845 67.9869 191.721 69.0694 191.721H81.5794C82.6619 191.721 83.5394 190.845 83.5394 189.766C83.5394 188.686 82.6619 187.811 81.5794 187.811Z" fill="#231F20"/>
<path d="M87.2812 207.85C87.4835 208.145 87.6031 208.488 87.6275 208.845C87.6519 209.202 87.5802 209.558 87.4199 209.878C87.2595 210.198 87.0165 210.468 86.716 210.662C86.4155 210.856 86.0685 210.966 85.7113 210.98H69.2812C68.7508 210.98 68.2421 210.769 67.867 210.394C67.492 210.019 67.2812 209.51 67.2812 208.98C67.2848 208.558 67.4212 208.149 67.6712 207.81C67.3963 207.43 67.2636 206.965 67.2965 206.497C67.3294 206.029 67.5258 205.588 67.8512 205.25C68.2204 204.889 68.7149 204.684 69.2313 204.68H85.6612C86.1917 204.68 86.7004 204.89 87.0755 205.265C87.4505 205.641 87.6612 206.149 87.6612 206.68C87.6606 207.1 87.5277 207.509 87.2812 207.85V207.85Z" stroke="#231F20" stroke-miterlimit="10"/>
<path d="M101.349 207.07H90.4092C89.3267 207.07 88.4492 207.946 88.4492 209.025C88.4492 210.105 89.3267 210.98 90.4092 210.98H101.349C102.432 210.98 103.309 210.105 103.309 209.025C103.309 207.946 102.432 207.07 101.349 207.07Z" fill="#231F20"/>
<path d="M145.839 99.1697L151.439 95.1697C152.209 94.6097 151.439 93.3097 150.679 93.8797L145.089 97.8797C144.309 98.4397 145.089 99.7397 145.839 99.1697Z" fill="#231F20"/>
<path d="M144.311 94.9691L151.571 99.4191C152.401 99.9291 153.151 98.6291 152.331 98.1291L145.071 93.6691C144.241 93.1691 143.491 94.4691 144.311 94.9691Z" fill="#231F20"/>
<path d="M147.282 93.7392C147.869 95.737 148.175 97.8069 148.192 99.8892C148.192 100.088 148.271 100.279 148.412 100.42C148.552 100.56 148.743 100.639 148.942 100.639C149.141 100.639 149.332 100.56 149.472 100.42C149.613 100.279 149.692 100.088 149.692 99.8892C149.661 97.6703 149.324 95.4663 148.692 93.3392C148.666 93.244 148.621 93.1549 148.56 93.077C148.499 92.9991 148.424 92.9339 148.338 92.8851C148.165 92.7867 147.959 92.7611 147.767 92.8142C147.575 92.8672 147.411 92.9945 147.313 93.168C147.214 93.3414 147.189 93.5469 147.242 93.7392H147.282Z" fill="#231F20"/>
<path d="M263.029 124.97C267.039 128.165 270.822 131.637 274.349 135.36C275.019 136.07 276.079 135 275.409 134.3C271.884 130.575 268.101 127.103 264.089 123.91C263.349 123.31 262.279 124.36 263.029 124.97V124.97Z" fill="#231F20"/>
<path d="M273.562 123.97L259.972 136.97C259.272 137.64 260.332 138.7 261.032 138.03L274.622 125.03C275.322 124.36 274.262 123.3 273.562 123.97Z" fill="#231F20"/>
<path d="M268.832 121.619C268.585 125.966 268.468 130.316 268.481 134.669C268.481 134.868 268.561 135.059 268.701 135.199C268.842 135.34 269.033 135.419 269.231 135.419C269.43 135.419 269.621 135.34 269.762 135.199C269.902 135.059 269.981 134.868 269.981 134.669C269.981 130.316 270.098 125.966 270.332 121.619C270.382 120.619 268.882 120.619 268.832 121.619V121.619Z" fill="#231F20"/>
<path d="M229.02 170.93C230.828 167.751 232.464 164.476 233.92 161.12C234.3 160.25 233.01 159.48 232.62 160.37C231.168 163.724 229.532 166.996 227.72 170.17C227.67 170.256 227.638 170.35 227.624 170.448C227.611 170.546 227.617 170.646 227.642 170.741C227.667 170.837 227.711 170.927 227.77 171.005C227.83 171.084 227.905 171.15 227.99 171.2C228.075 171.25 228.17 171.283 228.268 171.296C228.366 171.31 228.465 171.304 228.561 171.279C228.657 171.254 228.746 171.21 228.825 171.15C228.904 171.09 228.97 171.016 229.02 170.93V170.93Z" fill="#231F20"/>
<path d="M227.379 163.43C229.505 165.974 231.925 168.257 234.589 170.23C235.359 170.8 236.109 169.5 235.349 168.93C232.794 167.026 230.474 164.823 228.439 162.37C227.819 161.63 226.769 162.69 227.379 163.43V163.43Z" fill="#231F20"/>
<path d="M255.262 153.879C255.461 153.879 255.651 153.8 255.792 153.659C255.933 153.519 256.012 153.328 256.012 153.129C256.012 152.93 255.933 152.739 255.792 152.599C255.651 152.458 255.461 152.379 255.262 152.379C255.063 152.379 254.872 152.458 254.731 152.599C254.591 152.739 254.512 152.93 254.512 153.129C254.512 153.328 254.591 153.519 254.731 153.659C254.872 153.8 255.063 153.879 255.262 153.879Z" fill="#231F20"/>
<path d="M247.609 183.689C247.808 183.689 247.999 183.61 248.14 183.47C248.28 183.329 248.359 183.138 248.359 182.939C248.359 182.741 248.28 182.55 248.14 182.409C247.999 182.268 247.808 182.189 247.609 182.189C247.41 182.189 247.22 182.268 247.079 182.409C246.938 182.55 246.859 182.741 246.859 182.939C246.859 183.138 246.938 183.329 247.079 183.47C247.22 183.61 247.41 183.689 247.609 183.689V183.689Z" fill="#231F20"/>
<path d="M271.219 97.2891C271.418 97.2891 271.608 97.21 271.749 97.0694C271.89 96.9287 271.969 96.738 271.969 96.5391C271.969 96.3402 271.89 96.1494 271.749 96.0087C271.608 95.8681 271.418 95.7891 271.219 95.7891C271.02 95.7891 270.829 95.8681 270.688 96.0087C270.548 96.1494 270.469 96.3402 270.469 96.5391C270.469 96.738 270.548 96.9287 270.688 97.0694C270.829 97.21 271.02 97.2891 271.219 97.2891V97.2891Z" fill="#231F20"/>
<path d="M279.969 156.119C280.168 156.119 280.358 156.04 280.499 155.899C280.64 155.759 280.719 155.568 280.719 155.369C280.719 155.17 280.64 154.979 280.499 154.839C280.358 154.698 280.168 154.619 279.969 154.619C279.77 154.619 279.579 154.698 279.438 154.839C279.298 154.979 279.219 155.17 279.219 155.369C279.219 155.568 279.298 155.759 279.438 155.899C279.579 156.04 279.77 156.119 279.969 156.119Z" fill="#231F20"/>
<path d="M192 115.54L215.36 107.34C215.36 107.34 244.19 139.07 245.29 138.77C246.39 138.47 233.97 150.1 233.97 150.1L210.24 127.92C210.193 127.874 210.133 127.845 210.068 127.837C210.002 127.829 209.937 127.842 209.88 127.875C209.823 127.908 209.779 127.958 209.754 128.019C209.728 128.079 209.724 128.146 209.74 128.21L216.82 159.96L201.49 163.43L193.64 123.79L192 115.54Z" stroke="#231F20" stroke-miterlimit="10"/>
<path d="M214.16 72.6191C214.16 72.6191 229.86 90.1391 244.09 72.6191L265.63 79.0591L257.16 98.5291L245.16 92.2291L253.16 118.849C253.16 118.849 212.65 121.279 212.28 118.849C211.91 116.419 212.28 92.2291 212.28 92.2291L200.64 95.7191L189.23 75.5391L214.16 72.6191Z" fill="#231F20"/>
<path d="M202.049 112.05L204.289 118.05L204.839 119.53C204.95 119.921 205.152 120.281 205.429 120.58C205.604 120.707 205.804 120.797 206.015 120.843C206.227 120.89 206.446 120.892 206.659 120.85L208.229 120.72C208.869 120.67 208.879 119.67 208.229 119.72L206.889 119.83C206.509 119.83 206.129 119.99 205.889 119.59C205.489 118.77 205.229 117.86 204.889 117.01L202.939 111.79C202.719 111.19 201.749 111.45 201.939 112.05H202.049Z" fill="#231F20"/>
<path d="M205.012 113.119C205.144 113.119 205.271 113.066 205.365 112.973C205.459 112.879 205.512 112.752 205.512 112.619C205.512 112.487 205.459 112.359 205.365 112.266C205.271 112.172 205.144 112.119 205.012 112.119C204.879 112.119 204.752 112.172 204.658 112.266C204.564 112.359 204.512 112.487 204.512 112.619C204.512 112.752 204.564 112.879 204.658 112.973C204.752 113.066 204.879 113.119 205.012 113.119Z" fill="#231F20"/>
<path d="M195.549 126.499C197.329 126.669 198.549 125.039 198.859 123.499C199.22 121.663 199.158 119.768 198.679 117.959C198.643 117.826 198.556 117.714 198.437 117.645C198.318 117.577 198.177 117.558 198.044 117.594C197.911 117.63 197.798 117.717 197.73 117.836C197.662 117.955 197.643 118.096 197.679 118.229C198.075 119.729 198.163 121.294 197.939 122.829C197.739 124.089 197.049 125.669 195.519 125.519C194.879 125.459 194.879 126.459 195.519 126.519L195.549 126.499Z" fill="#231F20"/>
<path d="M213.348 111.849C213.47 112.779 213.775 113.676 214.246 114.488C214.716 115.3 215.342 116.011 216.088 116.579C216.838 117.127 217.73 117.448 218.656 117.504C219.583 117.561 220.507 117.351 221.318 116.899C221.43 116.83 221.51 116.721 221.541 116.593C221.573 116.466 221.553 116.331 221.486 116.219C221.419 116.106 221.311 116.024 221.184 115.99C221.057 115.957 220.922 115.974 220.808 116.039C220.133 116.404 219.366 116.562 218.601 116.494C217.837 116.427 217.109 116.137 216.508 115.659C215.285 114.626 214.499 113.169 214.308 111.579C214.208 110.949 213.238 111.219 213.308 111.849H213.348Z" fill="#231F20"/>
<path d="M193.992 118.71C195.186 118.056 196.475 117.594 197.812 117.34C198.471 117.289 199.12 117.151 199.742 116.93C200.322 116.69 200.842 116.31 201.442 116.11C202.042 115.91 201.782 114.94 201.172 115.11C200.562 115.28 199.982 115.73 199.362 115.99C198.729 116.191 198.075 116.319 197.412 116.37C196.04 116.659 194.716 117.144 193.482 117.81C192.902 118.09 193.412 118.96 193.992 118.68V118.71Z" fill="#231F20"/>
<path d="M205.502 114.649C207.024 113.745 208.672 113.071 210.392 112.649L213.012 111.789C213.821 111.568 214.602 111.256 215.342 110.859C215.442 110.787 215.511 110.679 215.537 110.558C215.562 110.437 215.542 110.311 215.48 110.204C215.418 110.097 215.318 110.017 215.2 109.979C215.082 109.941 214.954 109.948 214.842 109.999C214.059 110.418 213.234 110.753 212.382 110.999L209.772 111.859C208.091 112.285 206.483 112.959 205.002 113.859C204.472 114.229 205.002 115.099 205.502 114.729V114.649Z" fill="#231F20"/>
<path d="M169.719 67.1194C172.997 67.0236 176.26 66.6354 179.469 65.9594C180.419 65.7594 180.019 64.3194 179.069 64.5094C175.992 65.1583 172.862 65.5298 169.719 65.6194C168.719 65.6194 168.719 67.1494 169.719 67.1194Z" fill="#231F20"/>
<path d="M173.549 62.1107L172.439 69.6507C172.299 70.6507 173.739 71.0107 173.879 70.0507L174.999 62.5107C175.139 61.5707 173.689 61.1607 173.549 62.1107Z" fill="#231F20"/>
<path d="M224.16 65.0703C224.359 65.0703 224.55 64.9913 224.69 64.8506C224.831 64.71 224.91 64.5192 224.91 64.3203C224.91 64.1214 224.831 63.9306 224.69 63.79C224.55 63.6493 224.359 63.5703 224.16 63.5703C223.961 63.5703 223.77 63.6493 223.63 63.79C223.489 63.9306 223.41 64.1214 223.41 64.3203C223.41 64.5192 223.489 64.71 223.63 64.8506C223.77 64.9913 223.961 65.0703 224.16 65.0703Z" fill="#231F20"/>
<path d="M259.76 59.4305L263.76 56.9105C264.58 56.4005 263.82 55.1005 263 55.6205L259 58.1405C258.19 58.6505 258.94 59.9505 259.76 59.4305Z" fill="#231F20"/>
<path d="M257.83 56.3304L262.36 60.3304C263.08 60.9704 264.14 59.9104 263.42 59.2704L258.89 55.2704C258.17 54.6304 257.11 55.6904 257.83 56.3304V56.3304Z" fill="#231F20"/>
<path d="M259.661 54.75L259.781 59.75C259.781 59.9489 259.86 60.1397 260 60.2803C260.141 60.421 260.332 60.5 260.531 60.5C260.729 60.5 260.92 60.421 261.061 60.2803C261.202 60.1397 261.281 59.9489 261.281 59.75L261.161 54.75C261.161 53.75 259.631 53.75 259.661 54.75V54.75Z" fill="#231F20"/>
<path d="M157.551 135.789C157.551 133.219 158.851 131.949 160.551 131.949C162.251 131.949 163.791 133.219 163.791 135.789V141.259" stroke="#231F20" stroke-miterlimit="10"/>
<path d="M163.209 141.6C163.385 141.511 163.578 141.465 163.774 141.465C163.971 141.465 164.164 141.511 164.339 141.6L173.569 146.35L178.829 149.05C179.078 149.174 179.277 149.379 179.394 149.631C179.512 149.883 179.54 150.167 179.475 150.437C179.41 150.708 179.256 150.948 179.037 151.119C178.818 151.29 178.547 151.382 178.269 151.38H149.269C148.991 151.384 148.719 151.294 148.498 151.124C148.277 150.953 148.121 150.713 148.055 150.442C147.989 150.171 148.016 149.886 148.133 149.633C148.251 149.38 148.45 149.174 148.699 149.05L153.959 146.35L163.209 141.6Z" stroke="#231F20" stroke-miterlimit="10"/>
<path d="M179.41 101.76C179.609 101.76 179.8 101.681 179.94 101.54C180.081 101.399 180.16 101.209 180.16 101.01C180.16 100.811 180.081 100.62 179.94 100.479C179.8 100.339 179.609 100.26 179.41 100.26C179.211 100.26 179.02 100.339 178.88 100.479C178.739 100.62 178.66 100.811 178.66 101.01C178.66 101.209 178.739 101.399 178.88 101.54C179.02 101.681 179.211 101.76 179.41 101.76V101.76Z" fill="#231F20"/>
<path d="M112.941 105.959C113.14 105.959 113.331 105.88 113.472 105.739C113.612 105.599 113.691 105.408 113.691 105.209C113.691 105.01 113.612 104.819 113.472 104.679C113.331 104.538 113.14 104.459 112.941 104.459C112.742 104.459 112.552 104.538 112.411 104.679C112.27 104.819 112.191 105.01 112.191 105.209C112.191 105.408 112.27 105.599 112.411 105.739C112.552 105.88 112.742 105.959 112.941 105.959V105.959Z" fill="#231F20"/>
<path d="M138.16 69.5801C138.359 69.5801 138.55 69.5011 138.69 69.3604C138.831 69.2198 138.91 69.029 138.91 68.8301C138.91 68.6312 138.831 68.4404 138.69 68.2997C138.55 68.1591 138.359 68.0801 138.16 68.0801C137.961 68.0801 137.77 68.1591 137.63 68.2997C137.489 68.4404 137.41 68.6312 137.41 68.8301C137.41 69.029 137.489 69.2198 137.63 69.3604C137.77 69.5011 137.961 69.5801 138.16 69.5801Z" fill="#231F20"/>
<path d="M203.91 182.24C204.109 182.24 204.3 182.161 204.44 182.021C204.581 181.88 204.66 181.689 204.66 181.49C204.66 181.291 204.581 181.101 204.44 180.96C204.3 180.819 204.109 180.74 203.91 180.74C203.711 180.74 203.52 180.819 203.38 180.96C203.239 181.101 203.16 181.291 203.16 181.49C203.16 181.689 203.239 181.88 203.38 182.021C203.52 182.161 203.711 182.24 203.91 182.24Z" fill="#231F20"/>
<path d="M206.012 213.719C206.211 213.719 206.401 213.64 206.542 213.499C206.683 213.358 206.762 213.168 206.762 212.969C206.762 212.77 206.683 212.579 206.542 212.438C206.401 212.298 206.211 212.219 206.012 212.219C205.813 212.219 205.622 212.298 205.481 212.438C205.341 212.579 205.262 212.77 205.262 212.969C205.262 213.168 205.341 213.358 205.481 213.499C205.622 213.64 205.813 213.719 206.012 213.719Z" fill="#231F20"/>
<path d="M111.46 141.51C111.46 141.51 119.41 150.02 124.73 141.51L130.38 143.4L137.27 154.63L128.39 159.12L126.39 154.01H126.32C126.44 155.13 127.38 159.82 125.04 160.94L128.43 167.1L135.64 204.89C135.64 204.89 134.54 210.76 122.64 207.4C119.189 206.447 115.584 206.182 112.03 206.62L107.62 207.13C107.407 207.156 107.19 207.135 106.985 207.07C106.78 207.004 106.591 206.895 106.433 206.749C106.274 206.604 106.149 206.426 106.065 206.227C105.982 206.029 105.943 205.815 105.95 205.6C106.21 198.44 107.45 171.06 111.95 162.11L104.16 148.02L111.46 141.51Z" stroke="#231F20" stroke-miterlimit="10"/>
<path d="M95.6511 140.43C95.6511 140.43 101.311 147.53 106.891 140.69L118.081 150.88L121.001 174.98H116.381L112.031 157.43L113.381 173.72C113.381 173.72 97.5311 178.56 92.4511 173.72L90.9311 152.3L90.0611 174.97H84.6211L85.4911 148.22L95.6511 140.43Z" fill="#231F20"/>
<path d="M79.6495 140.9C79.6495 140.9 85.3095 148 90.8895 141.16L102.08 151.35L96.9995 156.95L94.4295 154.43C94.397 154.394 94.3536 154.369 94.3058 154.359C94.258 154.348 94.2082 154.354 94.1636 154.374C94.119 154.394 94.082 154.428 94.0579 154.47C94.0338 154.513 94.0238 154.562 94.0295 154.61L95.0295 174C95.0295 174 81.5595 179.09 76.4795 174.25L76.0495 154.74C76.051 154.689 76.0353 154.639 76.0048 154.597C75.9743 154.556 75.9309 154.526 75.8815 154.512C75.832 154.498 75.7793 154.502 75.7319 154.521C75.6844 154.541 75.6449 154.576 75.6195 154.62L74.0295 157L69.5195 148.75L79.6495 140.9Z" stroke="#231F20" stroke-miterlimit="10"/>
<path d="M105.75 142.899L101.5 138.449" stroke="#231F20" stroke-width="0.75" stroke-miterlimit="10"/>
<path d="M101.359 134.049L101.499 138.449L97.3086 142.439" stroke="#231F20" stroke-width="0.75" stroke-miterlimit="10"/>
<path d="M89.75 142.899L85.5 138.449" stroke="#231F20" stroke-width="0.75" stroke-miterlimit="10"/>
<path d="M85.3586 134.049L85.4986 138.449L81.3086 142.439" stroke="#231F20" stroke-width="0.75" stroke-miterlimit="10"/>
<path d="M122.75 143.9L118.5 139.15" stroke="#231F20" stroke-width="0.75" stroke-miterlimit="10"/>
<path d="M118.359 134.449L118.499 139.149L114.309 143.409" stroke="#231F20" stroke-width="0.75" stroke-miterlimit="10"/>
<path d="M226.48 189.75C226.679 189.75 226.87 189.671 227.011 189.53C227.151 189.39 227.23 189.199 227.23 189C227.23 188.801 227.151 188.61 227.011 188.47C226.87 188.329 226.679 188.25 226.48 188.25C226.282 188.25 226.091 188.329 225.95 188.47C225.809 188.61 225.73 188.801 225.73 189C225.73 189.199 225.809 189.39 225.95 189.53C226.091 189.671 226.282 189.75 226.48 189.75V189.75Z" fill="#231F20"/>
<path d="M24.3086 128.049V221.149H55.5986V128.049H24.3086ZM44.4486 169.919C44.2521 170.096 43.9934 170.188 43.7291 170.175C43.4648 170.162 43.2165 170.045 43.0386 169.849C42.0289 168.484 41.4101 166.869 41.2486 165.179C41.2207 165.05 41.2185 164.917 41.2422 164.788C41.2658 164.658 41.3148 164.534 41.3864 164.424C41.4579 164.313 41.5506 164.218 41.6591 164.143C41.7676 164.069 41.8898 164.016 42.0186 163.989C42.2773 163.935 42.5469 163.985 42.7686 164.129C42.9895 164.274 43.1441 164.5 43.1986 164.759C43.2349 165.128 43.2917 165.496 43.3686 165.859C43.4046 166.045 43.4514 166.228 43.5086 166.409C43.5274 166.484 43.5507 166.557 43.5786 166.629V166.739C43.7043 167.079 43.8479 167.413 44.0086 167.739L44.2786 168.229L44.4086 168.429C44.4327 168.467 44.4595 168.504 44.4886 168.539C44.6606 168.73 44.7524 168.98 44.7449 169.237C44.7375 169.494 44.6314 169.738 44.4486 169.919V169.919ZM46.2586 166.419C44.9056 163.526 43.9728 160.455 43.4886 157.299C43.4329 157.034 43.4848 156.757 43.633 156.53C43.7811 156.303 44.0134 156.145 44.2786 156.089C44.5438 156.033 44.8203 156.085 45.0472 156.233C45.2741 156.381 45.4329 156.614 45.4886 156.879C45.9336 159.86 46.8023 162.763 48.0686 165.499C48.5686 166.669 46.7986 167.589 46.2586 166.429V166.419Z" fill="#231F20"/>
</svg>
