<svg width="336" height="54" viewBox="0 0 336 54" fill="none" xmlns="http://www.w3.org/2000/svg">
<path d="M13.1298 1.12404C11.7666 0.454401 9.99682 0 8.17921 0C3.25255 0 0.119579 3.06123 0.119579 7.89222C0.119579 12.9145 3.27647 15.6649 8.05963 15.6649C9.80549 15.6649 11.7905 15.2344 12.9624 14.5887L12.1732 11.2165C11.0491 11.9579 9.68591 12.4362 8.22705 12.4362C5.52456 12.4362 3.94611 10.6425 3.94611 7.79656C3.94611 4.97449 5.62022 3.22864 8.20313 3.22864C9.54242 3.22864 10.8578 3.63521 11.9818 4.30485L13.1298 1.12404Z" fill="#252525"/>
<path d="M23.6116 0.358738H18.8524L13.5431 15.3061H17.3218L18.398 12.1253H23.9465L25.0466 15.3061H28.8253L23.6116 0.358738ZM23.1094 9.15976H19.2111L21.1961 3.30038L23.1094 9.15976Z" fill="#252525"/>
<path d="M33.8614 10.4273L35.6073 10.2838L38.5968 15.3061H42.8777L39.0512 9.39892C41.0601 8.63362 42.1124 7.103 42.1124 5.09407C42.1124 2.20026 40.0317 0.358738 36.0617 0.358738C36.2052 0.358738 30.0588 0.358738 30.0588 0.358738V15.3061H33.8614V10.4273ZM33.7897 7.60523V3.37213C33.7897 3.37213 35.3203 3.37213 35.3921 3.37213C37.3053 3.37213 38.2141 4.01786 38.2141 5.33323C38.2141 6.76818 37.3292 7.43782 35.703 7.5574L33.7897 7.60523Z" fill="#252525"/>
<path d="M55.3902 15.3061V12.2449H48.1915V9.32717H53.9791V6.28986H48.1915V3.41996H55.3902V0.358738H44.4606V15.3061H55.3902Z" fill="#252525"/>
<path d="M68.5542 15.3061V12.2449H61.3555V9.32717H67.1431V6.28986H61.3555V3.41996H68.5542V0.358738H57.6246V15.3061H68.5542Z" fill="#252525"/>
<path d="M74.5912 10.4273L76.3371 10.2838L79.3266 15.3061H83.6075L79.781 9.39892C81.7899 8.63362 82.8422 7.103 82.8422 5.09407C82.8422 2.20026 80.7615 0.358738 76.7915 0.358738C76.935 0.358738 70.7886 0.358738 70.7886 0.358738V15.3061H74.5912V10.4273ZM74.5195 7.60523V3.37213C74.5195 3.37213 76.0501 3.37213 76.1218 3.37213C78.0351 3.37213 78.9439 4.01786 78.9439 5.33323C78.9439 6.76818 78.059 7.43782 76.4327 7.5574L74.5195 7.60523Z" fill="#252525"/>
<path d="M104.145 7.72481C104.145 3.27647 101.155 0.358738 95.8937 0.358738C94.8653 0.358738 90.2735 0.358738 90.2735 0.358738V15.3061C90.2735 15.3061 95.5589 15.3061 95.6306 15.3061C101.107 15.3061 104.145 12.3167 104.145 7.72481ZM100.318 7.86831C100.318 10.8578 98.5962 12.2688 95.8459 12.2688H94.0761V3.39605H95.6545C98.7636 3.39605 100.318 4.78317 100.318 7.86831Z" fill="#252525"/>
<path d="M116.884 15.3061V12.2449H109.685V9.32717H115.473V6.28986H109.685V3.41996H116.884V0.358738H105.954V15.3061H116.884Z" fill="#252525"/>
<path d="M132.391 0.358738H128.421L124.906 11.6231L121.366 0.358738H117.444L122.49 15.3061H127.25L132.391 0.358738Z" fill="#252525"/>
<path d="M144.368 15.3061V12.2449H137.17V9.32717H142.957V6.28986H137.17V3.41996H144.368V0.358738H133.439V15.3061H144.368Z" fill="#252525"/>
<path d="M156.432 15.3061V12.1253H150.166V0.358738H146.364V15.3061H156.432Z" fill="#252525"/>
<path d="M172.253 7.77264C172.253 2.72641 168.881 0 164.432 0C159.984 0 156.588 3.13297 156.588 7.86831C156.588 12.9145 159.96 15.6649 164.384 15.6649C168.833 15.6649 172.253 12.508 172.253 7.77264ZM168.426 7.86831C168.426 10.6665 166.967 12.6036 164.456 12.6036C161.897 12.6036 160.414 10.6425 160.414 7.77264C160.414 4.97449 161.849 3.06123 164.384 3.06123C166.92 3.06123 168.426 4.99841 168.426 7.86831Z" fill="#252525"/>
<path d="M186.062 5.54847C186.062 2.46333 183.861 0.358738 179.676 0.358738C179.652 0.358738 174.152 0.358738 174.152 0.358738V15.3061H177.954V10.9774L179.413 10.9535C183.694 10.9535 186.062 9.04018 186.062 5.54847ZM182.283 5.64414C182.283 7.15083 181.35 7.98789 179.389 8.0118L177.859 8.03572V3.37213C177.859 3.37213 179.031 3.37213 179.389 3.37213C181.303 3.37213 182.283 4.13744 182.283 5.64414Z" fill="#252525"/>
<path d="M200.644 15.3061H204.256L203.753 0.358738H198.444L195.335 11.5753L192.226 0.358738H186.845L186.319 15.3061H189.858L189.954 3.80262L193.231 15.067H197.296L200.573 3.7787L200.644 15.3061Z" fill="#252525"/>
<path d="M217.232 15.3061V12.2449H210.033V9.32717H215.821V6.28986H210.033V3.41996H217.232V0.358738H206.303V15.3061H217.232Z" fill="#252525"/>
<path d="M229.439 10.0686L223.221 0.358738H219.108V15.3061H222.671V5.62022L228.961 15.4496H233.003V0.358738H229.439V10.0686Z" fill="#252525"/>
<path d="M247.686 3.53954V0.358738H234.365V3.53954H239.124V15.3061H242.926V3.53954H247.686Z" fill="#252525"/>
<path d="M10.9774 31.0918L10.9056 28.3176H6.95951V24.2519H4.01786V28.3176H0.0717474L0 31.0918H4.01786V35.1575H6.95951V31.0918H10.9774Z" fill="#252525"/>
<path d="M27.214 24.7781L30.1078 35.4206H34.0778L38.0718 20.4732H34.1735L32.1645 31.044L29.4381 20.4732H25.0855L22.4069 31.044L20.398 20.4732H16.3323L20.3262 35.4206H24.2723L27.214 24.7781Z" fill="#252525"/>
<path d="M53.8265 27.8871C53.8265 22.8409 50.4544 20.1145 46.006 20.1145C41.5577 20.1145 38.1616 23.2474 38.1616 27.9828C38.1616 33.029 41.5338 35.7793 45.9582 35.7793C50.4065 35.7793 53.8265 32.6224 53.8265 27.8871ZM50 27.9828C50 30.7809 48.5411 32.7181 46.0299 32.7181C43.4709 32.7181 41.9882 30.757 41.9882 27.8871C41.9882 25.089 43.4231 23.1757 45.9582 23.1757C48.4933 23.1757 50 25.1129 50 27.9828Z" fill="#252525"/>
<path d="M59.4084 30.5418L61.1543 30.3983L64.1437 35.4206H68.4247L64.5981 29.5134C66.6071 28.7481 67.6594 27.2175 67.6594 25.2085C67.6594 22.3147 65.5787 20.4732 61.6087 20.4732C61.7522 20.4732 55.6058 20.4732 55.6058 20.4732V35.4206H59.4084V30.5418ZM59.3367 27.7197V23.4866C59.3367 23.4866 60.8673 23.4866 60.939 23.4866C62.8523 23.4866 63.7611 24.1323 63.7611 25.4477C63.7611 26.8826 62.8762 27.5523 61.2499 27.6719L59.3367 27.7197Z" fill="#252525"/>
<path d="M73.4515 27.074V20.4732H69.6489V35.4206H73.4515C73.4515 35.4206 73.4515 29.2742 73.4515 28.8437H73.4754L78.4021 35.4206H82.9461L76.8954 27.7675L82.8026 20.4732H78.4499L73.4754 27.074H73.4515Z" fill="#252525"/>
<path d="M92.4296 35.4206V20.4732H88.627V35.4206H92.4296Z" fill="#252525"/>
<path d="M105.44 30.183L99.2215 20.4732H95.108V35.4206H98.6715V25.7347L104.961 35.5641H109.003V20.4732H105.44V30.183Z" fill="#252525"/>
<path d="M123.925 23.654V20.4732H110.604V23.654H115.363V35.4206H119.166V23.654H123.925Z" fill="#252525"/>
<path d="M136.47 35.4206V32.3594H129.272V29.4416H135.059V26.4043H129.272V23.5344H136.47V20.4732H125.541V35.4206H136.47Z" fill="#252525"/>
<path d="M151.673 34.3922V27.0022H144.547V30.0156H148.23V32.2159C147.608 32.479 146.699 32.6703 145.838 32.6703C142.992 32.6703 141.485 30.9005 141.485 27.911C141.485 25.1368 143.207 23.3431 145.886 23.3431C147.321 23.3431 148.78 23.7736 150.191 24.5867L151.386 21.4059C149.951 20.545 147.679 20.1145 145.766 20.1145C140.863 20.1145 137.707 23.1039 137.707 28.0067C137.707 32.9334 140.959 35.7793 145.742 35.7793C147.919 35.7793 150.047 35.2771 151.673 34.3922Z" fill="#252525"/>
<path d="M157.745 30.5418L159.49 30.3983L162.48 35.4206H166.761L162.934 29.5134C164.943 28.7481 165.995 27.2175 165.995 25.2085C165.995 22.3147 163.915 20.4732 159.945 20.4732C160.088 20.4732 153.942 20.4732 153.942 20.4732V35.4206H157.745V30.5418ZM157.673 27.7197V23.4866C157.673 23.4866 159.203 23.4866 159.275 23.4866C161.188 23.4866 162.097 24.1323 162.097 25.4477C162.097 26.8826 161.212 27.5523 159.586 27.6719L157.673 27.7197Z" fill="#252525"/>
<path d="M176.482 20.4732H171.723L166.414 35.4206H170.192L171.269 32.2398H176.817L177.917 35.4206H181.696L176.482 20.4732ZM175.98 29.2742H172.082L174.067 23.4149L175.98 29.2742Z" fill="#252525"/>
<path d="M193.515 23.654V20.4732H180.193V23.654H184.953V35.4206H188.755V23.654H193.515Z" fill="#252525"/>
<path d="M206.06 35.4206V32.3594H198.861V29.4416H204.649V26.4043H198.861V23.5344H206.06V20.4732H195.13V35.4206H206.06Z" fill="#252525"/>
<path d="M222.046 27.8393C222.046 23.3909 219.056 20.4732 213.795 20.4732C212.767 20.4732 208.175 20.4732 208.175 20.4732V35.4206C208.175 35.4206 213.46 35.4206 213.532 35.4206C219.009 35.4206 222.046 32.4311 222.046 27.8393ZM218.219 27.9828C218.219 30.9723 216.497 32.3833 213.747 32.3833H211.977V23.5105H213.556C216.665 23.5105 218.219 24.8976 218.219 27.9828Z" fill="#252525"/>
<path d="M239.007 35.4206V32.2398H232.741V20.4732H228.939V35.4206H239.007Z" fill="#252525"/>
<path d="M251.815 35.4206V32.3594H244.616V29.4416H250.404V26.4043H244.616V23.5344H251.815V20.4732H240.885V35.4206H251.815Z" fill="#252525"/>
<path d="M262.492 20.4732H257.732L252.423 35.4206H256.202L257.278 32.2398H262.826L263.926 35.4206H267.705L262.492 20.4732ZM261.989 29.2742H258.091L260.076 23.4149L261.989 29.2742Z" fill="#252525"/>
<path d="M272.622 30.5418L274.368 30.3983L277.357 35.4206H281.638L277.811 29.5134C279.82 28.7481 280.873 27.2175 280.873 25.2085C280.873 22.3147 278.792 20.4732 274.822 20.4732C274.966 20.4732 268.819 20.4732 268.819 20.4732V35.4206H272.622V30.5418ZM272.55 27.7197V23.4866C272.55 23.4866 274.081 23.4866 274.152 23.4866C276.066 23.4866 276.974 24.1323 276.974 25.4477C276.974 26.8826 276.09 27.5523 274.463 27.6719L272.55 27.7197Z" fill="#252525"/>
<path d="M293.433 30.183L287.215 20.4732H283.101V35.4206H286.665V25.7347L292.955 35.5641H296.996V20.4732H293.433V30.183Z" fill="#252525"/>
<path d="M303.452 35.4206V20.4732H299.65V35.4206H303.452Z" fill="#252525"/>
<path d="M316.462 30.183L310.244 20.4732H306.131V35.4206H309.694V25.7347L315.984 35.5641H320.026V20.4732H316.462V30.183Z" fill="#252525"/>
<path d="M336 34.3922V27.0022H328.873V30.0156H332.556V32.2159C331.934 32.479 331.026 32.6703 330.165 32.6703C327.319 32.6703 325.812 30.9005 325.812 27.911C325.812 25.1368 327.534 23.3431 330.212 23.3431C331.647 23.3431 333.106 23.7736 334.517 24.5867L335.713 21.4059C334.278 20.545 332.006 20.1145 330.093 20.1145C325.19 20.1145 322.033 23.1039 322.033 28.0067C322.033 32.9334 325.286 35.7793 330.069 35.7793C332.245 35.7793 334.374 35.2771 336 34.3922Z" fill="#252525"/>
<path d="M3.55032 43.7479H2.82388L0.52832 49.8016H1.1579L1.79717 48.0678H4.53829L5.17756 49.8016H5.80714L3.55032 43.7479ZM4.3252 47.5061H2.01026L3.17257 44.3581L4.3252 47.5061Z" fill="#252525"/>
<path d="M10.3342 44.3291V43.7479H5.45255V44.3291H7.58345V49.8016H8.20335V44.3291H10.3342Z" fill="#252525"/>
<path d="M23.5181 53.011V51.8792H17.4944V47.5628H22.5205V46.4501H17.4944V42.153H23.5181V41.0211H16.2666V53.011H23.5181Z" fill="#252525"/>
<path d="M36.3681 53.011H37.615L37.2314 41.0211H35.6007L31.6105 51.6106L27.5627 41.0211H25.9129L25.5101 53.011H26.7186L26.9297 42.5175L30.9007 52.9343H32.2436L36.1763 42.5366L36.3681 53.011Z" fill="#252525"/>
<path d="M41.4469 53.011V41.0211H40.2383V53.011H41.4469Z" fill="#252525"/>
<path d="M51.5287 53.011V51.86H45.6009V41.0211H44.3731V53.011H51.5287Z" fill="#252525"/>
<path d="M60.487 41.0211H59.1249L55.7294 46.9873L52.2763 41.0211H50.895L55.0771 48.1959V53.011H56.3049V48.1959L60.487 41.0211Z" fill="#252525"/>
<path d="M75.1041 41.7501C74.2217 41.213 72.8596 40.7717 71.4016 40.7717C68.0445 40.7717 65.6081 43.2273 65.6081 47.0448C65.6081 50.8432 67.9294 53.2604 71.4016 53.2604C72.8021 53.2604 74.1258 52.8575 75.0082 52.282L74.778 51.0734C73.9531 51.6873 72.7253 52.1477 71.4208 52.1477C68.6775 52.1477 66.8551 50.1718 66.8551 47.0065C66.8551 43.7452 68.7735 41.8844 71.3825 41.8844C72.6486 41.8844 73.7613 42.2297 74.7205 42.8436L75.1041 41.7501Z" fill="#252525"/>
<path d="M82.0283 41.0211H80.5895L76.0429 53.011H77.2899L78.556 49.5771H83.985L85.2512 53.011H86.4981L82.0283 41.0211ZM83.563 48.4644H78.9781L81.2801 42.2297L83.563 48.4644Z" fill="#252525"/>
<path d="M89.3603 48.2151L91.7582 48.0616L94.8277 53.011H96.2473L92.9285 47.8506C94.4823 47.371 95.7101 46.2775 95.7101 44.4742C95.7101 42.3832 94.3097 41.0211 91.3554 41.0211C91.2978 41.0211 88.1325 41.0211 88.1325 41.0211V53.011H89.3603V48.2151ZM89.3603 47.1216V42.1338C89.3603 42.1338 91.1635 42.1338 91.2211 42.1338C93.3121 42.1338 94.4823 42.9587 94.4823 44.5318C94.4823 46.1048 93.1011 46.9873 91.5088 47.0448L89.3603 47.1216Z" fill="#252525"/>
<path d="M99.3224 48.2151L101.72 48.0616L104.79 53.011H106.209L102.891 47.8506C104.444 47.371 105.672 46.2775 105.672 44.4742C105.672 42.3832 104.272 41.0211 101.317 41.0211C101.26 41.0211 98.0946 41.0211 98.0946 41.0211V53.011H99.3224V48.2151ZM99.3224 47.1216V42.1338C99.3224 42.1338 101.126 42.1338 101.183 42.1338C103.274 42.1338 104.444 42.9587 104.444 44.5318C104.444 46.1048 103.063 46.9873 101.471 47.0448L99.3224 47.1216Z" fill="#252525"/>
</svg>
