<svg width="435" height="314" viewBox="0 0 435 314" fill="none" xmlns="http://www.w3.org/2000/svg">
<path d="M249.246 189.975L273.9 183.992L283.464 233.665L272.879 248.283" fill="#E6E6E6"/>
<path d="M300.869 236.905C300.869 236.905 284.936 205.193 283.172 198.055C279.655 183.958 269.658 165.055 248.211 180.662L246.27 182.427L249.598 190.674L262.602 186.678L267.417 196.668L268.527 195.946C269.449 195.363 270.533 195.087 271.622 195.157C272.711 195.228 273.75 195.641 274.59 196.339C275.43 197.036 276.028 197.982 276.298 199.04C276.568 200.098 276.497 201.214 276.094 202.229L274.629 205.947L279.466 235.917L300.869 236.905Z" fill="white" stroke="black" stroke-miterlimit="10"/>
<path d="M281.012 245.565L274.632 205.982L276.052 202.319C276.455 201.295 276.545 200.175 276.31 199.099C276.075 198.024 275.526 197.043 274.732 196.281V196.281C273.773 195.502 272.58 195.07 271.345 195.056C270.11 195.042 268.906 195.446 267.93 196.203L267.376 196.703L262.56 186.713L249.246 190.809" stroke="black" stroke-miterlimit="10"/>
<path d="M230.637 208.324L209.645 208.824C209.645 208.824 225.3 264.701 228.684 265.556L249.31 265.967" fill="#E6E6E6"/>
<path d="M230.637 208.324L209.645 208.824C209.645 208.824 225.3 264.701 228.684 265.556L249.31 265.967" stroke="black" stroke-miterlimit="10"/>
<path d="M273.443 301.219C214.827 301.096 57.0855 301.475 57.0855 301.475C57.0855 301.475 -12.1155 232.322 7.47871 186.512C10.6218 178.741 16.11 172.144 23.1785 167.642L62.0118 144.01C65.3404 142.001 65.5068 135.852 62.3336 133.487L24.5321 105.404C19.1398 101.386 18.7293 93.6382 24.7207 91.6291L42.4731 83.2154L23.7554 82.4606L56.4975 78.5645L81.7835 86.7674H64.6636L59.9037 94.6483C59.7493 94.8967 59.6454 95.1731 59.598 95.4617C59.5507 95.7503 59.5608 96.0454 59.6278 96.3301C59.6948 96.6148 59.8174 96.8834 59.9885 97.1206C60.1597 97.3577 60.3759 97.5587 60.6249 97.712L129.748 124.863C133.077 126.161 134.186 131.667 131.745 134.952L102.898 174.579C98.2599 180.973 99.4471 191.474 105.317 195.747L235.408 278.22" stroke="#231F20" stroke-miterlimit="10"/>
<path d="M130.195 264.867C130.362 264.855 130.527 264.898 130.667 264.989C130.807 265.08 130.914 265.214 130.97 265.371C131.027 265.528 131.03 265.7 130.981 265.859C130.931 266.019 130.83 266.157 130.694 266.254C125.934 269.706 118.312 274.468 112.942 276.366C99.1395 281.195 86.5797 280.573 84.8599 274.979C83.1402 269.384 92.9373 260.937 106.729 256.109C109.558 255.121 110.157 254.355 112.798 253.822C112.298 257.152 112.31 258.362 114.662 260.804C116.748 262.98 124.88 265.189 130.195 264.867Z" fill="black" stroke="black" stroke-miterlimit="10"/>
<path d="M134.988 228.749C137.405 224.209 130.038 215.56 118.535 209.431C107.031 203.301 95.7459 202.012 93.3291 206.552C90.9123 211.091 98.2788 219.741 109.783 225.87C121.286 232 132.571 233.289 134.988 228.749Z" fill="black" stroke="black" stroke-miterlimit="10"/>
<path d="M68.4273 240.017C68.7967 234.143 57.3513 228.643 42.8633 227.731C28.3754 226.819 16.3312 230.841 15.9618 236.715C15.5924 242.588 27.0378 248.089 41.5257 249.001C56.0137 249.913 68.0579 245.89 68.4273 240.017Z" fill="black" stroke="black" stroke-miterlimit="10"/>
<path d="M53.4419 209.594C56.2496 207.718 54.4257 200.056 49.3681 192.481C44.3105 184.906 37.9344 180.285 35.1267 182.162C32.319 184.038 34.143 191.7 39.2006 199.275C44.2581 206.85 50.6342 211.47 53.4419 209.594Z" fill="black" stroke="black" stroke-miterlimit="10"/>
<path d="M109.141 157.231C114.992 149.583 117.42 141.61 114.563 139.423C111.707 137.236 104.648 141.663 98.7973 149.311C92.9463 156.958 90.5187 164.931 93.375 167.118C96.2314 169.306 103.29 164.879 109.141 157.231Z" fill="black" stroke="black" stroke-miterlimit="10"/>
<path d="M81.4485 125.369C81.9054 122.742 77.0099 119.695 70.5141 118.564C64.0182 117.434 58.3819 118.647 57.925 121.274C57.4681 123.901 62.3636 126.948 68.8594 128.079C75.3553 129.209 80.9916 127.996 81.4485 125.369Z" fill="black" stroke="black" stroke-miterlimit="10"/>
<path d="M66.9779 105.391C67.3645 103.169 63.2145 100.59 57.7087 99.6319C52.2029 98.6735 47.4263 99.6984 47.0397 101.921C46.6532 104.144 50.8032 106.722 56.3089 107.681C61.8147 108.639 66.5914 107.614 66.9779 105.391Z" fill="black" stroke="black" stroke-miterlimit="10"/>
<path d="M60.0467 85.8478C60.2106 84.3363 57.3161 82.7826 53.5817 82.3774C49.8473 81.9722 46.6871 82.869 46.5233 84.3804C46.3594 85.8919 49.2539 87.4457 52.9883 87.8509C56.7227 88.2561 59.8829 87.3593 60.0467 85.8478Z" fill="black" stroke="black" stroke-miterlimit="10"/>
<path d="M98.6487 233.954C88.663 235.997 81.8616 244.366 83.3484 252.647L119.341 245.254C117.855 236.974 108.59 231.901 98.6487 233.954Z" fill="black" stroke="black" stroke-miterlimit="10"/>
<path d="M73.4186 232.91C83.3044 235.23 92.691 230.424 94.3775 222.188L58.5288 213.785C56.8423 222.032 63.4328 230.602 73.4186 232.91Z" fill="#252525" stroke="black" stroke-miterlimit="10"/>
<path d="M14.6128 187.777C13.8583 196.114 18.1854 203.384 24.2656 204.006L26.984 173.814C20.926 173.181 15.3783 179.43 14.6128 187.777Z" fill="#252525" stroke="black" stroke-miterlimit="10"/>
<path d="M78.7672 174.379C71.2002 176.599 66.3405 183.448 67.8717 189.753L95.288 181.983C93.7568 175.633 86.3452 172.259 78.7672 174.379Z" fill="#252525" stroke="black" stroke-miterlimit="10"/>
<path d="M73.0953 167.176C80.7843 165.5 86.0213 158.962 84.8008 152.568L56.9961 158.596C58.2055 164.989 65.4174 168.83 73.0953 167.176Z" fill="#252525" stroke="black" stroke-miterlimit="10"/>
<path d="M116.478 124.541C110.32 123.709 104.839 127.183 104.273 132.311L126.553 135.341C127.119 130.213 122.636 125.374 116.478 124.541Z" fill="#252525" stroke="black" stroke-miterlimit="10"/>
<path d="M49.4653 109.556C45.3045 106.781 40.3006 107.336 38.2812 110.811L53.3264 120.801C55.3457 117.382 53.626 112.331 49.4653 109.556Z" fill="#252525" stroke="black" stroke-miterlimit="10"/>
<path d="M34.9629 91.1294C30.78 91.4735 27.4958 94.5371 27.6289 97.967L42.7739 96.6794C42.6408 93.2606 39.1569 90.752 34.9629 91.1294Z" fill="#252525" stroke="black" stroke-miterlimit="10"/>
<path d="M84.4273 138.86C85.0708 145.464 89.4757 150.382 94.2799 149.86L92.0608 125.973C87.19 126.461 83.7949 132.2 84.4273 138.86Z" fill="#252525" stroke="black" stroke-miterlimit="10"/>
<path d="M64.5432 295.848C74.2626 298.889 83.9376 294.804 86.1567 286.701L50.9848 275.668C48.7657 283.771 54.8348 292.806 64.5432 295.848Z" fill="#252525" stroke="black" stroke-miterlimit="10"/>
<path d="M201.848 291.574C198.952 296.191 188.956 298.123 176.695 298.123C162.183 298.123 150.422 293.339 150.422 287.456C150.422 284.192 153.562 281.672 159.243 279.686C159.675 280.285 160.507 281.295 160.951 281.906C163.703 285.657 166.577 287.389 171.37 288.699C173.571 289.213 175.851 289.293 178.082 288.932C183.016 288.41 187.994 288.499 192.906 289.198C195.768 289.698 199.385 290.297 201.848 291.574Z" fill="#252525" stroke="black" stroke-miterlimit="10"/>
<path d="M209.601 268.729C198.735 265.068 187.656 262.069 176.427 259.749V259.749C176.063 258.399 176.189 256.964 176.782 255.698C177.062 255.048 177.473 254.463 177.989 253.979C178.505 253.496 179.116 253.124 179.782 252.887C180.449 252.651 181.157 252.555 181.863 252.605C182.568 252.655 183.256 252.85 183.883 253.178L206.972 265.544C207.323 265.729 207.651 265.957 207.948 266.221C208.719 266.889 209.291 267.757 209.601 268.729V268.729Z" fill="#252525" stroke="black" stroke-miterlimit="10"/>
<path d="M131.281 243.645C131.284 244.897 131.709 246.111 132.489 247.09C133.269 248.07 134.356 248.757 135.575 249.04C135.94 249.111 136.313 249.14 136.685 249.128L162.459 248.329C163.792 248.19 165.034 247.587 165.967 246.625C166.901 245.663 167.467 244.403 167.566 243.066C167.665 241.729 167.291 240.4 166.51 239.31C165.728 238.221 164.589 237.441 163.291 237.107C162.926 237.036 162.553 237.006 162.181 237.018L136.407 237.817C134.961 237.926 133.615 238.596 132.656 239.685C131.698 240.775 131.205 242.196 131.281 243.645V243.645Z" fill="#252525" stroke="black" stroke-miterlimit="10"/>
<path d="M36.5593 262.358C36.5176 263.614 36.9032 264.847 37.653 265.855C38.4027 266.863 39.4723 267.587 40.6867 267.908C41.0505 267.993 41.4226 268.038 41.7962 268.041H67.5816C68.3 268.019 69.0072 267.856 69.6626 267.561C70.318 267.266 70.9089 266.845 71.4014 266.321C71.894 265.797 72.2785 265.182 72.5331 264.509C72.7877 263.837 72.9073 263.121 72.8851 262.402C72.9268 261.146 72.5412 259.913 71.7914 258.905C71.0417 257.897 69.9721 257.173 68.7577 256.852C68.3939 256.767 68.0218 256.722 67.6482 256.719L41.8628 256.652C41.139 256.675 40.427 256.841 39.7677 257.141C39.1085 257.441 38.5152 257.868 38.022 258.399C37.5289 258.929 37.1457 259.552 36.8947 260.232C36.6436 260.911 36.5296 261.634 36.5593 262.358V262.358Z" fill="#252525" stroke="black" stroke-miterlimit="10"/>
<path d="M13.195 210.787C12.9794 211.824 13.1103 212.902 13.5673 213.857C14.0244 214.811 14.7824 215.589 15.7247 216.071C16.0195 216.207 16.3283 216.311 16.6456 216.382L37.7265 221.099C38.3111 221.214 38.9127 221.21 39.4956 221.087C40.0786 220.964 40.6308 220.725 41.1195 220.385C41.6082 220.044 42.0233 219.608 42.3401 219.104C42.6569 218.599 42.8689 218.036 42.9635 217.447C43.1925 216.405 43.0694 215.317 42.6136 214.353C42.1578 213.389 41.395 212.603 40.4449 212.119C40.1511 211.977 39.8421 211.869 39.524 211.797L18.443 207.08C17.8537 206.964 17.2469 206.968 16.6594 207.094C16.072 207.219 15.5161 207.463 15.0254 207.809C14.5348 208.156 14.1195 208.598 13.8049 209.11C13.4902 209.622 13.2827 210.193 13.195 210.787Z" fill="#252525" stroke="black" stroke-miterlimit="10"/>
<path d="M39.3229 163.824C38.8245 164.544 38.5696 165.404 38.5956 166.279C38.6215 167.154 38.927 167.997 39.4671 168.686C39.6463 168.895 39.843 169.088 40.0552 169.263L54.2238 180.585C54.6013 180.889 55.0377 181.111 55.5055 181.237C55.9732 181.363 56.4621 181.39 56.9409 181.317C57.4198 181.244 57.8783 181.072 58.2872 180.812C58.6962 180.553 59.0467 180.211 59.3165 179.808C59.8133 179.088 60.0663 178.227 60.0384 177.352C60.0104 176.477 59.703 175.634 59.1612 174.946C58.9907 174.73 58.7931 174.536 58.5731 174.369L44.4045 163.036C44.0279 162.732 43.5918 162.509 43.1242 162.383C42.6566 162.257 42.1679 162.23 41.6893 162.305C41.2108 162.379 40.753 162.552 40.3455 162.814C39.938 163.076 39.5896 163.42 39.3229 163.824V163.824Z" fill="#252525" stroke="black" stroke-miterlimit="10"/>
<path d="M66.7601 148.994C67.2189 149.437 67.8229 149.698 68.4597 149.729C69.0965 149.76 69.7227 149.558 70.2219 149.161C70.3858 149.034 70.5346 148.889 70.6657 148.728L79.5419 137.906C80.0283 137.304 80.2719 136.542 80.2246 135.769C80.1774 134.997 79.8428 134.27 79.2867 133.732C78.8293 133.287 78.226 133.024 77.5892 132.992C76.9524 132.959 76.3254 133.159 75.825 133.554C75.6634 133.688 75.5148 133.837 75.3811 133.998L66.5049 144.821C66.0185 145.423 65.775 146.185 65.8222 146.957C65.8694 147.73 66.204 148.456 66.7601 148.994V148.994Z" fill="#252525" stroke="black" stroke-miterlimit="10"/>
<path d="M83.9801 113.641C83.7337 114.259 83.6947 114.941 83.8687 115.584C84.0428 116.226 84.4206 116.795 84.9454 117.204C85.1124 117.325 85.2908 117.429 85.478 117.515L97.9379 123.065C98.2797 123.21 98.6476 123.283 99.0189 123.28C99.3901 123.277 99.7568 123.197 100.096 123.046C100.435 122.895 100.74 122.676 100.991 122.403C101.242 122.129 101.434 121.806 101.555 121.455C101.802 120.839 101.842 120.158 101.668 119.517C101.493 118.876 101.115 118.31 100.59 117.903C100.425 117.779 100.246 117.674 100.057 117.593L87.586 112.043C87.246 111.896 86.8792 111.821 86.5088 111.822C86.1383 111.824 85.7722 111.902 85.4336 112.053C85.0949 112.203 84.7909 112.421 84.5408 112.695C84.2906 112.968 84.0997 113.29 83.9801 113.641V113.641Z" fill="#252525" stroke="black" stroke-miterlimit="10"/>
<path d="M63.6867 113.64C63.7815 114.144 64.0476 114.6 64.44 114.929C64.8324 115.259 65.3267 115.443 65.8392 115.449C65.9969 115.449 66.1537 115.427 66.3052 115.383L76.6681 112.785C77.2433 112.617 77.7319 112.234 78.0333 111.716C78.3347 111.197 78.4259 110.583 78.288 109.999C78.191 109.498 77.9239 109.045 77.5317 108.717C77.1396 108.389 76.6464 108.207 76.1356 108.201C75.9779 108.201 75.821 108.224 75.6696 108.268L65.3177 110.865C64.7413 111.029 64.2502 111.409 63.9465 111.926C63.6428 112.443 63.5497 113.057 63.6867 113.64Z" fill="#252525" stroke="black" stroke-miterlimit="10"/>
<path d="M30.5262 104.839C30.6136 105.31 30.8616 105.735 31.228 106.043C31.5943 106.351 32.0561 106.522 32.5344 106.526C32.684 106.525 32.8329 106.506 32.9782 106.471L42.6976 104.04C43.2402 103.877 43.6999 103.512 43.9825 103.021C44.2651 102.53 44.3492 101.949 44.2177 101.398C44.1279 100.927 43.8777 100.501 43.5095 100.193C43.1413 99.8858 42.678 99.7153 42.1983 99.7109C42.048 99.7121 41.8986 99.7346 41.7545 99.7775L32.0462 102.231C31.5107 102.394 31.0565 102.753 30.7746 103.237C30.4928 103.72 30.404 104.293 30.5262 104.839V104.839Z" fill="#252525" stroke="black" stroke-miterlimit="10"/>
<path d="M42.4956 90.3984C42.3786 90.8218 42.4093 91.2725 42.5828 91.6761C42.7563 92.0797 43.0621 92.4121 43.4498 92.6184C43.5713 92.674 43.6975 92.7186 43.827 92.7516L52.4258 94.794C52.6685 94.8441 52.9188 94.8456 53.162 94.7983C53.4053 94.7511 53.6368 94.6561 53.8431 94.5188C54.0495 94.3815 54.2266 94.2047 54.3642 93.9985C54.5018 93.7924 54.5972 93.5609 54.6449 93.3177C54.7589 92.893 54.7256 92.4421 54.5502 92.0388C54.3749 91.6356 54.0679 91.3038 53.6796 91.0977C53.5589 91.04 53.4325 90.9954 53.3024 90.9645L44.6925 88.911C44.4505 88.8627 44.2013 88.863 43.9594 88.9118C43.7175 88.9607 43.4877 89.0571 43.2834 89.1954C43.079 89.3338 42.9042 89.5114 42.7689 89.7179C42.6337 89.9244 42.5408 90.1557 42.4956 90.3984V90.3984Z" fill="#252525" stroke="black" stroke-miterlimit="10"/>
<path d="M92.3589 193.006C91.9759 192.049 91.2666 191.259 90.3567 190.776C89.4468 190.292 88.3952 190.146 87.3882 190.364C87.0746 190.45 86.77 190.565 86.4784 190.709L66.9286 200.41C65.8423 200.991 65.017 201.962 64.6194 203.129C64.2219 204.295 64.2819 205.569 64.7872 206.693C65.1701 207.646 65.8782 208.434 66.786 208.916C67.6938 209.397 68.7427 209.541 69.7468 209.323C70.0613 209.246 70.3664 209.134 70.6566 208.99L90.2064 199.289C91.2909 198.706 92.1152 197.735 92.5144 196.57C92.9135 195.405 92.858 194.132 92.3589 193.006V193.006Z" fill="#252525" stroke="black" stroke-miterlimit="10"/>
<path d="M101.246 289.608C101.204 290.864 101.589 292.097 102.339 293.105C103.089 294.113 104.159 294.837 105.373 295.158C105.737 295.24 106.109 295.281 106.482 295.28H132.268C133.72 295.234 135.094 294.613 136.088 293.554C137.083 292.494 137.616 291.083 137.571 289.63C137.612 288.373 137.225 287.139 136.473 286.131C135.721 285.122 134.649 284.399 133.433 284.08C133.069 283.994 132.697 283.949 132.323 283.947H106.538C105.819 283.97 105.111 284.135 104.455 284.432C103.799 284.729 103.209 285.153 102.717 285.679C102.226 286.205 101.842 286.822 101.59 287.497C101.337 288.171 101.22 288.889 101.246 289.608V289.608Z" fill="#252525" stroke="black" stroke-miterlimit="10"/>
<path d="M128.353 114.951C129.718 117.649 131.094 120.346 132.458 123.054C132.273 121.389 132.21 119.712 132.27 118.037C132.27 117.038 133.901 116.561 134.145 117.704L134.389 118.814C134.663 118.23 134.99 117.673 135.365 117.149V117.149L135.498 116.949C136.209 116.028 137.462 117.082 137.074 118.059C136.345 119.847 135.81 121.708 135.476 123.609C135.476 123.742 135.476 123.876 135.476 124.009L135.676 124.908C137.247 122.95 139.025 121.167 140.979 119.591C141.945 118.803 142.999 120.424 142.089 121.201C139.233 123.506 136.794 126.284 134.877 129.415C134.798 129.562 134.682 129.686 134.54 129.776C134.399 129.865 134.237 129.917 134.07 129.926C133.903 129.935 133.736 129.901 133.586 129.827C133.436 129.753 133.307 129.641 133.213 129.503C130.718 125.084 128.534 120.496 126.678 115.773C126.234 114.785 127.854 113.974 128.353 114.951Z" fill="black"/>
<path d="M0.766789 174.98C4.18877 176.973 6.75047 180.164 7.9565 183.937C7.99623 184.232 8.15122 184.498 8.38739 184.678C8.62356 184.858 8.92155 184.937 9.21581 184.898C9.51008 184.858 9.77651 184.703 9.95649 184.466C10.1365 184.23 10.2153 183.932 10.1756 183.638C9.98693 175.812 9.40998 167.876 10.0313 160.061C10.1423 158.629 7.9676 158.674 7.81227 160.061C6.91246 168.21 7.28679 176.448 8.92179 184.481C9.1215 185.514 10.9078 185.591 11.0632 184.481C11.954 178.73 13.795 173.167 16.5109 168.02C16.6436 167.766 16.6731 167.471 16.5934 167.196C16.5137 166.921 16.3308 166.688 16.0831 166.544C15.8353 166.401 15.5418 166.359 15.2638 166.427C14.9859 166.495 14.745 166.668 14.5915 166.91C11.7511 171.35 8.78865 176.412 9.47655 181.939C9.65407 183.338 11.8731 183.349 11.6956 181.939C11.0521 176.778 13.8592 172.205 16.5109 168.031L14.5915 166.921C11.7745 172.233 9.85852 177.976 8.92179 183.915H11.0632C9.48405 176.081 9.13591 168.048 10.0313 160.106H7.81227C7.19093 167.876 7.81226 175.857 7.9565 183.682L10.1756 183.382C8.78634 179.054 5.84609 175.393 1.92069 173.104C1.66712 172.971 1.3721 172.941 1.09726 173.021C0.822425 173.101 0.589023 173.284 0.445811 173.532C0.302598 173.78 0.260652 174.073 0.328736 174.351C0.396819 174.629 0.569664 174.87 0.811168 175.024L0.766789 174.98Z" fill="black"/>
<path d="M227.789 265.399L249.147 266.021L255.915 279.885L277.34 257.685L272.115 243.532C272.115 243.532 281.068 216.237 299.953 230.623C304.541 234.185 308.092 238.911 310.238 244.309C316.651 260.082 330.342 306.469 299.964 312.941C299.964 312.941 287.814 315.538 269.108 299.232C263.46 294.304 258.301 289.32 251.533 286.112L231.306 276.499L227.789 265.399Z" fill="black"/>
<path d="M256.856 279.696L277.726 258.606L246.016 180.373C245.793 179.715 245.441 179.107 244.981 178.585C244.521 178.063 243.962 177.638 243.337 177.335C242.711 177.031 242.031 176.855 241.337 176.816C240.643 176.778 239.948 176.878 239.293 177.11L238.716 176.721C236.496 173.869 234.144 175.956 232.214 176.377L230.971 175.489C229.995 174.601 226.533 174.646 224.791 175.645L223.349 176.277H222.239C220.939 176.264 219.657 176.583 218.515 177.205C217.374 177.826 216.41 178.73 215.715 179.829L214.816 181.65L223.892 184.614C223.892 184.614 247.78 274.768 256.856 279.696Z" fill="#E6E6E6" stroke="black" stroke-miterlimit="10"/>
<path d="M175.938 177.055L192.347 183.615" stroke="black" stroke-miterlimit="10"/>
<path d="M201.656 177.322L223.88 184.593" stroke="black" stroke-miterlimit="10"/>
<path d="M178.291 209.17C183.128 208.411 185.907 200.519 184.499 191.544C183.091 182.569 178.028 175.908 173.191 176.668C168.355 177.427 165.575 185.319 166.983 194.294C168.391 203.27 173.454 209.93 178.291 209.17Z" stroke="black" stroke-miterlimit="10"/>
<path d="M203.31 209.176C208.147 208.417 210.927 200.525 209.518 191.55C208.11 182.574 203.048 175.914 198.211 176.674C193.374 177.433 190.595 185.325 192.003 194.3C193.411 203.275 198.473 209.936 203.31 209.176Z" stroke="black" stroke-miterlimit="10"/>
<path d="M233.932 193.484L228.75 182.306C226.686 178.011 223.868 176.945 221.25 176.512C219.785 176.268 217.145 178.155 217.145 178.155" stroke="black" stroke-miterlimit="10"/>
<path d="M239.538 191.64L231.184 175.645" stroke="black" stroke-miterlimit="10"/>
<path d="M245.429 189.376L238.816 176.744" stroke="black" stroke-miterlimit="10"/>
<path d="M313.252 277.679L303 31H309.79L320.042 277.679" fill="white"/>
<path d="M313.252 277.679L303 31H309.79L320.042 277.679" stroke="black" stroke-miterlimit="10"/>
<path d="M217.325 300.653C212.102 296.157 206.007 292.789 199.422 290.76C192.837 288.732 185.904 288.086 179.057 288.865C174.889 289.344 170.673 288.563 166.953 286.622C163.233 284.681 160.18 281.67 158.187 277.976L154.171 270.528C152.988 268.368 151.18 266.616 148.984 265.503C146.788 264.389 144.307 263.967 141.866 264.29V264.29C133.312 265.4 122.394 265.466 115.005 261.071C114.283 260.624 113.668 260.024 113.205 259.312C112.743 258.601 112.443 257.796 112.327 256.955C112.212 256.113 112.283 255.257 112.537 254.447C112.791 253.637 113.22 252.893 113.795 252.268V252.268C115.093 251.724 219.2 256.531 273.023 300.398" stroke="#231F20" stroke-miterlimit="10"/>
<path d="M400.73 244.942L400.065 244.453C393.674 239.836 375.655 245.319 370.729 251.48C368.256 255.763 364.581 259.226 360.159 261.438C355.736 263.65 350.762 264.514 345.853 263.923V263.923C344.124 263.718 342.379 264.14 340.935 265.114C339.491 266.088 338.445 267.548 337.987 269.228L337.365 271.515C336.094 276.197 333.333 280.337 329.499 283.307C325.664 286.277 320.967 287.917 316.118 287.976V287.976C316.409 292.47 315.751 296.974 314.188 301.196" stroke="black" stroke-miterlimit="10"/>
<path d="M373.145 301.197C374.687 299.693 375.913 297.894 376.747 295.907C377.582 293.92 378.01 291.786 378.004 289.631V289.231C378.006 286.527 378.636 283.861 379.843 281.441C381.05 279.022 382.802 276.916 384.961 275.289L399.762 264.189C400.139 263.912 400.494 263.612 400.872 263.312" stroke="black" stroke-miterlimit="10"/>
<path d="M314.863 300.387L326.713 296.879C329.351 296.149 331.944 295.267 334.48 294.238C340.882 291.485 346.307 286.9 351.622 282.394L375.643 262.07C379.338 258.94 383.299 255.676 388.092 254.999C391.287 254.533 394.749 255.265 397.689 254" stroke="black" stroke-miterlimit="10"/>
<path d="M315.295 293.583C321.235 274.877 324.156 255.344 323.949 235.718C323.949 233.898 321.087 233.398 320.676 235.274L310.014 284.114C309.681 285.613 311.633 287.067 312.798 285.735C325.713 270.794 339.316 256.486 353.607 242.811C354.927 241.546 353.13 239.059 351.587 240.203C335.675 251.969 321.322 265.71 308.871 281.095C307.539 282.738 309.825 285.091 311.223 283.448C321.641 271.238 325.591 255.41 331.86 240.98C333.624 236.834 335.69 232.824 338.04 228.981C339.15 227.16 336.298 225.484 335.167 227.305C326.823 240.691 323.428 256.364 316.083 270.239C314.086 274.113 311.667 277.753 308.871 281.095L311.223 283.448C323.476 268.27 337.602 254.705 353.263 243.078L351.244 240.458C336.953 254.126 323.343 268.423 310.413 283.348L313.187 284.969L323.849 236.129L320.587 235.685C320.788 255.011 317.904 274.245 312.044 292.661C311.389 294.704 314.607 295.581 315.262 293.549L315.295 293.583Z" fill="black"/>
<path d="M167.286 193.16C166.997 195.38 166.598 197.29 171.258 199.243C175.429 200.986 183.229 197.489 183.462 195.336C183.695 193.183 180.345 188.676 175.862 188.032C171.38 187.388 167.574 191.029 167.286 193.16Z" fill="white" stroke="black" stroke-miterlimit="10"/>
<path d="M172.411 198.523C178.125 198.523 178.125 189.643 172.411 189.643C166.697 189.643 166.686 198.523 172.411 198.523Z" fill="black"/>
<path d="M192.137 193.16C191.849 195.38 191.449 197.29 196.109 199.243C200.281 200.986 208.081 197.489 208.314 195.336C208.547 193.183 205.196 188.676 200.714 188.032C196.231 187.388 192.459 191.029 192.137 193.16Z" fill="white" stroke="black" stroke-miterlimit="10"/>
<path d="M197.298 198.523C203.012 198.523 203.023 189.643 197.298 189.643C191.572 189.643 191.583 198.523 197.298 198.523Z" fill="black"/>
<path d="M310.016 30.4261L392.964 1L433.328 19.7923L415.698 50.2729L312.09 77.3014L310.016 30.4261Z" fill="white" stroke="black" stroke-miterlimit="10"/>
<path d="M243.5 120.026L249.281 100.401L305.312 79.1777L306.732 111.468L257.291 127.507L243.5 120.026Z" fill="white" stroke="black" stroke-miterlimit="10"/>
<path d="M313.543 110.09L314.686 142.935L347.916 151.726L361.707 146.265L357.247 127.506L313.543 110.09Z" fill="white" stroke="black" stroke-miterlimit="10"/>
<path d="M179.5 178.82L192.814 182.561C192.814 182.561 187.81 200.055 200.758 209.256H180.11C180.11 209.256 191.028 201.276 179.5 178.82Z" fill="white" stroke="black" stroke-miterlimit="10"/>
<path d="M204.43 178.82L223.88 184.548C223.88 184.548 226.099 193.617 230.637 209.068L205.04 209.256C205.04 209.256 215.991 201.276 204.43 178.82Z" fill="white" stroke="black" stroke-miterlimit="10"/>
<path d="M264.512 301.442C264.512 301.442 191.683 262.348 136.75 257.797" stroke="#231F20" stroke-miterlimit="10"/>
</svg>
