<svg width="1479" height="2782" viewBox="0 0 1479 2782" fill="none" xmlns="http://www.w3.org/2000/svg">
<rect x="65.5947" y="2468.49" width="412.264" height="128.114" rx="10" transform="rotate(23.3675 65.5947 2468.49)" fill="white"/>
<rect x="65.5947" y="1104.4" width="412.264" height="128.114" rx="10" transform="rotate(23.3675 65.5947 1104.4)" fill="white"/>
<rect x="252.122" y="2400.37" width="220.718" height="111.673" rx="10" transform="rotate(-14.6686 252.122 2400.37)" fill="white"/>
<rect x="252.122" y="1036.28" width="220.718" height="111.673" rx="10" transform="rotate(-14.6686 252.122 1036.28)" fill="white"/>
<rect x="1104.71" y="2040.62" width="220.718" height="111.673" rx="10" transform="rotate(6.40528 1104.71 2040.62)" fill="white"/>
<rect x="1104.71" y="676.532" width="220.718" height="111.673" rx="10" transform="rotate(6.40528 1104.71 676.532)" fill="white"/>
<rect x="1183.55" y="1506.81" width="220.718" height="111.673" rx="10" transform="rotate(6.40528 1183.55 1506.81)" fill="white"/>
<rect x="1183.55" y="142.724" width="220.718" height="111.673" rx="10" transform="rotate(6.40528 1183.55 142.724)" fill="white"/>
<rect x="1037.56" y="2383.9" width="227.893" height="75.6666" rx="10" transform="rotate(6.40528 1037.56 2383.9)" fill="white"/>
<rect x="1037.56" y="1019.81" width="227.893" height="75.6666" rx="10" transform="rotate(6.40528 1037.56 1019.81)" fill="white"/>
<rect x="661.102" y="1934" width="236.016" height="111.673" rx="10" transform="rotate(-45.5541 661.102 1934)" fill="white"/>
<rect x="661.102" y="569.91" width="236.016" height="111.673" rx="10" transform="rotate(-45.5541 661.102 569.91)" fill="white"/>
<rect x="1327.92" y="2743.74" width="209.954" height="106.227" rx="10" transform="rotate(-124.452 1327.92 2743.74)" fill="white"/>
<rect x="1390.88" y="1465.74" width="209.954" height="106.227" rx="10" transform="rotate(-124.452 1390.88 1465.74)" fill="white"/>
<rect x="774.433" y="2450.82" width="180.417" height="98.8699" rx="10" transform="rotate(-23.7547 774.433 2450.82)" fill="white"/>
<rect x="774.433" y="1086.74" width="180.417" height="98.8699" rx="10" transform="rotate(-23.7547 774.433 1086.74)" fill="white"/>
<rect x="1063.92" y="1561.36" width="191.249" height="98.8699" rx="10" transform="rotate(34.0999 1063.92 1561.36)" fill="white"/>
<rect x="1063.92" y="197.273" width="191.249" height="98.8699" rx="10" transform="rotate(34.0999 1063.92 197.273)" fill="white"/>
<rect x="288.257" y="2258.36" width="137.525" height="79.8256" rx="10" transform="rotate(-5.53064 288.257 2258.36)" fill="white"/>
<rect x="288.257" y="894.275" width="137.525" height="79.8256" rx="10" transform="rotate(-5.53064 288.257 894.275)" fill="white"/>
<rect x="428.277" y="2183.08" width="137.525" height="106.13" rx="10" transform="rotate(-37.7369 428.277 2183.08)" fill="white"/>
<rect x="428.277" y="818.992" width="137.525" height="106.13" rx="10" transform="rotate(-37.7369 428.277 818.992)" fill="white"/>
<rect x="311.428" y="1625.83" width="244.107" height="106.13" rx="10" transform="rotate(-46.0166 311.428 1625.83)" fill="white"/>
<rect x="311.428" y="261.75" width="244.107" height="106.13" rx="10" transform="rotate(-46.0166 311.428 261.75)" fill="white"/>
<rect x="424.603" y="1713.76" width="270.925" height="128.114" rx="10" transform="rotate(10.3484 424.603 1713.76)" fill="white"/>
<rect x="424.603" y="349.677" width="270.925" height="128.114" rx="10" transform="rotate(10.3484 424.603 349.677)" fill="white"/>
<rect x="516.581" y="2607.28" width="270.925" height="128.114" rx="10" transform="rotate(10.3484 516.581 2607.28)" fill="white"/>
<rect x="516.581" y="1281.79" width="270.925" height="128.114" rx="10" transform="rotate(10.3484 516.581 1281.79)" fill="white"/>
<rect x="140.112" y="1908.4" width="133.151" height="95.7772" rx="10" transform="rotate(17.7783 140.112 1908.4)" fill="white"/>
<rect x="140.112" y="544.312" width="133.151" height="95.7772" rx="10" transform="rotate(17.7783 140.112 544.312)" fill="white"/>
<rect x="425.459" y="2514.48" width="358.883" height="57.4871" rx="28.7435" transform="rotate(3.33106 425.459 2514.48)" fill="white"/>
<rect x="425.459" y="1150.39" width="358.883" height="57.4871" rx="28.7435" transform="rotate(3.33106 425.459 1150.39)" fill="white"/>
<rect x="1066.8" y="2176.12" width="412.264" height="57.487" rx="28.7435" transform="rotate(9.87344 1066.8 2176.12)" fill="white"/>
<rect x="1066.8" y="812.037" width="412.264" height="57.487" rx="28.7435" transform="rotate(9.87344 1066.8 812.037)" fill="white"/>
<rect x="1045.64" y="2291.92" width="278.621" height="57.487" rx="28.7435" transform="rotate(2.6499 1045.64 2291.92)" fill="white"/>
<rect x="1045.64" y="927.833" width="278.621" height="57.487" rx="28.7435" transform="rotate(2.6499 1045.64 927.833)" fill="white"/>
<rect x="1209.46" y="1937.96" width="230.827" height="57.487" rx="28.7435" transform="rotate(8.80929 1209.46 1937.96)" fill="white"/>
<rect x="1209.46" y="573.876" width="230.827" height="57.487" rx="28.7435" transform="rotate(8.80929 1209.46 573.876)" fill="white"/>
<rect x="1108.03" y="2483.27" width="284.892" height="57.487" rx="28.7435" transform="rotate(60.9851 1108.03 2483.27)" fill="white"/>
<rect x="1134.31" y="1161.89" width="284.892" height="57.487" rx="28.7435" transform="rotate(60.9851 1134.31 1161.89)" fill="white"/>
<rect x="624.686" y="1907.58" width="209.592" height="57.487" rx="28.7435" transform="rotate(84.3419 624.686 1907.58)" fill="white"/>
<rect x="624.686" y="543.49" width="209.592" height="57.487" rx="28.7435" transform="rotate(84.3419 624.686 543.49)" fill="white"/>
<rect x="877.329" y="1974.1" width="209.592" height="57.487" rx="28.7435" transform="rotate(15.9984 877.329 1974.1)" fill="white"/>
<rect x="877.329" y="610.011" width="209.592" height="57.487" rx="28.7435" transform="rotate(15.9984 877.329 610.011)" fill="white"/>
<rect x="638.106" y="2150.6" width="209.592" height="57.487" rx="28.7435" transform="rotate(-38.8006 638.106 2150.6)" fill="white"/>
<rect x="638.106" y="786.513" width="209.592" height="57.487" rx="28.7435" transform="rotate(-38.8006 638.106 786.513)" fill="white"/>
<rect x="854.914" y="1733.75" width="156.757" height="57.487" rx="28.7435" transform="rotate(-22.2614 854.914 1733.75)" fill="white"/>
<rect x="854.914" y="369.661" width="156.757" height="57.487" rx="28.7435" transform="rotate(-22.2614 854.914 369.661)" fill="white"/>
<rect x="472.886" y="1636.57" width="142.06" height="57.487" rx="28.7435" transform="rotate(8.06085 472.886 1636.57)" fill="white"/>
<rect x="472.886" y="272.48" width="142.06" height="57.487" rx="28.7435" transform="rotate(8.06085 472.886 272.48)" fill="white"/>
<rect x="892.691" y="1651.27" width="200.958" height="57.487" rx="28.7435" transform="rotate(-63.1266 892.691 1651.27)" fill="white"/>
<rect x="892.691" y="287.181" width="200.958" height="57.487" rx="28.7435" transform="rotate(-63.1266 892.691 287.181)" fill="white"/>
<rect x="32.8496" y="1862.92" width="298.728" height="57.487" rx="28.7435" transform="rotate(-15.242 32.8496 1862.92)" fill="white"/>
<rect x="32.8496" y="498.838" width="298.728" height="57.487" rx="28.7435" transform="rotate(-15.242 32.8496 498.838)" fill="white"/>
<rect x="22.5166" y="2014.34" width="412.264" height="57.487" rx="28.7435" transform="rotate(23.0585 22.5166 2014.34)" fill="white"/>
<rect x="22.5166" y="650.252" width="412.264" height="57.487" rx="28.7435" transform="rotate(23.0585 22.5166 650.252)" fill="white"/>
<rect x="22.5166" y="1570.04" width="412.264" height="57.487" rx="28.7435" transform="rotate(23.0585 22.5166 1570.04)" fill="white"/>
<rect x="22.5166" y="205.959" width="412.264" height="57.487" rx="28.7435" transform="rotate(23.0585 22.5166 205.959)" fill="white"/>
<circle cx="656" cy="2353" r="124" fill="white"/>
<ellipse cx="656" cy="988.5" rx="124" ry="124.5" fill="white"/>
<circle cx="753" cy="1628" r="124" fill="white"/>
<ellipse cx="753" cy="263.5" rx="124" ry="123.5" fill="white"/>
<circle cx="229" cy="1488" r="124" fill="white"/>
<circle cx="229" cy="124" r="124" fill="white"/>
<ellipse cx="417" cy="1994.5" rx="115" ry="114.5" fill="white"/>
<circle cx="417" cy="630" r="115" fill="white"/>
<circle cx="949" cy="2648" r="124" fill="white"/>
<circle cx="949" cy="1317" r="124" fill="white"/>
<ellipse cx="1058" cy="1875.5" rx="124" ry="123.5" fill="white"/>
<circle cx="1058" cy="511" r="124" fill="white"/>
<ellipse cx="1333.5" cy="1794" rx="123.5" ry="124" fill="white"/>
<ellipse cx="1333.5" cy="430" rx="123.5" ry="124" fill="white"/>
<circle cx="904" cy="2214" r="124" fill="white"/>
<circle cx="904" cy="850" r="124" fill="white"/>
<circle cx="124" cy="2310" r="124" fill="white"/>
<circle cx="124" cy="946" r="124" fill="white"/>
</svg>
