<svg width="310" height="289" viewBox="0 0 310 289" fill="none" xmlns="http://www.w3.org/2000/svg">
<path d="M244.33 43.7182C195.578 7.55663 179.858 41.9022 137.673 56.186C104.029 67.569 55.6275 52.9393 27.7058 79.6281C3.37385 102.874 9.72547 152.792 27.5068 177.555C49.1803 207.719 88.5795 211.358 123.251 196.854C149.668 185.786 167.426 142.376 196.844 143.705C230.695 145.277 232.255 187.091 267.611 184.772C359.622 178.726 278.189 68.819 244.33 43.7182Z" fill="#C1D42F"/>
<path opacity="0.9" d="M244.33 43.7182C195.578 7.55663 179.858 41.9022 137.673 56.186C104.029 67.569 55.6275 52.9393 27.7058 79.6281C3.37385 102.874 9.72547 152.792 27.5068 177.555C49.1803 207.719 88.5795 211.358 123.251 196.854C149.668 185.786 167.426 142.376 196.844 143.705C230.695 145.277 232.255 187.091 267.611 184.772C359.622 178.726 278.189 68.819 244.33 43.7182Z" fill="white"/>
<path d="M154.325 288.713C239.557 288.713 308.651 284.729 308.651 279.814C308.651 274.899 239.557 270.915 154.325 270.915C69.0938 270.915 0 274.899 0 279.814C0 284.729 69.0938 288.713 154.325 288.713Z" fill="#F5F5F5"/>
<path d="M148.85 159.136H100.226C99.5403 159.136 98.9844 159.685 98.9844 160.362V180.392C98.9844 181.07 99.5403 181.619 100.226 181.619H148.85C149.536 181.619 150.092 181.07 150.092 180.392V160.362C150.092 159.685 149.536 159.136 148.85 159.136Z" fill="#C1D42F"/>
<path opacity="0.6" d="M148.85 159.136H100.226C99.5403 159.136 98.9844 159.685 98.9844 160.362V180.392C98.9844 181.07 99.5403 181.619 100.226 181.619H148.85C149.536 181.619 150.092 181.07 150.092 180.392V160.362C150.092 159.685 149.536 159.136 148.85 159.136Z" fill="white"/>
<path opacity="0.1" d="M148.843 159.136H100.203C99.8733 159.136 99.5575 159.265 99.3246 159.495C99.0918 159.725 98.9609 160.037 98.9609 160.362V166.785L124.272 171.706C124.427 171.737 124.587 171.737 124.742 171.706L150.06 166.785V160.362C150.06 160.041 149.933 159.732 149.705 159.503C149.478 159.274 149.168 159.142 148.843 159.136V159.136Z" fill="black"/>
<path d="M149.908 150.913H135.056V148.452C135.054 147.436 134.644 146.461 133.916 145.742C133.188 145.023 132.201 144.618 131.172 144.616H117.904C116.874 144.618 115.887 145.023 115.159 145.742C114.431 146.461 114.021 147.436 114.019 148.452V150.913H99.175C98.8499 150.913 98.5381 151.041 98.3082 151.268C98.0784 151.495 97.9492 151.803 97.9492 152.124V164.238C97.9508 164.517 98.0498 164.788 98.2295 165.004C98.4092 165.22 98.6587 165.369 98.9362 165.425L124.303 170.354C124.459 170.377 124.617 170.377 124.773 170.354L150.139 165.425C150.417 165.369 150.668 165.221 150.849 165.005C151.03 164.789 151.131 164.518 151.134 164.238V152.124C151.134 151.803 151.005 151.495 150.775 151.268C150.545 151.041 150.233 150.913 149.908 150.913V150.913ZM116.972 148.452C116.974 148.208 117.073 147.975 117.247 147.802C117.421 147.628 117.656 147.529 117.904 147.525H131.172C131.419 147.529 131.655 147.628 131.829 147.802C132.003 147.975 132.101 148.208 132.103 148.452V150.913H116.98L116.972 148.452Z" fill="#C1D42F"/>
<path opacity="0.6" d="M149.908 150.913H135.056V148.452C135.054 147.436 134.644 146.461 133.916 145.742C133.188 145.023 132.201 144.618 131.172 144.616H117.904C116.874 144.618 115.887 145.023 115.159 145.742C114.431 146.461 114.021 147.436 114.019 148.452V150.913H99.175C98.8499 150.913 98.5381 151.041 98.3082 151.268C98.0784 151.495 97.9492 151.803 97.9492 152.124V164.238C97.9508 164.517 98.0498 164.788 98.2295 165.004C98.4092 165.22 98.6587 165.369 98.9362 165.425L124.303 170.354C124.459 170.377 124.617 170.377 124.773 170.354L150.139 165.425C150.417 165.369 150.668 165.221 150.849 165.005C151.03 164.789 151.131 164.518 151.134 164.238V152.124C151.134 151.803 151.005 151.495 150.775 151.268C150.545 151.041 150.233 150.913 149.908 150.913V150.913ZM116.972 148.452C116.974 148.208 117.073 147.975 117.247 147.802C117.421 147.628 117.656 147.529 117.904 147.525H131.172C131.419 147.529 131.655 147.628 131.829 147.802C132.003 147.975 132.101 148.208 132.103 148.452V150.913H116.98L116.972 148.452Z" fill="white"/>
<path d="M127.161 167.045H121.924C121.274 167.045 120.746 167.566 120.746 168.208V171.479C120.746 172.121 121.274 172.642 121.924 172.642H127.161C127.812 172.642 128.339 172.121 128.339 171.479V168.208C128.339 167.566 127.812 167.045 127.161 167.045Z" fill="#C1D42F"/>
<path opacity="0.3" d="M127.161 167.045H121.924C121.274 167.045 120.746 167.566 120.746 168.208V171.479C120.746 172.121 121.274 172.642 121.924 172.642H127.161C127.812 172.642 128.339 172.121 128.339 171.479V168.208C128.339 167.566 127.812 167.045 127.161 167.045Z" fill="white"/>
<path d="M148.85 14.5215H100.226C99.5403 14.5215 98.9844 15.0705 98.9844 15.7478V35.7782C98.9844 36.4555 99.5403 37.0045 100.226 37.0045H148.85C149.536 37.0045 150.092 36.4555 150.092 35.7782V15.7478C150.092 15.0705 149.536 14.5215 148.85 14.5215Z" fill="#C1D42F"/>
<path opacity="0.6" d="M148.85 14.5215H100.226C99.5403 14.5215 98.9844 15.0705 98.9844 15.7478V35.7782C98.9844 36.4555 99.5403 37.0045 100.226 37.0045H148.85C149.536 37.0045 150.092 36.4555 150.092 35.7782V15.7478C150.092 15.0705 149.536 14.5215 148.85 14.5215Z" fill="white"/>
<path opacity="0.1" d="M148.843 14.5215H100.203C99.8733 14.5215 99.5575 14.6507 99.3246 14.8807C99.0918 15.1107 98.9609 15.4226 98.9609 15.7478V22.1704L124.272 27.0915C124.427 27.1229 124.587 27.1229 124.742 27.0915L150.06 22.1704V15.7478C150.06 15.4266 149.933 15.1182 149.705 14.8889C149.478 14.6596 149.168 14.5277 148.843 14.5215V14.5215Z" fill="black"/>
<path d="M149.908 6.29877H135.056V3.83822C135.054 2.82141 134.644 1.84685 133.916 1.12786C133.188 0.408875 132.201 0.00403036 131.172 0.00195312H117.904C116.874 0.00403036 115.887 0.408875 115.159 1.12786C114.431 1.84685 114.021 2.82141 114.019 3.83822V6.29877H99.175C98.8499 6.29877 98.5381 6.42632 98.3082 6.65335C98.0784 6.88039 97.9492 7.18832 97.9492 7.50939V19.6235C97.9493 19.9036 98.0477 20.175 98.2277 20.3914C98.4077 20.6079 98.658 20.756 98.9362 20.8105L124.303 25.7081C124.458 25.7394 124.618 25.7394 124.772 25.7081L150.139 20.7791C150.414 20.7275 150.664 20.585 150.846 20.375C151.028 20.165 151.133 19.8999 151.142 19.6235V7.50939C151.142 7.34975 151.11 7.19168 151.048 7.04428C150.986 6.89689 150.895 6.76308 150.78 6.65056C150.666 6.53804 150.53 6.44903 150.38 6.38865C150.23 6.32828 150.07 6.29773 149.908 6.29877V6.29877ZM116.972 3.83822C116.972 3.59355 117.07 3.35879 117.245 3.18505C117.419 3.01131 117.656 2.91267 117.904 2.9106H131.172C131.418 2.91265 131.654 3.01021 131.828 3.18226C132.002 3.3543 132.101 3.58705 132.103 3.83035V6.29091H116.98L116.972 3.83822Z" fill="#C1D42F"/>
<path opacity="0.6" d="M149.908 6.29877H135.056V3.83822C135.054 2.82141 134.644 1.84685 133.916 1.12786C133.188 0.408875 132.201 0.00403036 131.172 0.00195312H117.904C116.874 0.00403036 115.887 0.408875 115.159 1.12786C114.431 1.84685 114.021 2.82141 114.019 3.83822V6.29877H99.175C98.8499 6.29877 98.5381 6.42632 98.3082 6.65335C98.0784 6.88039 97.9492 7.18832 97.9492 7.50939V19.6235C97.9493 19.9036 98.0477 20.175 98.2277 20.3914C98.4077 20.6079 98.658 20.756 98.9362 20.8105L124.303 25.7081C124.458 25.7394 124.618 25.7394 124.772 25.7081L150.139 20.7791C150.414 20.7275 150.664 20.585 150.846 20.375C151.028 20.165 151.133 19.8999 151.142 19.6235V7.50939C151.142 7.34975 151.11 7.19168 151.048 7.04428C150.986 6.89689 150.895 6.76308 150.78 6.65056C150.666 6.53804 150.53 6.44903 150.38 6.38865C150.23 6.32828 150.07 6.29773 149.908 6.29877V6.29877ZM116.972 3.83822C116.972 3.59355 117.07 3.35879 117.245 3.18505C117.419 3.01131 117.656 2.91267 117.904 2.9106H131.172C131.418 2.91265 131.654 3.01021 131.828 3.18226C132.002 3.3543 132.101 3.58705 132.103 3.83035V6.29091H116.98L116.972 3.83822Z" fill="white"/>
<path d="M127.161 22.4375H121.924C121.274 22.4375 120.746 22.9584 120.746 23.601V26.8712C120.746 27.5138 121.274 28.0347 121.924 28.0347H127.161C127.812 28.0347 128.339 27.5138 128.339 26.8712V23.601C128.339 22.9584 127.812 22.4375 127.161 22.4375Z" fill="#C1D42F"/>
<path opacity="0.3" d="M127.161 22.4375H121.924C121.274 22.4375 120.746 22.9584 120.746 23.601V26.8712C120.746 27.5138 121.274 28.0347 121.924 28.0347H127.161C127.812 28.0347 128.339 27.5138 128.339 26.8712V23.601C128.339 22.9584 127.812 22.4375 127.161 22.4375Z" fill="white"/>
<path d="M73.1079 159.136H24.4839C23.7981 159.136 23.2422 159.685 23.2422 160.362V180.392C23.2422 181.07 23.7981 181.619 24.4839 181.619H73.1079C73.7937 181.619 74.3496 181.07 74.3496 180.392V160.362C74.3496 159.685 73.7937 159.136 73.1079 159.136Z" fill="#C1D42F"/>
<path opacity="0.6" d="M73.1079 159.136H24.4839C23.7981 159.136 23.2422 159.685 23.2422 160.362V180.392C23.2422 181.07 23.7981 181.619 24.4839 181.619H73.1079C73.7937 181.619 74.3496 181.07 74.3496 180.392V160.362C74.3496 159.685 73.7937 159.136 73.1079 159.136Z" fill="white"/>
<path opacity="0.1" d="M73.1398 159.136H24.4839C24.1545 159.136 23.8387 159.265 23.6059 159.495C23.373 159.725 23.2422 160.037 23.2422 160.362V166.785L48.5531 171.706C48.7107 171.737 48.8731 171.737 49.0307 171.706L74.3496 166.785V160.362C74.3497 160.042 74.2233 159.735 73.9973 159.506C73.7712 159.277 73.4635 159.144 73.1398 159.136Z" fill="black"/>
<path d="M74.1583 150.913H59.306V148.452C59.3039 147.436 58.894 146.461 58.1661 145.742C57.4381 145.023 56.4514 144.618 55.4219 144.616H42.1615C41.1319 144.618 40.1452 145.023 39.4172 145.742C38.6893 146.461 38.2794 147.436 38.2773 148.452V150.913H23.425C23.0999 150.913 22.7881 151.041 22.5582 151.268C22.3284 151.495 22.1992 151.803 22.1992 152.124V164.238C22.2008 164.517 22.2998 164.788 22.4795 165.004C22.6592 165.22 22.9087 165.369 23.1862 165.425L48.5529 170.354C48.7112 170.378 48.8722 170.378 49.0304 170.354L74.3971 165.425C74.6746 165.369 74.9241 165.22 75.1038 165.004C75.2835 164.788 75.3825 164.517 75.3841 164.238V152.124C75.3841 151.803 75.2549 151.495 75.0251 151.268C74.7952 151.041 74.4834 150.913 74.1583 150.913V150.913ZM41.2222 148.452C41.2263 148.208 41.3266 147.974 41.5019 147.801C41.6771 147.628 41.9136 147.529 42.1615 147.525H55.4219C55.6697 147.529 55.9062 147.628 56.0814 147.801C56.2567 147.974 56.357 148.208 56.3611 148.452V150.913H41.2382L41.2222 148.452Z" fill="#C1D42F"/>
<path opacity="0.6" d="M74.1583 150.913H59.306V148.452C59.3039 147.436 58.894 146.461 58.1661 145.742C57.4381 145.023 56.4514 144.618 55.4219 144.616H42.1615C41.1319 144.618 40.1452 145.023 39.4172 145.742C38.6893 146.461 38.2794 147.436 38.2773 148.452V150.913H23.425C23.0999 150.913 22.7881 151.041 22.5582 151.268C22.3284 151.495 22.1992 151.803 22.1992 152.124V164.238C22.2008 164.517 22.2998 164.788 22.4795 165.004C22.6592 165.22 22.9087 165.369 23.1862 165.425L48.5529 170.354C48.7112 170.378 48.8722 170.378 49.0304 170.354L74.3971 165.425C74.6746 165.369 74.9241 165.22 75.1038 165.004C75.2835 164.788 75.3825 164.517 75.3841 164.238V152.124C75.3841 151.803 75.2549 151.495 75.0251 151.268C74.7952 151.041 74.4834 150.913 74.1583 150.913V150.913ZM41.2222 148.452C41.2263 148.208 41.3266 147.974 41.5019 147.801C41.6771 147.628 41.9136 147.529 42.1615 147.525H55.4219C55.6697 147.529 55.9062 147.628 56.0814 147.801C56.2567 147.974 56.357 148.208 56.3611 148.452V150.913H41.2382L41.2222 148.452Z" fill="white"/>
<path d="M51.4114 167.045H46.1741C45.5235 167.045 44.9961 167.566 44.9961 168.208V171.479C44.9961 172.121 45.5235 172.642 46.1741 172.642H51.4114C52.0619 172.642 52.5894 172.121 52.5894 171.479V168.208C52.5894 167.566 52.0619 167.045 51.4114 167.045Z" fill="#C1D42F"/>
<path opacity="0.3" d="M51.4114 167.045H46.1741C45.5235 167.045 44.9961 167.566 44.9961 168.208V171.479C44.9961 172.121 45.5235 172.642 46.1741 172.642H51.4114C52.0619 172.642 52.5894 172.121 52.5894 171.479V168.208C52.5894 167.566 52.0619 167.045 51.4114 167.045Z" fill="white"/>
<path d="M73.1079 14.5215H24.4839C23.7981 14.5215 23.2422 15.0705 23.2422 15.7478V35.7782C23.2422 36.4555 23.7981 37.0045 24.4839 37.0045H73.1079C73.7937 37.0045 74.3496 36.4555 74.3496 35.7782V15.7478C74.3496 15.0705 73.7937 14.5215 73.1079 14.5215Z" fill="#C1D42F"/>
<path opacity="0.6" d="M73.1079 14.5215H24.4839C23.7981 14.5215 23.2422 15.0705 23.2422 15.7478V35.7782C23.2422 36.4555 23.7981 37.0045 24.4839 37.0045H73.1079C73.7937 37.0045 74.3496 36.4555 74.3496 35.7782V15.7478C74.3496 15.0705 73.7937 14.5215 73.1079 14.5215Z" fill="white"/>
<path opacity="0.1" d="M73.1398 14.5215H24.4839C24.1545 14.5215 23.8387 14.6507 23.6059 14.8807C23.373 15.1107 23.2422 15.4226 23.2422 15.7478V22.1704L48.5531 27.0915C48.7107 27.1231 48.8731 27.1231 49.0307 27.0915L74.3496 22.1704V15.7478C74.3497 15.428 74.2233 15.1207 73.9973 14.8916C73.7712 14.6625 73.4635 14.5297 73.1398 14.5215V14.5215Z" fill="black"/>
<path d="M74.1583 6.29877H59.306V3.83822C59.3039 2.82141 58.894 1.84685 58.166 1.12786C57.4381 0.408875 56.4513 0.00403036 55.4218 0.00195312H42.1614C41.1319 0.00403036 40.1452 0.408875 39.4172 1.12786C38.6892 1.84685 38.2793 2.82141 38.2772 3.83822V6.29877H23.425C23.0999 6.29877 22.7881 6.42632 22.5582 6.65335C22.3284 6.88039 22.1992 7.18831 22.1992 7.50939V19.6235C22.1993 19.9036 22.2977 20.175 22.4777 20.3914C22.6577 20.6078 22.908 20.756 23.1862 20.8105L48.5528 25.7081C48.7104 25.7396 48.8728 25.7396 49.0304 25.7081L74.3971 20.7791C74.6752 20.7245 74.9256 20.5764 75.1056 20.36C75.2855 20.1435 75.3839 19.8721 75.384 19.592V7.50939C75.384 7.18831 75.2549 6.88039 75.025 6.65335C74.7951 6.42632 74.4834 6.29877 74.1583 6.29877V6.29877ZM41.2222 3.83822C41.2243 3.59283 41.3239 3.35808 41.4996 3.18456C41.6753 3.01104 41.913 2.91265 42.1614 2.9106H55.4218C55.6689 2.91261 55.9054 3.00992 56.0809 3.18175C56.2564 3.35359 56.3569 3.58634 56.361 3.83035V6.29091H41.2381L41.2222 3.83822Z" fill="#C1D42F"/>
<path opacity="0.6" d="M74.1583 6.29877H59.306V3.83822C59.3039 2.82141 58.894 1.84685 58.166 1.12786C57.4381 0.408875 56.4513 0.00403036 55.4218 0.00195312H42.1614C41.1319 0.00403036 40.1452 0.408875 39.4172 1.12786C38.6892 1.84685 38.2793 2.82141 38.2772 3.83822V6.29877H23.425C23.0999 6.29877 22.7881 6.42632 22.5582 6.65335C22.3284 6.88039 22.1992 7.18831 22.1992 7.50939V19.6235C22.1993 19.9036 22.2977 20.175 22.4777 20.3914C22.6577 20.6078 22.908 20.756 23.1862 20.8105L48.5528 25.7081C48.7104 25.7396 48.8728 25.7396 49.0304 25.7081L74.3971 20.7791C74.6752 20.7245 74.9256 20.5764 75.1056 20.36C75.2855 20.1435 75.3839 19.8721 75.384 19.592V7.50939C75.384 7.18831 75.2549 6.88039 75.025 6.65335C74.7951 6.42632 74.4834 6.29877 74.1583 6.29877V6.29877ZM41.2222 3.83822C41.2243 3.59283 41.3239 3.35808 41.4996 3.18456C41.6753 3.01104 41.913 2.91265 42.1614 2.9106H55.4218C55.6689 2.91261 55.9054 3.00992 56.0809 3.18175C56.2564 3.35359 56.3569 3.58634 56.361 3.83035V6.29091H41.2381L41.2222 3.83822Z" fill="white"/>
<path d="M51.4114 22.4375H46.1741C45.5235 22.4375 44.9961 22.9584 44.9961 23.601V26.8712C44.9961 27.5138 45.5235 28.0347 46.1741 28.0347H51.4114C52.0619 28.0347 52.5894 27.5138 52.5894 26.8712V23.601C52.5894 22.9584 52.0619 22.4375 51.4114 22.4375Z" fill="#C1D42F"/>
<path opacity="0.3" d="M51.4114 22.4375H46.1741C45.5235 22.4375 44.9961 22.9584 44.9961 23.601V26.8712C44.9961 27.5138 45.5235 28.0347 46.1741 28.0347H51.4114C52.0619 28.0347 52.5894 27.5138 52.5894 26.8712V23.601C52.5894 22.9584 52.0619 22.4375 51.4114 22.4375Z" fill="white"/>
<path d="M66.7725 109.312H24.484C24.1526 109.312 23.8347 109.182 23.6004 108.951C23.366 108.719 23.2344 108.405 23.2344 108.078V88.0554C23.2356 87.8903 23.2708 87.7272 23.3378 87.5759C23.3702 87.5053 23.4074 87.4371 23.4493 87.3715C23.4936 87.3043 23.5472 87.2434 23.6085 87.1907C23.8403 86.9604 24.1552 86.8304 24.484 86.8291H64.512C64.179 89.5727 64.0699 92.3382 64.1856 95.0991C64.1856 95.5472 64.1856 95.9953 64.2573 96.4355C64.313 97.2609 64.3767 98.0942 64.4722 98.9196C64.8819 102.452 65.6526 105.934 66.7725 109.312V109.312Z" fill="#C1D42F"/>
<path opacity="0.6" d="M66.7725 109.312H24.484C24.1526 109.312 23.8347 109.182 23.6004 108.951C23.366 108.719 23.2344 108.405 23.2344 108.078V88.0554C23.2356 87.8903 23.2708 87.7272 23.3378 87.5759C23.3702 87.5053 23.4074 87.4371 23.4493 87.3715C23.4936 87.3043 23.5472 87.2434 23.6085 87.1907C23.8403 86.9604 24.1552 86.8304 24.484 86.8291H64.512C64.179 89.5727 64.0699 92.3382 64.1856 95.0991C64.1856 95.5472 64.1856 95.9953 64.2573 96.4355C64.313 97.2609 64.3767 98.0942 64.4722 98.9196C64.8819 102.452 65.6526 105.934 66.7725 109.312V109.312Z" fill="white"/>
<path opacity="0.1" d="M64.5118 86.8291C64.1788 89.5727 64.0697 92.3383 64.1855 95.0991C64.1855 95.5472 64.1855 95.9953 64.2571 96.4355L52.5886 98.6995L49.0228 99.3913C48.8688 99.4306 48.7072 99.4306 48.5532 99.3913L44.9953 98.7074L23.2422 94.4781V88.0476C23.2447 87.8859 23.2771 87.7261 23.3377 87.5759C23.3701 87.5053 23.4073 87.4371 23.4491 87.3715C23.4934 87.3043 23.547 87.2434 23.6083 87.1907C23.8402 86.9604 24.1551 86.8304 24.4839 86.8291H64.5118Z" fill="black"/>
<path d="M66.175 78.6064H59.314V76.1458C59.3098 75.1283 58.8982 74.1538 58.1689 73.435C57.4397 72.7162 56.4521 72.3116 55.4219 72.3096H42.1615C41.1313 72.3096 40.1433 72.7137 39.4149 73.4332C38.6865 74.1526 38.2773 75.1284 38.2773 76.1458V78.6064H23.425C23.264 78.6064 23.1046 78.6377 22.9559 78.6986C22.8072 78.7594 22.6721 78.8486 22.5582 78.961C22.4444 79.0734 22.3541 79.2069 22.2925 79.3537C22.2309 79.5006 22.1992 79.658 22.1992 79.817V91.9233C22.1993 92.2054 22.2986 92.4788 22.4801 92.6967C22.6615 92.9146 22.9139 93.0636 23.1941 93.1182H23.2419L44.995 97.3554L48.5529 98.0393C48.7078 98.0706 48.8676 98.0706 49.0225 98.0393L52.5883 97.3475L64.1852 95.0913C64.0694 92.3305 64.1785 89.5649 64.5115 86.8214C64.8421 84.0434 65.3984 81.2962 66.175 78.6064V78.6064ZM41.2222 76.1458C41.2264 75.9018 41.3269 75.6691 41.5024 75.4972C41.6779 75.3254 41.9144 75.2281 42.1615 75.2261H55.4219C55.6682 75.2281 55.9039 75.3257 56.0781 75.4977C56.2523 75.6698 56.351 75.9025 56.3531 76.1458V78.6064H41.2302L41.2222 76.1458Z" fill="#C1D42F"/>
<path opacity="0.6" d="M66.175 78.6064H59.314V76.1458C59.3098 75.1283 58.8982 74.1538 58.1689 73.435C57.4397 72.7162 56.4521 72.3116 55.4219 72.3096H42.1615C41.1313 72.3096 40.1433 72.7137 39.4149 73.4332C38.6865 74.1526 38.2773 75.1284 38.2773 76.1458V78.6064H23.425C23.264 78.6064 23.1046 78.6377 22.9559 78.6986C22.8072 78.7594 22.6721 78.8486 22.5582 78.961C22.4444 79.0734 22.3541 79.2069 22.2925 79.3537C22.2309 79.5006 22.1992 79.658 22.1992 79.817V91.9233C22.1993 92.2054 22.2986 92.4788 22.4801 92.6967C22.6615 92.9146 22.9139 93.0636 23.1941 93.1182H23.2419L44.995 97.3554L48.5529 98.0393C48.7078 98.0706 48.8676 98.0706 49.0225 98.0393L52.5883 97.3475L64.1852 95.0913C64.0694 92.3305 64.1785 89.5649 64.5115 86.8214C64.8421 84.0434 65.3984 81.2962 66.175 78.6064V78.6064ZM41.2222 76.1458C41.2264 75.9018 41.3269 75.6691 41.5024 75.4972C41.6779 75.3254 41.9144 75.2281 42.1615 75.2261H55.4219C55.6682 75.2281 55.9039 75.3257 56.0781 75.4977C56.2523 75.6698 56.351 75.9025 56.3531 76.1458V78.6064H41.2302L41.2222 76.1458Z" fill="white"/>
<path d="M51.4114 94.7373H46.1741C45.5235 94.7373 44.9961 95.2582 44.9961 95.9008V99.171C44.9961 99.8136 45.5235 100.335 46.1741 100.335H51.4114C52.0619 100.335 52.5894 99.8136 52.5894 99.171V95.9008C52.5894 95.2582 52.0619 94.7373 51.4114 94.7373Z" fill="#C1D42F"/>
<path opacity="0.3" d="M51.4114 94.7373H46.1741C45.5235 94.7373 44.9961 95.2582 44.9961 95.9008V99.171C44.9961 99.8136 45.5235 100.335 46.1741 100.335H51.4114C52.0619 100.335 52.5894 99.8136 52.5894 99.171V95.9008C52.5894 95.2582 52.0619 94.7373 51.4114 94.7373Z" fill="white"/>
<path d="M175.966 181.611H224.59C225.276 181.611 225.832 181.062 225.832 180.385V160.355C225.832 159.677 225.276 159.128 224.59 159.128H175.966C175.281 159.128 174.725 159.677 174.725 160.355V180.385C174.725 181.062 175.281 181.611 175.966 181.611Z" fill="#C1D42F"/>
<path opacity="0.6" d="M175.966 181.611H224.59C225.276 181.611 225.832 181.062 225.832 180.385V160.355C225.832 159.677 225.276 159.128 224.59 159.128H175.966C175.281 159.128 174.725 159.677 174.725 160.355V180.385C174.725 181.062 175.281 181.611 175.966 181.611Z" fill="white"/>
<path opacity="0.1" d="M175.977 159.136H224.593C224.922 159.136 225.238 159.265 225.471 159.495C225.704 159.725 225.834 160.037 225.834 160.362V166.785L200.492 171.706C200.337 171.738 200.177 171.738 200.022 171.706L174.703 166.785V160.362C174.703 160.199 174.736 160.037 174.801 159.886C174.865 159.735 174.959 159.598 175.078 159.484C175.197 159.37 175.337 159.28 175.492 159.22C175.646 159.161 175.811 159.132 175.977 159.136V159.136Z" fill="black"/>
<path d="M174.918 150.913H189.77V148.452C189.772 147.436 190.182 146.461 190.91 145.742C191.638 145.023 192.625 144.618 193.654 144.616H206.923C207.952 144.618 208.939 145.023 209.667 145.742C210.395 146.461 210.805 147.436 210.807 148.452V150.913H225.651C225.812 150.913 225.972 150.944 226.12 151.005C226.269 151.066 226.404 151.155 226.518 151.268C226.632 151.38 226.722 151.514 226.784 151.66C226.845 151.807 226.877 151.965 226.877 152.124V164.238C226.875 164.517 226.776 164.788 226.597 165.004C226.417 165.22 226.167 165.369 225.89 165.425L200.491 170.354C200.333 170.378 200.172 170.378 200.014 170.354L174.647 165.425C174.37 165.369 174.12 165.22 173.94 165.004C173.761 164.788 173.662 164.517 173.66 164.238V152.124C173.66 151.962 173.693 151.802 173.756 151.653C173.82 151.504 173.913 151.369 174.03 151.256C174.148 151.143 174.286 151.055 174.439 150.996C174.591 150.937 174.754 150.909 174.918 150.913V150.913ZM207.854 148.452C207.852 148.208 207.753 147.975 207.579 147.802C207.405 147.628 207.17 147.529 206.923 147.525H193.654C193.406 147.529 193.17 147.628 192.995 147.801C192.819 147.974 192.719 148.208 192.715 148.452V150.913H207.838L207.854 148.452Z" fill="#C1D42F"/>
<path opacity="0.6" d="M174.918 150.913H189.77V148.452C189.772 147.436 190.182 146.461 190.91 145.742C191.638 145.023 192.625 144.618 193.654 144.616H206.923C207.952 144.618 208.939 145.023 209.667 145.742C210.395 146.461 210.805 147.436 210.807 148.452V150.913H225.651C225.812 150.913 225.972 150.944 226.12 151.005C226.269 151.066 226.404 151.155 226.518 151.268C226.632 151.38 226.722 151.514 226.784 151.66C226.845 151.807 226.877 151.965 226.877 152.124V164.238C226.875 164.517 226.776 164.788 226.597 165.004C226.417 165.22 226.167 165.369 225.89 165.425L200.491 170.354C200.333 170.378 200.172 170.378 200.014 170.354L174.647 165.425C174.37 165.369 174.12 165.22 173.94 165.004C173.761 164.788 173.662 164.517 173.66 164.238V152.124C173.66 151.962 173.693 151.802 173.756 151.653C173.82 151.504 173.913 151.369 174.03 151.256C174.148 151.143 174.286 151.055 174.439 150.996C174.591 150.937 174.754 150.909 174.918 150.913V150.913ZM207.854 148.452C207.852 148.208 207.753 147.975 207.579 147.802C207.405 147.628 207.17 147.529 206.923 147.525H193.654C193.406 147.529 193.17 147.628 192.995 147.801C192.819 147.974 192.719 148.208 192.715 148.452V150.913H207.838L207.854 148.452Z" fill="white"/>
<path d="M197.667 172.642H202.904C203.555 172.642 204.082 172.121 204.082 171.478V168.208C204.082 167.565 203.555 167.044 202.904 167.044H197.667C197.016 167.044 196.489 167.565 196.489 168.208V171.478C196.489 172.121 197.016 172.642 197.667 172.642Z" fill="#C1D42F"/>
<path opacity="0.3" d="M197.667 172.642H202.904C203.555 172.642 204.082 172.121 204.082 171.478V168.208C204.082 167.565 203.555 167.044 202.904 167.044H197.667C197.016 167.044 196.489 167.565 196.489 168.208V171.478C196.489 172.121 197.016 172.642 197.667 172.642Z" fill="white"/>
<path d="M175.966 36.9971L224.59 36.9971C225.276 36.9971 225.832 36.448 225.832 35.7707V15.7404C225.832 15.0631 225.276 14.5141 224.59 14.5141L175.966 14.5141C175.281 14.5141 174.725 15.0631 174.725 15.7404V35.7707C174.725 36.448 175.281 36.9971 175.966 36.9971Z" fill="#C1D42F"/>
<path opacity="0.6" d="M175.966 36.9971L224.59 36.9971C225.276 36.9971 225.832 36.448 225.832 35.7707V15.7404C225.832 15.0631 225.276 14.5141 224.59 14.5141L175.966 14.5141C175.281 14.5141 174.725 15.0631 174.725 15.7404V35.7707C174.725 36.448 175.281 36.9971 175.966 36.9971Z" fill="white"/>
<path opacity="0.1" d="M175.976 14.5215H224.592C224.922 14.5215 225.237 14.6507 225.47 14.8807C225.703 15.1107 225.834 15.4226 225.834 15.7478V22.1704L200.491 27.0915C200.336 27.1229 200.176 27.1229 200.021 27.0915L174.734 22.1704V15.7478C174.734 15.4226 174.865 15.1107 175.098 14.8807C175.331 14.6507 175.647 14.5215 175.976 14.5215V14.5215Z" fill="black"/>
<path d="M174.918 6.29885H189.77V3.83829C189.772 2.82149 190.182 1.84693 190.91 1.12794C191.638 0.408948 192.625 0.00410276 193.654 0.00202552H206.923C207.435 -0.00108072 207.943 0.0957988 208.418 0.287101C208.892 0.478404 209.324 0.760363 209.687 1.1168C210.051 1.47324 210.34 1.89713 210.538 2.36416C210.735 2.83118 210.838 3.33215 210.839 3.83829V6.29885H225.683C226.008 6.29885 226.32 6.42639 226.55 6.65343C226.78 6.88047 226.909 7.18839 226.909 7.50947V19.6236C226.909 19.9037 226.81 20.175 226.63 20.3915C226.45 20.6079 226.2 20.7561 225.922 20.8106L200.491 25.7081C200.334 25.7397 200.171 25.7397 200.014 25.7081L174.647 20.7792C174.369 20.7246 174.119 20.5765 173.939 20.36C173.759 20.1436 173.66 19.8722 173.66 19.5921V7.50947C173.66 7.34781 173.693 7.18778 173.756 7.03881C173.82 6.88984 173.913 6.75496 174.03 6.64212C174.148 6.52928 174.286 6.44077 174.439 6.38182C174.591 6.32286 174.754 6.29465 174.918 6.29885ZM207.854 3.83829C207.854 3.59363 207.756 3.35887 207.582 3.18513C207.407 3.01139 207.17 2.91274 206.923 2.91067H193.654C193.407 2.91269 193.171 3.00999 192.995 3.18183C192.82 3.35366 192.719 3.58641 192.715 3.83043V6.29099H207.838L207.854 3.83829Z" fill="#C1D42F"/>
<path opacity="0.6" d="M174.918 6.29885H189.77V3.83829C189.772 2.82149 190.182 1.84693 190.91 1.12794C191.638 0.408948 192.625 0.00410276 193.654 0.00202552H206.923C207.435 -0.00108072 207.943 0.0957988 208.418 0.287101C208.892 0.478404 209.324 0.760363 209.687 1.1168C210.051 1.47324 210.34 1.89713 210.538 2.36416C210.735 2.83118 210.838 3.33215 210.839 3.83829V6.29885H225.683C226.008 6.29885 226.32 6.42639 226.55 6.65343C226.78 6.88047 226.909 7.18839 226.909 7.50947V19.6236C226.909 19.9037 226.81 20.175 226.63 20.3915C226.45 20.6079 226.2 20.7561 225.922 20.8106L200.491 25.7081C200.334 25.7397 200.171 25.7397 200.014 25.7081L174.647 20.7792C174.369 20.7246 174.119 20.5765 173.939 20.36C173.759 20.1436 173.66 19.8722 173.66 19.5921V7.50947C173.66 7.34781 173.693 7.18778 173.756 7.03881C173.82 6.88984 173.913 6.75496 174.03 6.64212C174.148 6.52928 174.286 6.44077 174.439 6.38182C174.591 6.32286 174.754 6.29465 174.918 6.29885ZM207.854 3.83829C207.854 3.59363 207.756 3.35887 207.582 3.18513C207.407 3.01139 207.17 2.91274 206.923 2.91067H193.654C193.407 2.91269 193.171 3.00999 192.995 3.18183C192.82 3.35366 192.719 3.58641 192.715 3.83043V6.29099H207.838L207.854 3.83829Z" fill="white"/>
<path d="M197.667 28.0273H202.904C203.555 28.0273 204.082 27.5064 204.082 26.8639V23.5936C204.082 22.9511 203.555 22.4302 202.904 22.4302H197.667C197.016 22.4302 196.489 22.9511 196.489 23.5936V26.8639C196.489 27.5064 197.016 28.0273 197.667 28.0273Z" fill="#C1D42F"/>
<path opacity="0.3" d="M197.667 28.0273H202.904C203.555 28.0273 204.082 27.5064 204.082 26.8639V23.5936C204.082 22.9511 203.555 22.4302 202.904 22.4302H197.667C197.016 22.4302 196.489 22.9511 196.489 23.5936V26.8639C196.489 27.5064 197.016 28.0273 197.667 28.0273Z" fill="white"/>
<path d="M182.336 109.312H224.6C224.931 109.31 225.246 109.179 225.479 108.948C225.712 108.717 225.842 108.404 225.842 108.078V88.0554C225.841 87.8903 225.806 87.7272 225.739 87.5759C225.71 87.5038 225.672 87.4353 225.627 87.3715C225.583 87.3043 225.529 87.2434 225.468 87.1907C225.354 87.076 225.217 86.9849 225.067 86.9228C224.917 86.8607 224.755 86.8289 224.593 86.8291H184.573C184.906 89.5727 185.015 92.3383 184.899 95.0991C184.899 95.5472 184.899 95.9953 184.827 96.4355C184.779 97.2609 184.708 98.0942 184.612 98.9196C184.21 102.451 183.448 105.933 182.336 109.312V109.312Z" fill="#C1D42F"/>
<path opacity="0.6" d="M182.336 109.312H224.6C224.931 109.31 225.246 109.179 225.479 108.948C225.712 108.717 225.842 108.404 225.842 108.078V88.0554C225.841 87.8903 225.806 87.7272 225.739 87.5759C225.71 87.5038 225.672 87.4353 225.627 87.3715C225.583 87.3043 225.529 87.2434 225.468 87.1907C225.354 87.076 225.217 86.9849 225.067 86.9228C224.917 86.8607 224.755 86.8289 224.593 86.8291H184.573C184.906 89.5727 185.015 92.3383 184.899 95.0991C184.899 95.5472 184.899 95.9953 184.827 96.4355C184.779 97.2609 184.708 98.0942 184.612 98.9196C184.21 102.451 183.448 105.933 182.336 109.312V109.312Z" fill="white"/>
<path opacity="0.1" d="M184.57 86.8291C184.903 89.5727 185.012 92.3383 184.897 95.0991C184.897 95.5472 184.897 95.9953 184.825 96.4355L196.509 98.6995L200.075 99.3913C200.229 99.4306 200.391 99.4306 200.545 99.3913L204.103 98.7074L225.856 94.4781V88.0476C225.853 87.8859 225.821 87.7261 225.76 87.5759C225.731 87.5038 225.694 87.4353 225.649 87.3715C225.605 87.3043 225.551 87.2434 225.49 87.1907C225.375 87.076 225.239 86.9849 225.089 86.9228C224.938 86.8607 224.777 86.8289 224.614 86.8291H184.57Z" fill="black"/>
<path d="M182.899 78.6064H189.768V76.1458C189.77 75.129 190.18 74.1545 190.908 73.4355C191.636 72.7165 192.623 72.3116 193.652 72.3096H206.913C207.943 72.3096 208.932 72.7135 209.662 73.4327C210.392 74.1519 210.803 75.1277 210.805 76.1458V78.6064H225.649C225.974 78.6064 226.286 78.7339 226.516 78.961C226.746 79.188 226.875 79.4959 226.875 79.817V91.9233C226.875 92.2043 226.777 92.4768 226.597 92.6945C226.417 92.9123 226.167 93.062 225.888 93.1182H225.832L204.079 97.3554L200.489 98.0314C200.334 98.0628 200.175 98.0628 200.02 98.0314L196.454 97.3396L184.857 95.0835C185.083 89.5113 184.411 83.939 182.867 78.5749L182.899 78.6064ZM207.852 76.1458C207.848 75.9018 207.747 75.6691 207.572 75.4972C207.396 75.3254 207.16 75.2281 206.913 75.2261H193.652C193.406 75.2281 193.17 75.3257 192.996 75.4977C192.822 75.6698 192.723 75.9025 192.721 76.1458V78.6064H207.844L207.852 76.1458Z" fill="#C1D42F"/>
<path opacity="0.6" d="M182.899 78.6064H189.768V76.1458C189.77 75.129 190.18 74.1545 190.908 73.4355C191.636 72.7165 192.623 72.3116 193.652 72.3096H206.913C207.943 72.3096 208.932 72.7135 209.662 73.4327C210.392 74.1519 210.803 75.1277 210.805 76.1458V78.6064H225.649C225.974 78.6064 226.286 78.7339 226.516 78.961C226.746 79.188 226.875 79.4959 226.875 79.817V91.9233C226.875 92.2043 226.777 92.4768 226.597 92.6945C226.417 92.9123 226.167 93.062 225.888 93.1182H225.832L204.079 97.3554L200.489 98.0314C200.334 98.0628 200.175 98.0628 200.02 98.0314L196.454 97.3396L184.857 95.0835C185.083 89.5113 184.411 83.939 182.867 78.5749L182.899 78.6064ZM207.852 76.1458C207.848 75.9018 207.747 75.6691 207.572 75.4972C207.396 75.3254 207.16 75.2281 206.913 75.2261H193.652C193.406 75.2281 193.17 75.3257 192.996 75.4977C192.822 75.6698 192.723 75.9025 192.721 76.1458V78.6064H207.844L207.852 76.1458Z" fill="white"/>
<path d="M197.667 100.343H202.904C203.555 100.343 204.082 99.8219 204.082 99.1793V95.9091C204.082 95.2665 203.555 94.7456 202.904 94.7456H197.667C197.016 94.7456 196.489 95.2665 196.489 95.9091V99.1793C196.489 99.8219 197.016 100.343 197.667 100.343Z" fill="#C1D42F"/>
<path opacity="0.3" d="M197.667 100.343H202.904C203.555 100.343 204.082 99.8219 204.082 99.1793V95.9091C204.082 95.2665 203.555 94.7456 202.904 94.7456H197.667C197.016 94.7456 196.489 95.2665 196.489 95.9091V99.1793C196.489 99.8219 197.016 100.343 197.667 100.343Z" fill="white"/>
<path d="M162.045 81.9473H92.1774C91.1928 81.9473 90.3945 82.7357 90.3945 83.7082V112.488C90.3945 113.461 91.1928 114.249 92.1774 114.249H162.045C163.03 114.249 163.828 113.461 163.828 112.488V83.7082C163.828 82.7357 163.03 81.9473 162.045 81.9473Z" fill="#C1D42F"/>
<path d="M136.64 76.8057H117.577C116.132 76.8036 114.746 76.2356 113.724 75.2262C112.702 74.2167 112.127 72.8483 112.125 71.4207V66.5861C112.127 65.1586 112.702 63.7901 113.724 62.7807C114.746 61.7713 116.132 61.2033 117.577 61.2012H136.64C138.086 61.2012 139.473 61.7685 140.495 62.7784C141.518 63.7882 142.092 65.1579 142.092 66.5861V71.3972C142.095 72.1063 141.957 72.8091 141.684 73.4651C141.411 74.1212 141.01 74.7176 140.504 75.2201C139.997 75.7227 139.395 76.1214 138.732 76.3935C138.069 76.6656 137.358 76.8057 136.64 76.8057V76.8057ZM117.577 65.1554C117.194 65.1594 116.827 65.3112 116.555 65.5784C116.283 65.8457 116.127 66.2072 116.121 66.5861V71.3972C116.121 71.7829 116.276 72.1528 116.552 72.4255C116.828 72.6983 117.203 72.8515 117.593 72.8515H136.656C137.046 72.8515 137.421 72.6983 137.697 72.4255C137.973 72.1528 138.128 71.7829 138.128 71.3972V66.5861C138.128 66.2004 137.973 65.8305 137.697 65.5577C137.421 65.285 137.046 65.1318 136.656 65.1318L117.577 65.1554Z" fill="#C1D42F"/>
<path opacity="0.2" d="M162.037 81.9473H92.1854C91.9506 81.9462 91.7179 81.991 91.5007 82.0791C91.2834 82.1671 91.086 82.2966 90.9196 82.4603C90.7532 82.6239 90.6211 82.8183 90.531 83.0325C90.4409 83.2467 90.3945 83.4763 90.3945 83.7082V92.9451L126.769 100.02C126.992 100.068 127.223 100.068 127.446 100.02L163.828 92.9451V83.7082C163.828 83.4763 163.782 83.2467 163.692 83.0325C163.602 82.8183 163.47 82.6239 163.303 82.4603C163.137 82.2966 162.939 82.1671 162.722 82.0791C162.505 81.991 162.272 81.9462 162.037 81.9473V81.9473Z" fill="black"/>
<path d="M163.877 90.9561L127.43 98.0312C127.204 98.0706 126.972 98.0706 126.746 98.0312L90.2997 90.9561C89.8993 90.878 89.5386 90.6655 89.2789 90.3545C89.0192 90.0435 88.8765 89.6533 88.875 89.2502V71.877C88.875 71.6488 88.9205 71.4229 89.0089 71.2121C89.0973 71.0013 89.2269 70.8098 89.3902 70.6485C89.5535 70.4872 89.7475 70.3592 89.9609 70.2719C90.1743 70.1846 90.403 70.1396 90.634 70.1396H163.558C163.789 70.1396 164.018 70.1846 164.231 70.2719C164.445 70.3592 164.639 70.4872 164.802 70.6485C164.965 70.8098 165.095 71.0013 165.183 71.2121C165.272 71.4229 165.317 71.6488 165.317 71.877V89.2817C165.309 89.682 165.162 90.0673 164.899 90.3724C164.636 90.6775 164.275 90.8837 163.877 90.9561Z" fill="#C1D42F"/>
<path d="M130.885 93.3223H123.348C122.416 93.3223 121.66 94.0684 121.66 94.9888V99.6977C121.66 100.618 122.416 101.364 123.348 101.364H130.885C131.817 101.364 132.573 100.618 132.573 99.6977V94.9888C132.573 94.0684 131.817 93.3223 130.885 93.3223Z" fill="#C1D42F"/>
<path opacity="0.4" d="M130.885 93.3223H123.348C122.416 93.3223 121.66 94.0684 121.66 94.9888V99.6977C121.66 100.618 122.416 101.364 123.348 101.364H130.885C131.817 101.364 132.573 100.618 132.573 99.6977V94.9888C132.573 94.0684 131.817 93.3223 130.885 93.3223Z" fill="black"/>
<path d="M258.516 99.7686C259.432 101.632 260.108 103.393 260.904 105.232C261.7 107.072 262.281 108.903 262.902 110.782C264.161 114.591 265.09 118.499 265.68 122.464C265.759 122.959 265.799 123.494 265.855 124.036L265.934 124.822C265.934 124.964 265.934 125.066 265.934 125.231V125.742C265.961 126.934 265.857 128.125 265.624 129.295C265.229 131.328 264.668 133.327 263.945 135.27C262.586 138.964 260.891 142.529 258.882 145.922L254.839 144.232C255.738 140.647 256.646 136.991 257.33 133.462C257.665 131.771 257.902 130.062 258.039 128.344C258.086 127.642 258.07 126.937 257.991 126.237L257.903 125.742L257.792 125.113C257.704 124.696 257.649 124.28 257.545 123.855C256.752 120.385 255.725 116.971 254.473 113.636C253.868 111.93 253.199 110.232 252.531 108.526C251.862 106.82 251.122 105.106 250.438 103.534L258.516 99.7686Z" fill="#7F3E3B"/>
<path d="M255.014 143.186L251.91 146.173L258.684 149.317C258.684 149.317 260.323 146.487 259.193 143.924L255.014 143.186Z" fill="#7F3E3B"/>
<path d="M249.41 150.63L255.125 152.941L258.683 149.286L251.909 146.173L249.41 150.63Z" fill="#7F3E3B"/>
<path opacity="0.2" d="M133.479 147.407C144.742 146.161 155.378 141.645 164.043 134.43C172.707 127.214 179.011 117.623 182.157 106.869C185.303 96.1158 185.15 84.6824 181.717 74.0147C178.284 63.347 171.726 53.9241 162.871 46.9373C154.017 39.9506 143.264 35.7137 131.971 34.7624C120.679 33.8111 109.354 36.1882 99.4298 41.5929C89.5051 46.9977 81.4259 55.1875 76.2135 65.127C71.0012 75.0664 68.8898 86.3091 70.1463 97.4336C70.9809 104.823 73.2814 111.977 76.9162 118.488C80.551 124.999 85.4491 130.738 91.3304 135.379C97.2118 140.02 103.961 143.471 111.193 145.535C118.425 147.598 125.998 148.235 133.479 147.407V147.407Z" fill="#C1D42F"/>
<path opacity="0.1" d="M91.7812 46.5718L178.937 115.326C179.311 114.54 179.661 113.754 180.004 112.968C182.188 107.835 183.583 102.408 184.142 96.8678V96.8678L108.862 37.5C102.684 39.5349 96.9065 42.6035 91.7812 46.5718V46.5718Z" fill="white"/>
<path opacity="0.1" d="M71.6758 76.7031L153.61 141.361C161.395 137.351 168.143 131.628 173.334 124.633L83.8537 54.0078C78.0871 60.5512 73.9205 68.3162 71.6758 76.7031V76.7031Z" fill="white"/>
<path d="M268.282 154.726C268.177 153.295 267.703 151.915 266.905 150.717C266.325 149.835 265.513 149.126 264.557 148.665L259.121 146.032C255.507 144.263 251.87 142.541 248.232 140.82C244.595 139.098 240.933 137.408 237.288 135.702C233.642 133.996 229.965 132.337 226.28 130.71C218.925 127.419 211.523 124.217 204.073 121.104C200.348 119.531 196.615 118.022 192.85 116.544C191.751 116.117 190.858 115.293 190.351 114.239C189.844 113.185 189.762 111.98 190.12 110.868C195.16 95.1761 194.012 78.1828 186.907 63.2904C179.803 48.3979 167.265 36.7054 151.804 30.5533C136.343 24.4013 119.1 24.2437 103.526 30.1122C87.9528 35.9806 75.1981 47.4421 67.8155 62.2021C60.4329 76.9621 58.9672 93.9316 63.7118 109.713C68.4563 125.495 79.0611 138.925 93.4032 147.314C107.745 155.703 124.766 158.432 141.059 154.955C157.351 151.479 171.713 142.053 181.269 128.564C181.946 127.605 182.966 126.936 184.123 126.693C185.28 126.449 186.488 126.648 187.502 127.251C190.983 129.295 194.479 131.305 197.992 133.281C205.012 137.232 212.086 141.084 219.212 144.837C222.77 146.739 226.376 148.571 229.917 150.434C233.459 152.297 237.081 154.113 240.687 155.937C244.292 157.761 247.85 159.545 251.503 161.306L256.924 163.963C257.876 164.436 258.941 164.643 260.004 164.56C261.451 164.459 262.846 163.991 264.055 163.2C265.498 162.326 266.66 161.066 267.408 159.566C268.156 158.066 268.459 156.389 268.282 154.726V154.726ZM104.023 137.337C94.7705 132.828 87.0795 125.71 81.9229 116.883C76.7664 108.056 74.3759 97.9174 75.0538 87.7488C75.7316 77.5802 79.4474 67.8386 85.7312 59.7558C92.015 51.6731 100.584 45.6123 110.356 42.34C120.127 39.0677 130.662 38.7308 140.627 41.372C150.593 44.0131 159.541 49.5137 166.341 57.1781C173.141 64.8425 177.487 74.3263 178.83 84.4303C180.172 94.5343 178.451 104.805 173.883 113.942C170.852 120.009 166.64 125.427 161.488 129.886C156.337 134.345 150.346 137.758 143.859 139.931C137.372 142.103 130.515 142.992 123.68 142.547C116.845 142.102 110.166 140.332 104.023 137.337V137.337Z" fill="#C1D42F"/>
<path d="M228.501 75.4691C228.501 75.933 228.254 76.3103 227.944 76.3103C227.633 76.3103 227.387 75.933 227.387 75.4691C227.387 75.0053 227.633 74.6201 227.944 74.6201C228.254 74.6201 228.501 74.9975 228.501 75.4691Z" fill="#263238"/>
<path d="M228.291 76.3105C227.732 77.7346 226.977 79.0757 226.047 80.2962C226.369 80.5237 226.737 80.6788 227.126 80.7508C227.516 80.8228 227.916 80.8098 228.299 80.7128L228.291 76.3105Z" fill="#630F0F"/>
<path d="M230.17 72.8756C230.228 72.874 230.284 72.8547 230.33 72.8203C230.376 72.786 230.41 72.7383 230.428 72.6838C230.445 72.6294 230.445 72.571 230.428 72.5166C230.41 72.4622 230.376 72.4146 230.329 72.3804C229.978 72.12 229.569 71.9458 229.136 71.872C228.702 71.7982 228.258 71.8269 227.838 71.9559C227.801 71.966 227.766 71.9838 227.735 72.0081C227.705 72.0324 227.68 72.0627 227.663 72.097C227.645 72.1313 227.635 72.1689 227.633 72.2074C227.631 72.2458 227.637 72.2842 227.651 72.3201C227.665 72.356 227.687 72.3886 227.714 72.4158C227.742 72.443 227.775 72.4643 227.811 72.4781C227.848 72.4919 227.887 72.4981 227.925 72.4961C227.964 72.4942 228.002 72.4842 228.037 72.4668V72.4668C228.371 72.3687 228.724 72.3496 229.067 72.411C229.41 72.4725 229.733 72.6128 230.011 72.8206C230.056 72.8568 230.112 72.8763 230.17 72.8756V72.8756Z" fill="#263238"/>
<path d="M244.6 78.9756C243.757 83.2049 242.921 90.9482 245.914 93.7625C245.914 93.7625 244.744 98.0469 236.8 98.0469C228.045 98.0469 232.621 93.7625 232.621 93.7625C237.397 92.6384 237.27 89.1401 236.434 85.9013L244.6 78.9756Z" fill="#7F3E3B"/>
<path d="M247.451 91.113C248.111 91.3253 247.252 95.2087 247.252 95.2087C247.252 95.2087 246.161 97.9209 232.614 96.9775C231.571 96.8989 231.969 93.1727 232.964 92.6303C236.172 90.9008 245.317 90.4212 247.451 91.113Z" fill="#263238"/>
<path d="M274.968 253.534C275.7 253.463 276.767 252.134 277.069 251.647C277.083 251.626 277.09 251.601 277.09 251.576C277.09 251.551 277.083 251.527 277.069 251.506C277.056 251.482 277.036 251.464 277.012 251.452C276.988 251.441 276.961 251.438 276.934 251.443C276.855 251.443 274.928 251.804 274.459 252.543C274.409 252.621 274.377 252.708 274.363 252.798C274.349 252.889 274.355 252.981 274.379 253.07C274.483 253.416 274.682 253.51 274.841 253.534H274.968ZM276.648 251.781C276.13 252.488 275.279 253.314 274.873 253.259C274.833 253.259 274.713 253.259 274.642 252.991C274.626 252.94 274.622 252.886 274.631 252.833C274.639 252.78 274.659 252.729 274.69 252.685C275.238 252.2 275.919 251.886 276.648 251.781Z" fill="#C1D42F"/>
<path d="M276.567 251.78C276.709 251.768 276.85 251.744 276.989 251.709C277.012 251.702 277.033 251.688 277.05 251.67C277.067 251.653 277.079 251.631 277.084 251.607C277.089 251.582 277.087 251.557 277.078 251.534C277.07 251.51 277.056 251.489 277.036 251.473C276.989 251.426 275.699 250.341 274.824 250.428C274.718 250.435 274.616 250.463 274.522 250.512C274.429 250.561 274.347 250.629 274.282 250.711C274.208 250.782 274.161 250.877 274.151 250.98C274.14 251.082 274.167 251.185 274.227 251.269C274.513 251.717 275.771 251.858 276.567 251.78ZM276.631 251.505C275.835 251.599 274.673 251.442 274.45 251.12C274.45 251.12 274.386 251.017 274.497 250.876C274.542 250.824 274.597 250.781 274.658 250.75C274.72 250.719 274.787 250.7 274.856 250.695V250.695C275.515 250.785 276.133 251.067 276.631 251.505V251.505Z" fill="#C1D42F"/>
<path d="M220.244 274.209C220.847 274.206 221.449 274.154 222.043 274.051C222.07 274.044 222.094 274.03 222.114 274.011C222.133 273.992 222.147 273.968 222.155 273.941C222.16 273.913 222.155 273.884 222.142 273.859C222.129 273.833 222.109 273.813 222.083 273.8C221.995 273.745 219.958 272.597 218.979 272.856C218.796 272.903 218.638 273.018 218.541 273.179C218.479 273.266 218.445 273.371 218.445 273.477C218.445 273.584 218.479 273.689 218.541 273.776C218.796 274.122 219.496 274.209 220.244 274.209ZM221.598 273.847C220.507 273.996 219.027 273.988 218.756 273.619C218.716 273.572 218.684 273.485 218.756 273.312C218.785 273.264 218.824 273.222 218.871 273.19C218.918 273.157 218.971 273.135 219.027 273.124C219.655 272.959 220.881 273.485 221.598 273.847V273.847Z" fill="#C1D42F"/>
<path d="M221.981 274.051C222.01 274.059 222.04 274.059 222.069 274.051C222.087 274.035 222.102 274.016 222.111 273.994C222.121 273.973 222.125 273.949 222.125 273.925C222.125 273.862 221.957 272.306 221.217 271.7C221.107 271.61 220.98 271.543 220.844 271.502C220.707 271.462 220.563 271.449 220.421 271.465C220.039 271.504 219.936 271.693 219.904 271.85C219.8 272.502 221.201 273.752 221.902 274.067L221.981 274.051ZM220.557 271.693C220.734 271.698 220.905 271.761 221.042 271.873C221.484 272.372 221.762 272.992 221.838 273.65C221.114 273.225 220.167 272.243 220.246 271.85C220.246 271.85 220.246 271.724 220.517 271.7L220.557 271.693Z" fill="#C1D42F"/>
<path d="M228.443 273.918H222.601L222.012 260.538H227.862L228.443 273.918Z" fill="#7F3E3B"/>
<path d="M282.177 247.417L277.617 251.026L266.012 243.07L270.58 239.462L282.177 247.417Z" fill="#7F3E3B"/>
<path d="M276.781 250.797L281.445 246.23C281.529 246.15 281.637 246.101 281.753 246.089C281.868 246.078 281.984 246.105 282.082 246.167L286.563 249.013C286.672 249.082 286.763 249.175 286.83 249.284C286.897 249.394 286.938 249.517 286.949 249.644C286.961 249.772 286.943 249.9 286.896 250.019C286.85 250.139 286.777 250.246 286.683 250.333C285.027 251.906 284.144 252.582 282.09 254.586C280.832 255.828 277.752 259.523 276.009 261.229C274.266 262.935 272.324 261.457 272.889 260.6C275.396 256.779 276.248 253.627 276.359 251.709C276.383 251.365 276.533 251.04 276.781 250.797V250.797Z" fill="#263238"/>
<path d="M222.635 273.249H229.002C229.118 273.248 229.23 273.287 229.32 273.359C229.41 273.43 229.472 273.53 229.496 273.642L230.65 278.775C230.679 278.899 230.679 279.027 230.65 279.15C230.622 279.274 230.565 279.389 230.484 279.488C230.404 279.586 230.302 279.665 230.185 279.719C230.069 279.773 229.942 279.799 229.814 279.797C227.506 279.797 224.179 279.632 221.282 279.632C217.899 279.632 214.978 279.813 211.006 279.813C208.618 279.813 207.942 277.415 208.944 277.195C213.521 276.213 217.254 276.103 221.202 273.697C221.628 273.419 222.124 273.263 222.635 273.249V273.249Z" fill="#263238"/>
<path d="M257.441 95.4923C262.511 97.8507 264.605 114.013 264.605 114.013L252.944 118.533C251.134 114.157 249.668 109.65 248.558 105.051C246.927 97.7563 252.228 93.0396 257.441 95.4923Z" fill="#C1D42F"/>
<path opacity="0.3" d="M257.441 95.4923C262.511 97.8507 264.605 114.013 264.605 114.013L252.944 118.533C251.134 114.157 249.668 109.65 248.558 105.051C246.927 97.7563 252.228 93.0396 257.441 95.4923Z" fill="white"/>
<path opacity="0.2" d="M249.888 100.232C249.491 100.042 249.075 99.8915 248.647 99.7842C248.181 101.508 248.165 103.32 248.599 105.051C249.704 109.65 251.167 114.157 252.977 118.533L256.821 117.047C256.113 112.826 253.94 102.15 249.888 100.232Z" fill="black"/>
<path d="M223.631 95.3657C223.631 95.3657 217.407 102.307 223.281 145.284H254.561C254.776 140.568 251.76 117.409 256.392 95.067C252.932 94.4099 249.434 93.974 245.917 93.762C241.49 93.5103 237.052 93.5103 232.625 93.762C229.589 94.0641 226.582 94.6003 223.631 95.3657Z" fill="#C1D42F"/>
<path opacity="0.3" d="M223.631 95.3657C223.631 95.3657 217.407 102.307 223.281 145.284H254.561C254.776 140.568 251.76 117.409 256.392 95.067C252.932 94.4099 249.434 93.974 245.917 93.762C241.49 93.5103 237.052 93.5103 232.625 93.762C229.589 94.0641 226.582 94.6003 223.631 95.3657Z" fill="white"/>
<path opacity="0.2" d="M229.942 104.579C228.525 100.382 225.118 99.0373 221.648 101.529C220.948 105.601 220.454 112.166 221.019 122.574L227.124 122.519C227.124 122.519 232.035 110.829 229.942 104.579Z" fill="black"/>
<path d="M228.794 102.858C228.539 104.965 228.189 106.875 227.799 108.864C227.409 110.853 226.955 112.794 226.438 114.752C225.416 118.752 224.025 122.652 222.283 126.402C221.829 127.369 221.304 128.32 220.747 129.271C220.46 129.751 220.174 130.23 219.847 130.702C219.424 131.358 218.925 131.962 218.359 132.502C217.261 133.508 215.958 134.272 214.538 134.743C213.385 135.142 212.193 135.418 210.981 135.568C208.817 135.833 206.631 135.86 204.462 135.647C203.401 135.563 202.366 135.429 201.358 135.246C200.323 135.065 199.344 134.876 198.277 134.601L198.795 130.293C202.428 130.143 206.034 129.616 209.556 128.721C210.272 128.512 210.967 128.238 211.633 127.904C212.07 127.706 212.453 127.406 212.748 127.031C212.684 127.086 213.265 126.135 213.607 125.459C213.949 124.783 214.331 123.886 214.658 123.1C215.326 121.481 215.899 119.767 216.425 118.014C216.95 116.261 217.412 114.477 217.842 112.669C218.271 110.86 218.637 109.037 219.035 107.166C219.433 105.295 219.72 103.439 220.007 101.702L228.794 102.858Z" fill="#7F3E3B"/>
<path d="M231.447 99.6028C233.094 104.878 226.408 120.6 226.408 120.6L212.328 117.102C213.19 112.132 214.641 107.28 216.65 102.645C221.187 92.8343 229.465 93.2431 231.447 99.6028Z" fill="#C1D42F"/>
<path opacity="0.3" d="M231.447 99.6028C233.094 104.878 226.408 120.6 226.408 120.6L212.328 117.102C213.19 112.132 214.641 107.28 216.65 102.645C221.187 92.8343 229.465 93.2431 231.447 99.6028Z" fill="white"/>
<path d="M198.993 130.317L192.371 130.152L195.555 136.952C195.555 136.952 198.245 137.306 200.458 133.713L202.79 130.97L200.108 130.435C199.74 130.365 199.367 130.325 198.993 130.317Z" fill="#7F3E3B"/>
<path d="M188.195 131.418L191.992 137.054L195.566 136.952L192.374 130.152L188.195 131.418Z" fill="#7F3E3B"/>
<path opacity="0.2" d="M222.023 260.546L222.318 267.44H228.168L227.866 260.546H222.023Z" fill="black"/>
<path opacity="0.2" d="M270.58 239.462L266.012 243.07L271.997 247.174L276.566 243.565L270.58 239.462Z" fill="black"/>
<path d="M244.266 74.4475C243.916 80.1704 244.011 83.535 241.082 86.4751C236.689 90.8931 229.533 88.2832 228.148 82.5445C226.899 77.4033 227.687 68.9132 233.354 66.6256C234.603 66.1151 235.965 65.9294 237.308 66.0864C238.651 66.2433 239.93 66.7377 241.025 67.5222C242.119 68.3067 242.992 69.3552 243.559 70.5676C244.127 71.78 244.37 73.1158 244.266 74.4475V74.4475Z" fill="#7F3E3B"/>
<path d="M248.95 69.1335C248.95 69.1335 251.999 70.0297 251.043 73.4651C249.603 78.6849 246.212 84.6908 241.834 85.0682C236.382 85.5477 233.923 79.9898 233.206 74.2433C229.943 72.0343 227.523 69.9668 228.303 67.6714C229.497 64.1338 233.827 61.0837 240.72 61.8698C247.613 62.6559 251.043 67.0582 248.95 69.1335Z" fill="#263238"/>
<path d="M236.524 75.4224C236.418 76.8418 235.841 78.1873 234.884 79.2508C233.61 80.6344 232.273 79.7697 232.05 78.0874C231.851 76.5623 232.265 74.0074 233.825 73.2449C235.385 72.4823 236.627 73.7087 236.524 75.4224Z" fill="#7F3E3B"/>
<path d="M234.374 145.285C234.374 145.285 232.4 184.214 236.244 200.707C242.333 226.821 269.101 247.748 269.101 247.748L277.697 240.948C277.697 240.948 255.673 224.762 253.691 203.018C251.916 183.491 254.543 161.063 254.543 145.285H234.374Z" fill="#C1D42F"/>
<path opacity="0.2" d="M234.374 145.285C234.374 145.285 232.4 184.214 236.244 200.707C242.333 226.821 269.101 247.748 269.101 247.748L277.697 240.948C277.697 240.948 255.673 224.762 253.691 203.018C251.916 183.491 254.543 161.063 254.543 145.285H234.374Z" fill="black"/>
<path opacity="0.2" d="M237.309 156.817C236.513 155.299 234.961 159.82 233.879 165.621C233.879 173.624 234.022 182.727 234.731 190.439C240.135 180.573 238.989 159.961 237.309 156.817Z" fill="black"/>
<path d="M265.203 246.073L268.466 248.573L278.392 240.625L275.415 237.96L265.203 246.073Z" fill="#2C6BDB"/>
<path opacity="0.4" d="M265.203 246.073L268.466 248.573L278.392 240.625L275.415 237.96L265.203 246.073Z" fill="#FAFAFA"/>
<path d="M223.277 145.285C223.277 145.285 214.474 182.154 213.853 199.763C213.161 219.518 220.133 266.104 220.133 266.104H230.043C230.043 266.104 231.26 219.157 231.706 201.163C232.184 181.549 243.836 145.285 243.836 145.285H223.277Z" fill="#C1D42F"/>
<path opacity="0.2" d="M223.277 145.285C223.277 145.285 214.474 182.154 213.853 199.763C213.161 219.518 220.133 266.104 220.133 266.104H230.043C230.043 266.104 231.26 219.157 231.706 201.163C232.184 181.549 243.836 145.285 243.836 145.285H223.277Z" fill="black"/>
<path d="M218.233 262.204C218.185 262.204 218.79 266.268 218.79 266.268H230.841L231.167 262.644L218.233 262.204Z" fill="#2C6BDB"/>
<path opacity="0.4" d="M218.233 262.204C218.185 262.204 218.79 266.268 218.79 266.268H230.841L231.167 262.644L218.233 262.204Z" fill="#FAFAFA"/>
</svg>
