<svg width="448" height="314" viewBox="0 0 448 314" fill="none" xmlns="http://www.w3.org/2000/svg">
<rect x="1" y="34" width="412" height="267" rx="24" stroke="black" stroke-width="2"/>
<path d="M262.246 189.975L286.9 183.992L296.464 233.665L285.879 248.283" fill="#E6E6E6"/>
<path d="M313.869 236.905C313.869 236.905 297.936 205.193 296.172 198.055C292.655 183.958 282.658 165.055 261.211 180.662L259.27 182.427L262.598 190.674L275.602 186.678L280.417 196.668L281.527 195.946C282.449 195.363 283.533 195.087 284.622 195.157C285.711 195.228 286.75 195.641 287.59 196.339C288.43 197.036 289.028 197.982 289.298 199.04C289.568 200.098 289.497 201.214 289.094 202.229L287.629 205.947L292.466 235.917L313.869 236.905Z" fill="white" stroke="black" stroke-miterlimit="10"/>
<path d="M294.012 245.565L287.632 205.982L289.052 202.319C289.455 201.295 289.545 200.175 289.31 199.099C289.075 198.024 288.526 197.043 287.732 196.281V196.281C286.773 195.502 285.58 195.07 284.345 195.056C283.11 195.042 281.906 195.446 280.93 196.203L280.376 196.703L275.56 186.713L262.246 190.809" stroke="black" stroke-miterlimit="10"/>
<path d="M243.637 208.324L222.645 208.824C222.645 208.824 238.3 264.701 241.684 265.556L262.31 265.967" fill="#E6E6E6"/>
<path d="M243.637 208.324L222.645 208.824C222.645 208.824 238.3 264.701 241.684 265.556L262.31 265.967" stroke="black" stroke-miterlimit="10"/>
<path d="M286.443 301.219C227.827 301.096 70.0855 301.475 70.0855 301.475C70.0855 301.475 0.884519 232.322 20.4787 186.512C23.6218 178.741 29.11 172.144 36.1785 167.642L75.0118 144.01C78.3404 142.001 78.5068 135.852 75.3336 133.487L37.5321 105.404C32.1398 101.386 31.7293 93.6382 37.7207 91.6291L55.4731 83.2154L36.7554 82.4606L69.4975 78.5645L94.7835 86.7674H77.6636L72.9037 94.6483C72.7493 94.8967 72.6454 95.1731 72.598 95.4617C72.5507 95.7503 72.5608 96.0454 72.6278 96.3301C72.6948 96.6148 72.8174 96.8834 72.9885 97.1206C73.1597 97.3577 73.3759 97.5587 73.6249 97.712L142.748 124.863C146.077 126.161 147.186 131.667 144.745 134.952L115.898 174.579C111.26 180.973 112.447 191.474 118.317 195.747L248.408 278.22" stroke="#231F20" stroke-miterlimit="10"/>
<path d="M143.195 264.867C143.362 264.855 143.527 264.898 143.667 264.989C143.807 265.08 143.914 265.214 143.97 265.371C144.027 265.528 144.03 265.7 143.981 265.859C143.931 266.019 143.83 266.157 143.694 266.254C138.934 269.706 131.312 274.468 125.942 276.366C112.139 281.195 99.5797 280.573 97.8599 274.979C96.1402 269.384 105.937 260.937 119.729 256.109C122.558 255.121 123.157 254.355 125.798 253.822C125.298 257.152 125.31 258.362 127.662 260.804C129.748 262.98 137.88 265.189 143.195 264.867Z" fill="black" stroke="black" stroke-miterlimit="10"/>
<path d="M147.988 228.749C150.405 224.209 143.038 215.56 131.535 209.431C120.031 203.301 108.746 202.012 106.329 206.552C103.912 211.091 111.279 219.741 122.783 225.87C134.286 232 145.571 233.289 147.988 228.749Z" fill="black" stroke="black" stroke-miterlimit="10"/>
<path d="M81.4273 240.017C81.7967 234.143 70.3513 228.643 55.8633 227.731C41.3754 226.819 29.3312 230.841 28.9618 236.715C28.5924 242.588 40.0378 248.089 54.5257 249.001C69.0137 249.913 81.0579 245.89 81.4273 240.017Z" fill="black" stroke="black" stroke-miterlimit="10"/>
<path d="M66.4419 209.594C69.2496 207.718 67.4257 200.056 62.3681 192.481C57.3105 184.906 50.9344 180.285 48.1267 182.162C45.319 184.038 47.143 191.7 52.2006 199.275C57.2581 206.85 63.6342 211.47 66.4419 209.594Z" fill="black" stroke="black" stroke-miterlimit="10"/>
<path d="M122.141 157.231C127.992 149.583 130.42 141.61 127.563 139.423C124.707 137.236 117.648 141.663 111.797 149.311C105.946 156.958 103.519 164.931 106.375 167.118C109.231 169.306 116.29 164.879 122.141 157.231Z" fill="black" stroke="black" stroke-miterlimit="10"/>
<path d="M94.4485 125.369C94.9054 122.742 90.0099 119.695 83.5141 118.564C77.0182 117.434 71.3819 118.647 70.925 121.274C70.4681 123.901 75.3636 126.948 81.8594 128.079C88.3553 129.209 93.9916 127.996 94.4485 125.369Z" fill="black" stroke="black" stroke-miterlimit="10"/>
<path d="M79.9779 105.391C80.3645 103.169 76.2145 100.59 70.7087 99.6319C65.2029 98.6735 60.4263 99.6984 60.0397 101.921C59.6532 104.144 63.8032 106.722 69.3089 107.681C74.8147 108.639 79.5914 107.614 79.9779 105.391Z" fill="black" stroke="black" stroke-miterlimit="10"/>
<path d="M73.0467 85.8478C73.2106 84.3363 70.3161 82.7826 66.5817 82.3774C62.8473 81.9722 59.6871 82.869 59.5233 84.3804C59.3594 85.8919 62.2539 87.4457 65.9883 87.8509C69.7227 88.2561 72.8829 87.3593 73.0467 85.8478Z" fill="black" stroke="black" stroke-miterlimit="10"/>
<path d="M111.649 233.954C101.663 235.997 94.8616 244.366 96.3484 252.647L132.341 245.254C130.855 236.974 121.59 231.901 111.649 233.954Z" fill="black" stroke="black" stroke-miterlimit="10"/>
<path d="M86.4186 232.91C96.3044 235.23 105.691 230.424 107.377 222.188L71.5288 213.785C69.8423 222.032 76.4328 230.602 86.4186 232.91Z" fill="#252525" stroke="black" stroke-miterlimit="10"/>
<path d="M27.6128 187.777C26.8583 196.114 31.1854 203.384 37.2656 204.006L39.984 173.814C33.926 173.181 28.3783 179.43 27.6128 187.777Z" fill="#252525" stroke="black" stroke-miterlimit="10"/>
<path d="M91.7672 174.379C84.2002 176.599 79.3405 183.448 80.8717 189.753L108.288 181.983C106.757 175.633 99.3452 172.259 91.7672 174.379Z" fill="#252525" stroke="black" stroke-miterlimit="10"/>
<path d="M86.0953 167.176C93.7843 165.5 99.0213 158.962 97.8008 152.568L69.9961 158.596C71.2055 164.989 78.4174 168.83 86.0953 167.176Z" fill="#252525" stroke="black" stroke-miterlimit="10"/>
<path d="M129.478 124.541C123.32 123.709 117.839 127.183 117.273 132.311L139.553 135.341C140.119 130.213 135.636 125.374 129.478 124.541Z" fill="#252525" stroke="black" stroke-miterlimit="10"/>
<path d="M62.4653 109.556C58.3045 106.781 53.3006 107.336 51.2812 110.811L66.3264 120.801C68.3457 117.382 66.626 112.331 62.4653 109.556Z" fill="#252525" stroke="black" stroke-miterlimit="10"/>
<path d="M47.9629 91.1294C43.78 91.4735 40.4958 94.5371 40.6289 97.967L55.7739 96.6794C55.6408 93.2606 52.1569 90.752 47.9629 91.1294Z" fill="#252525" stroke="black" stroke-miterlimit="10"/>
<path d="M97.4273 138.86C98.0708 145.464 102.476 150.382 107.28 149.86L105.061 125.973C100.19 126.461 96.7949 132.2 97.4273 138.86Z" fill="#252525" stroke="black" stroke-miterlimit="10"/>
<path d="M77.5432 295.848C87.2626 298.889 96.9376 294.804 99.1567 286.701L63.9848 275.668C61.7657 283.771 67.8348 292.806 77.5432 295.848Z" fill="#252525" stroke="black" stroke-miterlimit="10"/>
<path d="M214.848 291.574C211.952 296.191 201.956 298.123 189.695 298.123C175.183 298.123 163.422 293.339 163.422 287.456C163.422 284.192 166.562 281.672 172.243 279.686C172.675 280.285 173.507 281.295 173.951 281.906C176.703 285.657 179.577 287.389 184.37 288.699C186.571 289.213 188.851 289.293 191.082 288.932C196.016 288.41 200.994 288.499 205.906 289.198C208.768 289.698 212.385 290.297 214.848 291.574Z" fill="#252525" stroke="black" stroke-miterlimit="10"/>
<path d="M222.601 268.729C211.735 265.068 200.656 262.069 189.427 259.749V259.749C189.063 258.399 189.189 256.964 189.782 255.698C190.062 255.048 190.473 254.463 190.989 253.979C191.505 253.496 192.116 253.124 192.782 252.887C193.449 252.651 194.157 252.555 194.863 252.605C195.568 252.655 196.256 252.85 196.883 253.178L219.972 265.544C220.323 265.729 220.651 265.957 220.948 266.221C221.719 266.889 222.291 267.757 222.601 268.729V268.729Z" fill="#252525" stroke="black" stroke-miterlimit="10"/>
<path d="M144.281 243.645C144.284 244.897 144.709 246.111 145.489 247.09C146.269 248.07 147.356 248.757 148.575 249.04C148.94 249.111 149.313 249.14 149.685 249.128L175.459 248.329C176.792 248.19 178.034 247.587 178.967 246.625C179.901 245.663 180.467 244.403 180.566 243.066C180.665 241.729 180.291 240.4 179.51 239.31C178.728 238.221 177.589 237.441 176.291 237.107C175.926 237.036 175.553 237.006 175.181 237.018L149.407 237.817C147.961 237.926 146.615 238.596 145.656 239.685C144.698 240.775 144.205 242.196 144.281 243.645V243.645Z" fill="#252525" stroke="black" stroke-miterlimit="10"/>
<path d="M49.5593 262.358C49.5176 263.614 49.9032 264.847 50.653 265.855C51.4027 266.863 52.4723 267.587 53.6867 267.908C54.0505 267.993 54.4226 268.038 54.7962 268.041H80.5816C81.3 268.019 82.0072 267.856 82.6626 267.561C83.318 267.266 83.9089 266.845 84.4014 266.321C84.894 265.797 85.2785 265.182 85.5331 264.509C85.7877 263.837 85.9073 263.121 85.8851 262.402C85.9268 261.146 85.5412 259.913 84.7914 258.905C84.0417 257.897 82.9721 257.173 81.7577 256.852C81.3939 256.767 81.0218 256.722 80.6482 256.719L54.8628 256.652C54.139 256.675 53.427 256.841 52.7677 257.141C52.1085 257.441 51.5152 257.868 51.022 258.399C50.5289 258.929 50.1457 259.552 49.8947 260.232C49.6436 260.911 49.5296 261.634 49.5593 262.358V262.358Z" fill="#252525" stroke="black" stroke-miterlimit="10"/>
<path d="M26.195 210.787C25.9794 211.824 26.1103 212.902 26.5673 213.857C27.0244 214.811 27.7824 215.589 28.7247 216.071C29.0195 216.207 29.3283 216.311 29.6456 216.382L50.7265 221.099C51.3111 221.214 51.9127 221.21 52.4956 221.087C53.0786 220.964 53.6308 220.725 54.1195 220.385C54.6082 220.044 55.0233 219.608 55.3401 219.104C55.6569 218.599 55.8689 218.036 55.9635 217.447C56.1925 216.405 56.0694 215.317 55.6136 214.353C55.1578 213.389 54.395 212.603 53.4449 212.119C53.1511 211.977 52.8421 211.869 52.524 211.797L31.443 207.08C30.8537 206.964 30.2469 206.968 29.6594 207.094C29.072 207.219 28.5161 207.463 28.0254 207.809C27.5348 208.156 27.1195 208.598 26.8049 209.11C26.4902 209.622 26.2827 210.193 26.195 210.787Z" fill="#252525" stroke="black" stroke-miterlimit="10"/>
<path d="M52.3229 163.824C51.8245 164.544 51.5696 165.404 51.5956 166.279C51.6215 167.154 51.927 167.997 52.4671 168.686C52.6463 168.895 52.843 169.088 53.0552 169.263L67.2238 180.585C67.6013 180.889 68.0377 181.111 68.5055 181.237C68.9732 181.363 69.4621 181.39 69.9409 181.317C70.4198 181.244 70.8783 181.072 71.2872 180.812C71.6962 180.553 72.0467 180.211 72.3165 179.808C72.8133 179.088 73.0663 178.227 73.0384 177.352C73.0104 176.477 72.703 175.634 72.1612 174.946C71.9907 174.73 71.7931 174.536 71.5731 174.369L57.4045 163.036C57.0279 162.732 56.5918 162.509 56.1242 162.383C55.6566 162.257 55.1679 162.23 54.6893 162.305C54.2108 162.379 53.753 162.552 53.3455 162.814C52.938 163.076 52.5896 163.42 52.3229 163.824V163.824Z" fill="#252525" stroke="black" stroke-miterlimit="10"/>
<path d="M79.7601 148.994C80.2189 149.437 80.8229 149.698 81.4597 149.729C82.0965 149.76 82.7227 149.558 83.2219 149.161C83.3858 149.034 83.5346 148.889 83.6657 148.728L92.5419 137.906C93.0283 137.304 93.2719 136.542 93.2246 135.769C93.1774 134.997 92.8428 134.27 92.2867 133.732C91.8293 133.287 91.226 133.024 90.5892 132.992C89.9524 132.959 89.3254 133.159 88.825 133.554C88.6634 133.688 88.5148 133.837 88.3811 133.998L79.5049 144.821C79.0185 145.423 78.775 146.185 78.8222 146.957C78.8694 147.73 79.204 148.456 79.7601 148.994V148.994Z" fill="#252525" stroke="black" stroke-miterlimit="10"/>
<path d="M96.9801 113.641C96.7337 114.259 96.6947 114.941 96.8687 115.584C97.0428 116.226 97.4206 116.795 97.9454 117.204C98.1124 117.325 98.2908 117.429 98.478 117.515L110.938 123.065C111.28 123.21 111.648 123.283 112.019 123.28C112.39 123.277 112.757 123.197 113.096 123.046C113.435 122.895 113.74 122.676 113.991 122.403C114.242 122.129 114.434 121.806 114.555 121.455C114.802 120.839 114.842 120.158 114.668 119.517C114.493 118.876 114.115 118.31 113.59 117.903C113.425 117.779 113.246 117.674 113.057 117.593L100.586 112.043C100.246 111.896 99.8792 111.821 99.5088 111.822C99.1383 111.824 98.7722 111.902 98.4336 112.053C98.0949 112.203 97.7909 112.421 97.5408 112.695C97.2906 112.968 97.0997 113.29 96.9801 113.641V113.641Z" fill="#252525" stroke="black" stroke-miterlimit="10"/>
<path d="M76.6867 113.64C76.7815 114.144 77.0476 114.6 77.44 114.929C77.8324 115.259 78.3267 115.443 78.8392 115.449C78.9969 115.449 79.1537 115.427 79.3052 115.383L89.6681 112.785C90.2433 112.617 90.7319 112.234 91.0333 111.716C91.3347 111.197 91.4259 110.583 91.288 109.999C91.191 109.498 90.9239 109.045 90.5317 108.717C90.1396 108.389 89.6464 108.207 89.1356 108.201C88.9779 108.201 88.821 108.224 88.6696 108.268L78.3177 110.865C77.7413 111.029 77.2502 111.409 76.9465 111.926C76.6428 112.443 76.5497 113.057 76.6867 113.64Z" fill="#252525" stroke="black" stroke-miterlimit="10"/>
<path d="M43.5262 104.839C43.6136 105.31 43.8616 105.735 44.228 106.043C44.5943 106.351 45.0561 106.522 45.5344 106.526C45.684 106.525 45.8329 106.506 45.9782 106.471L55.6976 104.04C56.2402 103.877 56.6999 103.512 56.9825 103.021C57.2651 102.53 57.3492 101.949 57.2177 101.398C57.1279 100.927 56.8777 100.501 56.5095 100.193C56.1413 99.8858 55.678 99.7153 55.1983 99.7109C55.048 99.7121 54.8986 99.7346 54.7545 99.7775L45.0462 102.231C44.5107 102.394 44.0565 102.753 43.7746 103.237C43.4928 103.72 43.404 104.293 43.5262 104.839V104.839Z" fill="#252525" stroke="black" stroke-miterlimit="10"/>
<path d="M55.4956 90.3984C55.3786 90.8218 55.4093 91.2725 55.5828 91.6761C55.7563 92.0797 56.0621 92.4121 56.4498 92.6184C56.5713 92.674 56.6975 92.7186 56.827 92.7516L65.4258 94.794C65.6685 94.8441 65.9188 94.8456 66.162 94.7983C66.4053 94.7511 66.6368 94.6561 66.8431 94.5188C67.0495 94.3815 67.2266 94.2047 67.3642 93.9985C67.5018 93.7924 67.5972 93.5609 67.6449 93.3177C67.7589 92.893 67.7256 92.4421 67.5502 92.0388C67.3749 91.6356 67.0679 91.3038 66.6796 91.0977C66.5589 91.04 66.4325 90.9954 66.3024 90.9645L57.6925 88.911C57.4505 88.8627 57.2013 88.863 56.9594 88.9118C56.7175 88.9607 56.4877 89.0571 56.2834 89.1954C56.079 89.3338 55.9042 89.5114 55.7689 89.7179C55.6337 89.9244 55.5408 90.1557 55.4956 90.3984V90.3984Z" fill="#252525" stroke="black" stroke-miterlimit="10"/>
<path d="M105.359 193.006C104.976 192.049 104.267 191.259 103.357 190.776C102.447 190.292 101.395 190.146 100.388 190.364C100.075 190.45 99.77 190.565 99.4784 190.709L79.9286 200.41C78.8423 200.991 78.017 201.962 77.6194 203.129C77.2219 204.295 77.2819 205.569 77.7872 206.693C78.1701 207.646 78.8782 208.434 79.786 208.916C80.6938 209.397 81.7427 209.541 82.7468 209.323C83.0613 209.246 83.3664 209.134 83.6566 208.99L103.206 199.289C104.291 198.706 105.115 197.735 105.514 196.57C105.913 195.405 105.858 194.132 105.359 193.006V193.006Z" fill="#252525" stroke="black" stroke-miterlimit="10"/>
<path d="M114.246 289.608C114.204 290.864 114.589 292.097 115.339 293.105C116.089 294.113 117.159 294.837 118.373 295.158C118.737 295.24 119.109 295.281 119.482 295.28H145.268C146.72 295.234 148.094 294.613 149.088 293.554C150.083 292.494 150.616 291.083 150.571 289.63C150.612 288.373 150.225 287.139 149.473 286.131C148.721 285.122 147.649 284.399 146.433 284.08C146.069 283.994 145.697 283.949 145.323 283.947H119.538C118.819 283.97 118.111 284.135 117.455 284.432C116.799 284.729 116.209 285.153 115.717 285.679C115.226 286.205 114.842 286.822 114.59 287.497C114.337 288.171 114.22 288.889 114.246 289.608V289.608Z" fill="#252525" stroke="black" stroke-miterlimit="10"/>
<path d="M141.353 114.951C142.718 117.649 144.094 120.346 145.458 123.054C145.273 121.389 145.21 119.712 145.27 118.037C145.27 117.038 146.901 116.561 147.145 117.704L147.389 118.814C147.663 118.23 147.99 117.673 148.365 117.149V117.149L148.498 116.949C149.209 116.028 150.462 117.082 150.074 118.059C149.345 119.847 148.81 121.708 148.476 123.609C148.476 123.742 148.476 123.876 148.476 124.009L148.676 124.908C150.247 122.95 152.025 121.167 153.979 119.591C154.945 118.803 155.999 120.424 155.089 121.201C152.233 123.506 149.794 126.284 147.877 129.415C147.798 129.562 147.682 129.686 147.54 129.776C147.399 129.865 147.237 129.917 147.07 129.926C146.903 129.935 146.736 129.901 146.586 129.827C146.436 129.753 146.307 129.641 146.213 129.503C143.718 125.084 141.534 120.496 139.678 115.773C139.234 114.785 140.854 113.974 141.353 114.951Z" fill="black"/>
<path d="M13.7668 174.98C17.1888 176.973 19.7505 180.164 20.9565 183.937C20.9962 184.232 21.1512 184.498 21.3874 184.678C21.6236 184.858 21.9215 184.937 22.2158 184.898C22.5101 184.858 22.7765 184.703 22.9565 184.466C23.1365 184.23 23.2153 183.932 23.1756 183.638C22.9869 175.812 22.41 167.876 23.0313 160.061C23.1423 158.629 20.9676 158.674 20.8123 160.061C19.9125 168.21 20.2868 176.448 21.9218 184.481C22.1215 185.514 23.9078 185.591 24.0632 184.481C24.954 178.73 26.795 173.167 29.5109 168.02C29.6436 167.766 29.6731 167.471 29.5934 167.196C29.5137 166.921 29.3308 166.688 29.0831 166.544C28.8353 166.401 28.5418 166.359 28.2638 166.427C27.9859 166.495 27.745 166.668 27.5915 166.91C24.7511 171.35 21.7886 176.412 22.4766 181.939C22.6541 183.338 24.8731 183.349 24.6956 181.939C24.0521 176.778 26.8592 172.205 29.5109 168.031L27.5915 166.921C24.7745 172.233 22.8585 177.976 21.9218 183.915H24.0632C22.484 176.081 22.1359 168.048 23.0313 160.106H20.8123C20.1909 167.876 20.8123 175.857 20.9565 183.682L23.1756 183.382C21.7863 179.054 18.8461 175.393 14.9207 173.104C14.6671 172.971 14.3721 172.941 14.0973 173.021C13.8224 173.101 13.589 173.284 13.4458 173.532C13.3026 173.78 13.2607 174.073 13.3287 174.351C13.3968 174.629 13.5697 174.87 13.8112 175.024L13.7668 174.98Z" fill="black"/>
<path d="M240.789 265.399L262.147 266.021L268.915 279.885L290.34 257.685L285.115 243.532C285.115 243.532 294.068 216.237 312.953 230.623C317.541 234.185 321.092 238.911 323.238 244.309C329.651 260.082 343.342 306.469 312.964 312.941C312.964 312.941 300.814 315.538 282.108 299.232C276.46 294.304 271.301 289.32 264.533 286.112L244.306 276.499L240.789 265.399Z" fill="black"/>
<path d="M269.856 279.696L290.726 258.606L259.016 180.373C258.793 179.715 258.441 179.107 257.981 178.585C257.521 178.063 256.962 177.638 256.337 177.335C255.711 177.031 255.031 176.855 254.337 176.816C253.643 176.778 252.948 176.878 252.293 177.11L251.716 176.721C249.496 173.869 247.144 175.956 245.214 176.377L243.971 175.489C242.995 174.601 239.533 174.646 237.791 175.645L236.349 176.277H235.239C233.939 176.264 232.657 176.583 231.515 177.205C230.374 177.826 229.41 178.73 228.715 179.829L227.816 181.65L236.892 184.614C236.892 184.614 260.78 274.768 269.856 279.696Z" fill="#E6E6E6" stroke="black" stroke-miterlimit="10"/>
<path d="M188.938 177.055L205.347 183.615" stroke="black" stroke-miterlimit="10"/>
<path d="M214.656 177.322L236.88 184.593" stroke="black" stroke-miterlimit="10"/>
<path d="M191.291 209.17C196.128 208.411 198.907 200.519 197.499 191.544C196.091 182.569 191.028 175.908 186.191 176.668C181.355 177.427 178.575 185.319 179.983 194.294C181.391 203.27 186.454 209.93 191.291 209.17Z" stroke="black" stroke-miterlimit="10"/>
<path d="M216.31 209.176C221.147 208.417 223.927 200.525 222.518 191.55C221.11 182.574 216.048 175.914 211.211 176.674C206.374 177.433 203.595 185.325 205.003 194.3C206.411 203.275 211.473 209.936 216.31 209.176Z" stroke="black" stroke-miterlimit="10"/>
<path d="M246.932 193.484L241.75 182.306C239.686 178.011 236.868 176.945 234.25 176.512C232.785 176.268 230.145 178.155 230.145 178.155" stroke="black" stroke-miterlimit="10"/>
<path d="M252.538 191.64L244.184 175.645" stroke="black" stroke-miterlimit="10"/>
<path d="M258.429 189.376L251.816 176.744" stroke="black" stroke-miterlimit="10"/>
<path d="M326.252 277.679L316 31H322.79L333.042 277.679" fill="white"/>
<path d="M326.252 277.679L316 31H322.79L333.042 277.679" stroke="black" stroke-miterlimit="10"/>
<path d="M230.325 300.653C225.102 296.157 219.007 292.789 212.422 290.76C205.837 288.732 198.904 288.086 192.057 288.865C187.889 289.344 183.673 288.563 179.953 286.622C176.233 284.681 173.18 281.67 171.187 277.976L167.171 270.528C165.988 268.368 164.18 266.616 161.984 265.503C159.788 264.389 157.307 263.967 154.866 264.29V264.29C146.312 265.4 135.394 265.466 128.005 261.071C127.283 260.624 126.668 260.024 126.205 259.312C125.743 258.601 125.443 257.796 125.327 256.955C125.212 256.113 125.283 255.257 125.537 254.447C125.791 253.637 126.22 252.893 126.795 252.268V252.268C128.093 251.724 232.2 256.531 286.023 300.398" stroke="#231F20" stroke-miterlimit="10"/>
<path d="M413.73 244.942L413.065 244.453C406.674 239.836 388.655 245.319 383.729 251.48C381.256 255.763 377.581 259.226 373.159 261.438C368.736 263.65 363.762 264.514 358.853 263.923V263.923C357.124 263.718 355.379 264.14 353.935 265.114C352.491 266.088 351.445 267.548 350.987 269.228L350.365 271.515C349.094 276.197 346.333 280.337 342.499 283.307C338.664 286.277 333.967 287.917 329.118 287.976V287.976C329.409 292.47 328.751 296.974 327.188 301.196" stroke="black" stroke-miterlimit="10"/>
<path d="M386.145 301.197C387.687 299.693 388.913 297.894 389.747 295.907C390.582 293.92 391.01 291.786 391.004 289.631V289.231C391.006 286.527 391.636 283.861 392.843 281.441C394.05 279.022 395.802 276.916 397.961 275.289L412.762 264.189C413.139 263.912 413.494 263.612 413.872 263.312" stroke="black" stroke-miterlimit="10"/>
<path d="M327.863 300.387L339.713 296.879C342.351 296.149 344.944 295.267 347.48 294.238C353.882 291.485 359.307 286.9 364.622 282.394L388.643 262.07C392.338 258.94 396.299 255.676 401.092 254.999C404.287 254.533 407.749 255.265 410.689 254" stroke="black" stroke-miterlimit="10"/>
<path d="M328.295 293.583C334.235 274.877 337.156 255.344 336.949 235.718C336.949 233.898 334.087 233.398 333.676 235.274L323.014 284.114C322.681 285.613 324.633 287.067 325.798 285.735C338.713 270.794 352.316 256.486 366.607 242.811C367.927 241.546 366.13 239.059 364.587 240.203C348.675 251.969 334.322 265.71 321.871 281.095C320.539 282.738 322.825 285.091 324.223 283.448C334.641 271.238 338.591 255.41 344.86 240.98C346.624 236.834 348.69 232.824 351.04 228.981C352.15 227.16 349.298 225.484 348.167 227.305C339.823 240.691 336.428 256.364 329.083 270.239C327.086 274.113 324.667 277.753 321.871 281.095L324.223 283.448C336.476 268.27 350.602 254.705 366.263 243.078L364.244 240.458C349.953 254.126 336.343 268.423 323.413 283.348L326.187 284.969L336.849 236.129L333.587 235.685C333.788 255.011 330.904 274.245 325.044 292.661C324.389 294.704 327.607 295.581 328.262 293.549L328.295 293.583Z" fill="black"/>
<path d="M180.286 193.16C179.997 195.38 179.598 197.29 184.258 199.243C188.429 200.986 196.229 197.489 196.462 195.336C196.695 193.183 193.345 188.676 188.862 188.032C184.38 187.388 180.574 191.029 180.286 193.16Z" fill="white" stroke="black" stroke-miterlimit="10"/>
<path d="M185.411 198.523C191.125 198.523 191.125 189.643 185.411 189.643C179.697 189.643 179.686 198.523 185.411 198.523Z" fill="black"/>
<path d="M205.137 193.16C204.849 195.38 204.449 197.29 209.109 199.243C213.281 200.986 221.081 197.489 221.314 195.336C221.547 193.183 218.196 188.676 213.714 188.032C209.231 187.388 205.459 191.029 205.137 193.16Z" fill="white" stroke="black" stroke-miterlimit="10"/>
<path d="M210.298 198.523C216.012 198.523 216.023 189.643 210.298 189.643C204.572 189.643 204.583 198.523 210.298 198.523Z" fill="black"/>
<path d="M323.016 30.4261L405.964 1L446.328 19.7923L428.698 50.2729L325.09 77.3014L323.016 30.4261Z" fill="white" stroke="black" stroke-miterlimit="10"/>
<path d="M256.5 120.026L262.281 100.401L318.312 79.1777L319.732 111.468L270.291 127.507L256.5 120.026Z" fill="white" stroke="black" stroke-miterlimit="10"/>
<path d="M326.543 110.09L327.686 142.935L360.916 151.726L374.707 146.265L370.247 127.506L326.543 110.09Z" fill="white" stroke="black" stroke-miterlimit="10"/>
<path d="M192.5 178.82L205.814 182.561C205.814 182.561 200.81 200.055 213.758 209.256H193.11C193.11 209.256 204.028 201.276 192.5 178.82Z" fill="white" stroke="black" stroke-miterlimit="10"/>
<path d="M217.43 178.82L236.88 184.548C236.88 184.548 239.099 193.617 243.637 209.068L218.04 209.256C218.04 209.256 228.991 201.276 217.43 178.82Z" fill="white" stroke="black" stroke-miterlimit="10"/>
<path d="M277.512 301.442C277.512 301.442 204.683 262.348 149.75 257.797" stroke="#231F20" stroke-miterlimit="10"/>
</svg>
