<svg width="333" height="136" viewBox="0 0 333 136" fill="none" xmlns="http://www.w3.org/2000/svg">
<path d="M58.3759 56.888H115.048V127.728C108.301 130.059 100.512 131.96 91.6799 133.432C82.9706 134.904 73.8319 135.64 64.2639 135.64C51.6292 135.64 40.5279 133.187 30.9599 128.28C21.5146 123.373 14.0932 115.891 8.6959 105.832C3.42124 95.7734 0.783903 83.0774 0.783903 67.744C0.783903 54.0054 3.42124 42.1067 8.6959 32.048C13.9706 21.9894 21.6986 14.2614 31.8799 8.86405C42.1839 3.34404 54.8186 0.584042 69.7839 0.584042C78.0026 0.584042 85.7919 1.38138 93.1519 2.97604C100.512 4.44804 106.891 6.41071 112.288 8.86405L101.064 36.648C96.4026 34.3174 91.4959 32.6 86.3439 31.496C81.1919 30.2694 75.7332 29.656 69.9679 29.656C62.1172 29.656 55.7999 31.4347 51.0159 34.992C46.2319 38.5494 42.7359 43.272 40.5279 49.16C38.4426 55.048 37.3999 61.5494 37.3999 68.664C37.3999 80.9307 39.9759 90.3147 45.1279 96.816C50.2799 103.195 57.6399 106.384 67.2079 106.384C69.2932 106.384 71.8079 106.261 74.7519 106.016C77.8186 105.648 80.1492 105.28 81.7439 104.912V84.304H58.3759V56.888ZM219.787 133.8H141.771V2.42404H219.787V30.944H177.283V51.552H216.659V80.072H177.283V104.912H219.787V133.8ZM300.715 133.8H265.203V31.496H233.187V2.42404H332.731V31.496H300.715V133.8Z" fill="url(#paint0_linear)"/>
<defs>
<linearGradient id="paint0_linear" x1="213.272" y1="273.394" x2="24.8155" y2="147.599" gradientUnits="userSpaceOnUse">
<stop stop-color="#C1D42F"/>
<stop offset="1" stop-color="#09AB88"/>
</linearGradient>
</defs>
</svg>
