<svg width="827" height="127" viewBox="0 0 827 127" fill="none" xmlns="http://www.w3.org/2000/svg">
<path d="M64.8203 124.8H0.836282V105.88L16.1443 100.032V26.588L0.836282 20.912V1.99204H64.8203V20.912L49.5123 26.588V100.032L64.8203 105.88V124.8ZM200.946 124.8H157.43L112.538 38.284H111.85C112.08 40.9214 112.309 44.132 112.538 47.916C112.768 51.5854 112.94 55.312 113.054 59.096C113.284 62.88 113.398 66.32 113.398 69.416V124.8H83.9862V1.99204H127.33L172.05 87.304H172.566C172.452 84.6667 172.28 81.5707 172.05 78.016C171.821 74.4614 171.649 70.8494 171.534 67.18C171.42 63.5107 171.362 60.3 171.362 57.548V1.99204H200.946V124.8ZM307.756 87.476C307.756 94.1267 306.036 100.433 302.595 106.396C299.27 112.359 294.053 117.232 286.944 121.016C279.949 124.685 270.833 126.52 259.595 126.52C253.977 126.52 249.046 126.233 244.804 125.66C240.676 125.201 236.777 124.399 233.108 123.252C229.438 122.105 225.654 120.615 221.756 118.78V89.196C228.406 92.5214 235.114 95.1014 241.88 96.936C248.645 98.656 254.78 99.516 260.284 99.516C265.214 99.516 268.826 98.656 271.12 96.936C273.413 95.216 274.56 93.0374 274.56 90.4C274.56 87.1894 272.84 84.6094 269.4 82.66C266.074 80.596 260.398 77.7867 252.372 74.232C246.294 71.3654 241.02 68.384 236.548 65.288C232.076 62.0774 228.636 58.1787 226.228 53.592C223.82 49.0054 222.616 43.2147 222.616 36.22C222.616 28.308 224.565 21.7147 228.464 16.44C232.362 11.0507 237.752 7.03737 244.632 4.40004C251.626 1.64804 259.71 0.272043 268.884 0.272043C276.91 0.272043 284.134 1.18938 290.556 3.02405C296.977 4.74405 302.71 6.75071 307.756 9.04404L297.608 34.672C292.333 32.264 287.116 30.372 281.956 28.996C276.91 27.5054 272.209 26.76 267.852 26.76C263.609 26.76 260.456 27.5054 258.391 28.996C256.442 30.4867 255.468 32.3787 255.468 34.672C255.468 36.6214 256.213 38.3414 257.704 39.832C259.194 41.3227 261.66 42.9854 265.1 44.82C268.654 46.54 273.47 48.776 279.548 51.528C285.51 54.1654 290.556 57.0894 294.684 60.3C298.926 63.396 302.137 67.1227 304.316 71.48C306.609 75.7227 307.756 81.0547 307.756 87.476ZM369.185 1.99204C384.78 1.99204 396.418 5.37471 404.101 12.14C411.898 18.9054 415.797 28.5374 415.797 41.036C415.797 46.6547 414.994 52.044 413.389 57.204C411.784 62.2494 409.146 66.836 405.477 70.964C401.922 74.9774 397.164 78.188 391.201 80.596C385.238 82.8894 377.9 84.036 369.185 84.036H359.897V124.8H326.701V1.99204H369.185ZM368.497 28.824H359.897V57.032H366.433C370.79 57.032 374.574 55.9427 377.785 53.764C380.996 51.4707 382.601 47.5147 382.601 41.896C382.601 37.9974 381.454 34.844 379.161 32.436C376.868 30.028 373.313 28.824 368.497 28.824ZM491.965 124.8H427.981V105.88L443.289 100.032V26.588L427.981 20.912V1.99204H491.965V20.912L476.657 26.588V100.032L491.965 105.88V124.8ZM551.379 1.99204C584.747 1.99204 601.431 14.0894 601.431 38.284C601.431 45.7374 599.539 52.216 595.755 57.72C592.085 63.1094 587.04 67.6387 580.619 71.308L616.395 124.8H578.727L552.755 80.08H544.327V124.8H511.131V1.99204H551.379ZM550.863 27.104H544.327V55.14H550.519C555.564 55.14 559.692 54.0507 562.903 51.872C566.228 49.5787 567.891 45.5654 567.891 39.832C567.891 35.8187 566.572 32.7227 563.935 30.544C561.297 28.2507 556.94 27.104 550.863 27.104ZM700.461 124.8H627.533V1.99204H700.461V28.652H660.729V47.916H697.537V74.576H660.729V97.796H700.461V124.8ZM826.164 60.816C826.164 75.0347 823.469 86.9027 818.08 96.42C812.805 105.937 805.352 113.047 795.72 117.748C786.088 122.449 774.736 124.8 761.664 124.8H721.932V1.99204H764.416C784.253 1.99204 799.504 7.03737 810.168 17.128C820.832 27.2187 826.164 41.7814 826.164 60.816ZM791.764 62.02C791.764 39.8894 782.762 28.824 764.76 28.824H755.128V97.624H762.524C772.614 97.624 780.01 94.7 784.712 88.852C789.413 83.004 791.764 74.06 791.764 62.02Z" fill="url(#paint0_linear)"/>
<defs>
<linearGradient id="paint0_linear" x1="747.04" y1="125.2" x2="389.854" y2="-94.2584" gradientUnits="userSpaceOnUse">
<stop stop-color="#FE289C"/>
<stop offset="1" stop-color="#09AB88"/>
</linearGradient>
</defs>
</svg>
