<svg width="666" height="293" viewBox="0 0 666 293" fill="none" xmlns="http://www.w3.org/2000/svg">
<path d="M142.318 242.284L93.418 256.431L102.644 230.289H142.318V242.284Z" stroke="#D7CFD3" stroke-width="1.84529"/>
<path d="M3 262.582L84.1929 290.261L115.255 178.929L106.029 175.853L100.185 191.231L62.6645 193.383L61.4343 172.47L102.646 170.01L94.342 59.9072L25.4511 64.828L32.5247 168.78L3 262.582Z" stroke="#D7CFD3" stroke-width="1.84529" stroke-linejoin="round"/>
<rect x="145.395" y="59.9072" width="78.7325" height="77.5023" stroke="#D7CFD3" stroke-width="1.84529" stroke-linejoin="round"/>
<path d="M662.691 60.5216V147.866H615.636V135.871H440.641V60.5216H662.691Z" stroke="#D7CFD3" stroke-width="1.84529" stroke-linejoin="round"/>
<path d="M415.891 79.5208H440.641V117.519H353.397V145.405H284.406V90.969H314.048V60.5216H415.891V79.5208Z" stroke="#D7CFD3" stroke-width="1.84529" stroke-linejoin="round"/>
<path d="M214.407 175.545V199.534H201.249V241.976H221.585V192.46H251.191V276.421H142.934V175.545H214.407Z" stroke="#D7CFD3" stroke-width="1.84529" stroke-linejoin="round"/>
<path d="M251.191 165.704V191.773V275.807H411.732V165.704H251.191Z" stroke="#D7CFD3" stroke-width="1.84529" stroke-linejoin="round"/>
<path d="M438.022 208.288H411.734V243.152H438.022V259.813H522.452V163.858H438.022V208.288Z" stroke="#D7CFD3" stroke-width="1.84529" stroke-linejoin="round"/>
<path d="M32.2182 168.78L3.30859 262.582L84.194 290.261L102.954 229.674H142.013V275.807H413.579V243.514H439.721V259.507H523.989V186.002H617.176V147.559H663.001V60.2148H439.105V79.2828H414.194V60.2148H312.395V64.5205H225.974V59.9072H143.551V78.6677H111.873L110.336 63.5978L96.1884 64.5205L95.8808 60.2148L25.7597 64.828L32.2182 168.78Z" stroke="#D7CFD3" stroke-width="4.92078" stroke-linejoin="round"/>
<rect x="141.703" y="174.93" width="27.0643" height="63.9702" rx="1.2302" fill="#E01583"/>
<path d="M133.72 158.405H129.616V151.379H133.72V152.737H131.289V154.085H133.543V155.443H131.289V157.028H133.72V158.405ZM136.088 155.65L134.386 153.002H136.266L137.21 154.626L138.165 153.002H140.045L138.322 155.65L140.123 158.405H138.244L137.21 156.654L136.177 158.405H134.297L136.088 155.65ZM142.54 150.926V152.235C142.54 152.563 142.53 152.858 142.511 153.12C142.491 153.376 142.475 153.563 142.461 153.681H142.55C142.721 153.399 142.937 153.199 143.2 153.081C143.462 152.963 143.754 152.904 144.075 152.904C144.449 152.904 144.781 152.973 145.069 153.111C145.358 153.248 145.585 153.465 145.749 153.76C145.919 154.049 146.004 154.423 146.004 154.882V158.405H144.341V155.345C144.341 154.59 144.085 154.213 143.574 154.213C143.18 154.213 142.908 154.364 142.757 154.666C142.612 154.961 142.54 155.384 142.54 155.935V158.405H140.877V150.926H142.54ZM148.249 150.857C148.492 150.857 148.699 150.909 148.869 151.014C149.046 151.119 149.135 151.323 149.135 151.625C149.135 151.92 149.046 152.123 148.869 152.235C148.699 152.34 148.492 152.392 148.249 152.392C148 152.392 147.787 152.34 147.609 152.235C147.439 152.123 147.354 151.92 147.354 151.625C147.354 151.323 147.439 151.119 147.609 151.014C147.787 150.909 148 150.857 148.249 150.857ZM149.066 153.002V158.405H147.413V153.002H149.066ZM152.161 150.926V152.648C152.161 152.845 152.154 153.038 152.141 153.229C152.128 153.412 152.112 153.57 152.092 153.701H152.161C152.298 153.478 152.485 153.291 152.722 153.14C152.958 152.983 153.266 152.904 153.647 152.904C154.231 152.904 154.706 153.14 155.074 153.613C155.448 154.085 155.635 154.777 155.635 155.689C155.635 156.614 155.445 157.316 155.064 157.795C154.69 158.268 154.201 158.504 153.598 158.504C153.21 158.504 152.909 158.435 152.692 158.297C152.476 158.159 152.298 158.008 152.161 157.844H152.052L151.787 158.405H150.497V150.926H152.161ZM153.076 154.213C152.748 154.213 152.515 154.321 152.377 154.538C152.239 154.748 152.167 155.072 152.161 155.512V155.719C152.161 156.198 152.226 156.558 152.358 156.801C152.495 157.044 152.741 157.165 153.096 157.165C153.358 157.165 153.565 157.037 153.716 156.782C153.867 156.526 153.942 156.155 153.942 155.669C153.942 154.698 153.653 154.213 153.076 154.213ZM157.62 150.857C157.863 150.857 158.069 150.909 158.24 151.014C158.417 151.119 158.506 151.323 158.506 151.625C158.506 151.92 158.417 152.123 158.24 152.235C158.069 152.34 157.863 152.392 157.62 152.392C157.37 152.392 157.157 152.34 156.98 152.235C156.809 152.123 156.724 151.92 156.724 151.625C156.724 151.323 156.809 151.119 156.98 151.014C157.157 150.909 157.37 150.857 157.62 150.857ZM158.437 153.002V158.405H156.783V153.002H158.437ZM162.319 157.185C162.483 157.185 162.637 157.169 162.781 157.136C162.932 157.103 163.083 157.06 163.234 157.008V158.228C163.057 158.307 162.853 158.373 162.624 158.425C162.394 158.478 162.122 158.504 161.807 158.504C161.472 158.504 161.174 158.451 160.911 158.346C160.655 158.235 160.452 158.048 160.301 157.785C160.157 157.516 160.085 157.146 160.085 156.673V154.242H159.396V153.554L160.222 153.022L160.675 151.88H161.738V153.002H163.175V154.242H161.738V156.614C161.738 156.805 161.791 156.949 161.895 157.047C162 157.139 162.142 157.185 162.319 157.185ZM165.107 150.857C165.349 150.857 165.556 150.909 165.727 151.014C165.904 151.119 165.992 151.323 165.992 151.625C165.992 151.92 165.904 152.123 165.727 152.235C165.556 152.34 165.349 152.392 165.107 152.392C164.857 152.392 164.644 152.34 164.467 152.235C164.296 152.123 164.211 151.92 164.211 151.625C164.211 151.323 164.296 151.119 164.467 151.014C164.644 150.909 164.857 150.857 165.107 150.857ZM165.924 153.002V158.405H164.27V153.002H165.924ZM172.384 155.689C172.384 156.595 172.145 157.29 171.666 157.776C171.193 158.261 170.544 158.504 169.717 158.504C169.205 158.504 168.749 158.396 168.349 158.179C167.955 157.963 167.644 157.644 167.414 157.224C167.191 156.805 167.079 156.293 167.079 155.689C167.079 154.797 167.316 154.111 167.788 153.632C168.26 153.147 168.913 152.904 169.747 152.904C170.258 152.904 170.711 153.012 171.105 153.229C171.505 153.445 171.817 153.76 172.04 154.174C172.269 154.587 172.384 155.092 172.384 155.689ZM168.762 155.689C168.762 156.188 168.838 156.568 168.989 156.831C169.14 157.093 169.389 157.224 169.737 157.224C170.078 157.224 170.324 157.093 170.475 156.831C170.626 156.568 170.701 156.188 170.701 155.689C170.701 155.19 170.626 154.817 170.475 154.567C170.324 154.311 170.075 154.183 169.727 154.183C169.386 154.183 169.14 154.311 168.989 154.567C168.838 154.817 168.762 155.19 168.762 155.689ZM176.743 152.904C177.314 152.904 177.773 153.061 178.121 153.376C178.476 153.685 178.653 154.187 178.653 154.882V158.405H176.999V155.345C176.999 154.971 176.937 154.689 176.812 154.498C176.688 154.308 176.491 154.213 176.222 154.213C175.815 154.213 175.539 154.364 175.395 154.666C175.257 154.961 175.188 155.387 175.188 155.945V158.405H173.525V153.002H174.785L175.011 153.701H175.09C175.261 153.439 175.487 153.242 175.769 153.111C176.058 152.973 176.383 152.904 176.743 152.904ZM185.777 152.668C185.258 152.668 184.858 152.868 184.576 153.268C184.3 153.662 184.162 154.21 184.162 154.912C184.162 155.627 184.297 156.175 184.566 156.555C184.835 156.929 185.255 157.116 185.826 157.116C186.121 157.116 186.413 157.08 186.702 157.008C186.99 156.929 187.295 156.831 187.617 156.713V158.13C187.309 158.261 186.997 158.356 186.682 158.415C186.367 158.474 186.026 158.504 185.658 158.504C184.91 158.504 184.3 158.353 183.828 158.051C183.355 157.749 183.004 157.329 182.775 156.791C182.552 156.253 182.44 155.624 182.44 154.902C182.44 154.193 182.568 153.567 182.824 153.022C183.086 152.477 183.467 152.051 183.966 151.743C184.464 151.434 185.071 151.28 185.786 151.28C186.134 151.28 186.488 151.323 186.849 151.408C187.21 151.487 187.558 151.608 187.892 151.772L187.371 153.111C187.108 152.986 186.846 152.881 186.584 152.796C186.321 152.71 186.052 152.668 185.777 152.668ZM193.961 155.689C193.961 156.595 193.721 157.29 193.242 157.776C192.77 158.261 192.12 158.504 191.293 158.504C190.782 158.504 190.326 158.396 189.925 158.179C189.532 157.963 189.22 157.644 188.991 157.224C188.767 156.805 188.656 156.293 188.656 155.689C188.656 154.797 188.892 154.111 189.365 153.632C189.837 153.147 190.49 152.904 191.323 152.904C191.835 152.904 192.287 153.012 192.681 153.229C193.081 153.445 193.393 153.76 193.616 154.174C193.846 154.587 193.961 155.092 193.961 155.689ZM190.339 155.689C190.339 156.188 190.414 156.568 190.565 156.831C190.716 157.093 190.965 157.224 191.313 157.224C191.654 157.224 191.9 157.093 192.051 156.831C192.202 156.568 192.278 156.188 192.278 155.689C192.278 155.19 192.202 154.817 192.051 154.567C191.9 154.311 191.651 154.183 191.303 154.183C190.962 154.183 190.716 154.311 190.565 154.567C190.414 154.817 190.339 155.19 190.339 155.689ZM201.568 152.904C202.184 152.904 202.65 153.061 202.965 153.376C203.287 153.685 203.447 154.187 203.447 154.882V158.405H201.794V155.345C201.794 154.951 201.732 154.666 201.607 154.488C201.482 154.305 201.299 154.213 201.056 154.213C200.708 154.213 200.462 154.347 200.318 154.616C200.173 154.885 200.101 155.272 200.101 155.778V158.405H198.448V155.345C198.448 154.958 198.389 154.672 198.271 154.488C198.153 154.305 197.969 154.213 197.72 154.213C197.352 154.213 197.1 154.364 196.962 154.666C196.831 154.961 196.765 155.387 196.765 155.945V158.405H195.102V153.002H196.361L196.598 153.681H196.667C196.817 153.432 197.031 153.242 197.306 153.111C197.588 152.973 197.907 152.904 198.261 152.904C199.035 152.904 199.576 153.16 199.885 153.672H199.983C200.154 153.416 200.38 153.225 200.662 153.101C200.944 152.97 201.246 152.904 201.568 152.904ZM211.313 152.904C211.93 152.904 212.396 153.061 212.711 153.376C213.032 153.685 213.193 154.187 213.193 154.882V158.405H211.539V155.345C211.539 154.951 211.477 154.666 211.352 154.488C211.228 154.305 211.044 154.213 210.801 154.213C210.454 154.213 210.208 154.347 210.063 154.616C209.919 154.885 209.847 155.272 209.847 155.778V158.405H208.193V155.345C208.193 154.958 208.134 154.672 208.016 154.488C207.898 154.305 207.714 154.213 207.465 154.213C207.098 154.213 206.845 154.364 206.707 154.666C206.576 154.961 206.51 155.387 206.51 155.945V158.405H204.847V153.002H206.107L206.343 153.681H206.412C206.563 153.432 206.776 153.242 207.052 153.111C207.334 152.973 207.652 152.904 208.006 152.904C208.781 152.904 209.322 153.16 209.63 153.672H209.729C209.899 153.416 210.126 153.225 210.408 153.101C210.69 152.97 210.992 152.904 211.313 152.904ZM219.622 155.689C219.622 156.595 219.382 157.29 218.903 157.776C218.431 158.261 217.781 158.504 216.955 158.504C216.443 158.504 215.987 158.396 215.587 158.179C215.193 157.963 214.881 157.644 214.652 157.224C214.429 156.805 214.317 156.293 214.317 155.689C214.317 154.797 214.553 154.111 215.026 153.632C215.498 153.147 216.151 152.904 216.984 152.904C217.496 152.904 217.949 153.012 218.342 153.229C218.742 153.445 219.054 153.76 219.277 154.174C219.507 154.587 219.622 155.092 219.622 155.689ZM216 155.689C216 156.188 216.075 156.568 216.226 156.831C216.377 157.093 216.627 157.224 216.974 157.224C217.315 157.224 217.561 157.093 217.712 156.831C217.863 156.568 217.939 156.188 217.939 155.689C217.939 155.19 217.863 154.817 217.712 154.567C217.561 154.311 217.312 154.183 216.964 154.183C216.623 154.183 216.377 154.311 216.226 154.567C216.075 154.817 216 155.19 216 155.689ZM223.981 152.904C224.552 152.904 225.011 153.061 225.359 153.376C225.713 153.685 225.89 154.187 225.89 154.882V158.405H224.237V155.345C224.237 154.971 224.175 154.689 224.05 154.498C223.925 154.308 223.728 154.213 223.459 154.213C223.053 154.213 222.777 154.364 222.633 154.666C222.495 154.961 222.426 155.387 222.426 155.945V158.405H220.763V153.002H222.023L222.249 153.701H222.328C222.498 153.439 222.725 153.242 223.007 153.111C223.295 152.973 223.62 152.904 223.981 152.904ZM231.176 156.772C231.176 157.31 230.989 157.733 230.615 158.041C230.248 158.35 229.67 158.504 228.883 158.504C228.502 158.504 228.168 158.481 227.879 158.435C227.597 158.389 227.312 158.307 227.023 158.189V156.85C227.338 156.995 227.666 157.106 228.007 157.185C228.348 157.257 228.637 157.293 228.873 157.293C229.122 157.293 229.303 157.26 229.414 157.195C229.526 157.129 229.582 157.037 229.582 156.919C229.582 156.834 229.552 156.759 229.493 156.693C229.441 156.627 229.329 156.555 229.159 156.476C228.994 156.391 228.748 156.28 228.42 156.142C228.099 156.011 227.833 155.873 227.623 155.728C227.42 155.578 227.266 155.404 227.161 155.207C227.062 155.003 227.013 154.751 227.013 154.449C227.013 153.937 227.21 153.554 227.604 153.298C227.997 153.035 228.525 152.904 229.188 152.904C229.536 152.904 229.864 152.94 230.172 153.012C230.481 153.084 230.799 153.196 231.127 153.347L230.654 154.469C230.392 154.351 230.133 154.256 229.877 154.183C229.621 154.111 229.391 154.075 229.188 154.075C228.808 154.075 228.617 154.174 228.617 154.37C228.617 154.449 228.643 154.518 228.696 154.577C228.755 154.63 228.863 154.695 229.021 154.774C229.185 154.846 229.421 154.948 229.729 155.079C230.038 155.204 230.3 155.335 230.517 155.473C230.733 155.61 230.897 155.784 231.009 155.994C231.12 156.198 231.176 156.457 231.176 156.772Z" fill="#D7CFD3"/>
<path d="M250.112 76.3959C249.593 76.3959 249.193 76.596 248.911 76.9962C248.635 77.3899 248.498 77.9378 248.498 78.6398C248.498 79.3549 248.632 79.9028 248.901 80.2833C249.17 80.6573 249.59 80.8443 250.161 80.8443C250.456 80.8443 250.748 80.8082 251.037 80.736C251.325 80.6573 251.63 80.5589 251.952 80.4408V81.858C251.644 81.9892 251.332 82.0843 251.017 82.1434C250.702 82.2024 250.361 82.232 249.993 82.232C249.246 82.232 248.635 82.0811 248.163 81.7792C247.691 81.4774 247.34 81.0575 247.11 80.5195C246.887 79.9815 246.775 79.3517 246.775 78.6299C246.775 77.9214 246.903 77.2948 247.159 76.7502C247.422 76.2056 247.802 75.7792 248.301 75.4708C248.799 75.1624 249.406 75.0082 250.121 75.0082C250.469 75.0082 250.823 75.0509 251.184 75.1362C251.545 75.2149 251.893 75.3363 252.227 75.5003L251.706 76.8388C251.443 76.7141 251.181 76.6091 250.919 76.5239C250.656 76.4386 250.387 76.3959 250.112 76.3959ZM255.688 76.6223C256.39 76.6223 256.934 76.7863 257.321 77.1143C257.708 77.4358 257.902 77.9148 257.902 78.5512V82.1335H256.75L256.426 81.4053H256.386C256.157 81.694 255.914 81.9039 255.658 82.0351C255.402 82.1664 255.051 82.232 254.605 82.232C254.126 82.232 253.729 82.0909 253.414 81.8088C253.099 81.5266 252.942 81.0903 252.942 80.4998C252.942 79.9225 253.142 79.496 253.542 79.2204C253.949 78.9449 254.543 78.7907 255.323 78.7579L256.249 78.7284V78.5709C256.249 78.3085 256.18 78.1182 256.042 78.0001C255.911 77.882 255.727 77.8229 255.491 77.8229C255.248 77.8229 254.999 77.8623 254.743 77.941C254.493 78.0132 254.238 78.1051 253.975 78.2166L253.473 77.1143C253.768 76.9569 254.103 76.8355 254.477 76.7502C254.851 76.6649 255.255 76.6223 255.688 76.6223ZM256.249 79.6732L255.747 79.6928C255.333 79.706 255.045 79.7814 254.881 79.9192C254.717 80.0504 254.635 80.2308 254.635 80.4605C254.635 80.6704 254.69 80.8213 254.802 80.9132C254.92 80.9985 255.074 81.0411 255.264 81.0411C255.54 81.0411 255.773 80.9591 255.963 80.7951C256.153 80.6245 256.249 80.3949 256.249 80.1062V79.6732ZM262.442 77.9706H261.221V82.1335H259.568V77.9706H258.8V77.1636L259.588 76.7404V76.4845C259.588 75.789 259.745 75.3035 260.06 75.0279C260.375 74.7458 260.841 74.6047 261.458 74.6047C261.74 74.6047 261.996 74.6277 262.225 74.6736C262.461 74.713 262.678 74.7688 262.875 74.8409L262.481 75.9826C262.376 75.9498 262.261 75.9235 262.137 75.9038C262.018 75.8776 261.884 75.8645 261.733 75.8645C261.392 75.8645 261.221 76.0711 261.221 76.4845V76.7305H262.442V77.9706ZM265.566 76.6321C266.327 76.6321 266.93 76.8421 267.376 77.262C267.823 77.6753 268.046 78.2855 268.046 79.0925V79.8601H264.631C264.644 80.2144 264.759 80.4966 264.975 80.7065C265.192 80.9165 265.5 81.0214 265.9 81.0214C266.248 81.0214 266.563 80.9886 266.845 80.923C267.127 80.8574 267.419 80.7524 267.721 80.6081V81.8383C267.458 81.9761 267.176 82.0745 266.874 82.1335C266.573 82.1992 266.202 82.232 265.762 82.232C265.218 82.232 264.732 82.1335 264.306 81.9367C263.886 81.7399 263.555 81.4381 263.312 81.0313C263.076 80.6245 262.958 80.1029 262.958 79.4665C262.958 78.5086 263.197 77.7967 263.676 77.3309C264.155 76.865 264.785 76.6321 265.566 76.6321ZM265.595 77.7836C265.339 77.7836 265.126 77.8656 264.955 78.0296C264.791 78.1936 264.693 78.4462 264.66 78.7874H266.52C266.514 78.4987 266.432 78.2592 266.274 78.069C266.123 77.8787 265.897 77.7836 265.595 77.7836ZM271.614 80.9132C271.778 80.9132 271.932 80.8968 272.076 80.864C272.227 80.8312 272.378 80.7885 272.529 80.736V81.9564C272.352 82.0351 272.148 82.1007 271.919 82.1532C271.689 82.2057 271.417 82.232 271.102 82.232C270.767 82.232 270.469 82.1795 270.206 82.0745C269.95 81.963 269.747 81.776 269.596 81.5135C269.452 81.2445 269.38 80.8738 269.38 80.4014V77.9706H268.691V77.2817L269.517 76.7502L269.97 75.6086H271.033V76.7305H272.47V77.9706H271.033V80.3424C271.033 80.5326 271.085 80.677 271.19 80.7754C271.295 80.8673 271.436 80.9132 271.614 80.9132ZM275.888 76.6321C276.649 76.6321 277.252 76.8421 277.698 77.262C278.145 77.6753 278.368 78.2855 278.368 79.0925V79.8601H274.953C274.966 80.2144 275.081 80.4966 275.297 80.7065C275.514 80.9165 275.822 81.0214 276.222 81.0214C276.57 81.0214 276.885 80.9886 277.167 80.923C277.449 80.8574 277.741 80.7524 278.043 80.6081V81.8383C277.78 81.9761 277.498 82.0745 277.197 82.1335C276.895 82.1992 276.524 82.232 276.084 82.232C275.54 82.232 275.054 82.1335 274.628 81.9367C274.208 81.7399 273.877 81.4381 273.634 81.0313C273.398 80.6245 273.28 80.1029 273.28 79.4665C273.28 78.5086 273.519 77.7967 273.998 77.3309C274.477 76.865 275.107 76.6321 275.888 76.6321ZM275.917 77.7836C275.661 77.7836 275.448 77.8656 275.277 78.0296C275.113 78.1936 275.015 78.4462 274.982 78.7874H276.842C276.836 78.4987 276.754 78.2592 276.596 78.069C276.445 77.8787 276.219 77.7836 275.917 77.7836ZM282.625 76.6321C282.71 76.6321 282.805 76.6387 282.91 76.6518C283.015 76.6584 283.097 76.6682 283.156 76.6813L283.018 78.2363C282.887 78.2035 282.71 78.1871 282.487 78.1871C282.277 78.1871 282.067 78.2232 281.857 78.2953C281.654 78.3609 281.483 78.4823 281.345 78.6595C281.214 78.8366 281.148 79.0925 281.148 79.4271V82.1335H279.485V76.7305H280.735L280.991 77.6163H281.06C281.217 77.3473 281.43 77.1176 281.699 76.9274C281.975 76.7305 282.283 76.6321 282.625 76.6321ZM284.868 74.5851C285.111 74.5851 285.317 74.6376 285.488 74.7425C285.665 74.8475 285.754 75.0509 285.754 75.3527C285.754 75.648 285.665 75.8513 285.488 75.9629C285.317 76.0679 285.111 76.1203 284.868 76.1203C284.619 76.1203 284.405 76.0679 284.228 75.9629C284.058 75.8513 283.972 75.648 283.972 75.3527C283.972 75.0509 284.058 74.8475 284.228 74.7425C284.405 74.6376 284.619 74.5851 284.868 74.5851ZM285.685 76.7305V82.1335H284.031V76.7305H285.685ZM289.537 76.6223C290.239 76.6223 290.784 76.7863 291.171 77.1143C291.558 77.4358 291.752 77.9148 291.752 78.5512V82.1335H290.6L290.275 81.4053H290.236C290.006 81.694 289.764 81.9039 289.508 82.0351C289.252 82.1664 288.901 82.232 288.455 82.232C287.976 82.232 287.579 82.0909 287.264 81.8088C286.949 81.5266 286.791 81.0903 286.791 80.4998C286.791 79.9225 286.992 79.496 287.392 79.2204C287.799 78.9449 288.392 78.7907 289.173 78.7579L290.098 78.7284V78.5709C290.098 78.3085 290.029 78.1182 289.891 78.0001C289.76 77.882 289.577 77.8229 289.34 77.8229C289.098 77.8229 288.848 77.8623 288.592 77.941C288.343 78.0132 288.087 78.1051 287.825 78.2166L287.323 77.1143C287.618 76.9569 287.953 76.8355 288.327 76.7502C288.701 76.6649 289.104 76.6223 289.537 76.6223ZM290.098 79.6732L289.596 79.6928C289.183 79.706 288.894 79.7814 288.73 79.9192C288.566 80.0504 288.484 80.2308 288.484 80.4605C288.484 80.6704 288.54 80.8213 288.651 80.9132C288.77 80.9985 288.924 81.0411 289.114 81.0411C289.39 81.0411 289.622 80.9591 289.813 80.7951C290.003 80.6245 290.098 80.3949 290.098 80.1062V79.6732Z" fill="#D7CFD3"/>
<path d="M37.5239 23H24.3762V20.751L29.4219 15.2584C30.1427 14.4799 30.7866 13.7687 31.3537 13.1248C31.9207 12.4809 32.4013 11.8513 32.7953 11.2363C33.199 10.6212 33.5065 10.0061 33.718 9.39096C33.9294 8.76625 34.0351 8.08868 34.0351 7.35825C34.0351 6.79121 33.9534 6.29144 33.79 5.85895C33.6267 5.42646 33.3912 5.06124 33.0836 4.76331C32.7857 4.45576 32.4301 4.2251 32.0168 4.07132C31.6036 3.91755 31.1422 3.84066 30.6329 3.84066C29.7198 3.84066 28.8933 4.02807 28.1532 4.4029C27.4228 4.76811 26.726 5.23905 26.0629 5.8157L24.5924 4.10015C24.9768 3.75416 25.3901 3.4322 25.8322 3.13426C26.2743 2.82671 26.7501 2.56241 27.2594 2.34136C27.7688 2.12031 28.307 1.94731 28.8741 1.82237C29.4411 1.68782 30.037 1.62054 30.6617 1.62054C31.5843 1.62054 32.4157 1.75029 33.1557 2.00978C33.9054 2.26928 34.5397 2.6441 35.0587 3.13426C35.5777 3.6148 35.9765 4.20587 36.2552 4.90747C36.5436 5.59946 36.6877 6.38274 36.6877 7.25734C36.6877 8.07426 36.558 8.85275 36.2985 9.59279C36.0486 10.3328 35.6978 11.0633 35.2461 11.7841C34.804 12.4953 34.2706 13.2113 33.6459 13.9321C33.0308 14.6529 32.3628 15.4026 31.642 16.1811L27.591 20.4916V20.6069H37.5239V23ZM52.5457 23V12.8797C52.5457 11.5919 52.2574 10.6356 51.6807 10.0109C51.1137 9.37654 50.2199 9.05938 48.9993 9.05938C47.3751 9.05938 46.1929 9.51109 45.4529 10.4145C44.7224 11.3083 44.3572 12.7692 44.3572 14.7971V23H41.7623V7.17084H43.8527L44.2419 9.33329H44.3861C44.8762 8.55481 45.5634 7.95413 46.4476 7.53125C47.3318 7.09876 48.3073 6.88251 49.3741 6.88251C51.3155 6.88251 52.7572 7.35345 53.699 8.29531C54.6409 9.23718 55.1118 10.7028 55.1118 12.6923V23H52.5457ZM65.6214 23.2883C63.5646 23.2883 61.9692 22.5771 60.8351 21.1547C59.701 19.7323 59.134 17.7188 59.134 15.1143C59.134 12.5289 59.701 10.5106 60.8351 9.05938C61.9788 7.60813 63.5838 6.88251 65.6502 6.88251C67.7742 6.88251 69.4081 7.66099 70.5518 9.21796H70.7392C70.7103 9.02574 70.6719 8.64131 70.6238 8.06465C70.5758 7.47839 70.5518 7.08434 70.5518 6.88251V0.568146H73.1467V23H71.0563L70.6671 20.8808H70.5518C69.4465 22.4858 67.803 23.2883 65.6214 23.2883ZM66.0394 21.1403C67.6156 21.1403 68.7641 20.7126 69.4849 19.8572C70.2154 18.9923 70.5806 17.5794 70.5806 15.6188V15.1431C70.5806 12.9422 70.2106 11.3756 69.4705 10.4434C68.7401 9.50148 67.5868 9.03055 66.0106 9.03055C64.6747 9.03055 63.6415 9.56395 62.9111 10.6308C62.1807 11.688 61.8154 13.2017 61.8154 15.1719C61.8154 17.1325 62.1759 18.6174 62.8967 19.6266C63.6271 20.6357 64.6747 21.1403 66.0394 21.1403ZM88.8605 23H86.2079V1.92328H97.9861V4.25873H88.8605V11.7264H97.4238V14.0474H88.8605V23ZM103.781 23H101.187V0.568146H103.781V23ZM122.552 15.0566C122.552 17.6419 121.898 19.6602 120.591 21.1115C119.284 22.5627 117.477 23.2883 115.17 23.2883C113.738 23.2883 112.47 22.9568 111.364 22.2936C110.259 21.6208 109.409 20.6597 108.813 19.4103C108.217 18.1609 107.919 16.7097 107.919 15.0566C107.919 12.4809 108.563 10.477 109.851 9.04497C111.139 7.60333 112.945 6.88251 115.271 6.88251C117.501 6.88251 119.269 7.61775 120.577 9.08821C121.893 10.5491 122.552 12.5385 122.552 15.0566ZM110.6 15.0566C110.6 17.046 110.99 18.5598 111.768 19.5977C112.556 20.6261 113.714 21.1403 115.242 21.1403C116.751 21.1403 117.9 20.6261 118.688 19.5977C119.476 18.5598 119.87 17.046 119.87 15.0566C119.87 13.0671 119.471 11.5726 118.674 10.5731C117.885 9.56395 116.727 9.05938 115.199 9.05938C112.133 9.05938 110.6 11.0584 110.6 15.0566ZM140.428 15.0566C140.428 17.6419 139.774 19.6602 138.467 21.1115C137.16 22.5627 135.353 23.2883 133.047 23.2883C131.615 23.2883 130.346 22.9568 129.241 22.2936C128.135 21.6208 127.285 20.6597 126.689 19.4103C126.093 18.1609 125.795 16.7097 125.795 15.0566C125.795 12.4809 126.439 10.477 127.727 9.04497C129.015 7.60333 130.822 6.88251 133.148 6.88251C135.377 6.88251 137.146 7.61775 138.453 9.08821C139.769 10.5491 140.428 12.5385 140.428 15.0566ZM128.477 15.0566C128.477 17.046 128.866 18.5598 129.644 19.5977C130.433 20.6261 131.591 21.1403 133.119 21.1403C134.628 21.1403 135.776 20.6261 136.564 19.5977C137.352 18.5598 137.746 17.046 137.746 15.0566C137.746 13.0671 137.348 11.5726 136.55 10.5731C135.762 9.56395 134.604 9.05938 133.076 9.05938C130.01 9.05938 128.477 11.0584 128.477 15.0566ZM151.932 6.88251C152.634 6.88251 153.254 6.94018 153.792 7.05551L153.475 9.44862C152.888 9.31407 152.317 9.24679 151.759 9.24679C150.923 9.24679 150.144 9.47746 149.424 9.93878C148.712 10.4001 148.155 11.0392 147.751 11.8562C147.348 12.6635 147.146 13.5621 147.146 14.552V23H144.551V7.17084H146.685L146.973 10.0685H147.088C147.694 9.02094 148.41 8.22804 149.236 7.68983C150.063 7.15162 150.961 6.88251 151.932 6.88251Z" fill="#D7CFD3"/>
</svg>
