<svg width="300" height="300" viewBox="0 0 300 300" fill="none" xmlns="http://www.w3.org/2000/svg">
<path d="M274.998 80.7559L273.538 127.304C273.528 127.673 273.384 128.026 273.133 128.297C272.882 128.568 272.542 128.739 272.174 128.779C263.484 129.716 256.47 137.003 256.583 145.061C256.688 152.548 262.867 158.073 270.74 158.073C271.356 158.076 271.971 158.044 272.583 157.978L271.375 195.652C271.363 195.979 271.245 196.293 271.038 196.547C270.83 196.801 270.546 196.98 270.227 197.057L172.825 219.959C172.607 220.011 172.38 220.014 172.161 219.966C171.942 219.918 171.737 219.821 171.561 219.682C171.385 219.543 171.243 219.367 171.146 219.165C171.049 218.963 170.999 218.742 171 218.519V206.053C187.06 201.776 202.216 197.482 212.532 194.507C221.02 192.086 228.815 187.698 235.281 181.7C241.748 175.701 246.704 168.263 249.744 159.99C249.848 159.713 249.944 159.444 250.031 159.184C250.502 157.797 250.455 156.288 249.9 154.933C249.344 153.578 248.316 152.469 247.007 151.81L245.112 150.865L253.194 134.73C256.427 123.453 245.112 125.058 245.112 125.058L246.728 118.604C248.345 107.326 237.03 108.923 237.03 108.923C237.03 100.855 232.189 99.2416 232.189 99.2416C227.34 92.7963 182.089 118.604 182.089 118.604L175.389 121.31C173.991 121.873 172.506 122.19 171 122.247V89.9597C171 89.5898 171.138 89.2331 171.387 88.959C171.636 88.6849 171.978 88.5129 172.347 88.4763L209.525 85.0932C209.525 84.859 209.473 84.6248 209.473 84.3819C209.36 76.3231 216.338 69.0364 225.063 68.0995C233.788 67.1626 240.958 72.9486 241.062 80.9641C241.062 81.3718 241.062 81.7795 241.01 82.1785L273.373 79.2118C273.585 79.1917 273.799 79.2172 274 79.2866C274.201 79.356 274.384 79.4677 274.539 79.614C274.693 79.7604 274.813 79.9381 274.893 80.1351C274.972 80.3321 275.008 80.5438 274.998 80.7559V80.7559Z" fill="white" stroke="#16171E" stroke-width="2" stroke-miterlimit="10"/>
<path d="M114.5 219.985C118.594 219.253 123.141 218.339 127.991 217.268L127.757 217.468C127.2 217.938 126.644 218.391 126.07 218.826C118.49 224.665 109.69 228.712 100.328 230.665C90.9671 232.618 81.2862 232.426 72.0093 230.104C70.375 229.686 68.7581 229.233 67.176 228.676C58.3568 225.704 50.2987 220.824 43.5742 214.381C36.8497 207.939 31.6237 200.092 28.2672 191.398C24.9108 182.704 23.5063 173.377 24.1535 164.078C24.8007 154.779 27.4837 145.737 32.012 137.594C36.5403 129.45 42.8027 122.406 50.3546 116.961C57.9066 111.515 66.5627 107.802 75.7082 106.086C84.8537 104.369 94.2644 104.691 103.272 107.028C112.279 109.366 120.662 113.661 127.826 119.61L128 119.758C120.478 122.993 112.747 125.716 104.86 127.909C86.7958 133.073 53.2848 137.584 31.8395 140.719C27.3105 148.383 24.8852 159.443 24.8852 169.214C24.8852 197.177 43.9313 221.212 68.8016 228.171C70.4098 228.623 72.0006 229.181 73.6348 229.599C87.1175 226.202 102.834 222.075 114.5 219.985Z" fill="black"/>
<path d="M171.754 205.344V206.122C157.492 209.908 142.508 213.676 129.55 216.494L128.141 216.796C123.288 217.859 118.74 218.767 114.644 219.493C102.973 221.567 87.2499 225.664 73.7703 229C72.1353 228.585 70.5438 228.032 68.935 227.583C44.0541 220.668 25 196.822 25 169.07C25 159.373 27.4002 148.396 31.9572 140.79C53.4203 137.679 86.9455 133.202 105.008 128.076C112.899 125.9 120.633 123.197 128.159 119.987L129.628 119.338C135.498 116.787 141.065 113.598 146.23 109.831C148.668 108.025 151.228 106.387 153.892 104.931C160.179 101.422 170.267 95.7951 171.711 95V123.236C171.711 123.288 181.425 119.779 171.615 123.306C170.502 123.703 160.171 119.805 167.78 122.113C169.053 122.497 170.381 122.669 171.711 122.623L171.789 122.338" stroke="#16171E" stroke-width="2" stroke-miterlimit="10"/>
<path d="M195 146C200.685 143.964 206.106 141.263 211.152 137.955C221.3 130.982 231.353 120.264 237 109" stroke="#16171E" stroke-width="2" stroke-miterlimit="10"/>
<path d="M212 161C212 161 232.425 151.179 245 125" stroke="#16171E" stroke-width="2" stroke-miterlimit="10"/>
<path d="M220 175C220 175 232.496 172.355 245 151" stroke="#16171E" stroke-width="2" stroke-miterlimit="10"/>
<path d="M231 99L227.553 101.761C226.336 102.732 225.492 104.077 225.158 105.577C224.825 107.076 225.022 108.642 225.717 110.019L230.707 119" stroke="#16171E" stroke-miterlimit="10"/>
<path d="M242.344 109L238.902 115.001C238.375 115.919 238.071 116.934 238.011 117.974C237.951 119.015 238.137 120.055 238.555 121.02L243 130" stroke="#16171E" stroke-miterlimit="10"/>
<path d="M248.407 126L246.876 128.662C246.326 129.615 246.026 130.68 246.002 131.766C245.977 132.852 246.228 133.928 246.734 134.903L250 141" stroke="#16171E" stroke-miterlimit="10"/>
<path d="M247.691 153L246.475 155.125C246.046 155.882 245.903 156.733 246.065 157.561C246.228 158.389 246.689 159.155 247.385 159.754L250 162" stroke="#16171E" stroke-miterlimit="10"/>
</svg>
