<svg width="300" height="300" viewBox="0 0 300 300" fill="none" xmlns="http://www.w3.org/2000/svg">
<path d="M146 65C145.843 65.0705 145.694 65.1499 145.546 65.2293C143.117 66.5898 141.026 68.4892 139.43 70.7842C138.636 71.9131 138.137 73.2264 137.98 74.6022C137.84 75.7749 137.701 77.0182 137.692 77.0182L133.848 76.6743C132.176 76.4973 130.491 76.8703 129.046 77.7379C127.601 78.6054 126.472 79.921 125.828 81.4886C125.752 81.6754 125.688 81.8668 125.636 82.0617L123.364 90.7204C123.351 90.7328 123.334 90.7397 123.316 90.7397C123.298 90.7397 123.281 90.7328 123.268 90.7204C117.284 88.5778 113.606 99.9699 113.536 100.208L112.846 119.606L96.0897 120.488C96.0897 120.215 96.0897 119.95 96.0897 119.668C95.8715 115.379 94.0298 111.339 90.9449 108.381C87.86 105.423 83.7676 103.774 79.5126 103.774C75.2577 103.774 71.1652 105.423 68.0803 108.381C64.9955 111.339 63.1538 115.379 62.9356 119.668C62.9383 120.555 63.0143 121.439 63.1627 122.313L50.6786 122.992C49.9476 123.032 49.2162 122.921 48.5292 122.665C47.8422 122.41 47.2138 122.017 46.6825 121.508C46.1511 121 45.7279 120.388 45.4387 119.709C45.1494 119.031 45.0001 118.3 45 117.561V86.4969C45.0029 82.2472 46.6193 78.1603 49.5167 75.0769C52.4142 71.9934 56.3723 70.1479 60.5768 69.9201L146 65Z" fill="white" stroke="#16171E" stroke-width="2" stroke-miterlimit="10"/>
<path d="M255 76.4273V106.491C254.976 107.891 254.414 109.229 253.431 110.229C252.447 111.228 251.116 111.813 249.713 111.862L239.33 112.402C239.416 113.076 239.463 113.754 239.47 114.434C239.47 123.571 231.771 131 222.279 131C212.788 131 205.089 123.597 205.089 114.434C205.089 114.347 205.089 114.259 205.089 114.181L201.593 114.364V114.216C201.593 114.216 198.412 114.434 194.453 114.73H194.304L175.619 115.689C174.256 96.5596 172.902 72.7042 172.832 70.9255C172.756 68.259 171.755 65.7014 170 63.6887L236.97 60.0267C246.759 59.4948 255 66.9845 255 76.4273Z" fill="white" stroke="#16171E" stroke-width="2" stroke-miterlimit="10"/>
<path d="M202 114.002V114.289L195 115C198.908 114.425 202 113.968 202 114.002Z" fill="white" stroke="#16171E" stroke-width="2" stroke-miterlimit="10"/>
<path d="M222 172C222 190.035 214.888 207.331 202.23 220.083C189.571 232.836 172.402 240 154.5 240C136.598 240 119.429 232.836 106.77 220.083C94.1116 207.331 87 190.035 87 172H111.387L111.849 178.633L114.192 225.321C114.192 225.321 120.193 229.506 120.219 229.515C159.412 252.214 191.124 227.83 191.307 227.707C191.804 227.383 194.451 193.374 195.871 172H222Z" fill="black"/>
<path d="M201.965 114.556L197.214 156.163C197.267 157.593 196.9 164.086 196.342 172.632C194.922 193.748 192.272 227.345 191.775 227.666C191.592 227.787 159.834 251.876 120.624 229.451C120.624 229.451 114.6 225.334 114.592 225.308L112.247 179.185L111.785 172.632L111 161.65L113.223 100.436C113.293 100.202 116.963 89.003 122.934 91.1093C122.947 91.1215 122.964 91.1283 122.982 91.1283C123 91.1283 123.017 91.1215 123.03 91.1093L125.305 82.5973C125.357 82.4057 125.421 82.2175 125.497 82.0339C126.128 80.4877 127.245 79.1856 128.68 78.3218C130.116 77.458 131.794 77.0787 133.465 77.2404L137.283 77.5785C137.283 77.5785 137.431 76.3563 137.57 75.2034C137.74 73.8538 138.25 72.5687 139.052 71.4675C140.644 69.2113 142.731 67.3441 145.154 66.0066C145.303 65.9286 145.451 65.8506 145.608 65.7813C146.724 65.2609 147.935 64.9689 149.167 64.9228C150.4 64.8766 151.629 65.0772 152.782 65.5125C152.791 65.5189 152.802 65.5223 152.813 65.5223C152.824 65.5223 152.834 65.5189 152.843 65.5125C153.392 65.0271 162.083 57.5206 169.153 62.9815C169.632 63.3529 170.079 63.7647 170.487 64.2123C172.237 66.2133 173.235 68.7559 173.311 71.4068C173.381 73.1404 174.732 96.8909 176.092 115.909C177.225 131.788 178.367 144.401 178.768 138.246L179.806 116.091L194.73 114.955H194.878C198.827 114.66 202 114.426 202 114.444L201.965 114.556Z" stroke="black" stroke-width="2" stroke-miterlimit="10"/>
<path d="M123 91C123 91 117.509 125.872 119.394 137" stroke="black" stroke-width="2" stroke-miterlimit="10"/>
<path d="M138 75C138 75 131.215 124.144 133.453 132" stroke="black" stroke-width="2" stroke-miterlimit="10"/>
<path d="M153 65C153 65 148.374 117.271 150.611 126" stroke="black" stroke-width="2" stroke-miterlimit="10"/>
<path d="M165.923 61C161.843 61 157.402 65.0298 157.402 70.5643L157 77H174" stroke="black" stroke-miterlimit="10"/>
<path d="M113 104L116.423 102.954C117.327 102.677 118.129 102.166 118.738 101.478C119.347 100.79 119.738 99.9533 119.865 99.0649L121 91" stroke="black" stroke-miterlimit="10"/>
<path d="M123 91L130.49 90.6673C131.174 90.6382 131.827 90.3837 132.335 89.9476C132.842 89.5115 133.174 88.9212 133.272 88.2785L135 77" stroke="black" stroke-miterlimit="10"/>
<path d="M138 80H145.486C147.103 80 148.736 79.414 148.895 77.7347L150 65" stroke="black" stroke-miterlimit="10"/>
</svg>
