<svg width="300" height="300" viewBox="0 0 300 300" fill="none" xmlns="http://www.w3.org/2000/svg">
<path d="M121 123.543V145.909V146.972L98.419 160.99C97.3119 161.678 96.3161 162.532 95.466 163.522C88.4378 171.678 92.6483 176.63 95.856 178.244C97.7016 179.121 99.7276 179.549 101.769 179.492C103.811 179.435 105.81 178.895 107.604 177.916C111.908 175.643 116.372 173.689 120.96 172.069V173.307L120.912 217L26.1947 211.409V179.705C17.7974 179.258 10.9841 172.069 11 163.794C11.0013 161.84 11.4058 159.907 12.1882 158.118C12.9706 156.329 14.1138 154.722 15.5459 153.398C16.9779 152.074 18.6676 151.063 20.5086 150.427C22.3496 149.791 24.3019 149.544 26.2424 149.703V118L58.3748 119.893C58.3748 128.184 65.1882 135.309 73.5854 135.805C81.9826 136.3 88.8278 129.974 88.8358 121.674L99.2388 122.289L120.96 123.567L121 123.543Z" fill="white" stroke="#16171E" stroke-width="2" stroke-miterlimit="10"/>
<path d="M286.742 113.925L232.931 214.919C230.526 219.397 226.469 222.73 221.645 224.19C216.821 225.651 211.622 225.121 207.182 222.715L185.969 211.137C181.542 208.706 178.246 204.6 176.801 199.717C175.356 194.834 175.88 189.57 178.258 185.076L178.693 184.277C204.409 197.743 232.378 213.144 232.378 213.144C232.378 213.144 272.481 143.511 270.411 142.424C267.377 140.824 242.222 128.366 215.518 115.164L232.069 84.09C234.471 79.6094 238.528 76.2732 243.352 74.8108C248.177 73.3484 253.378 73.8786 257.818 76.2855L279.031 87.8643C283.458 90.2951 286.754 94.4009 288.199 99.2841C289.644 104.167 289.12 109.431 286.742 113.925V113.925Z" fill="black" stroke="black" stroke-miterlimit="10"/>
<path d="M232.671 213C232.671 213 204.522 197.604 178.599 184.142C167.951 178.603 157.693 173.391 149.972 169.714C149.278 169.372 148.551 169.104 147.801 168.914C144.446 168.115 135.516 166.852 121.29 171.776C116.705 173.384 112.242 175.326 107.939 177.588C106.146 178.568 104.149 179.108 102.109 179.165C100.07 179.222 98.0456 178.794 96.2018 177.915C93.0211 176.316 88.7907 171.344 95.8122 163.183C96.6615 162.192 97.6564 161.337 98.7623 160.649L121.306 146.628L123.779 145.085C124.339 144.733 124.87 144.337 125.369 143.902C130.935 139.105 163.633 110.152 134.991 119.744C133.766 120.16 125.854 125.484 122.268 127.794C120.678 128.809 121.759 122.998 121.306 123.214L99.6052 121.935L110.555 108.177C111.189 107.268 111.703 106.279 112.082 105.236C113.966 100.024 121.544 82.4454 138.577 81.0625C143.103 80.7436 147.63 81.649 151.69 83.6845C161.534 88.4808 189.35 102.134 215.67 115.052C242.548 128.25 267.866 140.704 270.92 142.303C273.035 143.39 232.671 213 232.671 213Z" stroke="#16171E" stroke-width="2" stroke-miterlimit="10"/>
<path d="M132 90L110 109" stroke="#16171E" stroke-width="2" stroke-miterlimit="10"/>
<path d="M98.2799 179C96.7966 178.669 95.4545 177.886 94.4414 176.76L94.314 176.609C91.8533 173.743 92.9602 170.276 96.7031 167.109L107.518 160L114 174.06" stroke="black" stroke-miterlimit="10"/>
<path d="M134 120L135 135" stroke="#16171E" stroke-width="2" stroke-miterlimit="10"/>
</svg>
