<svg width="300" height="300" viewBox="0 0 300 300" fill="none" xmlns="http://www.w3.org/2000/svg">
<path d="M208.277 84.0996H142.777V118.73H208.277V84.0996Z" stroke="#231F20" stroke-miterlimit="10"/>
<path d="M203.759 111.25V91.5902C202.933 91.5013 202.17 91.1097 201.616 90.4911C201.062 89.8725 200.757 89.0706 200.759 88.2402H150.289C150.291 89.0706 149.986 89.8725 149.432 90.4911C148.878 91.1097 148.115 91.5013 147.289 91.5902V111.25C148.115 111.339 148.878 111.731 149.432 112.349C149.986 112.968 150.291 113.77 150.289 114.6H200.729C200.728 113.765 201.037 112.959 201.597 112.34C202.157 111.721 202.928 111.332 203.759 111.25Z" stroke="#231F20" stroke-miterlimit="10"/>
<path d="M190.207 93.5L191.427 98.01L194.897 94.87L193.487 99.33L198.097 98.57L194.497 101.56L198.797 103.41L194.157 103.98L196.767 107.85L192.557 105.82L192.657 110.5L190.207 106.51L187.767 110.5L187.857 105.82L183.647 107.85L186.257 103.98L181.617 103.41L185.917 101.56L182.317 98.57L186.927 99.33L185.517 94.87L188.987 98.01L190.207 93.5Z" fill="#231F20"/>
<path d="M190.209 104.43C191.457 104.43 192.469 103.418 192.469 102.17C192.469 100.922 191.457 99.9102 190.209 99.9102C188.961 99.9102 187.949 100.922 187.949 102.17C187.949 103.418 188.961 104.43 190.209 104.43Z" stroke="#231F20" stroke-width="0.5" stroke-miterlimit="10"/>
<path d="M153.91 101.989L178.07 101.549C178.269 101.549 178.46 101.47 178.6 101.329C178.741 101.189 178.82 100.998 178.82 100.799C178.82 100.6 178.741 100.409 178.6 100.268C178.46 100.128 178.269 100.049 178.07 100.049L153.91 100.489C153.711 100.489 153.52 100.568 153.38 100.708C153.239 100.849 153.16 101.04 153.16 101.239C153.16 101.438 153.239 101.629 153.38 101.769C153.52 101.91 153.711 101.989 153.91 101.989V101.989Z" fill="#231F20"/>
<path d="M155.489 106.129C162.053 105.556 168.642 105.322 175.229 105.429C175.428 105.429 175.619 105.35 175.76 105.209C175.9 105.068 175.979 104.878 175.979 104.679C175.979 104.48 175.9 104.289 175.76 104.148C175.619 104.008 175.428 103.929 175.229 103.929C168.642 103.815 162.053 104.042 155.489 104.609C154.539 104.689 154.489 106.189 155.489 106.109V106.129Z" fill="#231F20"/>
<path d="M155.02 109.69C163.02 109.243 171.02 109.077 179.02 109.19C179.218 109.19 179.409 109.111 179.55 108.97C179.691 108.83 179.77 108.639 179.77 108.44C179.77 108.241 179.691 108.05 179.55 107.91C179.409 107.769 179.218 107.69 179.02 107.69C171.02 107.57 163.02 107.737 155.02 108.19C154.02 108.19 154.02 109.74 155.02 109.69Z" fill="#231F20"/>
<path d="M194.289 132.43L180.289 136.43L188.809 193.26L193.679 179.91L208.289 193.24L194.289 132.43ZM191.289 156.88C188.469 157.38 185.429 153.61 184.519 148.47C183.609 143.33 185.149 138.74 187.979 138.24C190.809 137.74 193.839 141.5 194.759 146.65C195.679 151.8 194.069 156.36 191.289 156.87V156.88Z" fill="#231F20"/>
<path d="M235.808 76.7497C239.816 79.9517 243.598 83.4266 247.128 87.1497C247.798 87.8497 248.848 86.7897 248.188 86.0897C244.658 82.3666 240.876 78.8917 236.868 75.6897C236.118 75.0997 235.048 76.1497 235.808 76.7497Z" fill="#231F20"/>
<path d="M246.339 75.7605L232.749 88.7605C232.049 89.4205 233.109 90.4805 233.809 89.8205L247.399 76.8205C248.099 76.1505 247.039 75.0905 246.339 75.7605Z" fill="#231F20"/>
<path d="M241.599 73.4297C241.392 77.7564 241.289 82.0897 241.289 86.4297C241.289 86.6286 241.368 86.8194 241.509 86.96C241.649 87.1007 241.84 87.1797 242.039 87.1797C242.238 87.1797 242.429 87.1007 242.569 86.96C242.71 86.8194 242.789 86.6286 242.789 86.4297C242.789 82.0697 242.902 77.7364 243.129 73.4297C243.189 72.4297 241.689 72.4297 241.629 73.4297H241.599Z" fill="#231F20"/>
<path d="M147.589 131.729L152.279 125.989C152.879 125.249 151.829 124.179 151.219 124.929L146.519 130.669C145.919 131.409 146.969 132.479 147.589 131.729Z" fill="#231F20"/>
<path d="M146.529 127.319C148.356 128.539 150.219 129.696 152.119 130.789C152.289 130.876 152.486 130.895 152.67 130.841C152.853 130.788 153.009 130.666 153.106 130.502C153.203 130.337 153.234 130.142 153.191 129.955C153.149 129.769 153.038 129.606 152.879 129.499C150.979 128.399 149.109 127.249 147.289 126.029C146.479 125.489 145.729 126.789 146.529 127.319Z" fill="#231F20"/>
<path d="M217.488 153.519L223.088 149.519C223.858 148.959 223.088 147.659 222.328 148.229L216.738 152.229C215.958 152.789 216.738 154.089 217.488 153.519V153.519Z" fill="#231F20"/>
<path d="M215.96 149.321L223.22 153.781C224.05 154.281 224.8 152.981 223.98 152.481L216.72 148.031C215.89 147.521 215.14 148.821 215.96 149.321Z" fill="#231F20"/>
<path d="M218.929 148.101C219.517 150.094 219.82 152.162 219.829 154.241C219.829 154.439 219.908 154.63 220.048 154.771C220.189 154.912 220.38 154.991 220.579 154.991C220.778 154.991 220.968 154.912 221.109 154.771C221.25 154.63 221.329 154.439 221.329 154.241C221.303 152.024 220.967 149.823 220.329 147.701C220.302 147.605 220.258 147.516 220.197 147.438C220.136 147.36 220.061 147.295 219.975 147.246C219.889 147.198 219.794 147.166 219.696 147.154C219.598 147.142 219.499 147.149 219.404 147.176C219.308 147.202 219.219 147.247 219.141 147.307C219.064 147.368 218.998 147.443 218.95 147.529C218.901 147.615 218.869 147.71 218.857 147.808C218.845 147.906 218.852 148.005 218.879 148.101H218.929Z" fill="#231F20"/>
<path d="M176.451 184.829L180.771 181.699C181.551 181.139 180.771 179.839 180.021 180.409L175.691 183.539C174.911 184.099 175.691 185.399 176.451 184.829V184.829Z" fill="#231F20"/>
<path d="M175.09 181.58L180.71 185.02C181.53 185.53 182.29 184.23 181.46 183.73L175.84 180.28C175.02 179.78 174.26 181.08 175.09 181.58V181.58Z" fill="#231F20"/>
<path d="M177.29 180.529C177.74 182.059 177.972 183.644 177.98 185.239C177.98 185.438 178.059 185.629 178.2 185.769C178.341 185.91 178.531 185.989 178.73 185.989C178.929 185.989 179.12 185.91 179.261 185.769C179.401 185.629 179.48 185.438 179.48 185.239C179.471 183.509 179.219 181.789 178.73 180.129C178.665 179.953 178.535 179.808 178.368 179.723C178.201 179.637 178.008 179.618 177.827 179.668C177.646 179.718 177.49 179.835 177.391 179.994C177.291 180.153 177.256 180.344 177.29 180.529V180.529Z" fill="#231F20"/>
<path d="M252.738 122.969C252.937 122.969 253.128 122.89 253.269 122.749C253.409 122.608 253.488 122.418 253.488 122.219C253.488 122.02 253.409 121.829 253.269 121.688C253.128 121.548 252.937 121.469 252.738 121.469C252.539 121.469 252.349 121.548 252.208 121.688C252.067 121.829 251.988 122.02 251.988 122.219C251.988 122.418 252.067 122.608 252.208 122.749C252.349 122.89 252.539 122.969 252.738 122.969V122.969Z" fill="#231F20"/>
<path d="M189.988 65C190.187 65 190.378 64.921 190.519 64.7803C190.659 64.6397 190.738 64.4489 190.738 64.25C190.738 64.0511 190.659 63.8603 190.519 63.7197C190.378 63.579 190.187 63.5 189.988 63.5C189.789 63.5 189.599 63.579 189.458 63.7197C189.317 63.8603 189.238 64.0511 189.238 64.25C189.238 64.4489 189.317 64.6397 189.458 64.7803C189.599 64.921 189.789 65 189.988 65Z" fill="#231F20"/>
<path d="M143.988 155.65C144.187 155.65 144.378 155.571 144.519 155.431C144.659 155.29 144.738 155.099 144.738 154.9C144.738 154.701 144.659 154.511 144.519 154.37C144.378 154.229 144.187 154.15 143.988 154.15C143.789 154.15 143.599 154.229 143.458 154.37C143.317 154.511 143.238 154.701 143.238 154.9C143.238 155.099 143.317 155.29 143.458 155.431C143.599 155.571 143.789 155.65 143.988 155.65V155.65Z" fill="#231F20"/>
<path d="M251 163.08C251.199 163.08 251.39 163.001 251.53 162.86C251.671 162.72 251.75 162.529 251.75 162.33C251.75 162.131 251.671 161.94 251.53 161.8C251.39 161.659 251.199 161.58 251 161.58C250.801 161.58 250.61 161.659 250.47 161.8C250.329 161.94 250.25 162.131 250.25 162.33C250.25 162.529 250.329 162.72 250.47 162.86C250.61 163.001 250.801 163.08 251 163.08Z" fill="#231F20"/>
<path d="M175.211 204.891C175.41 204.891 175.601 204.812 175.741 204.671C175.882 204.53 175.961 204.34 175.961 204.141C175.961 203.942 175.882 203.751 175.741 203.61C175.601 203.47 175.41 203.391 175.211 203.391C175.012 203.391 174.821 203.47 174.681 203.61C174.54 203.751 174.461 203.942 174.461 204.141C174.461 204.34 174.54 204.53 174.681 204.671C174.821 204.812 175.012 204.891 175.211 204.891V204.891Z" fill="#231F20"/>
<path d="M252.738 100.91C252.937 100.91 253.128 100.831 253.269 100.69C253.409 100.55 253.488 100.359 253.488 100.16C253.488 99.9612 253.409 99.7705 253.269 99.6298C253.128 99.4892 252.937 99.4102 252.738 99.4102C252.539 99.4102 252.349 99.4892 252.208 99.6298C252.067 99.7705 251.988 99.9612 251.988 100.16C251.988 100.359 252.067 100.55 252.208 100.69C252.349 100.831 252.539 100.91 252.738 100.91V100.91Z" fill="#231F20"/>
<path d="M222.461 72.8496C222.66 72.8496 222.851 72.7706 222.991 72.6299C223.132 72.4893 223.211 72.2985 223.211 72.0996C223.211 71.9007 223.132 71.7099 222.991 71.5693C222.851 71.4286 222.66 71.3496 222.461 71.3496C222.262 71.3496 222.071 71.4286 221.931 71.5693C221.79 71.7099 221.711 71.9007 221.711 72.0996C221.711 72.2985 221.79 72.4893 221.931 72.6299C222.071 72.7706 222.262 72.8496 222.461 72.8496Z" fill="#231F20"/>
<path d="M169.148 155.289C169.347 155.289 169.538 155.21 169.679 155.069C169.819 154.929 169.898 154.738 169.898 154.539C169.898 154.34 169.819 154.149 169.679 154.009C169.538 153.868 169.347 153.789 169.148 153.789C168.95 153.789 168.759 153.868 168.618 154.009C168.477 154.149 168.398 154.34 168.398 154.539C168.398 154.738 168.477 154.929 168.618 155.069C168.759 155.21 168.95 155.289 169.148 155.289Z" fill="#231F20"/>
<path d="M158.968 66.29C158.88 60.6466 157.977 55.0454 156.288 49.66C155.908 48.43 153.978 48.96 154.358 50.19C155.989 55.4045 156.857 60.8271 156.938 66.29C156.938 66.5552 157.043 66.8096 157.231 66.9971C157.418 67.1847 157.673 67.29 157.938 67.29C158.203 67.29 158.457 67.1847 158.645 66.9971C158.833 66.8096 158.938 66.5552 158.938 66.29H158.968Z" fill="black"/>
<path d="M181.219 55.16V46C181.219 45.7348 181.113 45.4804 180.926 45.2929C180.738 45.1054 180.484 45 180.219 45C179.954 45 179.699 45.1054 179.512 45.2929C179.324 45.4804 179.219 45.7348 179.219 46V55.16C179.219 55.4252 179.324 55.6796 179.512 55.8671C179.699 56.0546 179.954 56.16 180.219 56.16C180.484 56.16 180.738 56.0546 180.926 55.8671C181.113 55.6796 181.219 55.4252 181.219 55.16V55.16Z" fill="black"/>
<path d="M204.22 63.3306C205.649 59.4691 207.972 56.001 211 53.2106C211.94 52.3306 210.52 50.9206 209.58 51.7906C206.319 54.8333 203.821 58.6019 202.29 62.7906C202.255 62.9174 202.245 63.0497 202.262 63.1802C202.278 63.3106 202.32 63.4365 202.385 63.5508C202.45 63.665 202.537 63.7653 202.641 63.8459C202.744 63.9266 202.863 63.9859 202.99 64.0206C203.117 64.0555 203.249 64.0651 203.379 64.0488C203.51 64.0325 203.636 63.9907 203.75 63.9256C203.864 63.8606 203.964 63.7737 204.045 63.6699C204.126 63.5661 204.185 63.4474 204.22 63.3206V63.3306Z" fill="black"/>
<path d="M245.578 133.891L259.908 135.711C260.448 135.781 260.908 135.211 260.908 134.711C260.908 134.445 260.803 134.191 260.615 134.004C260.428 133.816 260.173 133.711 259.908 133.711L245.578 131.891C245.313 131.891 245.059 131.996 244.871 132.184C244.683 132.371 244.578 132.625 244.578 132.891C244.578 133.156 244.683 133.41 244.871 133.598C245.059 133.785 245.313 133.891 245.578 133.891V133.891Z" fill="black"/>
<path d="M217.571 179.43C222.444 183.65 227.417 187.736 232.491 191.69C232.584 191.783 232.694 191.858 232.816 191.908C232.938 191.959 233.069 191.985 233.201 191.985C233.333 191.985 233.464 191.959 233.585 191.908C233.707 191.858 233.818 191.783 233.911 191.69C234.097 191.502 234.202 191.249 234.202 190.985C234.202 190.72 234.097 190.467 233.911 190.28C228.817 186.32 223.844 182.233 218.991 178.02C217.991 177.18 216.601 178.59 217.571 179.43Z" fill="black"/>
<path d="M214.171 200.79L220.651 215.61C221.171 216.79 222.891 215.77 222.381 214.61L215.891 199.78C215.381 198.61 213.651 199.62 214.171 200.78V200.79Z" fill="black"/>
<path d="M192.291 206.661C191.171 213.261 189.817 219.817 188.231 226.331C187.931 227.581 189.861 228.121 190.161 226.861C191.751 220.361 193.101 213.791 194.221 207.191C194.431 205.931 192.511 205.391 192.291 206.661Z" fill="black"/>
<path d="M234.219 196.85C234.351 196.85 234.479 196.797 234.572 196.703C234.666 196.609 234.719 196.482 234.719 196.35C234.719 196.217 234.666 196.09 234.572 195.996C234.479 195.902 234.351 195.85 234.219 195.85C234.086 195.85 233.959 195.902 233.865 195.996C233.771 196.09 233.719 196.217 233.719 196.35C233.719 196.482 233.771 196.609 233.865 196.703C233.959 196.797 234.086 196.85 234.219 196.85Z" fill="black"/>
<path d="M225.838 115.609L230.908 123.069L239.918 123.119L234.398 130.249L237.138 138.839L228.648 135.789L221.328 141.039L221.608 132.029L214.348 126.689L222.998 124.169L225.838 115.609Z" stroke="#231F20" stroke-miterlimit="10"/>
<path d="M235.489 149.61C237.455 155.691 239.793 161.646 242.489 167.44C243.039 168.61 244.759 167.59 244.219 166.44C241.581 160.8 239.293 155.002 237.369 149.08C236.979 147.86 235.049 148.39 235.449 149.62L235.489 149.61Z" fill="black"/>
<path d="M243.999 144.43C246.695 145.069 249.23 146.26 251.444 147.928C253.657 149.596 255.501 151.704 256.859 154.12C257.489 155.25 259.219 154.24 258.589 153.12C257.099 150.481 255.082 148.177 252.663 146.352C250.244 144.526 247.475 143.219 244.529 142.51C243.279 142.22 242.749 144.15 243.999 144.44V144.43Z" fill="black"/>
<path d="M225.617 101.709C225.816 101.709 226.007 101.63 226.148 101.489C226.288 101.349 226.367 101.158 226.367 100.959C226.367 100.76 226.288 100.569 226.148 100.429C226.007 100.288 225.816 100.209 225.617 100.209C225.418 100.209 225.228 100.288 225.087 100.429C224.946 100.569 224.867 100.76 224.867 100.959C224.867 101.158 224.946 101.349 225.087 101.489C225.228 101.63 225.418 101.709 225.617 101.709Z" fill="#231F20"/>
<path d="M50.2082 229.099C47.5382 223.259 37.6682 197.409 40.5082 139.099C40.5411 138.394 40.8326 137.726 41.327 137.222C41.8213 136.719 42.4839 136.415 43.1882 136.369L127.688 130.759C128.412 130.725 129.122 130.964 129.677 131.429C130.233 131.894 130.594 132.551 130.688 133.269L129.798 152.929C129.668 154.298 129.628 155.675 129.678 157.049L129.978 171.849L80.2882 175.189C79.7115 175.228 79.1599 175.44 78.7051 175.796C78.2504 176.153 77.9134 176.638 77.7382 177.189L60.7382 229.929C60.5206 230.61 60.0565 231.186 59.4369 231.543C58.8172 231.9 58.0866 232.012 57.3882 231.859L52.1582 230.729C51.7298 230.625 51.3311 230.424 50.9929 230.142C50.6547 229.859 50.3862 229.502 50.2082 229.099V229.099Z" stroke="#231F20" stroke-miterlimit="10"/>
<path d="M86.1775 247.9C83.8975 242.74 76.5475 222.41 78.6575 177.83C78.6904 177.125 78.982 176.457 79.4763 175.953C79.9707 175.45 80.6333 175.146 81.3375 175.1L146.808 170.75C147.532 170.712 148.245 170.949 148.801 171.415C149.358 171.881 149.718 172.54 149.808 173.26L149.288 202.99L110.528 205.7C109.951 205.74 109.4 205.953 108.946 206.309C108.491 206.666 108.154 207.15 107.978 207.7L94.8375 248.33C94.62 249.011 94.1559 249.587 93.5363 249.944C92.9166 250.301 92.186 250.414 91.4875 250.26L88.2075 249.55C87.7635 249.453 87.3485 249.254 86.9959 248.967C86.6433 248.68 86.363 248.315 86.1775 247.9V247.9Z" stroke="#231F20" stroke-miterlimit="10"/>
<path d="M114.08 265.86C111.98 260.86 106.37 243.86 108 208.3C108.033 207.592 108.325 206.92 108.821 206.413C109.317 205.905 109.982 205.599 110.69 205.55L163.93 202.02C164.334 201.993 164.739 202.051 165.118 202.192C165.498 202.332 165.843 202.551 166.132 202.834C166.421 203.118 166.647 203.459 166.795 203.836C166.943 204.212 167.009 204.616 166.99 205.02L166.36 215.43C165.717 225.917 167.152 236.428 170.58 246.36L174.43 257.52C174.546 257.859 174.585 258.219 174.542 258.574C174.5 258.929 174.379 259.27 174.186 259.572C173.994 259.874 173.737 260.128 173.432 260.317C173.128 260.505 172.786 260.622 172.43 260.66L116.53 267.31C116.02 267.363 115.507 267.251 115.065 266.99C114.624 266.729 114.279 266.333 114.08 265.86V265.86Z" stroke="#231F20" stroke-miterlimit="10"/>
<path d="M59.3672 231.651L80.7572 229.561" stroke="#231F20" stroke-miterlimit="10"/>
<path d="M92.1992 250.33L109.969 248.25" stroke="#231F20" stroke-miterlimit="10"/>
<path d="M119.889 259.429C125.369 257.229 131.339 257.429 137.139 257.329C143.426 257.236 149.709 256.929 155.989 256.409C159.522 256.109 163.042 255.743 166.549 255.309C167.179 255.229 167.189 254.229 166.549 254.309C160.256 255.089 153.946 255.646 147.619 255.979C144.419 256.146 141.212 256.256 137.999 256.309C135.079 256.359 132.149 256.309 129.229 256.519C125.946 256.653 122.705 257.311 119.629 258.469C119.039 258.699 119.289 259.669 119.889 259.469V259.429Z" fill="#231F20"/>
<path d="M118.04 250.53C130.52 250.38 142.96 249.3 155.4 248.33L160.57 247.92C161.57 247.85 163.46 247.98 163.68 246.66C163.79 246.03 162.82 245.76 162.68 246.4C162.54 247.04 161.52 246.84 161.14 246.87L158.93 247.05L154.5 247.39L145.72 248.08C139.84 248.53 133.96 248.95 128.07 249.23C124.72 249.38 121.36 249.49 118 249.53C117.867 249.53 117.74 249.582 117.646 249.676C117.553 249.77 117.5 249.897 117.5 250.03C117.5 250.162 117.553 250.289 117.646 250.383C117.74 250.477 117.867 250.53 118 250.53H118.04Z" fill="#231F20"/>
<path d="M117.14 240.849C123 241.229 128.81 240.209 134.57 239.259C137.57 238.769 140.57 238.259 143.57 238.049C146.612 237.814 149.668 237.814 152.71 238.049C156.25 238.329 159.76 238.839 163.27 239.359C163.9 239.449 164.17 238.489 163.54 238.359C157.4 237.459 151.2 236.549 144.98 236.899C138.98 237.219 133.14 238.569 127.21 239.339C123.876 239.813 120.503 239.964 117.14 239.789C116.5 239.789 116.5 240.789 117.14 240.789V240.849Z" fill="#231F20"/>
<path d="M119.999 233.009C129.782 233.004 139.549 232.224 149.209 230.679C151.907 230.09 154.691 230.009 157.419 230.439C158.039 230.579 158.309 229.619 157.679 229.439C155.364 229.02 152.993 229.02 150.679 229.439C148.199 229.779 145.729 230.209 143.239 230.529C138.332 231.156 133.399 231.586 128.439 231.819C125.619 231.939 122.789 231.999 119.969 231.999C119.836 231.999 119.709 232.052 119.615 232.146C119.521 232.239 119.469 232.366 119.469 232.499C119.469 232.632 119.521 232.759 119.615 232.853C119.709 232.946 119.836 232.999 119.969 232.999L119.999 233.009Z" fill="#231F20"/>
<path d="M115.23 224.429C126.37 223.609 137.517 222.959 148.67 222.479C151.81 222.339 154.95 222.216 158.09 222.109C158.223 222.109 158.35 222.057 158.444 221.963C158.537 221.869 158.59 221.742 158.59 221.609C158.59 221.477 158.537 221.35 158.444 221.256C158.35 221.162 158.223 221.109 158.09 221.109C146.93 221.503 135.78 222.059 124.64 222.779C121.5 222.979 118.363 223.196 115.23 223.429C114.59 223.479 114.59 224.479 115.23 224.429V224.429Z" fill="#231F20"/>
<path d="M118.751 215.73C128.871 214.028 139.094 213.003 149.351 212.66C152.261 212.57 155.181 212.53 158.091 212.54C158.223 212.54 158.35 212.488 158.444 212.394C158.538 212.3 158.591 212.173 158.591 212.04C158.591 211.908 158.538 211.78 158.444 211.687C158.35 211.593 158.223 211.54 158.091 211.54C147.726 211.486 137.369 212.131 127.091 213.47C124.201 213.85 121.311 214.28 118.441 214.76C117.801 214.87 118.071 215.83 118.701 215.76L118.751 215.73Z" fill="#231F20"/>
<path d="M88.3978 241.581C90.7147 241.463 93.0135 241.108 95.2578 240.521C95.3235 240.503 95.3851 240.474 95.4393 240.433C95.4934 240.392 95.5389 240.341 95.5733 240.282C95.6077 240.224 95.6301 240.159 95.6395 240.092C95.6489 240.025 95.6449 239.956 95.6278 239.891C95.6107 239.825 95.5809 239.763 95.54 239.709C95.4991 239.655 95.4479 239.609 95.3894 239.575C95.3309 239.541 95.2663 239.518 95.1991 239.509C95.1319 239.499 95.0635 239.503 94.9978 239.521C92.8386 240.083 90.6266 240.418 88.3978 240.521C87.7578 240.521 87.7478 241.521 88.3978 241.521V241.581Z" fill="#231F20"/>
<path d="M85.8589 234.95C89.1522 234.79 92.4389 234.59 95.7189 234.35C96.3589 234.35 96.3589 233.35 95.7189 233.35C92.4389 233.59 89.1522 233.79 85.8589 233.95C85.2189 233.95 85.2189 234.95 85.8589 234.95Z" fill="#231F20"/>
<path d="M85.5894 227.09L98.8094 226.03C99.4494 225.97 99.4594 224.97 98.8094 225.03L85.5894 226.09C84.9494 226.14 84.9494 227.14 85.5894 227.09Z" fill="#231F20"/>
<path d="M84.4383 219.43C85.8542 219.383 87.2586 219.158 88.6183 218.76C89.9583 218.36 91.3183 217.42 92.7383 217.92C93.3583 218.14 93.9183 218.5 94.5283 218.76C95.1262 219.018 95.7546 219.2 96.3983 219.3C97.7432 219.507 99.1187 219.373 100.398 218.91C100.998 218.69 100.738 217.72 100.138 217.91C98.8366 218.393 97.4224 218.487 96.0683 218.18C94.7883 217.88 93.7283 217 92.4383 216.77C91.1483 216.54 89.9983 217.24 88.8183 217.63C87.4106 218.085 85.9468 218.344 84.4683 218.4C83.8283 218.4 83.8283 219.4 84.4683 219.4L84.4383 219.43Z" fill="#231F20"/>
<path d="M83.9099 211.26C89.9802 210.482 96.1036 210.198 102.22 210.41C102.87 210.41 102.86 209.41 102.22 209.41C96.1036 209.198 89.9802 209.482 83.9099 210.26C83.2799 210.34 83.2699 211.35 83.9099 211.26Z" fill="#231F20"/>
<path d="M84.1294 203.331C92.1619 203.3 100.182 202.698 108.129 201.531C116.129 200.531 124.069 199.311 132.129 198.801C136.643 198.489 141.173 198.472 145.689 198.751C146.329 198.751 146.329 197.751 145.689 197.751C137.676 197.349 129.642 197.683 121.689 198.751C113.689 199.751 105.689 200.961 97.6894 201.751C93.1761 202.185 88.6434 202.385 84.1094 202.351C83.9768 202.351 83.8496 202.403 83.7558 202.497C83.662 202.591 83.6094 202.718 83.6094 202.851C83.6094 202.983 83.662 203.11 83.7558 203.204C83.8496 203.298 83.9768 203.351 84.1094 203.351L84.1294 203.331Z" fill="#231F20"/>
<path d="M83.3694 193.849C87.0794 194.509 90.8194 194.129 94.5394 193.779C98.4127 193.406 102.283 193.073 106.149 192.779C113.903 192.199 121.659 191.773 129.419 191.499C133.799 191.353 138.179 191.249 142.559 191.189C142.692 191.189 142.819 191.137 142.913 191.043C143.007 190.949 143.059 190.822 143.059 190.689C143.059 190.557 143.007 190.43 142.913 190.336C142.819 190.242 142.692 190.189 142.559 190.189C127.186 190.376 111.853 191.173 96.5594 192.579C92.2894 192.969 87.9294 193.629 83.6694 192.869C83.0394 192.759 82.7694 193.729 83.4094 193.869L83.3694 193.849Z" fill="#231F20"/>
<path d="M87.4502 186.22C94.5702 187.51 101.63 185.47 108.64 184.42C115.981 183.449 123.408 183.311 130.78 184.01C134.96 184.33 139.13 184.79 143.29 185.25C143.93 185.32 143.92 184.32 143.29 184.25C135.964 183.313 128.594 182.758 121.21 182.59C117.534 182.554 113.86 182.757 110.21 183.2C106.75 183.64 103.34 184.37 99.9101 184.93C95.8953 185.736 91.7717 185.844 87.7201 185.25C87.0901 185.14 86.8202 186.1 87.4602 186.25L87.4502 186.22Z" fill="#231F20"/>
<path d="M53.0098 224.189C55.2626 223.638 57.5631 223.303 59.8798 223.189C60.5198 223.189 60.5298 222.189 59.8798 222.189C57.4774 222.302 55.0906 222.637 52.7498 223.189C52.1198 223.339 52.3898 224.299 53.0098 224.189V224.189Z" fill="#231F20"/>
<path d="M52.6803 217.429C55.4004 216.723 58.2169 216.463 61.0203 216.659C61.6603 216.659 61.6603 215.659 61.0203 215.659C58.1259 215.464 55.2191 215.734 52.4103 216.459C52.2776 216.495 52.1647 216.582 52.0962 216.701C52.0278 216.82 52.0094 216.961 52.0452 217.094C52.0811 217.227 52.1681 217.34 52.2872 217.408C52.4062 217.476 52.5476 217.495 52.6803 217.459V217.429Z" fill="#231F20"/>
<path d="M50.8589 209.891C55.5589 210.171 60.2989 209.421 64.9589 208.961C65.5889 208.891 65.5989 207.891 64.9589 207.961C60.2989 208.421 55.5589 209.171 50.8589 208.891C50.2189 208.891 50.2189 209.891 50.8589 209.891Z" fill="#231F20"/>
<path d="M49.1597 202.75C55.0908 202.956 61.029 202.793 66.9397 202.26C67.5797 202.21 67.5897 201.21 66.9397 201.26C61.029 201.793 55.0908 201.956 49.1597 201.75C48.5197 201.75 48.5197 202.75 49.1597 202.75Z" fill="#231F20"/>
<path d="M47.6181 195.221C49.1905 195.559 50.813 195.593 52.3981 195.321C54.1081 195.101 55.8081 194.851 57.5281 194.731C60.9456 194.495 64.3777 194.586 67.7781 195.001C68.4181 195.081 68.4081 194.081 67.7781 194.001C64.4606 193.598 61.1129 193.504 57.7781 193.721C56.1681 193.821 54.5781 194.021 52.9781 194.241C51.3008 194.571 49.5754 194.571 47.8981 194.241C47.2681 194.091 46.9981 195.051 47.6281 195.241L47.6181 195.221Z" fill="#231F20"/>
<path d="M46.8388 187.189C47.8283 187.551 48.8599 187.786 49.9088 187.889C50.8079 187.908 51.7018 187.748 52.5388 187.419C53.4188 187.099 54.2688 186.679 55.1788 186.419C56.2262 186.159 57.3213 186.159 58.3688 186.419C59.3688 186.619 60.2788 186.869 61.2688 186.979C62.3492 187.079 63.4355 187.099 64.5188 187.039L71.1688 186.769C71.8088 186.769 71.8088 185.769 71.1688 185.769L64.5188 186.039C63.5198 186.103 62.5178 186.103 61.5188 186.039C60.5188 185.939 59.4488 185.649 58.4188 185.449C57.5066 185.244 56.5652 185.204 55.6388 185.329C54.7518 185.511 53.8892 185.796 53.0688 186.179C52.2264 186.582 51.3189 186.833 50.3888 186.919C49.2709 186.891 48.1669 186.664 47.1288 186.249C46.5088 186.049 46.2488 187.019 46.8588 187.249L46.8388 187.189Z" fill="#231F20"/>
<path d="M47.7886 178.829C52.0886 178.419 56.3986 178.019 60.7286 178.009C62.8627 177.993 64.9961 178.096 67.1186 178.319C69.2176 178.63 71.3366 178.787 73.4586 178.789C74.0986 178.789 74.0986 177.789 73.4586 177.789C71.3734 177.79 69.291 177.637 67.2286 177.329C65.0695 177.102 62.8995 176.996 60.7286 177.009C56.3986 177.009 52.0886 177.419 47.7886 177.829C47.1486 177.889 47.1486 178.889 47.7886 178.829V178.829Z" fill="#231F20"/>
<path d="M46.0789 169.669L76.8089 168.799C81.7247 168.766 86.6339 168.432 91.5089 167.799C93.9289 167.439 96.2689 166.799 98.6589 166.269C101.196 165.945 103.767 165.999 106.289 166.429L123.289 168.069C123.929 168.129 123.929 167.129 123.289 167.069L108.109 165.599C105.625 165.241 103.119 165.058 100.609 165.049C98.1689 165.169 95.8189 166.049 93.4289 166.489C88.5261 167.325 83.5624 167.753 78.5889 167.769L63.2589 168.209L46.0189 168.699C45.3789 168.699 45.3689 169.699 46.0189 169.699L46.0789 169.669Z" fill="#231F20"/>
<path d="M47.6594 161.32L62.4994 159.24L69.9194 158.24C72.3509 157.756 74.8356 157.595 77.3094 157.76C79.6194 158.05 81.7994 158.97 84.0694 159.46C86.3743 159.905 88.7272 160.049 91.0694 159.89C95.9994 159.67 100.929 159.2 105.859 158.89L122.789 157.66C123.419 157.61 123.429 156.61 122.789 156.66C112.789 157.38 102.789 158.17 92.7294 158.84C90.3261 159.067 87.9054 159.033 85.5094 158.74C83.1894 158.39 80.9994 157.51 78.6994 157.03C76.4 156.63 74.0488 156.63 71.7494 157.03C69.2394 157.37 66.7494 157.73 64.2294 158.09L47.4094 160.44C46.7794 160.53 47.0494 161.5 47.6794 161.44L47.6594 161.32Z" fill="#231F20"/>
<path d="M49.448 151.58C59.1297 151.677 68.8098 151.263 78.448 150.34C80.818 150.11 83.178 149.85 85.558 149.76C87.99 149.685 90.4238 149.835 92.828 150.21C97.4092 150.968 102.044 151.352 106.688 151.36C111.917 151.285 117.121 150.614 122.198 149.36C122.828 149.21 122.558 148.24 121.938 148.36C117.41 149.48 112.779 150.13 108.118 150.3C103.433 150.437 98.745 150.129 94.118 149.38C91.8045 148.983 89.4647 148.759 87.118 148.71C84.738 148.71 82.378 148.93 80.008 149.16C75.238 149.63 70.458 150.01 65.668 150.24C60.2613 150.507 54.8446 150.613 49.418 150.56C49.2854 150.56 49.1582 150.613 49.0644 150.706C48.9706 150.8 48.918 150.927 48.918 151.06C48.918 151.192 48.9706 151.32 49.0644 151.413C49.1582 151.507 49.2854 151.56 49.418 151.56L49.448 151.58Z" fill="#231F20"/>
<path d="M153.011 94.6894C154.143 94.3546 155.348 94.3546 156.481 94.6894C157.301 94.9494 158.201 95.3494 158.951 94.6894C159.211 94.4494 159.371 94.0594 159.761 94.0694C160.091 94.1315 160.401 94.2759 160.661 94.4894C161.186 94.9034 161.804 95.1847 162.461 95.3094C162.795 95.3037 163.122 95.2182 163.416 95.0598C163.711 94.9015 163.962 94.675 164.151 94.3994C164.501 94.0094 164.651 93.8794 165.151 94.0794C165.608 94.2692 166.084 94.41 166.571 94.4994C167.554 94.656 168.56 94.5526 169.491 94.1994C169.948 93.9562 170.427 93.7553 170.921 93.5994C171.587 93.5344 172.259 93.5512 172.921 93.6494C175.711 93.7036 178.493 93.9744 181.241 94.4594C181.871 94.5894 182.141 93.6294 181.511 93.4594C179.079 93.001 176.615 92.7368 174.141 92.6694L172.291 92.6594C171.718 92.5693 171.134 92.5693 170.561 92.6594C170.071 92.8378 169.59 93.0414 169.121 93.2694C168.579 93.4786 168.002 93.5805 167.421 93.5694C166.878 93.5681 166.339 93.4699 165.831 93.2794C165.426 93.0611 164.971 92.9509 164.511 92.9594C163.711 93.0894 163.511 93.9594 162.841 94.2494C162.171 94.5394 161.501 93.8394 161.031 93.5494C160.779 93.3561 160.49 93.2187 160.181 93.1463C159.872 93.0739 159.552 93.0681 159.241 93.1294C158.791 93.2794 158.621 93.6694 158.241 93.9294C157.861 94.1894 156.991 93.8094 156.491 93.6694C155.254 93.3293 153.948 93.3293 152.711 93.6694C152.578 93.7038 152.465 93.7896 152.395 93.9077C152.326 94.0259 152.306 94.1668 152.341 94.2994C152.375 94.432 152.461 94.5455 152.579 94.6148C152.697 94.6842 152.838 94.7038 152.971 94.6694L153.011 94.6894Z" fill="#231F20"/>
<path d="M57.7695 140.219V145.669L113.03 143.619L114.07 135.449L57.7695 140.219Z" fill="#231F20"/>
</svg>
