<svg width="429" height="273" viewBox="0 0 429 273" fill="none" xmlns="http://www.w3.org/2000/svg">
<rect x="1" y="1" width="412" height="267" rx="24" stroke="black" stroke-width="2"/>
<path d="M79.0982 252.272C78.6687 251.926 75.484 249.791 75.0125 249.414C67.2497 243.134 62.1687 230.124 56.9516 195.532C56.8939 195.156 56.976 194.771 57.1825 194.451C57.389 194.131 57.7056 193.897 58.0725 193.795L104.943 180.774C105.17 180.705 105.409 180.689 105.643 180.727C105.877 180.764 106.1 180.855 106.293 180.991C106.487 181.127 106.647 181.305 106.762 181.513C106.877 181.72 106.942 181.951 106.954 182.187C106.954 183.38 107.101 185.955 107.258 187.996" fill="white"/>
<path d="M79.0982 252.272C78.6687 251.926 75.484 249.791 75.0125 249.414C67.2497 243.134 62.1687 230.124 56.9516 195.532C56.8939 195.156 56.976 194.771 57.1825 194.451C57.389 194.131 57.7056 193.897 58.0725 193.795L104.943 180.774C105.17 180.705 105.409 180.689 105.643 180.727C105.877 180.764 106.1 180.855 106.293 180.991C106.487 181.127 106.647 181.305 106.762 181.513C106.877 181.72 106.942 181.951 106.954 182.187C106.954 183.38 107.101 185.955 107.258 187.996" stroke="#231F20" stroke-miterlimit="10"/>
<path d="M122.625 172.913L141.88 115.807L148.135 117.439V170.851L122.625 173.834" fill="white"/>
<path d="M122.625 172.913L141.88 115.807L148.135 117.439V170.851L122.625 173.834" stroke="black" stroke-miterlimit="10"/>
<path d="M110.032 146.023L79.0117 149.048L101.766 74.9648L110.776 75.8126L110.032 146.023Z" fill="white" stroke="black" stroke-miterlimit="10"/>
<path d="M66.8379 145.669C63.2865 137.913 50.1808 103.593 53.9522 26.192C53.9966 25.2565 54.3843 24.3701 55.0413 23.702C55.6984 23.034 56.5787 22.6312 57.5141 22.5705L169.808 15.1392C170.778 15.0752 171.736 15.3825 172.487 15.9989C173.238 16.6152 173.726 17.4942 173.852 18.4571L172.637 44.5505C172.461 46.366 172.405 48.1912 172.469 50.0141L172.867 69.66L106.867 74.1084C106.104 74.1607 105.375 74.4398 104.772 74.9098C104.169 75.3799 103.72 76.0193 103.484 76.746L80.9074 146.757C80.623 147.668 80.0096 148.44 79.1866 148.924C78.3636 149.408 77.3899 149.568 76.4551 149.374L69.4989 147.867C68.9132 147.736 68.3668 147.469 67.9043 147.087C67.4418 146.705 67.0764 146.219 66.8379 145.669Z" fill="white" stroke="black" stroke-miterlimit="10"/>
<path d="M114.621 170.611C111.594 163.765 101.83 136.782 104.627 77.6142C104.681 76.6822 105.074 75.8021 105.732 75.1391C106.389 74.4761 107.267 74.0759 108.199 74.0137L195.152 68.257C196.122 68.1904 197.081 68.4969 197.833 69.1137C198.585 69.7305 199.072 70.6109 199.195 71.5749L198.389 111.045L146.898 114.635C146.132 114.686 145.399 114.966 144.794 115.438C144.189 115.91 143.739 116.553 143.504 117.283L126.124 171.218C125.831 172.122 125.212 172.885 124.387 173.359C123.563 173.833 122.591 173.984 121.661 173.782L117.314 172.84C116.721 172.707 116.168 172.435 115.7 172.048C115.232 171.66 114.862 171.168 114.621 170.611Z" fill="white" stroke="black" stroke-miterlimit="10"/>
<path d="M161.933 195.501L154.987 196.38C154.302 196.466 153.607 196.324 153.01 195.976C152.414 195.628 151.949 195.093 151.687 194.454C148.89 187.797 141.452 165.294 143.61 118.047C143.652 117.106 144.039 116.213 144.698 115.539C145.357 114.866 146.241 114.458 147.182 114.394L217.907 109.705C218.452 109.67 218.999 109.751 219.51 109.944C220.022 110.137 220.486 110.436 220.872 110.823C221.257 111.209 221.556 111.674 221.748 112.185C221.939 112.696 222.019 113.243 221.982 113.787L221.144 127.52C220.296 141.438 222.201 155.387 226.749 168.57L231.861 183.391C232.023 183.837 232.081 184.314 232.031 184.786C231.981 185.259 231.824 185.713 231.573 186.116C231.322 186.519 230.983 186.86 230.581 187.113C230.179 187.366 229.725 187.525 229.253 187.577L199.291 191.136" fill="white"/>
<path d="M161.933 195.501L154.987 196.38C154.302 196.466 153.607 196.324 153.01 195.976C152.414 195.628 151.949 195.093 151.687 194.454C148.89 187.797 141.452 165.294 143.61 118.047C143.652 117.106 144.039 116.213 144.698 115.539C145.357 114.866 146.241 114.458 147.182 114.394L217.907 109.705C218.452 109.67 218.999 109.751 219.51 109.944C220.022 110.137 220.486 110.436 220.872 110.823C221.257 111.209 221.556 111.674 221.748 112.185C221.939 112.696 222.019 113.243 221.982 113.787L221.144 127.52C220.296 141.438 222.201 155.387 226.749 168.57L231.861 183.391C232.023 183.837 232.081 184.314 232.031 184.786C231.981 185.259 231.824 185.713 231.573 186.116C231.322 186.519 230.983 186.86 230.581 187.113C230.179 187.366 229.725 187.525 229.253 187.577L199.291 191.136" stroke="black" stroke-miterlimit="10"/>
<path d="M289.939 176.315C298.383 163.451 297.493 150.598 287.215 141.409C278.834 133.904 258.511 137.002 256.583 154.691C256.258 157.737 256.154 163.797 255.294 164.111C243.823 168.978 244.881 169.041 251.753 176.032C255.504 179.853 252.026 190.215 258.814 192.465C261.605 193.368 264.571 193.598 267.468 193.135L267.698 199.844C267.698 199.844 279.222 207.171 290.264 200.545L289.939 176.315Z" fill="#999999" stroke="black" stroke-miterlimit="10"/>
<path d="M289.907 176.303L285.455 172.117C285.455 172.117 296.413 159.044 278.509 159.128L276.55 151.801C276.55 151.801 264.901 154.009 258.07 148.797C263.308 136.394 279.84 134.834 287.194 141.407C297.471 150.597 298.351 163.45 289.907 176.303Z" fill="black"/>
<path d="M260.22 160.248C259.707 161.598 259.173 162.802 261.844 164.769C264.264 166.528 269.827 165.481 270.341 164.131C270.854 162.781 269.366 159.348 266.569 158.28C263.772 157.212 260.734 158.908 260.22 160.248Z" fill="white" stroke="black" stroke-miterlimit="10"/>
<path d="M262.546 164.11C265.908 164.11 265.919 158.877 262.546 158.877C259.172 158.877 259.162 164.11 262.546 164.11Z" fill="black"/>
<path d="M243.396 158.113C242.883 159.463 242.349 160.666 245.02 162.634C247.44 164.393 253.003 163.335 253.516 161.996C254.03 160.656 252.542 157.213 249.745 156.134C246.948 155.056 243.91 156.773 243.396 158.113Z" fill="white" stroke="black" stroke-miterlimit="10"/>
<path d="M245.721 161.933C249.084 161.933 249.095 156.699 245.721 156.699C242.348 156.699 242.338 161.933 245.721 161.933Z" fill="black"/>
<path d="M265.688 176.586C264.708 175.653 263.484 175.014 262.157 174.744C260.864 174.377 259.486 174.45 258.239 174.953C257.88 175.116 257.568 175.368 257.333 175.685C257.099 176.002 256.949 176.373 256.898 176.764C256.904 177.138 256.993 177.507 257.16 177.842C257.327 178.177 257.567 178.47 257.862 178.7C258.37 179.232 258.92 179.722 259.507 180.166C259.846 180.394 260.227 180.553 260.629 180.632C261.03 180.711 261.443 180.709 261.843 180.626C263.344 180.325 264.669 179.455 265.541 178.198C265.644 178.018 265.691 177.811 265.676 177.604C265.661 177.398 265.585 177.2 265.457 177.036C265.327 176.878 265.155 176.759 264.961 176.693C264.767 176.626 264.558 176.615 264.357 176.659C263.461 176.718 262.565 176.553 261.749 176.178C260.806 175.833 259.245 175.403 258.606 176.482C258.476 176.784 258.44 177.119 258.504 177.442C258.567 177.765 258.727 178.062 258.962 178.292C259.369 178.714 259.918 178.971 260.502 179.014C261.053 179.058 261.607 179.023 262.147 178.91C262.691 178.815 263.217 178.638 263.708 178.386C263.908 178.27 264.063 178.091 264.15 177.877C264.238 177.663 264.251 177.426 264.19 177.204C264.126 176.977 263.989 176.779 263.799 176.64C263.609 176.502 263.377 176.431 263.142 176.44C263.31 176.44 262.891 176.356 263.027 176.44C262.87 176.377 262.723 176.283 262.577 176.209C262.182 175.985 261.748 175.839 261.298 175.78C260.88 175.728 260.457 175.825 260.104 176.055C259.751 176.285 259.491 176.633 259.371 177.036C259.311 177.235 259.293 177.444 259.317 177.65C259.341 177.856 259.407 178.055 259.511 178.234C259.615 178.414 259.755 178.57 259.922 178.693C260.089 178.817 260.279 178.905 260.481 178.952C260.896 178.985 261.312 178.923 261.699 178.771C262.086 178.618 262.433 178.379 262.713 178.072C262.832 178.003 262.936 177.911 263.02 177.802C263.103 177.692 263.164 177.567 263.199 177.434C263.234 177.301 263.243 177.162 263.224 177.025C263.205 176.889 263.16 176.757 263.09 176.639C263.021 176.519 262.928 176.415 262.819 176.332C262.709 176.248 262.584 176.187 262.451 176.152C262.317 176.117 262.178 176.109 262.042 176.128C261.905 176.147 261.774 176.192 261.655 176.262L261.099 176.691L260.879 176.848L260.743 176.932H260.806C260.869 176.932 260.963 176.932 261.037 176.932C261.219 177.053 261.347 177.241 261.393 177.455C261.393 177.738 261.257 177.717 261.099 177.853C260.942 177.989 261.099 177.853 261.173 177.853C261.037 177.853 261.33 177.905 261.246 177.853C261.407 177.928 261.565 178.012 261.717 178.104C262.154 178.353 262.641 178.503 263.142 178.543L262.608 176.586C262.163 176.781 261.689 176.902 261.204 176.942C260.97 176.997 260.726 176.997 260.492 176.942C260.659 177.026 260.335 176.942 260.492 176.942C260.408 176.858 260.397 176.848 260.492 176.942C260.527 177.036 260.54 177.137 260.529 177.237C260.519 177.337 260.484 177.434 260.429 177.518L260.052 177.895C259.978 177.947 259.758 177.895 259.989 177.947H260.23C260.083 177.947 260.418 177.947 260.408 177.947L260.691 178.031C261.099 178.156 261.487 178.313 261.885 178.449C262.849 178.757 263.872 178.832 264.871 178.669L263.687 177.13C263.593 177.267 263.687 177.13 263.582 177.267L263.362 177.507L263.132 177.727L263.006 177.832C262.87 177.947 263.1 177.758 262.954 177.832C262.78 177.959 262.598 178.074 262.409 178.177C262.298 178.241 262.182 178.297 262.063 178.345L261.864 178.418C261.665 178.481 261.462 178.53 261.257 178.564H261.057H260.879C260.478 178.348 260.122 178.057 259.832 177.706C259.643 177.539 259.455 177.35 259.277 177.172L259.036 176.921C258.952 176.837 259.036 176.921 259.036 176.921C258.99 176.867 258.951 176.807 258.92 176.743C258.92 176.743 258.92 176.953 258.92 176.973C258.92 176.994 258.92 177.047 258.868 177.047C258.908 177.014 258.943 176.975 258.973 176.932L259.088 176.827C259.088 176.827 258.973 176.911 259.088 176.827C259.203 176.743 259.392 176.691 259.235 176.743L259.528 176.659C259.528 176.659 259.832 176.659 259.664 176.659C259.887 176.644 260.111 176.644 260.335 176.659H260.995C261.12 176.659 260.995 176.659 260.995 176.659H261.162L261.55 176.733C261.827 176.789 262.1 176.862 262.367 176.953C262.57 177.013 262.767 177.093 262.954 177.193C263.401 177.401 263.808 177.684 264.158 178.031C264.355 178.226 264.62 178.335 264.897 178.335C265.174 178.335 265.439 178.226 265.636 178.031C265.831 177.835 265.94 177.569 265.94 177.293C265.94 177.016 265.831 176.751 265.636 176.555L265.688 176.586Z" fill="black"/>
<path d="M237.549 222.231L246.286 259.42L226.035 267.646C212.94 273.476 206.927 273.989 191.537 267.311L189.913 266.191C183.402 261.702 177.803 256.02 173.413 249.445L172.743 248.398C167.253 240.15 165.032 225.842 167.829 216.506C168.877 212.885 169.851 209.117 170.553 206.04C170.976 204.178 170.916 202.24 170.379 200.408C169.841 198.576 168.845 196.912 167.484 195.573L162.382 190.559C161.771 189.961 161.365 189.186 161.222 188.344C161.079 187.502 161.207 186.636 161.586 185.87L163.115 185.033L160.496 180.972C160.194 180.435 160.062 179.82 160.118 179.206C160.174 178.593 160.416 178.012 160.81 177.539L163.084 175.582L162.738 173.781C162.728 173.014 163 172.269 163.503 171.688C164.355 170.516 165.542 169.629 166.908 169.145L169.883 167.857C169.907 166.92 170.238 166.017 170.824 165.286C171.411 164.554 172.221 164.035 173.13 163.807L173.612 163.691C176.267 163.856 178.774 164.971 180.673 166.831L188.3 174.231C192.538 178.16 195.898 182.938 198.16 188.254C200.422 193.569 201.535 199.302 201.427 205.077L201.28 212.759C201.175 216.883 202.328 220.033 203.92 223.843C207.723 231.934 207.953 237.597 220.923 231.767C222.63 230.898 237.549 222.231 237.549 222.231Z" fill="#999999" stroke="black" stroke-miterlimit="10"/>
<path d="M188.667 185.839C188.667 185.839 174.136 168.338 166.918 169.092" stroke="black" stroke-miterlimit="10"/>
<path d="M176.726 194.379C176.726 194.379 170.953 189.366 166.909 186.487C166.33 186.058 165.668 185.754 164.964 185.596C164.26 185.437 163.531 185.427 162.824 185.566L161.305 186.613" stroke="black" stroke-miterlimit="10"/>
<path d="M161.93 176.525C164.402 175.593 167 178.168 169.263 179.518C175.004 182.941 181.834 190.246 181.834 190.246" stroke="black" stroke-miterlimit="10"/>
<path d="M173.824 171.699C173.824 171.699 175.626 181.297 163.117 172.233" stroke="black" stroke-miterlimit="10"/>
<path d="M179.344 165.492C179.344 165.492 180.811 169.072 178.087 170.213C177.536 170.423 176.943 170.502 176.356 170.444C175.768 170.386 175.203 170.192 174.703 169.878L170.324 167.366" stroke="black" stroke-miterlimit="10"/>
<path d="M170.051 180.187C170.051 180.187 171.507 182.793 169.642 183.599C169.226 183.763 168.773 183.813 168.331 183.743C167.888 183.673 167.473 183.486 167.128 183.201L160.664 178.156" stroke="black" stroke-miterlimit="10"/>
<path d="M170.051 189.502L167.223 191.072C167.223 191.072 162.152 188.571 162.152 185.996" stroke="black" stroke-miterlimit="10"/>
<path d="M177.645 150.756C168.759 151.017 159.895 151.793 151.098 153.079C150.438 153.184 150.721 154.199 151.381 154.126C160.083 152.849 168.853 152.084 177.645 151.834C178.315 151.834 178.315 150.787 177.645 150.787V150.756Z" fill="black"/>
<path d="M216.522 148.494L215.076 148.703C215.009 148.717 214.946 148.746 214.892 148.788C214.837 148.83 214.793 148.883 214.762 148.944C214.733 149.006 214.719 149.074 214.719 149.143C214.719 149.211 214.733 149.279 214.762 149.341C214.798 149.474 214.884 149.586 215.003 149.655H215.128C215.217 149.687 215.313 149.687 215.401 149.655L216.857 149.446C216.921 149.428 216.981 149.397 217.033 149.356C217.085 149.315 217.129 149.264 217.161 149.205C217.189 149.141 217.204 149.072 217.204 149.001C217.204 148.931 217.189 148.861 217.161 148.797C217.145 148.734 217.117 148.674 217.077 148.622C217.037 148.569 216.987 148.526 216.93 148.494L216.805 148.441C216.713 148.41 216.613 148.41 216.522 148.441V148.494Z" fill="black"/>
<path d="M181.89 142.884C176.484 143.386 171.089 144.255 165.641 144.255C163.08 144.189 160.523 143.986 157.983 143.648C155.66 143.274 153.28 143.516 151.079 144.349C150.461 144.621 150.996 145.521 151.603 145.26C153.835 144.286 156.318 144.495 158.664 144.778C161.148 145.109 163.649 145.284 166.155 145.301C171.393 145.249 176.631 144.412 181.869 143.93C182.54 143.867 182.54 142.821 181.869 142.884H181.89Z" fill="black"/>
<path d="M188.928 132.322C184.225 132.458 179.5 132.49 174.796 132.563C172.46 132.563 170.124 132.689 167.808 132.95C165.493 133.212 163.367 133.672 161.156 134.112C158.631 134.688 156.046 134.958 153.456 134.918C152.775 134.918 152.775 135.965 153.456 135.965C157.992 136.164 162.361 134.751 166.813 134.123C171.507 133.632 176.227 133.44 180.946 133.547C183.607 133.505 186.267 133.446 188.928 133.369C189.067 133.369 189.201 133.314 189.299 133.216C189.397 133.118 189.452 132.984 189.452 132.846C189.452 132.707 189.397 132.574 189.299 132.476C189.201 132.377 189.067 132.322 188.928 132.322Z" fill="black"/>
<path d="M215.998 119.805C208.204 122.495 199.875 122.16 191.809 122.16C187.524 122.16 183.26 122.443 178.986 122.652C174.702 122.835 170.412 122.804 166.132 122.558C161.457 122.158 156.75 122.412 152.146 123.311C151.486 123.468 151.769 124.473 152.418 124.358C156.553 123.522 160.783 123.261 164.99 123.584C169.264 123.772 173.517 123.971 177.802 123.793C182.087 123.615 186.382 123.28 190.698 123.249C194.784 123.249 198.88 123.311 202.966 123.113C207.502 122.983 211.996 122.208 216.312 120.81C216.941 120.59 216.669 119.585 216.03 119.763L215.998 119.805Z" fill="black"/>
<path d="M194.02 78.2637C183.072 80.4931 171.904 79.2476 160.789 79.4569C155.335 79.5993 149.903 80.2051 144.551 81.2676C139.21 82.4664 133.811 83.3956 128.376 84.0518C125.436 84.3557 122.473 84.3557 119.534 84.0518C116.643 83.7064 113.531 82.3666 110.629 83.2354C109.99 83.4342 110.263 84.4495 110.912 84.282C112.286 83.9243 113.729 83.9243 115.103 84.282C116.391 84.5437 117.669 84.8368 118.979 85.0043C121.626 85.3426 124.3 85.4197 126.962 85.2345C132.331 84.7464 137.661 83.9002 142.917 82.7016C148.32 81.5603 153.806 80.8602 159.323 80.6083C164.864 80.4199 170.417 80.6606 175.969 80.7129C182.111 80.8623 188.252 80.3712 194.292 79.2476C194.952 79.1115 194.68 78.0962 194.02 78.2009V78.2637Z" fill="black"/>
<path d="M193.662 89.1166C191.63 90.5296 188.749 90.247 186.392 90.2993C183.71 90.3621 181.018 90.3726 178.336 90.2993C175.654 90.226 172.878 90.069 170.143 90.0795C167.582 90.0909 165.038 90.4969 162.6 91.2832C160.201 92.1296 157.752 92.8287 155.267 93.3765C152.698 93.8538 150.082 94.0295 147.473 93.8998C146.131 93.8368 144.794 93.6899 143.471 93.4602C142.224 93.2404 140.988 92.9369 139.731 92.7694C137.091 92.4136 134.378 92.9578 131.769 93.3032C125.777 94.0917 119.812 95.0686 113.876 96.2339C113.216 96.37 113.499 97.3748 114.159 97.2806C119.529 96.2199 124.935 95.3163 130.376 94.5697C131.727 94.3813 133.089 94.2138 134.44 94.0464C135.733 93.8446 137.039 93.7361 138.348 93.7219C139.735 93.8247 141.112 94.0382 142.465 94.3604C143.677 94.6035 144.901 94.7783 146.132 94.8837C148.705 95.1107 151.295 95.0439 153.853 94.6848C156.43 94.3151 158.966 93.7018 161.427 92.8532C163.875 91.9355 166.445 91.3853 169.054 91.2204C171.767 91.1157 174.491 91.325 177.204 91.3878C180.284 91.4611 183.354 91.4611 186.434 91.3878C188.99 91.3878 192.028 91.5867 194.228 90.0586C194.783 89.6818 194.228 88.7712 193.704 89.1584L193.662 89.1166Z" fill="black"/>
<path d="M193.432 101.5C182.799 100.84 172.207 102.389 161.721 103.949C151.234 105.508 140.538 106.984 129.789 106.471C123.996 106.199 118.025 105.749 112.43 107.654C111.802 107.874 112.074 108.879 112.713 108.701C117.71 106.995 123.022 107.214 128.218 107.476C133.493 107.761 138.781 107.694 144.047 107.277C154.628 106.388 165.052 104.284 175.602 103.153C181.512 102.466 187.469 102.273 193.411 102.578C194.092 102.578 194.082 101.531 193.411 101.531L193.432 101.5Z" fill="black"/>
<path d="M139.209 124.599C135.668 126.075 131.677 125.437 127.947 125.426C123.895 125.421 119.848 125.704 115.837 126.274C115.177 126.358 115.459 127.321 116.119 127.321C120.208 126.749 124.332 126.479 128.46 126.515C132.117 126.515 136.003 127.101 139.481 125.646C140.099 125.395 139.827 124.379 139.209 124.599Z" fill="black"/>
<path d="M134.389 135.904C134.169 136.416 132.755 136.322 132.294 136.354C131.508 136.406 130.722 136.437 129.947 136.448C128.334 136.448 126.72 136.448 125.107 136.448C121.938 136.354 118.769 136.663 115.678 137.369C115.61 137.387 115.545 137.418 115.488 137.461C115.432 137.504 115.384 137.557 115.348 137.618C115.312 137.68 115.288 137.747 115.279 137.818C115.269 137.888 115.273 137.96 115.291 138.028C115.309 138.097 115.34 138.162 115.383 138.218C115.426 138.275 115.479 138.323 115.541 138.358C115.602 138.394 115.67 138.418 115.74 138.428C115.81 138.438 115.882 138.433 115.951 138.416C119.438 137.659 123.009 137.36 126.574 137.526C128.313 137.526 130.041 137.526 131.812 137.442C133.017 137.369 134.818 137.515 135.374 136.197C135.636 135.569 134.619 135.307 134.326 135.914L134.389 135.904Z" fill="black"/>
<path d="M131.248 145.291L123.621 145.647C121.221 145.617 118.826 145.874 116.487 146.411C116.348 146.448 116.23 146.54 116.158 146.664C116.086 146.789 116.067 146.937 116.105 147.076C116.142 147.214 116.233 147.333 116.358 147.404C116.483 147.476 116.631 147.495 116.77 147.458C119.104 146.936 121.492 146.69 123.883 146.725L131.217 146.38C131.898 146.38 131.898 145.333 131.217 145.333L131.248 145.291Z" fill="black"/>
<path d="M129.331 154.932C125.392 154.523 121.412 154.879 117.608 155.978C117.539 155.996 117.475 156.027 117.418 156.07C117.361 156.113 117.314 156.166 117.278 156.228C117.242 156.289 117.218 156.357 117.208 156.427C117.198 156.497 117.203 156.569 117.221 156.638C117.238 156.706 117.27 156.771 117.313 156.827C117.355 156.884 117.409 156.932 117.47 156.968C117.532 157.004 117.599 157.027 117.67 157.037C117.74 157.047 117.812 157.043 117.881 157.025C121.6 155.971 125.487 155.641 129.331 156.051C130.001 156.125 130.001 155.068 129.331 155.005V154.932Z" fill="black"/>
<path d="M126.7 162.98C124.665 163.557 122.511 163.575 120.466 163.032C120.328 162.996 120.18 163.016 120.056 163.089C119.932 163.162 119.843 163.28 119.806 163.419C119.77 163.558 119.791 163.706 119.864 163.829C119.936 163.953 120.055 164.043 120.194 164.079C122.422 164.663 124.765 164.645 126.983 164.026C127.122 163.989 127.24 163.898 127.312 163.773C127.383 163.649 127.403 163.501 127.365 163.362C127.328 163.223 127.236 163.105 127.112 163.033C126.987 162.961 126.839 162.942 126.7 162.98Z" fill="black"/>
<path d="M193.903 110.51L161.846 112.739L145.797 113.786C143.209 113.964 140.559 114.121 138.023 114.456C135.488 114.791 132.911 115.408 130.334 115.722C124.844 116.382 119.187 115.272 113.813 116.905C113.174 117.104 113.446 118.119 114.096 117.952C118.894 116.486 123.933 117.282 128.857 116.905C131.36 116.727 133.822 116.193 136.295 115.774C138.888 115.368 141.5 115.092 144.12 114.948L175.937 112.739L193.903 111.556C194.574 111.504 194.574 110.457 193.903 110.51Z" fill="black"/>
<path d="M166.015 41.9648C153.234 44.1942 140.265 45.0316 127.327 45.6596C114.284 46.3085 101.147 46.926 88.0934 47.8471C80.7182 48.3356 73.3429 48.8833 65.9677 49.4904C65.3077 49.4904 65.2972 50.537 65.9677 50.537C79.1328 49.4415 92.3188 48.524 105.526 47.7843C118.537 47.0726 131.58 46.7376 144.581 45.691C151.852 45.1048 159.101 44.278 166.288 43.022C166.958 42.9068 166.675 41.902 166.015 41.9753V41.9648Z" fill="black"/>
<path d="M166.131 55.2773C152.512 56.0728 138.893 56.795 125.222 57.6637C121.911 57.8731 118.611 58.1557 115.322 58.6162C112.032 59.0767 108.784 59.6629 105.516 60.1862C98.7864 61.2687 91.9866 61.8564 85.171 61.9446C81.5882 61.9446 78.0053 61.7771 74.4225 61.8085C71.1106 61.7166 67.8153 62.3081 64.7425 63.546C64.1349 63.8286 64.6587 64.7288 65.2768 64.4566C68.1063 63.3126 71.1405 62.7605 74.192 62.8343C77.3349 62.8343 80.4777 62.9808 83.6206 62.9703C90.2348 62.9646 96.8405 62.4959 103.389 61.5678C106.637 61.0968 109.853 60.5211 113.08 59.9978C116.306 59.4745 119.784 59.0977 123.158 58.8569C129.873 58.365 136.599 58.0405 143.314 57.6533L166.131 56.324C166.802 56.324 166.802 55.2773 166.131 55.2773Z" fill="black"/>
<path d="M166.553 65.922C153.174 66.6966 139.796 67.4397 126.418 68.3712C113.04 69.3028 99.6935 70.4646 86.3887 72.0764C82.743 72.5265 79.1077 73.0289 75.4725 73.5418C71.7064 74.1408 67.8984 74.4383 64.0849 74.4314C63.4144 74.4314 63.4144 75.4781 64.0849 75.4781C70.7792 75.6351 77.4525 74.264 84.0735 73.3848C90.6944 72.5056 97.2944 71.8252 103.978 71.1972C117.325 69.9412 130.703 69.1039 144.092 68.2561C151.593 67.8025 159.097 67.3629 166.605 66.9373C167.275 66.9373 167.275 65.8906 166.605 65.8906L166.553 65.922Z" fill="black"/>
<path d="M97.7965 83.0662C89.2584 84.6152 80.5527 84.1128 71.9412 84.5943C69.5317 84.7303 67.1431 84.9606 64.7546 85.3165C64.0946 85.4212 64.3774 86.426 65.0374 86.3632C73.6069 85.0758 82.3022 85.6619 90.9241 85.0025C93.3228 84.8231 95.7109 84.5226 98.0793 84.1023C98.7393 83.9872 98.4565 82.9719 97.7965 83.0557V83.0662Z" fill="black"/>
<path d="M93.3847 95.293C88.4923 96.1094 83.5371 95.5023 78.6132 95.6384C73.7881 95.9369 69.0211 96.8514 64.4285 98.3597C64.3597 98.3783 64.2952 98.4102 64.2388 98.4536C64.1824 98.497 64.135 98.5512 64.0995 98.6129C64.0278 98.7375 64.0086 98.8855 64.0461 99.0243C64.0836 99.1631 64.1748 99.2813 64.2995 99.353C64.4243 99.4246 64.5724 99.4438 64.7113 99.4064C69.3711 97.8709 74.2158 96.9662 79.1161 96.7164C83.9771 96.6222 88.838 97.1456 93.6571 96.3501C94.3171 96.235 94.0447 95.2302 93.3847 95.3034V95.293Z" fill="black"/>
<path d="M89.8554 107.015C86.1925 107.963 82.3954 108.285 78.6249 107.967C75.1992 107.737 71.6792 107.475 68.463 109.014C67.8554 109.296 68.3897 110.197 68.9973 109.914C72.224 108.417 75.8906 108.867 79.3268 109.119C82.9603 109.369 86.6102 109.015 90.1278 108.072C90.2667 108.036 90.3856 107.946 90.4583 107.822C90.531 107.699 90.5515 107.551 90.5154 107.412C90.4793 107.274 90.3895 107.155 90.2657 107.082C90.1419 107.01 89.9943 106.989 89.8554 107.025V107.015Z" fill="black"/>
<path d="M86.4818 118.319C83.9465 119.962 80.8351 119.366 78.0065 119.24C76.5373 119.143 75.0619 119.284 73.638 119.659C72.1709 120.167 70.6537 120.518 69.1123 120.705C68.4418 120.705 68.4313 121.752 69.1123 121.752C70.6354 121.577 72.133 121.226 73.5751 120.705C75.1809 120.268 76.851 120.116 78.5094 120.255C81.3799 120.433 84.4599 120.821 87.0056 119.209C87.5713 118.842 87.0056 117.932 86.4818 118.298V118.319Z" fill="black"/>
<path d="M84.1359 130.293C81.475 130.188 78.8035 130.063 76.1426 129.989C73.7468 129.798 71.3389 130.156 69.1026 131.036C68.4845 131.308 69.0188 132.208 69.6369 131.936C71.8627 131.105 74.2492 130.794 76.614 131.026C79.1178 131.109 81.6216 131.225 84.1359 131.319C84.8064 131.319 84.8064 130.272 84.1359 130.272V130.293Z" fill="black"/>
<path d="M79.4837 139.461C78.0171 140.1 76.3409 139.828 74.7904 139.692C73.2425 139.445 71.6564 139.637 70.2123 140.246C69.6151 140.55 70.139 141.45 70.7466 141.146C72.1713 140.424 73.8894 140.654 75.3666 140.791C76.9248 141.048 78.5232 140.901 80.0075 140.361C80.6256 140.1 80.0913 139.2 79.4837 139.461Z" fill="black"/>
<path d="M225.898 181.893C223.968 182.489 221.937 182.692 219.927 182.49C218.105 182.456 216.285 182.597 214.49 182.909C210.509 183.589 206.58 184.562 202.641 185.421C201.981 185.557 202.253 186.572 202.913 186.467C206.852 185.62 210.792 184.636 214.762 183.966C216.746 183.645 218.757 183.523 220.765 183.6C222.596 183.743 224.438 183.519 226.181 182.94C226.799 182.699 226.527 181.684 225.898 181.893Z" fill="#231F20"/>
<path d="M222.463 172.704C218.723 175.216 214.155 174.264 209.944 174.055C207.856 173.961 205.765 174.159 203.732 174.641C201.602 175.272 199.403 175.641 197.184 175.74C197.045 175.74 196.912 175.795 196.814 175.893C196.715 175.991 196.66 176.124 196.66 176.263C196.66 176.402 196.715 176.535 196.814 176.633C196.912 176.731 197.045 176.786 197.184 176.786C199.347 176.711 201.491 176.359 203.564 175.74C205.964 175.17 208.437 174.973 210.897 175.154C214.993 175.436 219.362 176.022 222.966 173.594C223.521 173.217 222.966 172.317 222.442 172.694L222.463 172.704Z" fill="#231F20"/>
<path d="M219.79 165.712C217.286 166.884 214.552 166.685 211.838 166.58C209.392 166.449 206.941 166.732 204.589 167.418C203.291 167.847 201.941 168.097 200.576 168.161C199.172 168.161 197.779 168.046 196.386 168.098C193.662 168.284 190.958 168.687 188.298 169.302C187.638 169.427 187.921 170.443 188.571 170.348C191.455 169.668 194.399 169.272 197.36 169.166C198.753 169.166 200.157 169.323 201.551 169.166C202.826 169.005 204.083 168.718 205.301 168.307C207.875 167.666 210.538 167.461 213.179 167.7C215.607 167.933 218.055 167.574 220.313 166.654C220.921 166.371 220.387 165.471 219.779 165.753L219.79 165.712Z" fill="#231F20"/>
<path d="M179.846 160.458C177.164 160.458 174.503 159.976 171.811 159.914C169.426 159.894 167.044 160.069 164.687 160.437C159.449 161.18 154.148 162.185 148.899 163.085C148.229 163.2 148.512 164.205 149.172 164.132C154.263 163.263 159.355 162.3 164.467 161.546C167.061 161.128 169.687 160.949 172.314 161.013C174.839 161.107 177.332 161.504 179.846 161.536C179.985 161.536 180.118 161.481 180.217 161.383C180.315 161.284 180.37 161.151 180.37 161.013C180.37 160.874 180.315 160.741 180.217 160.642C180.118 160.544 179.985 160.489 179.846 160.489V160.458Z" fill="#231F20"/>
<path d="M216.857 156.502C216.005 157.111 215 157.474 213.955 157.548C212.739 157.695 211.503 157.789 210.288 157.883C209.618 157.883 209.618 158.93 210.288 158.93C211.629 158.825 212.98 158.731 214.311 158.553C215.502 158.434 216.636 157.988 217.59 157.266C217.639 157.217 217.678 157.159 217.705 157.095C217.731 157.032 217.745 156.963 217.745 156.894C217.745 156.825 217.731 156.757 217.705 156.693C217.678 156.629 217.639 156.571 217.59 156.523C217.492 156.427 217.36 156.373 217.223 156.373C217.086 156.373 216.954 156.427 216.857 156.523V156.502Z" fill="#231F20"/>
<path d="M161.168 171.5C157.774 172.546 154.107 171.688 150.692 172.4C150.032 172.536 150.315 173.551 150.975 173.446C154.432 172.724 158.078 173.614 161.451 172.536C162.09 172.337 161.818 171.332 161.179 171.489L161.168 171.5Z" fill="#231F20"/>
<path d="M158.106 179.109C157.158 179.55 156.084 179.635 155.078 179.35C153.957 179.08 152.776 179.218 151.747 179.737C151.181 180.093 151.747 181.004 152.281 180.638C153.273 180.204 154.386 180.133 155.424 180.439C156.526 180.695 157.684 180.542 158.682 180.01C159.248 179.643 158.682 178.743 158.158 179.109H158.106Z" fill="#231F20"/>
<path d="M159.07 188.718C158.632 188.854 158.177 188.928 157.719 188.938C157.245 188.917 156.772 188.864 156.305 188.781C155.882 188.698 155.444 188.746 155.051 188.921C154.657 189.095 154.327 189.386 154.105 189.754C153.801 190.351 154.702 190.874 155.016 190.278C155.073 190.164 155.155 190.065 155.257 189.988C155.359 189.912 155.477 189.861 155.603 189.838C155.952 189.792 156.307 189.81 156.65 189.89C157.541 190.037 158.454 189.984 159.322 189.733C159.391 189.715 159.455 189.683 159.512 189.639C159.568 189.596 159.615 189.542 159.651 189.48C159.686 189.418 159.709 189.35 159.718 189.28C159.728 189.209 159.723 189.137 159.704 189.069C159.686 189 159.654 188.936 159.61 188.879C159.567 188.823 159.513 188.776 159.451 188.74C159.389 188.705 159.321 188.682 159.25 188.672C159.18 188.663 159.108 188.668 159.039 188.687L159.07 188.718Z" fill="#231F20"/>
<path d="M211.065 154.028C217.989 143.947 219.309 132.832 214.014 129.202C208.719 125.571 198.813 130.8 191.889 140.88C184.965 150.961 183.644 162.076 188.94 165.707C194.235 169.337 204.141 164.109 211.065 154.028Z" fill="white" stroke="#231F20" stroke-miterlimit="10"/>
<path d="M187.828 136.657C196.01 127.027 201.447 123.584 207.586 124.767L214.343 129.456" stroke="#231F20" stroke-miterlimit="10"/>
<path d="M187.903 136.551C180.183 147.415 178.056 153.779 180.78 159.389L187.223 164.56" stroke="#231F20" stroke-miterlimit="10"/>
<path d="M164.058 192.402L157.824 201.226L160.81 203.937L167.127 195.207L164.058 192.402Z" fill="white" stroke="#231F20" stroke-miterlimit="10"/>
<path d="M188.438 165.775L185.033 170.16L181.891 166.895L184.709 162.75L188.438 165.775Z" stroke="#231F20" stroke-miterlimit="10"/>
<path d="M369.234 253.057L379.03 268.453H309.143L291.574 255.893C282.146 249.613 276.415 248.483 265.929 252.753L245.511 260.478L236.773 221.866L273.44 193.554C289.835 180.91 321.17 184.615 334.139 200.755L369.234 253.057Z" fill="black"/>
<path d="M427.365 30.9434L396.827 70.7376L391.505 52.5047L427.365 30.9434L373.004 38.4375L391.505 52.5047" fill="white"/>
<path d="M427.365 30.9434L396.827 70.7376L391.505 52.5047L427.365 30.9434ZM427.365 30.9434L373.004 38.4375L391.505 52.5047" stroke="black" stroke-miterlimit="10"/>
<path d="M264.011 97.417C275.172 103.462 288.13 105.319 300.542 102.65C306.745 101.371 312.663 98.9737 318.006 95.5748C323.244 92.2255 328.587 87.6516 330.43 81.5181C330.648 80.7671 330.809 80.0009 330.912 79.2259C330.996 78.556 331.247 77.6978 330.619 77.2686C329.57 76.5576 328.367 76.1056 327.109 75.9498C324.528 75.6361 321.922 76.2724 319.776 77.7396C317.602 79.1561 316.048 81.3447 315.428 83.8626C314.83 86.7017 315.233 89.6604 316.57 92.236C317.896 94.9217 320.037 97.1198 322.688 98.516C325.649 99.9881 328.96 100.608 332.253 100.306C339.22 99.751 345.191 95.7318 349.874 90.7706C354.557 85.8094 357.7 79.7702 362.959 75.5626C365.205 73.6883 367.943 72.5001 370.847 72.14C373.47 71.7776 376.137 72.3283 378.401 73.6995C379.429 74.3876 380.28 75.3094 380.884 76.3894C380.96 76.4942 381.072 76.567 381.199 76.5937C381.326 76.6204 381.458 76.5992 381.571 76.534C381.683 76.4689 381.767 76.3646 381.806 76.2412C381.846 76.1178 381.838 75.9841 381.785 75.8661C378.736 70.4444 371.308 70.078 366.175 72.3388C362.959 73.9403 360.145 76.244 357.941 79.0794C355.468 81.9891 353.342 85.171 350.869 88.0807C345.83 94.0153 339.084 99.1963 330.965 99.3219C327.182 99.4782 323.477 98.2206 320.572 95.7946C318.016 93.5472 316.447 90.3855 316.204 86.9922C316.101 85.4341 316.393 83.8755 317.052 82.4597C317.712 81.044 318.717 79.8167 319.975 78.891C321.14 78.0046 322.494 77.3997 323.931 77.1236C325.369 76.8476 326.851 76.908 328.262 77.3C328.951 77.5345 329.604 77.8658 330.2 78.2839L329.938 77.8338C329.791 83.1404 326.334 87.5888 322.479 90.9381C318.66 94.2151 314.337 96.8552 309.677 98.7567C300.386 102.593 290.202 103.735 280.291 102.054C274.758 101.119 269.424 99.2537 264.514 96.5378C264.454 96.5027 264.388 96.4798 264.319 96.4703C264.251 96.4608 264.181 96.4649 264.114 96.4824C264.047 96.4999 263.984 96.5304 263.928 96.5722C263.873 96.6141 263.826 96.6664 263.791 96.7262C263.756 96.7859 263.733 96.8521 263.724 96.9207C263.714 96.9894 263.718 97.0592 263.736 97.1263C263.753 97.1933 263.784 97.2563 263.826 97.3116C263.868 97.3668 263.92 97.4133 263.98 97.4484L264.011 97.417Z" fill="black"/>
<path d="M65.2261 199.666L112.097 186.636C112.326 186.572 112.566 186.561 112.8 186.604C113.033 186.647 113.254 186.743 113.445 186.884C113.636 187.026 113.792 187.209 113.902 187.42C114.011 187.63 114.071 187.863 114.077 188.101C114.318 193.334 115.292 208.092 119.084 220.411C121.515 228.345 126.48 235.274 129.676 238.016C129.864 238.181 130.009 238.387 130.101 238.62C130.192 238.852 130.226 239.102 130.201 239.351C130.175 239.599 130.09 239.837 129.953 240.046C129.816 240.254 129.631 240.427 129.414 240.549C121.766 244.862 97.6185 258.552 93.3547 261.818C93.1201 262.002 92.8372 262.115 92.5398 262.143C92.2424 262.171 91.9434 262.112 91.6785 261.975C88.3025 260.064 85.1172 257.835 82.1661 255.318C74.4033 249.038 69.3223 236.038 64.1052 201.446C64.0387 201.063 64.1165 200.67 64.3235 200.341C64.5306 200.012 64.8521 199.772 65.2261 199.666Z" fill="white" stroke="#231F20" stroke-miterlimit="10"/>
<path d="M71.5847 217.846C74.7276 216.286 77.8705 214.496 81.1181 213.178C84.3657 211.859 87.5295 212.476 90.7981 212.058C94.0666 211.639 96.6543 209.598 99.8076 208.719C101.452 208.258 103.139 207.944 104.773 207.431C106.408 206.919 108.22 206.165 109.907 205.464C110.671 205.139 110.336 203.873 109.561 204.197C107.864 204.909 106.177 205.61 104.428 206.165C102.678 206.72 101.107 206.992 99.4514 207.452C97.9547 207.907 96.5084 208.514 95.1352 209.263C93.4523 210.163 91.601 210.705 89.6981 210.854C86.4505 211.105 83.4124 210.781 80.3533 212.089C77.2943 213.397 74.0676 215.166 70.9247 216.715C70.1705 217.092 70.8409 218.223 71.5847 217.846Z" fill="#231F20"/>
<path d="M73.9715 225.037C80.8543 223.425 86.92 219.354 93.8762 218.129C97.0191 217.585 100.256 217.522 103.169 216.151C104.565 215.372 105.857 214.419 107.013 213.314C108.591 212.004 110.567 211.266 112.618 211.221C113.456 211.221 113.456 209.881 112.618 209.913C111.016 209.947 109.442 210.348 108.019 211.085C106.469 211.901 105.369 213.178 103.954 214.225C101.063 216.318 97.3229 216.318 93.9496 216.842C86.7838 217.993 80.6029 222.18 73.5838 223.823C72.7667 224.011 73.1124 225.278 73.9296 225.079L73.9715 225.037Z" fill="#231F20"/>
<path d="M76.1322 232.332C77.3162 231.007 78.7894 229.972 80.4379 229.307C82.2132 228.885 84.022 228.619 85.8436 228.512C89.1544 228.035 92.3813 227.094 95.4294 225.717C96.9425 225.015 98.415 224.229 99.8398 223.362C101.492 222.446 103.336 221.93 105.225 221.855C106.604 221.699 107.946 221.309 109.195 220.704C110.808 219.961 112.338 219.071 114.203 219.144C115.041 219.144 115.041 217.867 114.203 217.836C112.741 217.838 111.303 218.198 110.012 218.883C108.385 219.768 106.61 220.35 104.774 220.599C103.173 220.661 101.599 221.038 100.144 221.709C98.457 222.577 96.9065 223.624 95.1884 224.419C91.6768 226.046 87.9153 227.069 84.0627 227.444C82.3698 227.506 80.7003 227.86 79.1284 228.491C77.657 229.257 76.3254 230.266 75.1894 231.474C74.5922 232.071 75.5141 232.992 76.1217 232.406L76.1322 232.332Z" fill="#231F20"/>
<path d="M78.3944 240.203C81.7782 239.941 84.8686 238.109 87.9277 236.759C89.8134 235.929 91.7096 235.13 93.6163 234.362C95.1982 233.724 96.8429 232.824 98.5925 232.876C100.08 233.013 101.581 232.885 103.024 232.499C104.481 231.991 105.863 231.286 107.131 230.406C110.064 228.47 112.83 225.853 116.465 225.382C117.292 225.267 117.303 223.958 116.465 224.074C113.249 224.492 110.682 226.282 108.084 228.135C106.724 229.175 105.26 230.073 103.715 230.814C102.083 231.476 100.314 231.732 98.561 231.557C97.0359 231.625 95.5429 232.018 94.182 232.709C92.5617 233.358 90.9448 234.027 89.3315 234.718C87.6134 235.44 85.9163 236.194 84.2191 236.958C82.393 237.933 80.4117 238.585 78.3629 238.884C77.5353 238.947 77.5248 240.255 78.3629 240.192L78.3944 240.203Z" fill="#231F20"/>
<path d="M82.1235 247.76L82.6054 246.106C82.6752 245.617 82.8163 245.141 83.0245 244.693C83.0245 244.39 83.1712 244.358 83.454 244.578C83.7369 244.798 83.9883 244.756 84.2502 244.861C84.5121 244.965 85.0359 245.206 85.434 245.352C86.8547 245.897 88.4335 245.855 89.8235 245.237C91.7512 244.442 93.2597 242.872 95.2188 242.097C97.0102 241.417 98.9797 241.511 100.813 240.956C102.406 240.375 103.908 239.572 105.276 238.57C107.012 237.567 108.836 236.723 110.724 236.048C112.431 235.336 113.961 234.404 115.584 233.536C116.467 233.225 117.38 233.007 118.308 232.887C119.034 232.657 119.685 232.238 120.194 231.673C120.781 231.066 119.859 230.144 119.272 230.752C118.298 231.798 117.334 231.589 116.129 231.903C115.478 232.113 114.86 232.416 114.296 232.803C112.411 233.893 110.434 234.814 108.387 235.556C106.693 236.254 105.075 237.124 103.558 238.151C101.956 239.205 100.137 239.884 98.2359 240.14C96.4342 240.309 94.6867 240.847 93.1026 241.721C91.3321 242.767 89.5197 244.547 87.2988 244.431C85.895 244.369 83.9045 242.61 82.5321 243.249C82.3664 243.334 82.2208 243.454 82.1052 243.6C81.9896 243.746 81.9065 243.916 81.8616 244.096C81.475 245.174 81.1463 246.271 80.8769 247.383C80.8432 247.546 80.8727 247.716 80.9595 247.859C81.0463 248.001 81.184 248.106 81.3447 248.151C81.5055 248.196 81.6774 248.179 81.8258 248.102C81.9742 248.026 82.0881 247.896 82.1445 247.739L82.1235 247.76Z" fill="#231F20"/>
<path d="M86.9756 254.039C92.8632 249.727 100.186 248.544 106.807 245.802C109.819 244.618 112.608 242.93 115.052 240.809C116.255 239.549 117.817 238.687 119.525 238.339C120.997 238.202 122.424 237.76 123.716 237.041C124.407 236.581 123.716 235.45 123.056 235.911C121.652 236.842 120.007 236.853 118.415 237.23C117.029 237.599 115.762 238.32 114.738 239.323C112.071 241.696 108.998 243.568 105.665 244.849C99.1594 247.414 92.0461 248.68 86.3366 252.888C85.6661 253.38 86.3366 254.521 86.9966 254.018L86.9756 254.039Z" fill="#231F20"/>
<path d="M70.6951 207.84C77.2637 209.933 82.8999 203.936 88.7875 202.167C90.494 201.656 92.2498 201.326 94.0256 201.183C95.2513 201.089 96.8856 201.413 98.017 200.859C98.4309 200.667 98.754 200.321 98.918 199.896C99.3056 198.964 99.2532 198.284 100.468 198.127C102.386 197.865 104.324 197.687 106.262 197.467C107.089 197.373 107.089 196.065 106.262 196.159C104.407 196.368 102.564 196.567 100.72 196.787C99.7351 196.902 98.6246 196.965 98.0903 197.938C97.556 198.912 97.8389 199.582 96.6865 199.802C95.9574 199.849 95.2261 199.849 94.497 199.802C92.8904 199.893 91.2952 200.128 89.7303 200.503C86.6816 201.337 83.7652 202.595 81.0665 204.239C77.997 205.966 74.5713 207.662 70.9884 206.542C70.1818 206.291 69.8361 207.589 70.6427 207.798L70.6951 207.84Z" fill="#231F20"/>
<path d="M78.49 161.389L70.4653 162.98C68.1165 163.334 65.7876 163.809 63.4881 164.404C62.6412 164.61 61.8701 165.052 61.2639 165.678C60.6577 166.304 60.2412 167.089 60.0624 167.941C59.6014 169.834 59.4458 171.788 59.6015 173.73C59.6447 174.605 59.8707 175.461 60.265 176.244C60.6594 177.026 61.2133 177.718 61.8911 178.274C62.569 178.83 63.3558 179.238 64.201 179.472C65.0462 179.706 65.931 179.761 66.7986 179.633C67.713 179.531 68.6087 179.302 69.4596 178.952C70.4443 178.544 71.2929 177.801 72.2672 177.414C72.6758 177.006 73.1577 177.047 73.6919 177.529C73.8491 177.78 74.0062 178.031 74.1529 178.283C74.4986 178.858 74.8338 179.434 75.2005 179.999L77.2957 183.443C77.3544 183.54 77.4373 183.621 77.5365 183.677C77.6356 183.733 77.7476 183.762 77.8615 183.762C77.9754 183.762 78.0873 183.733 78.1865 183.677C78.2856 183.621 78.3685 183.54 78.4272 183.443C80.24 181.037 81.5607 178.299 82.3138 175.383C82.3627 175.009 82.4505 174.64 82.5757 174.284L82.6491 173.907L83.6967 173.447C84.1681 173.447 84.6605 174.651 84.9957 175.027C85.3223 175.415 85.7488 175.705 86.229 175.868C86.7092 176.03 87.2246 176.058 87.7196 175.948C90.15 175.383 90.8624 172.808 90.6005 170.663C90.3176 168.297 89.7834 165.88 87.311 165.021C86.0538 164.592 84.4615 164.561 83.6967 163.305C82.9319 162.049 83.0786 160.594 82.9424 159.265C82.7329 157.171 81.8948 154.942 79.5377 154.67C77.1805 154.398 74.8653 155.852 73.2519 157.433C72.3445 158.337 71.5205 159.322 70.79 160.374C69.9708 161.274 69.4702 162.417 69.3653 163.629C69.4281 165.095 70.6958 165.335 71.5234 166.246C71.9071 166.855 72.1967 167.518 72.3824 168.214C72.6414 168.773 72.9959 169.283 73.43 169.721C74.2525 170.567 75.3067 171.151 76.4604 171.401C77.6141 171.65 78.8158 171.554 79.9148 171.123L79.1815 170.16C77.9977 172.662 76.2796 175.781 72.9796 174.986C70.5072 174.399 66.4005 170.673 69.2186 168.266C70.2999 167.478 71.5292 166.915 72.8329 166.612L77.6519 165.136L79.0977 164.686C79.2862 164.624 79.8729 164.33 80.0615 164.393C80.6062 164.561 80.5643 165.932 80.3758 166.392C79.831 167.722 78.4796 167.083 78.1024 166.026C77.8872 165.045 77.9636 164.023 78.3224 163.085C78.3502 162.923 78.3168 162.757 78.2286 162.619C78.1405 162.481 78.0039 162.38 77.8456 162.337C77.6873 162.294 77.5186 162.311 77.3724 162.386C77.2262 162.46 77.113 162.586 77.0548 162.74C76.6567 164.31 76.2691 166.194 77.4738 167.533C77.6708 167.791 77.9171 168.006 78.1984 168.168C78.4798 168.329 78.7904 168.433 79.1123 168.473C79.4342 168.512 79.7608 168.488 80.073 168.4C80.3853 168.313 80.677 168.164 80.931 167.962C81.3878 167.396 81.6858 166.719 81.7944 166C81.903 165.281 81.8183 164.546 81.5491 163.87C80.8996 162.237 78.6681 163.451 77.5472 163.797C75.3786 164.467 73.1367 165.032 71.0205 165.89C69.5934 166.305 68.3421 167.176 67.4586 168.371C65.5834 171.406 69.0824 174.944 71.7434 176.011C75.9967 177.728 78.6786 174.326 80.3129 170.872C80.5224 170.422 80.1558 169.668 79.5691 169.909C78.642 170.301 77.6135 170.385 76.6348 170.15C75.6561 169.914 74.7788 169.371 74.1319 168.601C73.4615 167.784 73.3986 166.759 72.8853 165.869C72.3719 164.979 70.9786 164.686 70.79 163.619C70.6015 162.551 71.6596 161.295 72.351 160.395C73.0837 159.409 73.9273 158.51 74.8653 157.716C76.751 156.166 80.3129 154.753 81.3291 157.914C81.8843 159.683 81.4967 161.62 82.2196 163.357C82.9424 165.095 84.4929 165.628 86.2319 166.11C86.8631 166.212 87.4479 166.505 87.9084 166.948C88.3689 167.391 88.6831 167.964 88.8091 168.59C89.289 169.931 89.4258 171.37 89.2072 172.777C88.8824 174.012 87.3948 175.32 86.1377 174.358C85.3519 173.75 85.09 172.735 84.1681 172.264C83.8561 172.062 83.4923 171.955 83.1205 171.955C82.7488 171.955 82.3849 172.062 82.0729 172.264C81.2243 172.882 81.1824 174.138 80.9519 175.059C80.2184 177.862 78.9406 180.494 77.191 182.804H78.3224C77.1491 180.847 76.07 178.764 74.771 176.89C74.6218 176.615 74.4125 176.376 74.1585 176.192C73.9045 176.007 73.6124 175.883 73.3037 175.826C72.9949 175.77 72.6775 175.784 72.3748 175.867C72.0721 175.949 71.7919 176.099 71.5548 176.304C69.711 177.414 67.8462 178.513 65.6148 178.398C64.587 178.382 63.5914 178.037 62.7748 177.413C61.9581 176.789 61.3635 175.92 61.0786 174.933C60.6769 173.009 60.6948 171.02 61.131 169.103C61.1408 168.526 61.2805 167.958 61.5399 167.441C61.7992 166.925 62.1715 166.473 62.6291 166.12C63.4019 165.693 64.2473 165.413 65.1224 165.293C69.6796 164.362 74.2681 163.504 78.8358 162.603C79.6634 162.446 79.3177 161.18 78.49 161.347V161.389Z" fill="#231F20"/>
<path d="M72.0664 28.9644V40.6347L154.304 37.3168L155.844 24.0137L72.0664 28.9644Z" fill="#231F20"/>
</svg>
