<svg width="576" height="360" viewBox="0 0 576 360" fill="none" xmlns="http://www.w3.org/2000/svg">
<path d="M95.6267 169.046C77.4821 154.655 72.6392 135.876 82.9707 117.871C91.3972 103.173 121.891 97.9785 133.014 122.34C134.935 126.551 137.953 135.15 139.342 135.246C158.035 136.763 156.55 137.36 150.06 150.605C146.509 157.849 156.388 170.998 147.752 177.419C144.203 180.035 140.079 181.766 135.726 182.469L129.672 195.117C129.672 195.117 84.924 207.798 73.6562 208.782L95.6267 169.046Z" fill="white" stroke="black" stroke-miterlimit="10"/>
<path d="M317.283 233.127C335.04 217.268 361.612 190.212 369.409 170.739C369.631 170.163 369.714 169.542 369.65 168.928C369.587 168.313 369.379 167.722 369.044 167.203C368.709 166.684 368.256 166.252 367.722 165.941C367.187 165.63 366.587 165.45 365.97 165.415L293.86 160.801C292.596 160.735 291.337 160.997 290.205 161.563C289.073 162.128 288.108 162.978 287.403 164.028C280.639 173.918 254.956 208.201 239.555 216.38C239.212 216.572 238.933 216.861 238.753 217.21C238.573 217.56 238.5 217.955 238.543 218.345C238.586 218.736 238.744 219.105 238.995 219.407C239.247 219.709 239.582 219.93 239.959 220.043L266.918 232.659" stroke="black" stroke-miterlimit="10"/>
<path d="M241.461 278.139C240.315 276.832 225.512 245.743 225.512 245.743L257.458 234.772C262.428 233.065 267.689 232.363 272.933 232.709C278.177 233.056 283.299 234.443 288.001 236.789L299.188 238.402C302.771 238.935 307.259 242.194 310.165 239.919L338.318 212.815C338.99 212.111 339.888 211.666 340.854 211.557C341.821 211.448 342.796 211.683 343.607 212.219C344.419 212.755 345.016 213.559 345.295 214.491C345.573 215.423 345.515 216.423 345.13 217.316C343.177 222.285 333.055 245.098 322.659 249.583C296.123 260.544 269.018 270.076 241.461 278.139V278.139Z" fill="white" stroke="black" stroke-miterlimit="10"/>
<path d="M0.0429688 331.975L575.956 329.781" stroke="black" stroke-miterlimit="10"/>
<path d="M344.5 330.5L366.052 261.296L347.116 250.986L299.5 330.5H344.5Z" fill="#4D4D4D" stroke="black" stroke-miterlimit="10"/>
<path d="M365.485 195.245L339.656 250.712L362.902 261.182L342.384 330.669L476.871 330.104L491.27 268.878L558.86 268.039L553.452 238.918C548.609 213.686 543.67 195.875 518.067 193.745L473.158 190.389C459.582 196.633 452.947 193.826 445.86 191.438L437.514 187.792L387.665 182.5C383.106 182.094 378.533 183.099 374.565 185.379C370.597 187.659 367.427 191.104 365.485 195.245V195.245Z" fill="black"/>
<path d="M483.942 359.306C488.657 359.472 493.338 358.445 497.549 356.318C501.76 354.191 505.365 351.034 508.027 347.141L547.658 266.087L486.557 267.184L474.708 296.483C474.098 297.944 472.933 299.104 471.469 299.709C470.004 300.314 468.36 300.314 466.895 299.709L394.995 270.411L384.647 264.926C383.477 264.275 382.173 263.9 380.836 263.83C379.499 263.76 378.163 263.997 376.931 264.522C374.558 265.603 372.476 267.846 373.589 272.492C374.127 274.63 375.424 276.499 377.238 277.752L384.615 282.914L345.049 278.3C345.049 278.3 332.91 275.977 332.135 281.721C332.135 281.721 327.373 282.334 329.1 287.383C328.404 287.675 327.802 288.154 327.36 288.766C326.919 289.378 326.655 290.1 326.598 290.852C326.598 291.626 327.792 292.578 327.55 293.772C327.211 295.547 329.164 295.982 330.343 296.579C330.407 296.515 477.905 359.144 483.942 359.306Z" fill="#4D4D4D" stroke="black" stroke-miterlimit="10"/>
<path d="M331.844 282.141C331.844 282.141 340.012 287.723 372.201 294.321" stroke="black" stroke-miterlimit="10"/>
<path d="M328.875 286.996C328.875 286.996 328.956 287.803 330.118 288.238C332.959 289.303 343.274 292.239 364.89 298.241" stroke="black" stroke-miterlimit="10"/>
<path d="M327.484 292.24C327.484 292.24 334.458 294.321 359.06 301.549" stroke="black" stroke-miterlimit="10"/>
<path d="M53.1045 332.25C50.4247 325.442 51.7323 279.397 51.3287 241.903C51.0705 217.913 61.87 197.924 79.837 188.276C87.8673 184.079 97.0002 182.468 105.983 183.664C114.966 184.859 123.358 188.804 130.009 194.955C131.936 196.57 133.504 198.57 134.61 200.828L148.137 234.095L221.813 203.151L246.27 239.386L226.656 246.727L242.347 279.833L173.74 347.851C168.267 352.756 161.381 355.805 154.068 356.562C146.755 357.318 139.39 355.743 133.028 352.062L107.845 330.959L53.1045 332.25Z" fill="black"/>
<path d="M467.621 300.227L487.606 308.471" stroke="black" stroke-miterlimit="10"/>
<path d="M232.551 135.39L246.304 119.483C246.456 119.333 246.576 119.155 246.658 118.958C246.74 118.761 246.782 118.551 246.782 118.338C246.782 118.125 246.74 117.914 246.658 117.717C246.576 117.52 246.456 117.342 246.304 117.192C246.154 117.041 245.976 116.921 245.779 116.839C245.582 116.757 245.371 116.715 245.158 116.715C244.945 116.715 244.734 116.757 244.537 116.839C244.341 116.921 244.162 117.041 244.012 117.192L230.274 133.1C230.123 133.25 230.003 133.428 229.921 133.625C229.839 133.821 229.797 134.032 229.797 134.245C229.797 134.458 229.839 134.669 229.921 134.865C230.003 135.062 230.123 135.24 230.274 135.39C230.577 135.691 230.986 135.86 231.412 135.86C231.839 135.86 232.248 135.691 232.551 135.39V135.39Z" fill="black"/>
<path d="M228.919 117.838L242.705 128.97C243.009 129.272 243.42 129.441 243.849 129.439C244.277 129.438 244.687 129.266 244.989 128.962C245.291 128.659 245.46 128.247 245.458 127.819C245.457 127.391 245.285 126.981 244.981 126.68L231.211 115.548C231.061 115.396 230.883 115.276 230.686 115.194C230.489 115.112 230.278 115.07 230.065 115.07C229.852 115.07 229.641 115.112 229.444 115.194C229.248 115.276 229.069 115.396 228.919 115.548C228.768 115.698 228.648 115.876 228.566 116.073C228.484 116.269 228.441 116.48 228.441 116.693C228.441 116.906 228.484 117.117 228.566 117.313C228.648 117.51 228.768 117.688 228.919 117.838V117.838Z" fill="black"/>
<path d="M236.7 115.869L236.07 133.616C236.07 135.697 239.299 135.681 239.299 133.616L239.928 115.869C240.009 113.788 236.781 113.788 236.7 115.869Z" fill="black"/>
<path d="M268.208 107.901C268.636 107.901 269.047 107.731 269.35 107.428C269.652 107.125 269.822 106.715 269.822 106.287C269.822 105.859 269.652 105.449 269.35 105.146C269.047 104.844 268.636 104.674 268.208 104.674C267.78 104.674 267.369 104.844 267.067 105.146C266.764 105.449 266.594 105.859 266.594 106.287C266.594 106.715 266.764 107.125 267.067 107.428C267.369 107.731 267.78 107.901 268.208 107.901Z" fill="black"/>
<path d="M220.2 62.5001C220.628 62.5001 221.039 62.3301 221.342 62.0276C221.644 61.725 221.815 61.3147 221.815 60.8868C221.815 60.4589 221.644 60.0485 221.342 59.746C221.039 59.4434 220.628 59.2734 220.2 59.2734C219.772 59.2734 219.361 59.4434 219.059 59.746C218.756 60.0485 218.586 60.4589 218.586 60.8868C218.586 61.3147 218.756 61.725 219.059 62.0276C219.361 62.3301 219.772 62.5001 220.2 62.5001Z" fill="black"/>
<path d="M167.173 90.17C167.601 90.17 168.012 90 168.314 89.6975C168.617 89.3949 168.787 88.9846 168.787 88.5567C168.787 88.1288 168.617 87.7184 168.314 87.4159C168.012 87.1133 167.601 86.9434 167.173 86.9434C166.745 86.9434 166.334 87.1133 166.031 87.4159C165.729 87.7184 165.559 88.1288 165.559 88.5567C165.559 88.9846 165.729 89.3949 166.031 89.6975C166.334 90 166.745 90.17 167.173 90.17Z" fill="black"/>
<path d="M342.595 143.604C343.023 143.604 343.433 143.434 343.736 143.131C344.039 142.829 344.209 142.418 344.209 141.99C344.209 141.562 344.039 141.152 343.736 140.849C343.433 140.547 343.023 140.377 342.595 140.377C342.167 140.377 341.756 140.547 341.453 140.849C341.151 141.152 340.98 141.562 340.98 141.99C340.98 142.418 341.151 142.829 341.453 143.131C341.756 143.434 342.167 143.604 342.595 143.604Z" fill="black"/>
<path d="M388.86 71.9708C389.288 71.9708 389.699 71.8008 390.002 71.4983C390.305 71.1957 390.475 70.7853 390.475 70.3575C390.475 69.9296 390.305 69.5192 390.002 69.2167C389.699 68.9141 389.288 68.7441 388.86 68.7441C388.432 68.7441 388.022 68.9141 387.719 69.2167C387.416 69.5192 387.246 69.9296 387.246 70.3575C387.246 70.7853 387.416 71.1957 387.719 71.4983C388.022 71.8008 388.432 71.9708 388.86 71.9708Z" fill="black"/>
<path d="M460.939 79.4571C461.367 79.4571 461.777 79.2872 462.08 78.9846C462.383 78.682 462.553 78.2717 462.553 77.8438C462.553 77.4159 462.383 77.0056 462.08 76.703C461.777 76.4004 461.367 76.2305 460.939 76.2305C460.51 76.2305 460.1 76.4004 459.797 76.703C459.494 77.0056 459.324 77.4159 459.324 77.8438C459.324 78.2717 459.494 78.682 459.797 78.9846C460.1 79.2872 460.51 79.4571 460.939 79.4571Z" fill="black"/>
<path d="M407.814 4.21104C408.242 4.21104 408.652 4.04107 408.955 3.73851C409.258 3.43595 409.428 3.02559 409.428 2.59771C409.428 2.16983 409.258 1.75947 408.955 1.45691C408.652 1.15435 408.242 0.984375 407.814 0.984375C407.385 0.984375 406.975 1.15435 406.672 1.45691C406.369 1.75947 406.199 2.16983 406.199 2.59771C406.199 3.02559 406.369 3.43595 406.672 3.73851C406.975 4.04107 407.385 4.21104 407.814 4.21104Z" fill="black"/>
<path d="M289.177 49.5782C289.605 49.5782 290.016 49.4082 290.318 49.1057C290.621 48.8031 290.791 48.3928 290.791 47.9649C290.791 47.537 290.621 47.1267 290.318 46.8241C290.016 46.5215 289.605 46.3516 289.177 46.3516C288.749 46.3516 288.338 46.5215 288.035 46.8241C287.733 47.1267 287.562 47.537 287.562 47.9649C287.562 48.3928 287.733 48.8031 288.035 49.1057C288.338 49.4082 288.749 49.5782 289.177 49.5782Z" fill="black"/>
<path d="M438.13 51.2716C438.558 51.2716 438.969 51.1016 439.271 50.7991C439.574 50.4965 439.744 50.0861 439.744 49.6583C439.744 49.2304 439.574 48.82 439.271 48.5175C438.969 48.2149 438.558 48.0449 438.13 48.0449C437.702 48.0449 437.291 48.2149 436.988 48.5175C436.686 48.82 436.516 49.2304 436.516 49.6583C436.516 50.0861 436.686 50.4965 436.988 50.7991C437.291 51.1016 437.702 51.2716 438.13 51.2716Z" fill="black"/>
<path d="M123.892 43.754C124.32 43.754 124.73 43.5841 125.033 43.2815C125.336 42.9789 125.506 42.5686 125.506 42.1407C125.506 41.7128 125.336 41.3024 125.033 40.9999C124.73 40.6973 124.32 40.5273 123.892 40.5273C123.463 40.5273 123.053 40.6973 122.75 40.9999C122.447 41.3024 122.277 41.7128 122.277 42.1407C122.277 42.5686 122.447 42.9789 122.75 43.2815C123.053 43.5841 123.463 43.754 123.892 43.754Z" fill="black"/>
<path d="M180.877 3.22667H183.25C183.678 3.22667 184.089 3.05669 184.392 2.75413C184.694 2.45157 184.864 2.04122 184.864 1.61333C184.863 1.39988 184.82 1.18872 184.737 0.992098C184.654 0.795472 184.533 0.617286 184.38 0.467868C184.072 0.180646 183.671 0.014454 183.25 0H180.877C180.558 0.00133783 180.246 0.0972614 179.981 0.275636C179.717 0.454011 179.511 0.706825 179.39 1.00212C179.269 1.29741 179.238 1.62192 179.302 1.9346C179.365 2.24729 179.52 2.53411 179.747 2.7588C180.052 3.04987 180.455 3.2167 180.877 3.22667V3.22667Z" fill="black"/>
<path d="M359.11 10.6642C359.539 10.6642 359.949 10.4942 360.252 10.1916C360.555 9.88908 360.725 9.47872 360.725 9.05084C360.725 8.62295 360.555 8.21259 360.252 7.91003C359.949 7.60748 359.539 7.4375 359.11 7.4375C358.682 7.4375 358.272 7.60748 357.969 7.91003C357.666 8.21259 357.496 8.62295 357.496 9.05084C357.496 9.47872 357.666 9.88908 357.969 10.1916C358.272 10.4942 358.682 10.6642 359.11 10.6642Z" fill="black"/>
<path d="M339.737 62.2912C342.142 57.2535 345.421 52.6816 349.423 48.7876C350.908 47.3518 348.632 45.0608 347.13 46.5128C342.931 50.6017 339.483 55.3963 336.944 60.6779C336.837 60.8611 336.767 61.0636 336.738 61.274C336.709 61.4843 336.722 61.6983 336.776 61.9036C336.83 62.1089 336.924 62.3016 337.052 62.4706C337.181 62.6395 337.342 62.7814 337.525 62.8882C337.709 62.9955 337.911 63.0657 338.122 63.0946C338.332 63.1235 338.546 63.1105 338.752 63.0566C338.957 63.0026 339.15 62.9087 339.319 62.7801C339.488 62.6515 339.63 62.4909 339.737 62.3074V62.2912Z" fill="black"/>
<path d="M335.186 46.8675C337.711 52.0951 341.225 56.7847 345.533 60.6777C345.684 60.827 345.862 60.9453 346.059 61.0257C346.255 61.1062 346.465 61.1472 346.677 61.1464C346.889 61.1457 347.099 61.1032 347.295 61.0214C347.49 60.9396 347.668 60.82 347.818 60.6696C347.967 60.5192 348.085 60.3408 348.166 60.1447C348.246 59.9485 348.287 59.7385 348.287 59.5265C348.286 59.3145 348.243 59.1047 348.161 58.9092C348.08 58.7136 347.96 58.5361 347.809 58.3867C343.732 54.6781 340.415 50.2123 338.043 45.2381C337.82 44.8869 337.469 44.6356 337.065 44.5366C336.66 44.4376 336.233 44.4986 335.873 44.7068C335.512 44.915 335.246 45.2544 335.13 45.6541C335.014 46.0537 335.057 46.4827 335.25 46.8514L335.186 46.8675Z" fill="black"/>
<path d="M162.215 28.2018C168.789 35.3457 176.28 41.5897 184.492 46.7713C186.251 47.8845 187.866 45.158 186.106 43.9803C178.131 38.9416 170.863 32.8652 164.491 25.9109C163.07 24.2976 160.794 26.6692 162.199 28.2018H162.215Z" fill="black"/>
<path d="M177.439 28.6371C172.161 35.0546 165.775 40.475 158.584 44.6414C158.233 44.8646 157.981 45.2149 157.882 45.6191C157.783 46.0232 157.844 46.45 158.053 46.8103C158.261 47.1705 158.601 47.4364 159 47.5523C159.4 47.6683 159.83 47.6253 160.198 47.4324C167.634 43.1411 174.239 37.551 179.699 30.928C179.85 30.7781 179.97 30.5996 180.052 30.403C180.134 30.2064 180.177 29.9956 180.177 29.7826C180.177 29.5696 180.134 29.3587 180.052 29.1621C179.97 28.9655 179.85 28.7871 179.699 28.6371C179.397 28.3366 178.987 28.168 178.561 28.168C178.135 28.168 177.725 28.3366 177.423 28.6371H177.439Z" fill="black"/>
<path d="M167.734 26.0235L168.17 52.0143C168.17 52.4422 168.34 52.8525 168.643 53.1551C168.946 53.4576 169.356 53.6276 169.785 53.6276C170.213 53.6276 170.623 53.4576 170.926 53.1551C171.229 52.8525 171.399 52.4422 171.399 52.0143L170.963 26.0235C170.963 25.5956 170.793 25.1852 170.49 24.8827C170.187 24.5801 169.777 24.4102 169.349 24.4102C168.921 24.4102 168.51 24.5801 168.207 24.8827C167.904 25.1852 167.734 25.5956 167.734 26.0235V26.0235Z" fill="black"/>
<path d="M87.1681 74.729C90.1523 78.9376 93.6258 82.7774 97.5157 86.1676C97.6658 86.3188 97.8443 86.4388 98.0411 86.5207C98.2378 86.6026 98.4488 86.6448 98.6619 86.6448C98.875 86.6448 99.086 86.6026 99.2827 86.5207C99.4794 86.4388 99.6579 86.3188 99.808 86.1676C100.109 85.8653 100.277 85.4564 100.277 85.0302C100.277 84.6039 100.109 84.195 99.808 83.8928C96.0998 80.6977 92.7836 77.0747 89.9286 73.0995C89.7144 72.7585 89.3803 72.5097 88.992 72.4023C88.6037 72.2948 88.1892 72.3363 87.83 72.5187C87.6464 72.6255 87.4856 72.7674 87.357 72.9364C87.2284 73.1053 87.1343 73.298 87.0804 73.5033C87.0264 73.7087 87.0135 73.9226 87.0424 74.133C87.0713 74.3433 87.1415 74.5458 87.2489 74.729H87.1681Z" fill="black"/>
<path d="M95.5629 74.2778C95.0287 74.9084 94.4516 75.5014 93.8356 76.0525L92.8993 76.843L92.6249 77.0366L92.1245 77.3916C91.433 77.846 90.7162 78.2608 89.9775 78.6338L89.4125 78.892L89.1703 79.0049C89.4771 78.8597 89.1703 79.0049 89.1703 79.0049L87.9435 79.4566C87.5303 79.5722 87.18 79.847 86.9696 80.2206C86.7592 80.5943 86.706 81.0362 86.8215 81.4491C86.9371 81.862 87.2121 82.2121 87.586 82.4224C87.9599 82.6327 88.402 82.6859 88.8152 82.5704C92.3604 81.4157 95.5244 79.3187 97.9682 76.5042C98.1195 76.3542 98.2396 76.1758 98.3215 75.9792C98.4035 75.7826 98.4457 75.5717 98.4457 75.3588C98.4457 75.1458 98.4035 74.9349 98.3215 74.7383C98.2396 74.5417 98.1195 74.3633 97.9682 74.2133C97.6657 73.9128 97.2566 73.7441 96.8301 73.7441C96.4036 73.7441 95.9945 73.9128 95.6921 74.2133L95.5629 74.2778Z" fill="black"/>
<path d="M445.828 29.7345L464.328 15.3597C464.479 15.2097 464.599 15.0313 464.681 14.8347C464.763 14.6381 464.805 14.4272 464.805 14.2142C464.805 14.0012 464.763 13.7904 464.681 13.5938C464.599 13.3972 464.479 13.2187 464.328 13.0688C464.025 12.7683 463.616 12.5996 463.19 12.5996C462.763 12.5996 462.354 12.7683 462.052 13.0688L443.536 27.4597C443.235 27.762 443.066 28.1709 443.066 28.5971C443.066 29.0233 443.235 29.4322 443.536 29.7345C443.686 29.8857 443.864 30.0057 444.061 30.0876C444.258 30.1695 444.469 30.2117 444.682 30.2117C444.895 30.2117 445.106 30.1695 445.303 30.0876C445.5 30.0057 445.678 29.8857 445.828 29.7345V29.7345Z" fill="black"/>
<path d="M444.393 13.0358L461.375 32.6055C462.747 34.2188 465.023 31.8795 463.667 30.3146L446.685 10.761C445.313 9.14764 443.037 11.487 444.393 13.0358Z" fill="black"/>
<path d="M451.997 11.2289L451.496 25.3778C451.496 27.459 454.725 27.459 454.725 25.3778L455.225 11.2289C455.225 9.14767 451.997 9.14767 451.997 11.2289V11.2289Z" fill="black"/>
<path d="M415.963 73.7459L429.878 87.0075C431.38 88.4434 433.672 86.1686 432.171 84.7328L418.239 71.4712C416.738 70.0353 414.446 72.3101 415.963 73.7459Z" fill="black"/>
<path d="M425.31 72.1325L419.24 82.6676C419.123 82.8512 419.045 83.0565 419.01 83.2712C418.974 83.4859 418.983 83.7056 419.035 83.9169C419.086 84.1282 419.18 84.3269 419.311 84.501C419.442 84.6751 419.606 84.821 419.795 84.9298C419.983 85.0387 420.192 85.1084 420.408 85.1346C420.624 85.1609 420.843 85.1431 421.052 85.0825C421.261 85.0219 421.456 84.9196 421.625 84.7819C421.793 84.6441 421.932 84.4737 422.033 84.2809L428.087 73.7458C428.219 73.5633 428.312 73.3549 428.36 73.1341C428.407 72.9133 428.407 72.6851 428.361 72.4642C428.314 72.2434 428.222 72.0347 428.089 71.8518C427.957 71.6688 427.788 71.5157 427.592 71.4022C427.397 71.2887 427.18 71.2175 426.956 71.1931C426.731 71.1686 426.504 71.1916 426.289 71.2604C426.074 71.3292 425.875 71.4424 425.707 71.5927C425.538 71.7429 425.403 71.9268 425.31 72.1325Z" fill="black"/>
<path d="M87.4258 184.114L100.033 160.947C100.033 160.947 78.1436 147.46 103.778 139.102L103.1 127.68C103.1 127.68 131.528 123.889 131.173 104.174" stroke="black" stroke-miterlimit="10"/>
<path d="M130.479 132.02C131.851 133.633 133.223 135.149 130.285 139.247C127.67 142.91 119.227 144.087 117.855 142.345C116.483 140.603 116.983 135.053 120.47 132.197C123.957 129.341 129.091 130.342 130.479 132.02Z" stroke="black" stroke-miterlimit="10"/>
<path d="M127.748 138.908C132.93 138.908 132.946 130.842 127.748 130.842C122.55 130.842 122.534 138.908 127.748 138.908Z" fill="black"/>
<path d="M153.498 121C154.871 122.613 156.243 124.13 153.321 128.228C150.69 131.89 142.247 133.068 140.875 131.325C139.503 129.583 140.003 124.033 143.49 121.177C146.977 118.322 152.126 119.322 153.498 121Z" fill="white" stroke="black" stroke-miterlimit="10"/>
<path d="M150.785 127.889C155.983 127.889 155.983 119.822 150.785 119.822C145.587 119.822 145.587 127.889 150.785 127.889Z" fill="black"/>
<path d="M473.933 153.815C487.315 134.907 486.669 115.515 471.689 101.14C459.469 89.4111 428.749 93.0733 424.874 119.5C424.229 124.082 423.744 133.181 422.437 133.681C404.922 140.392 406.52 140.538 416.48 151.428C421.92 157.381 416.141 172.772 426.166 176.515C430.293 178.02 434.72 178.524 439.08 177.983V188.131C439.08 188.131 455.998 199.747 472.98 190.406L473.933 153.815Z" fill="#4D4D4D" stroke="black" stroke-miterlimit="10"/>
<path d="M473.901 153.799L467.444 147.265C467.444 147.265 484.62 128.179 457.758 127.357L455.191 116.208C455.191 116.208 437.547 118.919 427.555 110.723C436.11 92.3473 461.051 90.863 471.77 101.14C486.638 115.531 487.267 134.891 473.901 153.799Z" fill="black"/>
<path d="M430.057 128.066C429.201 130.067 428.297 131.842 432.252 134.955C435.804 137.73 444.23 136.44 445.07 134.439C445.909 132.439 443.843 127.195 439.694 125.437C435.545 123.678 430.929 126.066 430.057 128.066Z" fill="white" stroke="black" stroke-miterlimit="10"/>
<path d="M433.514 134.084C438.696 134.084 438.712 126.018 433.514 126.018C428.316 126.018 428.3 134.084 433.514 134.084Z" fill="black"/>
<path d="M404.889 123.953C404.049 125.953 403.129 127.744 407.1 130.842C410.635 133.617 419.062 132.326 419.901 130.325C420.741 128.325 418.691 123.082 414.542 121.323C410.393 119.565 405.744 121.985 404.889 123.953Z" fill="white" stroke="black" stroke-miterlimit="10"/>
<path d="M408.313 130.051C413.511 130.051 413.511 121.984 408.313 121.984C403.115 121.984 403.115 130.051 408.313 130.051Z" fill="black"/>
<path d="M437.433 152.928C436.016 151.511 434.243 150.502 432.3 150.008C430.354 149.369 428.251 149.403 426.327 150.105C425.813 150.316 425.356 150.643 424.989 151.06C424.622 151.477 424.356 151.973 424.212 152.509C424.14 153.132 424.226 153.763 424.464 154.344C424.701 154.925 425.081 155.437 425.568 155.832C427.037 157.446 428.684 159.22 431.073 158.946C432.214 158.821 433.32 158.472 434.326 157.918C435.331 157.364 436.217 156.617 436.933 155.719C437.157 155.492 437.308 155.204 437.369 154.891C437.429 154.578 437.395 154.255 437.272 153.961C437.152 153.669 436.949 153.418 436.687 153.24C436.426 153.063 436.119 152.965 435.803 152.96C434.346 153.073 432.886 152.794 431.573 152.154C430.185 151.589 427.764 150.815 426.731 152.444C425.697 154.074 427.618 156.107 429.281 156.397C431.027 156.639 432.806 156.364 434.398 155.606C434.706 155.427 434.946 155.151 435.08 154.821C435.214 154.491 435.236 154.126 435.141 153.783C435.043 153.434 434.831 153.128 434.538 152.915C434.245 152.701 433.889 152.592 433.527 152.606C433.704 152.606 433.527 152.606 433.527 152.606C433.527 152.606 433.527 152.606 433.365 152.525L432.768 152.186C432.272 151.875 431.726 151.651 431.154 151.525C430.475 151.381 429.767 151.497 429.169 151.85C428.572 152.202 428.128 152.765 427.925 153.428C427.831 153.752 427.809 154.092 427.861 154.425C427.913 154.758 428.037 155.076 428.225 155.355C428.412 155.635 428.659 155.871 428.948 156.045C429.236 156.219 429.559 156.328 429.894 156.365C431.099 156.375 432.258 155.911 433.123 155.074C433.491 154.856 433.758 154.5 433.863 154.086C433.969 153.671 433.906 153.232 433.688 152.864C433.472 152.497 433.121 152.231 432.71 152.122C432.299 152.013 431.861 152.071 431.493 152.283L430.766 152.783C430.766 152.783 430.072 153.219 430.088 153.235C430.104 153.251 430.476 153.235 430.476 153.235C430.617 153.294 430.745 153.381 430.851 153.492C430.956 153.604 431.038 153.736 431.089 153.88C431.133 153.971 431.156 154.07 431.156 154.17C431.156 154.271 431.133 154.37 431.089 154.461C431.089 154.574 431.089 154.574 431.089 154.461C430.992 154.574 430.944 154.687 430.782 154.735C430.621 154.784 430.524 154.735 430.573 154.735C430.621 154.735 430.992 154.864 430.911 154.832C431.147 154.944 431.373 155.074 431.59 155.219C432.24 155.608 432.967 155.85 433.72 155.929L432.913 152.912C432.242 153.186 431.524 153.328 430.798 153.332H430.233C430.061 153.349 429.887 153.315 429.733 153.235C430.007 153.348 429.539 153.073 429.733 153.235C429.814 153.369 429.857 153.522 429.857 153.678C429.857 153.835 429.814 153.988 429.733 154.122L429.152 154.703C428.668 154.784 428.538 154.832 428.781 154.816H428.958C428.958 154.816 429.362 154.816 429.136 154.816C429.429 154.859 429.716 154.935 429.991 155.042C430.605 155.235 431.17 155.51 431.767 155.735C433.094 156.239 434.52 156.427 435.932 156.284L434.786 153.525C434.583 153.783 434.368 154.031 434.14 154.267L433.72 154.655C433.575 154.767 433.72 154.655 433.72 154.655L433.462 154.848C433.188 155.026 432.897 155.187 432.606 155.348L432.397 155.445C432.138 155.558 432.574 155.445 432.397 155.445L431.848 155.623L431.38 155.752C431.38 155.752 430.912 155.752 431.089 155.752H430.54C430.782 155.752 430.104 155.558 430.363 155.752C429.798 155.389 429.287 154.949 428.845 154.445L428.038 153.606L427.667 153.203C427.667 153.203 427.505 153.009 427.667 153.106C427.828 153.202 427.489 152.928 427.667 153.106C427.667 152.901 427.667 152.901 427.667 153.106C427.667 153.219 427.667 153.299 427.667 153.396C427.667 153.493 427.812 153.186 427.667 153.283C427.521 153.38 427.748 153.283 427.748 153.283C427.748 153.283 427.651 153.283 427.893 153.17L428.086 153.057C428.312 152.944 427.893 153.057 428.086 153.057L428.603 152.912C428.894 152.912 428.49 152.912 428.797 152.912H429.814H430.282H430.54C430.282 152.912 430.54 152.912 430.54 152.912C430.895 152.912 431.25 153.041 431.606 153.138C433.04 153.462 434.351 154.189 435.383 155.235C435.533 155.387 435.712 155.507 435.908 155.588C436.105 155.67 436.316 155.713 436.529 155.713C436.742 155.713 436.953 155.67 437.15 155.588C437.347 155.507 437.525 155.387 437.675 155.235C437.976 154.933 438.145 154.524 438.145 154.098C438.145 153.672 437.976 153.263 437.675 152.96L437.433 152.928Z" fill="black"/>
<path d="M484.379 113.094C492.314 113.094 498.746 106.666 498.746 98.7356C498.746 90.8055 492.314 84.377 484.379 84.377C476.444 84.377 470.012 90.8055 470.012 98.7356C470.012 106.666 476.444 113.094 484.379 113.094Z" fill="black"/>
<path d="M287.242 236.628L317.623 234.451C318.993 234.277 320.379 234.597 321.534 235.354C322.688 236.111 323.534 237.256 323.919 238.581C324.236 239.849 324.084 241.189 323.491 242.354C322.898 243.519 321.903 244.431 320.69 244.921L295.766 251.278" fill="white"/>
<path d="M287.242 236.628L317.623 234.451C318.993 234.277 320.379 234.597 321.534 235.354C322.688 236.111 323.534 237.256 323.919 238.581C324.236 239.849 324.084 241.189 323.491 242.354C322.898 243.519 321.903 244.431 320.69 244.921L295.766 251.278" stroke="black" stroke-miterlimit="10"/>
<path d="M256.761 183.712L285.689 181.502C287.02 181.335 288.366 181.662 289.473 182.42C290.579 183.178 291.369 184.315 291.694 185.616V185.616C292.005 186.866 291.866 188.186 291.302 189.344C290.739 190.503 289.787 191.427 288.611 191.956L264.865 198.409C264.623 201.813 262.944 207.202 250.853 211.832C247.479 213.123 243.072 215.269 240.118 216.672C239.851 216.808 239.63 217.019 239.484 217.28C239.337 217.541 239.27 217.839 239.293 218.138C239.315 218.436 239.425 218.721 239.61 218.957C239.794 219.193 240.044 219.369 240.328 219.463L248.48 223.351L267.577 232.725L262.04 233.499L246.188 239.372L222.312 204.008C222.312 204.008 232.725 197.78 259.667 177.904C263.67 174.951 274.196 174.806 280.992 172.773L273.744 182.373" fill="white"/>
<path d="M256.761 183.712L285.689 181.502C287.02 181.335 288.366 181.662 289.473 182.42C290.579 183.178 291.369 184.315 291.694 185.616V185.616C292.005 186.866 291.866 188.186 291.302 189.344C290.739 190.503 289.787 191.427 288.611 191.956L264.865 198.409C264.623 201.813 262.944 207.202 250.853 211.832C247.479 213.123 243.072 215.269 240.118 216.672C239.851 216.808 239.63 217.019 239.484 217.28C239.337 217.541 239.27 217.839 239.293 218.138C239.315 218.436 239.425 218.721 239.61 218.957C239.794 219.193 240.044 219.369 240.328 219.463L248.48 223.351L267.577 232.725L262.04 233.499L246.188 239.372L222.312 204.008C222.312 204.008 232.725 197.78 259.667 177.904C263.67 174.951 274.196 174.806 280.992 172.773L273.744 182.373" stroke="black" stroke-miterlimit="10"/>
<path d="M255.568 216.316C257.841 218.469 260.66 219.958 263.72 220.624C267.255 221.366 270.904 220.946 274.455 221.624C281.219 222.915 287.499 226.206 294.408 226.754C297.378 226.996 301.624 226.319 303.69 228.997C304.158 229.61 305.207 228.997 304.739 228.4C303.125 226.222 300.429 225.819 297.83 225.69C296.216 225.609 294.747 225.69 293.197 225.415C291.412 225.169 289.648 224.792 287.918 224.286C284.528 223.334 281.235 222.092 277.845 221.172C276.223 220.722 274.573 220.383 272.905 220.156C271.049 219.914 269.193 219.914 267.336 219.817C263.288 219.748 259.405 218.199 256.424 215.461C255.859 214.929 255.003 215.784 255.568 216.316V216.316Z" fill="black"/>
<path d="M269.05 206.298C271.204 208.577 274.125 209.979 277.251 210.234C281.222 210.767 285.193 210.573 289.148 211.412C293.103 212.251 296.509 213.38 300.287 213.993C302.098 214.313 303.937 214.448 305.775 214.397C307.798 214.203 309.832 214.155 311.861 214.252C315.768 214.671 319.012 217.381 323.016 217.381C323.159 217.358 323.29 217.284 323.384 217.173C323.478 217.062 323.53 216.922 323.53 216.776C323.53 216.631 323.478 216.49 323.384 216.379C323.29 216.269 323.159 216.195 323.016 216.171C319.593 216.171 316.704 214.074 313.459 213.3C309.843 212.445 306.098 213.445 302.434 213.074C298.72 212.531 295.047 211.739 291.44 210.702C287.916 209.888 284.321 209.418 280.705 209.299C276.815 209.121 272.634 208.589 269.906 205.443C269.405 204.846 268.55 205.701 269.05 206.298V206.298Z" fill="black"/>
<path d="M282.333 198.102C285.335 204.039 293.423 200.409 298.395 201.328C301.372 202.081 304.3 203.018 307.161 204.135C308.55 204.575 309.985 204.856 311.438 204.974C313.062 204.949 314.681 204.798 316.281 204.523C318.321 204.439 320.36 204.689 322.319 205.265L328.598 206.652C329.357 206.83 329.68 205.652 328.921 205.491C325.591 204.607 322.218 203.891 318.816 203.345C317.251 203.229 315.677 203.316 314.134 203.603C312.525 203.851 310.885 203.807 309.291 203.474C306.434 202.861 303.787 201.586 301.01 200.747C299.661 200.327 298.27 200.057 296.861 199.941C295.192 199.916 293.524 200.029 291.873 200.28C288.871 200.634 284.883 200.699 283.285 197.553C282.946 196.859 281.897 197.472 282.252 198.166L282.333 198.102Z" fill="black"/>
<path d="M297.33 187.308C300.146 188.631 303.25 189.219 306.354 189.018C307.969 189.018 309.583 189.018 311.197 189.196C313.015 189.456 314.78 190 316.427 190.809C319.51 192.102 322.78 192.891 326.113 193.148C329.605 193.257 333.049 193.989 336.283 195.31C336.977 195.649 337.591 194.6 336.897 194.262C333.911 192.972 330.718 192.229 327.469 192.067C323.896 191.857 320.38 191.072 317.057 189.744C315.561 189.007 313.977 188.465 312.343 188.131C310.778 187.897 309.196 187.784 307.613 187.792C304.304 187.792 300.866 187.905 297.928 186.179C297.25 185.808 296.636 186.84 297.314 187.227L297.33 187.308Z" fill="black"/>
<path d="M291.229 172.82C293.521 174.982 296.701 174.966 299.671 174.821C301.283 174.704 302.902 174.704 304.514 174.821C306.521 175.135 308.479 175.704 310.342 176.515C314.148 177.793 318.115 178.532 322.126 178.709C326.42 179.032 330.682 179.386 334.927 180.032C339.783 180.743 344.596 181.723 349.343 182.968C349.497 183.011 349.662 182.991 349.801 182.912C349.94 182.833 350.043 182.703 350.085 182.549C350.128 182.395 350.108 182.23 350.029 182.091C349.951 181.951 349.82 181.849 349.666 181.806C341.654 179.674 333.461 178.292 325.193 177.676C321.071 177.545 316.972 177.004 312.957 176.063C311.068 175.514 309.26 174.692 307.388 174.127C305.814 173.677 304.181 173.47 302.545 173.514C299.171 173.514 294.828 174.546 292.1 171.901C291.519 171.368 290.664 172.223 291.245 172.756L291.229 172.82Z" fill="black"/>
<path d="M299.913 164.754C299.016 165.597 298.244 166.564 297.621 167.626L322.772 171.853C327.505 172.737 332.286 173.34 337.09 173.66C339.808 173.599 342.522 173.897 345.162 174.547C345.302 174.619 345.457 174.657 345.614 174.657C345.771 174.657 345.926 174.619 346.066 174.547C346.18 174.455 346.264 174.332 346.308 174.192C347.048 172.564 347.486 170.814 347.599 169.029C331.822 168.212 316.121 166.599 300.495 164.189" fill="black"/>
<path d="M313.685 246.018L313.12 242.888C312.914 242.1 312.984 241.266 313.319 240.523C313.654 239.78 314.233 239.175 314.96 238.807L320.997 235.58" stroke="black" stroke-miterlimit="10"/>
<path d="M340.416 226.433L339.77 223.206C339.656 222.24 339.818 221.261 340.238 220.383L344.032 212.639" stroke="black" stroke-miterlimit="10"/>
<path d="M280.719 182.389C280.719 182.389 281.623 190.213 281.833 190.213C282.042 190.213 291.292 189.358 291.696 185.615" stroke="black" stroke-miterlimit="10"/>
<path d="M379.741 263.748C379.741 263.748 374.22 265.845 376.949 269.185L385.504 274.396L389.782 268.604" stroke="black" stroke-miterlimit="10"/>
<path d="M339.98 285.512L341.078 282.141C341.078 282.141 335.477 278.575 333.749 279.575L332.797 280.059" stroke="black" stroke-miterlimit="10"/>
<path d="M334.461 294.321L335.623 290.885" stroke="black" stroke-miterlimit="10"/>
<path d="M332.957 297.127L333.651 294.885" stroke="black" stroke-miterlimit="10"/>
<path d="M337.219 285.689L335.379 290.304" stroke="black" stroke-miterlimit="10"/>
<path d="M137.098 157.122C137.166 157.955 137.427 158.761 137.862 159.475C138.296 160.189 138.891 160.792 139.6 161.236C140.234 161.664 140.939 161.975 141.682 162.156C142.582 162.341 143.51 162.341 144.41 162.156C144.818 162.045 145.166 161.778 145.379 161.414C145.487 161.228 145.557 161.022 145.585 160.809C145.613 160.596 145.598 160.379 145.54 160.171C145.42 159.769 145.156 159.424 144.798 159.203C144.412 159.015 143.976 158.958 143.555 159.042V159.042H143.991C143.557 159.107 143.117 159.107 142.683 159.042H143.103C142.653 158.975 142.213 158.851 141.795 158.671L142.183 158.832C141.796 158.67 141.433 158.459 141.101 158.203L141.424 158.461C141.129 158.225 140.863 157.954 140.633 157.655L140.875 157.993C140.7 157.756 140.548 157.502 140.423 157.235L140.601 157.622C140.494 157.38 140.419 157.125 140.375 156.864V157.284C140.375 157.203 140.375 157.122 140.375 157.025C140.375 156.598 140.205 156.187 139.902 155.885C139.599 155.582 139.189 155.412 138.76 155.412C138.332 155.412 137.922 155.582 137.619 155.885C137.316 156.187 137.146 156.598 137.146 157.025L137.098 157.122Z" fill="black"/>
</svg>
