<svg width="312" height="304" viewBox="0 0 312 304" fill="none" xmlns="http://www.w3.org/2000/svg">
<path d="M295.098 118.591C281.634 103.699 259.074 102.033 241.532 92.2704C211.341 75.4686 199.639 37.2094 172.171 16.2479C154.851 3.01367 131.395 -2.11569 110.441 0.785765C80.6939 4.90109 52.7082 24.8412 44.3073 54.0778C41.8955 62.5912 41.0331 71.4687 41.7611 80.2871C43.1008 97.718 46.8535 115.371 43.3155 132.491C39.4148 151.358 27.1428 167.279 19.8078 185.11C10.6741 207.315 9.44544 232.184 13.3165 255.855C15.9811 272.005 21.2955 288.311 32.3832 300.346C33.227 301.257 34.093 302.123 34.9886 302.974H156.08C163.674 293.285 169.403 281.82 176.116 271.642C192.933 246.047 219.86 227.795 249.267 219.231C262.442 215.397 276.712 213.117 287.297 204.383C298.192 195.405 303.195 181.076 305.357 167.123C307.984 150.203 306.585 131.27 295.098 118.591Z" fill="#F03C9D"/>
<path opacity="0.7" d="M295.098 118.591C281.634 103.699 259.074 102.033 241.532 92.2704C211.341 75.4686 199.639 37.2094 172.171 16.2479C154.851 3.01367 131.395 -2.11569 110.441 0.785765C80.6939 4.90109 52.7082 24.8412 44.3073 54.0778C41.8955 62.5912 41.0331 71.4687 41.7611 80.2871C43.1008 97.718 46.8535 115.371 43.3155 132.491C39.4148 151.358 27.1428 167.279 19.8078 185.11C10.6741 207.315 9.44544 232.184 13.3165 255.855C15.9811 272.005 21.2955 288.311 32.3832 300.346C33.227 301.257 34.093 302.123 34.9886 302.974H156.08C163.674 293.285 169.403 281.82 176.116 271.642C192.933 246.047 219.86 227.795 249.267 219.231C262.442 215.397 276.712 213.117 287.297 204.383C298.192 195.405 303.195 181.076 305.357 167.123C307.984 150.203 306.585 131.27 295.098 118.591Z" fill="white"/>
<path d="M265.66 262.969C265.66 262.969 276.8 263.85 277.266 272.073C277.266 272.073 265.986 277.261 265.66 262.969Z" stroke="#263238" stroke-linecap="round" stroke-linejoin="round"/>
<path d="M287.703 265.011C287.703 265.011 293.928 256.596 303.987 260.911C303.987 260.911 297.843 271.088 287.703 265.011Z" stroke="#263238" stroke-linecap="round" stroke-linejoin="round"/>
<path d="M303.137 238.439C303.137 238.439 304.92 254.634 290.184 250.171C290.184 250.171 294.869 238.269 303.137 238.439Z" stroke="#263238" stroke-linecap="round" stroke-linejoin="round"/>
<path d="M285.036 229.432C285.036 229.432 296.694 235.716 288.123 245.249C288.123 245.249 279.937 238.439 285.036 229.432Z" stroke="#263238" stroke-linecap="round" stroke-linejoin="round"/>
<path d="M270.699 243.895C270.699 243.895 283.371 242.622 283.371 254.346C283.371 254.361 270.699 254.849 270.699 243.895Z" stroke="#263238" stroke-linecap="round" stroke-linejoin="round"/>
<path d="M280.197 278.69C280.012 274.76 280.012 269.697 282.417 264.339C287.961 251.993 289.819 241.593 286.94 234.266" stroke="#263238" stroke-linecap="round" stroke-linejoin="round"/>
<path d="M274.859 247.048C274.859 247.048 282.453 250.068 285.037 257.891" stroke="#263238" stroke-linecap="round" stroke-linejoin="round"/>
<path d="M299.124 244.916C299.124 244.916 294.735 250.897 287.281 250.253" stroke="#263238" stroke-linecap="round" stroke-linejoin="round"/>
<path d="M299.124 262.629C299.124 262.629 286.97 266.137 282.137 264.99" stroke="#263238" stroke-linecap="round" stroke-linejoin="round"/>
<path d="M269.293 266.669C269.293 266.669 274.726 272.635 280.196 272.538" stroke="#263238" stroke-linecap="round" stroke-linejoin="round"/>
<path d="M294.646 278.69H268.23C268.059 278.69 267.895 278.758 267.775 278.879C267.654 279 267.586 279.164 267.586 279.334V281.34C267.586 281.511 267.654 281.675 267.775 281.796C267.895 281.916 268.059 281.984 268.23 281.984H268.97L271.324 302.524H291.493L293.847 281.984H294.587C294.758 281.984 294.922 281.916 295.043 281.796C295.163 281.675 295.231 281.511 295.231 281.34V279.334C295.232 279.173 295.172 279.018 295.064 278.899C294.956 278.78 294.807 278.705 294.646 278.69Z" stroke="#263238" stroke-linecap="round" stroke-linejoin="round"/>
<path d="M270.699 281.983H286.058" stroke="#263238" stroke-linecap="round" stroke-linejoin="round"/>
<path d="M288.961 281.983H291.27" stroke="#263238" stroke-linecap="round" stroke-linejoin="round"/>
<path d="M140.187 25.8407V231.548C140.187 232.021 139.999 232.475 139.664 232.809C139.33 233.144 138.876 233.332 138.403 233.332H16.5494C16.0763 233.332 15.6226 233.144 15.2881 232.809C14.9536 232.475 14.7656 232.021 14.7656 231.548V25.8407C14.7656 25.3676 14.9536 24.9139 15.2881 24.5793C15.6226 24.2448 16.0763 24.0569 16.5494 24.0569H55.0751C55.5757 24.0569 56.0558 24.2557 56.4097 24.6097C56.7637 24.9637 56.9625 25.4437 56.9625 25.9443V30.2669C56.9625 30.7675 57.1614 31.2475 57.5154 31.6015C57.8693 31.9555 58.3494 32.1543 58.85 32.1543H96.11C96.6105 32.1543 97.0906 31.9555 97.4446 31.6015C97.7985 31.2475 97.9974 30.7675 97.9974 30.2669V25.9443C97.9974 25.4437 98.1962 24.9637 98.5502 24.6097C98.9042 24.2557 99.3842 24.0569 99.8848 24.0569H138.373C138.61 24.053 138.845 24.0962 139.065 24.1841C139.285 24.272 139.485 24.4027 139.654 24.5688C139.823 24.7348 139.957 24.9328 140.048 25.1511C140.14 25.3695 140.187 25.6039 140.187 25.8407V25.8407Z" fill="white" stroke="#263238" stroke-linecap="round" stroke-linejoin="round"/>
<path d="M140.187 44.3535H14.7656V63.25H140.187V44.3535Z" fill="#BFBFBF" stroke="#263238" stroke-linecap="round" stroke-linejoin="round"/>
<path d="M31.168 101.108H82.2173" stroke="#263238" stroke-width="3" stroke-linecap="round" stroke-linejoin="round"/>
<path d="M43.7734 109.969H123.785" stroke="#263238" stroke-width="3" stroke-linecap="round" stroke-linejoin="round"/>
<path d="M31.168 116.585H123.785" stroke="#263238" stroke-width="3" stroke-linecap="round" stroke-linejoin="round"/>
<path d="M31.168 123.202H123.785" stroke="#263238" stroke-width="3" stroke-linecap="round" stroke-linejoin="round"/>
<path d="M31.168 129.812H123.785" stroke="#263238" stroke-width="3" stroke-linecap="round" stroke-linejoin="round"/>
<path d="M31.168 136.43H123.785" stroke="#263238" stroke-width="3" stroke-linecap="round" stroke-linejoin="round"/>
<path d="M31.168 143.047H123.785" stroke="#263238" stroke-width="3" stroke-linecap="round" stroke-linejoin="round"/>
<path d="M31.168 149.656H74.1717" stroke="#263238" stroke-width="3" stroke-linecap="round" stroke-linejoin="round"/>
<path d="M126.07 51.4736H130.8" stroke="#263238" stroke-linecap="round" stroke-linejoin="round"/>
<path d="M126.07 53.6562H130.8" stroke="#263238" stroke-linecap="round" stroke-linejoin="round"/>
<path d="M126.07 55.833H130.8" stroke="#263238" stroke-linecap="round" stroke-linejoin="round"/>
<path d="M27.911 53.6562H23.9141" stroke="#263238" stroke-linecap="round" stroke-linejoin="round"/>
<path d="M25.7485 56.0702L23.3281 53.6498L25.7485 51.2295" stroke="#263238" stroke-linecap="round" stroke-linejoin="round"/>
<path d="M119.099 51.4736H113.141V55.8258H119.099V51.4736Z" stroke="#263238" stroke-linecap="round" stroke-linejoin="round"/>
<path d="M113.141 51.4736L116.116 53.6497L119.099 51.4736" stroke="#263238" stroke-linecap="round" stroke-linejoin="round"/>
<path d="M105.443 56.6696H101.431L100.898 51.4736H105.976L105.443 56.6696Z" stroke="#263238" stroke-linecap="round" stroke-linejoin="round"/>
<path d="M102.438 51.4731V50.6367H104.443V51.4731" stroke="#263238" stroke-linecap="round" stroke-linejoin="round"/>
<path d="M140.187 218.321V231.548C140.188 231.782 140.143 232.014 140.054 232.23C139.965 232.447 139.834 232.643 139.669 232.809C139.504 232.975 139.308 233.106 139.092 233.196C138.876 233.286 138.644 233.332 138.41 233.332H16.5494C16.0763 233.332 15.6226 233.144 15.2881 232.809C14.9536 232.475 14.7656 232.021 14.7656 231.548V218.321H140.187Z" fill="#F03C9D" stroke="#263238" stroke-linecap="round" stroke-linejoin="round"/>
<path d="M46.5938 79.1699H97.6505" stroke="#263238" stroke-width="3" stroke-linecap="round" stroke-linejoin="round"/>
<path d="M37.2086 85.3817C40.6424 84.8243 42.9742 81.5888 42.4168 78.155C41.8594 74.7212 38.6239 72.3894 35.1901 72.9468C31.7563 73.5042 29.4245 76.7397 29.9819 80.1735C30.5393 83.6073 33.7748 85.9391 37.2086 85.3817Z" fill="#F03C9D" stroke="#263238" stroke-linecap="round" stroke-linejoin="round"/>
<path d="M38.7697 83.1081C38.3848 83.1081 37.2893 82.2643 37.6594 81.576C38.0295 80.8876 38.7697 79.7478 38.7697 79.7478C39.0952 79.1063 39.277 78.4016 39.3026 77.6827C39.458 76.6095 38.8437 74.7812 36.1939 74.7812C33.5441 74.7812 32.9223 76.6095 33.0778 77.6827C33.1033 78.4016 33.2852 79.1063 33.6107 79.7478C33.6107 79.7478 34.3509 80.8876 34.7283 81.576C35.1058 82.2643 33.9882 83.1081 33.6107 83.1081C32.9917 83.2462 32.3871 83.4419 31.8047 83.6929C31.8047 83.6929 34.3435 85.4767 36.1939 85.4767C38.0443 85.4767 40.5831 83.6929 40.5831 83.6929C39.9985 83.441 39.3913 83.2452 38.7697 83.1081V83.1081Z" fill="#263238"/>
<path d="M14.7656 162.721H140.187" stroke="#263238" stroke-linecap="round" stroke-linejoin="round"/>
<path d="M140.187 197.152H14.7656V218.321H140.187V197.152Z" fill="#BFBFBF" stroke="#263238" stroke-linecap="round" stroke-linejoin="round"/>
<path d="M112.66 170.662H123.023C123.994 170.662 124.926 171.048 125.613 171.735C126.301 172.422 126.687 173.354 126.687 174.326V184.688C126.687 185.66 126.301 186.592 125.613 187.279C124.926 187.966 123.994 188.352 123.023 188.352H112.66C111.691 188.352 110.761 187.967 110.075 187.281C109.389 186.595 109.004 185.665 109.004 184.696V174.333C109.002 173.852 109.095 173.375 109.278 172.93C109.461 172.484 109.73 172.079 110.07 171.738C110.409 171.397 110.813 171.127 111.258 170.942C111.702 170.757 112.179 170.662 112.66 170.662V170.662Z" fill="#F03C9D" stroke="#263238" stroke-linecap="round" stroke-linejoin="round"/>
<path d="M115.134 178.124L117.621 175.637C117.876 175.381 118.179 175.179 118.512 175.04C118.846 174.902 119.203 174.831 119.564 174.831C119.925 174.831 120.282 174.902 120.615 175.04C120.949 175.179 121.252 175.381 121.507 175.637V175.637C122.023 176.153 122.313 176.853 122.313 177.583C122.313 178.313 122.023 179.013 121.507 179.53L117.458 183.579C117.288 183.749 117.085 183.885 116.862 183.977C116.639 184.07 116.4 184.117 116.159 184.117C115.918 184.117 115.679 184.07 115.456 183.977C115.233 183.885 115.031 183.749 114.86 183.579V183.579C114.519 183.234 114.328 182.768 114.328 182.283C114.328 181.798 114.519 181.333 114.86 180.988L118.709 177.139C118.87 176.978 119.088 176.888 119.316 176.888C119.543 176.888 119.762 176.978 119.923 177.139C120.003 177.218 120.067 177.313 120.111 177.417C120.155 177.521 120.177 177.633 120.177 177.746C120.177 177.859 120.155 177.971 120.111 178.075C120.067 178.179 120.003 178.274 119.923 178.353L117.843 180.425" stroke="#263238" stroke-width="1.5" stroke-linecap="round" stroke-linejoin="round"/>
<path d="M31.168 176.177H100.618" stroke="#263238" stroke-width="3" stroke-linecap="round" stroke-linejoin="round"/>
<path d="M31.168 182.794H89.0342" stroke="#263238" stroke-width="3" stroke-linecap="round" stroke-linejoin="round"/>
<path d="M46.4459 202.386H33.0784C31.7213 202.386 30.6211 203.486 30.6211 204.843V210.513C30.6211 211.87 31.7213 212.97 33.0784 212.97H46.4459C47.803 212.97 48.9032 211.87 48.9032 210.513V204.843C48.9032 203.486 47.803 202.386 46.4459 202.386Z" stroke="#263238" stroke-linecap="round" stroke-linejoin="round"/>
<path d="M42.5134 209.833V209.092C42.5134 208.846 42.465 208.603 42.3709 208.376C42.2767 208.149 42.1388 207.942 41.9649 207.768C41.791 207.594 41.5846 207.456 41.3574 207.362C41.1302 207.268 40.8867 207.22 40.6408 207.22H37.5469" stroke="#263238" stroke-linecap="round" stroke-linejoin="round"/>
<path d="M38.6884 208.877L37.0156 207.204L38.6884 205.531" stroke="#263238" stroke-linecap="round" stroke-linejoin="round"/>
<path d="M84.6138 202.386H71.2464C69.8893 202.386 68.7891 203.486 68.7891 204.843V210.513C68.7891 211.87 69.8893 212.97 71.2464 212.97H84.6138C85.971 212.97 87.0712 211.87 87.0712 210.513V204.843C87.0712 203.486 85.971 202.386 84.6138 202.386Z" stroke="#263238" stroke-linecap="round" stroke-linejoin="round"/>
<path d="M81.572 209.833V209.092C81.572 208.596 81.3747 208.119 81.0235 207.768C80.6723 207.417 80.196 207.22 79.6994 207.22H76.6055" stroke="#263238" stroke-linecap="round" stroke-linejoin="round"/>
<path d="M77.7236 208.877L76.0508 207.204L77.7236 205.531" stroke="#263238" stroke-linecap="round" stroke-linejoin="round"/>
<path d="M75.9927 208.877L74.3125 207.204L75.9927 205.531" stroke="#263238" stroke-linecap="round" stroke-linejoin="round"/>
<path d="M110.292 212.978H123.66C125.017 212.978 126.117 211.877 126.117 210.52V204.85C126.117 203.493 125.017 202.393 123.66 202.393H110.292C108.935 202.393 107.835 203.493 107.835 204.85V210.52C107.835 211.877 108.935 212.978 110.292 212.978Z" stroke="#263238" stroke-linecap="round" stroke-linejoin="round"/>
<path d="M114.223 209.833V209.092C114.223 208.596 114.42 208.119 114.771 207.768C115.122 207.417 115.599 207.22 116.095 207.22H119.189" stroke="#263238" stroke-linecap="round" stroke-linejoin="round"/>
<path d="M118.047 208.877L119.72 207.204L118.047 205.531" stroke="#263238" stroke-linecap="round" stroke-linejoin="round"/>
<path d="M140.187 25.8336V44.3378H14.7656V25.8336C14.7656 25.3605 14.9536 24.9068 15.2881 24.5723C15.6226 24.2377 16.0763 24.0498 16.5494 24.0498H55.0751C55.5757 24.0498 56.0558 24.2487 56.4097 24.6026C56.7637 24.9566 56.9625 25.4367 56.9625 25.9372V30.2598C56.9625 30.7604 57.1614 31.2405 57.5154 31.5944C57.8693 31.9484 58.3494 32.1472 58.85 32.1472H96.11C96.6105 32.1472 97.0906 31.9484 97.4446 31.5944C97.7985 31.2405 97.9974 30.7604 97.9974 30.2598V25.9446C97.9974 25.4441 98.1962 24.964 98.5502 24.61C98.9042 24.2561 99.3842 24.0572 99.8848 24.0572H138.373C138.61 24.0513 138.846 24.0929 139.066 24.1796C139.286 24.2663 139.487 24.3963 139.656 24.562C139.825 24.7276 139.959 24.9255 140.05 25.1439C140.142 25.3624 140.188 25.5969 140.187 25.8336V25.8336Z" fill="#F03C9D" stroke="#263238" stroke-linecap="round" stroke-linejoin="round"/>
<path d="M177.598 107.015V108.865" stroke="#263238" stroke-linecap="round" stroke-linejoin="round"/>
<path d="M177.598 112.463V175.414" stroke="#263238" stroke-linecap="round" stroke-linejoin="round" stroke-dasharray="4.86 4.86"/>
<path d="M177.597 177.212V179.062H175.746" stroke="#263238" stroke-linecap="round" stroke-linejoin="round"/>
<path d="M172.259 179.062H132.172" stroke="#263238" stroke-linecap="round" stroke-linejoin="round" stroke-dasharray="4.71 4.71"/>
<path d="M130.432 179.062H128.582" stroke="#263238" stroke-linecap="round" stroke-linejoin="round"/>
<path d="M265.415 288.281C265.415 288.281 265.615 293.966 263.661 295.912C261.707 297.859 262.492 302.944 262.492 302.944H280.159L280.648 297.615L277.687 286.979L265.415 288.281Z" fill="#757575" stroke="#263238" stroke-linecap="round" stroke-linejoin="round"/>
<path d="M222.086 286.979C222.086 286.979 224.033 292.115 216.809 294.602C209.585 297.089 205.292 297.089 204.707 301.182V302.944H220.14L225.01 301.382L226.572 302.944H235.165L236.135 299.82L234.787 289.591L222.086 286.979Z" fill="#757575" stroke="#263238" stroke-linecap="round" stroke-linejoin="round"/>
<path d="M223.351 146.858L219.695 167.079C219.695 167.079 217.578 197.248 217.829 209.831C218.081 222.414 222.47 279.355 222.182 281.627C221.893 283.9 219.554 286.387 219.695 286.757C219.835 287.127 220.583 290.028 220.583 290.028L235.097 292.108L237.111 288.296C237.111 288.296 234.55 285.032 235.097 284.04C235.938 282.075 236.612 280.042 237.111 277.964C237.407 276.602 240.249 199.387 240.249 199.387C240.249 199.387 260.234 275.802 260.234 278.696C260.234 281.59 263.453 284.832 263.453 284.832L262.336 290.628L264.934 293.455C264.934 293.455 272.446 290.043 279.863 293.455L279.47 287.689L277.25 284.803L277.835 280.769C277.835 280.769 274.822 249.46 271.499 234.612C268.176 219.764 266.036 170.217 265.126 166.65C264.216 163.082 261.181 144.911 261.181 144.911L223.351 146.858Z" fill="#263238"/>
<path d="M201.673 40.1328H153.517C151.085 40.1328 149.113 42.1045 149.113 44.5368V100.516C149.113 102.948 151.085 104.92 153.517 104.92H201.673C204.105 104.92 206.077 102.948 206.077 100.516V44.5368C206.077 42.1045 204.105 40.1328 201.673 40.1328Z" fill="#F03C9D" stroke="#263238" stroke-linecap="round" stroke-linejoin="round"/>
<path d="M189.971 54.3516H161.57V95.0089H189.971V54.3516Z" fill="white"/>
<path opacity="0.4" d="M189.971 54.3516H161.57V95.0089H189.971V54.3516Z" fill="#F03C9D"/>
<path d="M189.971 54.3516H161.57V95.0089H189.971V54.3516Z" stroke="#263238" stroke-linecap="round" stroke-linejoin="round"/>
<path d="M189.038 48.6089L161.188 54.1689L169.147 94.0395L196.998 88.4795L189.038 48.6089Z" fill="white" stroke="#263238" stroke-linecap="round" stroke-linejoin="round"/>
<path d="M163.273 53.552C163.482 53.0486 163.836 52.6183 164.289 52.3153C164.742 52.0124 165.275 51.8503 165.82 51.8496V51.8496C166.548 51.8496 167.246 52.1389 167.761 52.6539C168.276 53.1689 168.566 53.8673 168.566 54.5956V60.3245C168.566 60.8101 168.373 61.2759 168.031 61.6199C167.688 61.9639 167.223 62.1582 166.737 62.1601C166.251 62.1601 165.784 61.9667 165.439 61.6225C165.095 61.2782 164.902 60.8114 164.902 60.3245V54.8843C164.902 54.6566 164.992 54.4382 165.153 54.2772C165.314 54.1162 165.533 54.0257 165.76 54.0257V54.0257C165.873 54.0257 165.985 54.0479 166.089 54.0911C166.193 54.1342 166.288 54.1974 166.368 54.2772C166.447 54.3569 166.51 54.4516 166.554 54.5557C166.597 54.6599 166.619 54.7715 166.619 54.8843V57.8079" stroke="#263238" stroke-width="1.5" stroke-linecap="round" stroke-linejoin="round"/>
<path d="M207.224 115.54C207.224 119.522 201.303 120.722 201.303 120.722C190.467 110.781 188.024 98.5683 182.755 96.6291C182.278 96.4469 181.839 96.1785 181.459 95.8371C180.398 94.777 179.593 93.4884 179.105 92.0697L186.115 90.6707C186.43 88.845 187.069 87.0903 188.002 85.4896C188.513 84.7494 187.773 83.0914 186.907 81.2114C186.755 80.8255 186.709 80.4062 186.773 79.9966C186.836 79.5869 187.008 79.2015 187.27 78.8799C188.911 80.2197 190.208 81.9327 191.052 83.876C192.125 86.7405 191.052 93.4982 194.212 96.8141C199.875 102.78 200.726 102.439 206.055 107.028C206.721 109.821 207.113 112.672 207.224 115.54Z" fill="white"/>
<path opacity="0.4" d="M181.451 95.8158C180.39 94.7557 179.585 93.4671 179.098 92.0483L186.107 90.6494C185.911 91.7535 185.911 92.8834 186.107 93.9876C186.329 94.8536 183.583 94.861 181.451 95.8158Z" fill="#F03C9D"/>
<path d="M207.224 115.54C207.224 119.522 201.303 120.722 201.303 120.722C190.467 110.781 188.024 98.5683 182.755 96.6291C182.278 96.4469 181.839 96.1785 181.459 95.8371C180.398 94.777 179.593 93.4884 179.105 92.0697L186.115 90.6707C186.43 88.845 187.069 87.0903 188.002 85.4896C188.513 84.7494 187.773 83.0914 186.907 81.2114C186.755 80.8255 186.709 80.4062 186.773 79.9966C186.836 79.5869 187.008 79.2015 187.27 78.8799C188.911 80.2197 190.208 81.9327 191.052 83.876C192.125 86.7405 191.052 93.4982 194.212 96.8141C199.875 102.78 200.726 102.439 206.055 107.028C206.721 109.821 207.113 112.672 207.224 115.54Z" stroke="#263238" stroke-linecap="round" stroke-linejoin="round"/>
<path d="M226.763 85.4756V111.441C226.763 111.441 223.387 114.771 219.724 118.28C215.808 122.032 211.582 125.985 210.76 126.303C209.198 126.91 206.075 124.519 206.075 124.519C204.321 125.689 202.559 123.202 202.559 123.202C200.805 125 199.043 121.981 201.197 118.857C203.351 115.734 206.075 107.014 206.075 107.014C206.201 106.883 206.353 106.778 206.521 106.707C206.689 106.635 206.869 106.598 207.052 106.598C207.234 106.598 207.415 106.635 207.583 106.707C207.751 106.778 207.903 106.883 208.029 107.014C208.029 107.014 221.463 88.0144 226.763 85.4756Z" fill="#F03C9D"/>
<path opacity="0.2" d="M226.766 96.5859V111.441C226.766 111.441 223.391 114.772 219.727 118.28C218.184 116.652 217.11 114.636 216.618 112.448C216.182 109.354 219.838 111.589 219.838 111.589C217.203 108.939 220.282 96.7858 220.437 98.8508C220.571 100.516 221 104.136 221.178 105.446C220.822 100.783 225.5 97.1115 226.766 96.5859Z" fill="black" fill-opacity="0.7"/>
<path d="M226.763 85.4756V111.441C226.763 111.441 223.387 114.771 219.724 118.28C215.808 122.032 211.582 125.985 210.76 126.303C209.198 126.91 206.075 124.519 206.075 124.519C204.321 125.689 202.559 123.202 202.559 123.202C200.805 125 199.043 121.981 201.197 118.857C203.351 115.734 206.075 107.014 206.075 107.014C206.201 106.883 206.353 106.778 206.521 106.707C206.689 106.635 206.869 106.598 207.052 106.598C207.234 106.598 207.415 106.635 207.583 106.707C207.751 106.778 207.903 106.883 208.029 107.014C208.029 107.014 221.463 88.0144 226.763 85.4756Z" stroke="#263238" stroke-linecap="round" stroke-linejoin="round"/>
<path d="M262.686 146.791C264.129 149.137 224.39 150.144 221.651 148.271C221.322 148.054 221.044 147.769 220.837 147.435C219.593 145.414 221.651 142.409 221.651 142.409C221.651 142.409 221.303 101.085 226.766 85.4752C232.037 84.8974 237.34 84.6502 242.642 84.735C246.188 84.7868 250.11 84.9866 254.167 85.4752C257.127 85.8008 260.724 86.4078 264.299 87.0739C270.273 88.199 276.142 89.5165 278.429 90.0346L279.473 90.2788C279.473 90.2788 261.243 144.452 262.686 146.791Z" fill="#F03C9D"/>
<path opacity="0.2" d="M239.881 93.9874C239.881 93.9874 237.224 89.4946 241.65 85.4755C241.954 85.1958 242.287 84.9478 242.642 84.7354C246.187 84.7872 250.11 84.987 254.166 85.4755C257.127 85.8012 260.724 86.4081 264.299 87.0743L248.393 95.4826L245.092 92.1148L239.881 93.9874Z" fill="black" fill-opacity="0.7"/>
<path opacity="0.2" d="M262.685 146.792C264.128 149.138 224.389 150.145 221.65 148.272C221.321 148.055 221.044 147.77 220.836 147.436C228.726 148.871 248.222 147.065 253.514 144.926C259.806 142.395 263.47 130.915 261.464 132.084C259.458 133.254 252.782 132.529 257.829 130.034C262.877 127.54 268.488 119.368 268.488 119.368C268.488 119.368 264.935 109.102 266.105 107.015C266.956 105.483 268.051 108.318 268.577 109.976C267.681 105.757 270.879 101.545 270.879 101.545L278.458 90.043L279.502 90.2872C279.502 90.2872 261.242 144.453 262.685 146.792Z" fill="black" fill-opacity="0.7"/>
<path d="M262.686 146.791C264.129 149.137 224.39 150.144 221.651 148.271C221.322 148.054 221.044 147.769 220.837 147.435C219.593 145.414 221.651 142.409 221.651 142.409C221.651 142.409 221.303 101.085 226.766 85.4752C232.037 84.8974 237.34 84.6502 242.642 84.735C246.188 84.7868 250.11 84.9866 254.167 85.4752C257.127 85.8008 260.724 86.4078 264.299 87.0739C270.273 88.199 276.142 89.5165 278.429 90.0346L279.473 90.2788C279.473 90.2788 261.243 144.452 262.686 146.791Z" stroke="#263238" stroke-linecap="round" stroke-linejoin="round"/>
<path d="M260.465 86.1634C260.465 86.1634 245.661 92.0848 240.828 85.897C241.653 85.9438 242.476 85.7819 243.221 85.426C243.966 85.0702 244.61 84.5321 245.091 83.8615C245.852 82.6846 246.265 81.3173 246.283 79.9164C246.349 78.6059 246.265 77.2922 246.031 76.0009C245.462 72.5296 260.035 74.7723 260.035 74.7723C260.035 74.7723 256.905 84.4166 260.465 86.1634Z" fill="white" stroke="#263238" stroke-linecap="round" stroke-linejoin="round"/>
<path d="M251.7 78.541C251.7 78.541 249.153 82.9302 245.09 83.8628C245.85 82.6859 246.263 81.3186 246.282 79.9177C249.035 79.1183 251.7 78.541 251.7 78.541Z" fill="#263238"/>
<path d="M260.034 73.9733C264.157 67.8669 270.441 43.7671 250.168 48.4746C240.087 50.8135 241.389 64.0181 241.389 64.0181L237.918 68.3184L240.79 70.7536L240.671 73.618L241.648 73.9659C241.648 73.9659 240.79 80.9309 241.648 81.3676C243.218 82.1669 253.528 80.9087 253.528 78.4069" fill="white"/>
<path d="M260.034 73.9733C264.157 67.8669 270.441 43.7671 250.168 48.4746C240.087 50.8135 241.389 64.0181 241.389 64.0181L237.918 68.3184L240.79 70.7536L240.671 73.618L241.648 73.9659C241.648 73.9659 240.79 80.9309 241.648 81.3676C243.218 82.1669 253.528 80.9087 253.528 78.4069" stroke="#263238" stroke-linecap="round" stroke-linejoin="round"/>
<path d="M241.648 73.9736C243.34 74.1855 245.05 74.2153 246.748 74.0625C246.368 74.7324 245.765 75.2475 245.044 75.5181C244.323 75.7887 243.53 75.7974 242.803 75.5428" stroke="#263238" stroke-linecap="round" stroke-linejoin="round"/>
<path d="M243.105 58.7334C243.105 58.7334 246.547 58.3929 248.176 60.7096" stroke="#263238" stroke-linecap="round" stroke-linejoin="round"/>
<path d="M245.15 64.0185C245.15 64.7068 244.868 65.2619 244.528 65.2619C244.188 65.2619 243.906 64.7068 243.906 64.0185C243.906 63.3301 244.18 62.7676 244.528 62.7676C244.876 62.7676 245.15 63.3301 245.15 64.0185Z" fill="#263238"/>
<path d="M266.305 52.1462C263.041 48.7784 249.067 43.8415 245.092 45.877C239.26 48.0975 240.829 54.4703 240.829 54.4703L241.65 52.2498C241.65 52.2498 242.08 54.1299 245.092 55.2623V53.856C246.997 54.6356 249.058 54.9575 251.11 54.796L250.473 53.8486C251.26 54.0276 252.034 54.2601 252.79 54.5443C250.569 58.6893 253.079 61.6203 253.079 61.6203V67.2308C253.079 67.2308 256.039 70.1249 256.876 73.0411C257.048 73.8307 257.437 74.5566 257.999 75.1371C258.562 75.7177 259.275 76.1299 260.058 76.3275C266.483 72.3898 269.74 55.6916 266.305 52.1462Z" fill="#263238"/>
<path d="M252.391 68.0593C252.391 68.0593 255.566 63.7812 257.202 64.4621C258.837 65.1431 259.259 69.0882 258.401 70.8942C257.542 72.7002 254.448 76.3862 253.767 75.0169" fill="white"/>
<path d="M252.391 68.0593C252.391 68.0593 255.566 63.7812 257.202 64.4621C258.837 65.1431 259.259 69.0882 258.401 70.8942C257.542 72.7002 254.448 76.3862 253.767 75.0169" stroke="#263238" stroke-linecap="round" stroke-linejoin="round"/>
<path d="M208.031 107.014C209.433 111.904 209.433 117.09 208.031 121.98" stroke="#263238" stroke-linecap="round" stroke-linejoin="round"/>
<path d="M202.562 123.202C202.562 123.202 205.523 118.665 206.078 115.541" stroke="#263238" stroke-linecap="round" stroke-linejoin="round"/>
<path d="M241.649 88.7173L243.129 93.9873C243.129 93.9873 234.403 123.157 233.426 131.551L235.38 134.511L239.081 131.721C239.081 131.721 242.737 103.003 245.106 94.9865L249.598 88.9024L246.764 88.6211L241.649 88.7173Z" fill="#263238"/>
<path d="M243.93 83.8613L245.647 87.4289L260.45 83.8613L264.284 87.0737L248.163 93.9868L245.632 88.9241L240.814 92.314C240.814 92.314 237.268 84.3868 243.93 83.8613Z" fill="#F03C9D" stroke="#263238" stroke-linecap="round" stroke-linejoin="round"/>
<path d="M278.259 133.253C274.345 136.818 270.945 140.908 268.155 145.406C264.203 152.142 258.2 158.878 255.121 160.632C255.121 160.632 255.417 166.634 259.222 170.002C259.222 170.002 284.254 147.797 287.348 140.869C290.442 133.941 278.259 133.253 278.259 133.253Z" fill="white" stroke="#263238" stroke-linecap="round" stroke-linejoin="round"/>
<path d="M279.473 90.2871C284.159 92.5076 290.576 132.114 290.768 137.599C290.82 139.353 287.282 143.15 287.282 143.15C287.282 143.15 287.341 146.555 285.165 146.851C285.165 146.851 278.696 140.189 273.226 137.628C273.106 137.329 273.067 137.003 273.111 136.684C273.156 136.364 273.283 136.062 273.481 135.807C273.678 135.552 273.939 135.353 274.237 135.229C274.535 135.106 274.86 135.063 275.18 135.104L270.939 116.6C266.395 101.353 275.965 93.6549 275.965 93.6549" fill="#F03C9D"/>
<path d="M279.473 90.2871C284.159 92.5076 290.576 132.114 290.768 137.599C290.82 139.353 287.282 143.15 287.282 143.15C287.282 143.15 287.341 146.555 285.165 146.851C285.165 146.851 278.696 140.189 273.226 137.628C273.106 137.329 273.067 137.003 273.111 136.684C273.156 136.364 273.283 136.062 273.481 135.807C273.678 135.552 273.939 135.353 274.237 135.229C274.535 135.106 274.86 135.063 275.18 135.104L270.939 116.6C266.395 101.353 275.965 93.6549 275.965 93.6549" stroke="#263238" stroke-linecap="round" stroke-linejoin="round"/>
<path d="M275.18 135.111C275.18 135.111 281.619 135.6 285.135 140.87" stroke="#263238" stroke-linecap="round" stroke-linejoin="round"/>
<path d="M245.994 153.697C249.968 153.556 253.926 153.123 257.837 152.402L257.526 148.842C253.577 149.437 249.599 149.822 245.609 149.996C245.72 151.003 245.891 152.602 245.994 153.697Z" fill="#757575" stroke="#263238" stroke-linecap="round" stroke-linejoin="round"/>
<path d="M259.28 152.127C260.02 151.972 260.76 151.801 261.5 151.624L260.967 148.256C260.967 148.256 260.271 148.411 258.969 148.633L259.28 152.127Z" fill="#757575" stroke="#263238" stroke-linecap="round" stroke-linejoin="round"/>
<path d="M243.944 150.055C238.136 150.238 232.322 150.063 226.535 149.529L226.113 152.734C232.08 153.544 238.101 153.893 244.122 153.778L243.944 150.055Z" fill="#757575" stroke="#263238" stroke-linecap="round" stroke-linejoin="round"/>
<path d="M225.349 149.411L223.869 149.256L223.477 152.328C223.477 152.328 224.009 152.424 224.957 152.564L225.349 149.411Z" fill="#757575" stroke="#263238" stroke-linecap="round" stroke-linejoin="round"/>
<path d="M236.963 154.038L230.523 153.816L231.012 149.723L237.451 149.945L236.963 154.038Z" fill="#BFBFBF" stroke="#263238" stroke-linecap="round" stroke-linejoin="round"/>
<path d="M205.492 301.382H219.252L225.691 300.013L228.43 301.382H234.092" stroke="#263238" stroke-linecap="round" stroke-linejoin="round"/>
<path d="M263.27 301.382H278.791" stroke="#263238" stroke-linecap="round" stroke-linejoin="round"/>
<path d="M265.223 294.965C265.223 294.965 271.943 292.234 276.059 294.062" stroke="#263238" stroke-linecap="round" stroke-linejoin="round"/>
<path d="M250.648 103.817L261.462 104.92L258.931 116.274L253.217 117L248.391 113.935L249.582 104.92" stroke="#263238" stroke-linecap="round" stroke-linejoin="round"/>
<path d="M277.524 104.919C277.524 104.919 272.883 106.732 272.395 113.801" stroke="#263238" stroke-linecap="round" stroke-linejoin="round"/>
<path d="M219.836 100.9C219.836 100.9 220.361 108.428 222.589 112.499" stroke="#263238" stroke-linecap="round" stroke-linejoin="round"/>
<path d="M224.426 143.038C224.426 143.038 243.315 141.602 248.851 136.48" stroke="#263238" stroke-linecap="round" stroke-linejoin="round"/>
<path d="M267.125 109.354C267.125 109.354 268.309 114.076 270.648 115.541" stroke="#263238" stroke-linecap="round" stroke-linejoin="round"/>
<g opacity="0.2">
<path opacity="0.2" d="M232.567 158.959C232.567 158.959 232.323 172.704 233.396 174.428C234.469 176.153 235.106 176.479 235.106 176.479" stroke="white" stroke-linecap="round" stroke-linejoin="round"/>
<path opacity="0.2" d="M235.113 158.138C235.113 158.138 235.165 178.796 237.452 185.679" stroke="white" stroke-linecap="round" stroke-linejoin="round"/>
<path opacity="0.2" d="M253.516 156.657C253.516 156.657 253.76 167.575 261.465 172.364" stroke="white" stroke-linecap="round" stroke-linejoin="round"/>
<path opacity="0.2" d="M263.758 168.9C263.758 168.9 264.054 180.255 263.758 182.593C263.462 184.932 265.371 195.976 265.371 200.557C265.371 205.139 266.977 212.319 266.977 213.925" stroke="white" stroke-linecap="round" stroke-linejoin="round"/>
<path opacity="0.2" d="M238.141 189.225C238.141 189.225 249.347 192.844 251.723 192.415" stroke="white" stroke-linecap="round" stroke-linejoin="round"/>
<path opacity="0.2" d="M238.144 191.653C236.974 190.646 228.041 195.124 226.871 194.614" stroke="white" stroke-linecap="round" stroke-linejoin="round"/>
<path opacity="0.2" d="M238.142 194.68C237.846 195.183 229.06 207.396 227.891 206.049" stroke="white" stroke-linecap="round" stroke-linejoin="round"/>
<path opacity="0.2" d="M239.609 193.096C239.609 193.096 248.906 202.363 251.726 203.384" stroke="white" stroke-linecap="round" stroke-linejoin="round"/>
<path opacity="0.2" d="M265.227 283.588C265.227 283.588 271.962 277.408 272.695 276.12C273.428 274.832 266.255 273.366 266.255 273.366" stroke="white" stroke-linecap="round" stroke-linejoin="round"/>
<path opacity="0.2" d="M266.98 286.979C266.98 286.979 271.962 285.217 275.182 286.764" stroke="white" stroke-linecap="round" stroke-linejoin="round"/>
<path opacity="0.2" d="M225.254 280.45C225.254 280.45 231.693 276.482 231.553 274.121" stroke="white" stroke-linecap="round" stroke-linejoin="round"/>
<path opacity="0.2" d="M234.086 282.005C234.086 282.005 226.573 286.15 224.375 286.128C222.177 286.105 230.378 289.177 232.428 288.74" stroke="white" stroke-linecap="round" stroke-linejoin="round"/>
</g>
<path d="M171.387 81.2711L182.46 79.0654" stroke="#263238" stroke-linecap="round" stroke-linejoin="round"/>
<path d="M170.859 78.4504L190.141 74.6016" stroke="#263238" stroke-linecap="round" stroke-linejoin="round"/>
<path d="M170.34 75.6311L189.614 71.7822" stroke="#263238" stroke-linecap="round" stroke-linejoin="round"/>
<path d="M169.816 72.8108L189.09 68.9619" stroke="#263238" stroke-linecap="round" stroke-linejoin="round"/>
<path d="M169.289 69.9836L188.563 66.1348" stroke="#263238" stroke-linecap="round" stroke-linejoin="round"/>
<path d="M168.766 67.1643L188.04 63.3154" stroke="#263238" stroke-linecap="round" stroke-linejoin="round"/>
<path d="M168.238 64.344L187.512 60.4951" stroke="#263238" stroke-linecap="round" stroke-linejoin="round"/>
<path d="M172.859 60.4948L186.989 57.6748" stroke="#263238" stroke-linecap="round" stroke-linejoin="round"/>
<path d="M1 302.944H311.5" stroke="#263238" stroke-linecap="round" stroke-linejoin="round"/>
</svg>
