<svg width="377" height="259" viewBox="0 0 377 259" fill="none" xmlns="http://www.w3.org/2000/svg">
<path d="M27.0982 238.272C26.6687 237.926 23.484 235.791 23.0125 235.414C15.2497 229.134 10.1687 216.124 4.95158 181.532C4.8939 181.156 4.97605 180.771 5.18254 180.451C5.38903 180.131 5.70559 179.897 6.07253 179.795L52.943 166.774C53.1698 166.705 53.4093 166.689 53.6432 166.727C53.8772 166.764 54.0995 166.855 54.2934 166.991C54.4872 167.127 54.6475 167.305 54.762 167.513C54.8765 167.72 54.9424 167.951 54.9544 168.187C54.9544 169.38 55.1011 171.955 55.2583 173.996" fill="white"/>
<path d="M27.0982 238.272C26.6687 237.926 23.484 235.791 23.0125 235.414C15.2497 229.134 10.1687 216.124 4.95158 181.532C4.8939 181.156 4.97605 180.771 5.18254 180.451C5.38903 180.131 5.70559 179.897 6.07253 179.795L52.943 166.774C53.1698 166.705 53.4093 166.689 53.6432 166.727C53.8772 166.764 54.0995 166.855 54.2934 166.991C54.4872 167.127 54.6475 167.305 54.762 167.513C54.8765 167.72 54.9424 167.951 54.9544 168.187C54.9544 169.38 55.1011 171.955 55.2583 173.996" stroke="#231F20" stroke-miterlimit="10"/>
<path d="M70.625 158.913L89.8803 101.807L96.1346 103.439V156.851L70.625 159.834" fill="white"/>
<path d="M70.625 158.913L89.8803 101.807L96.1346 103.439V156.851L70.625 159.834" stroke="black" stroke-miterlimit="10"/>
<path d="M58.0317 132.023L27.0117 135.048L49.766 60.9648L58.7755 61.8126L58.0317 132.023Z" fill="white" stroke="black" stroke-miterlimit="10"/>
<path d="M14.8379 131.669C11.2865 123.913 -1.81922 89.593 1.9522 12.192C1.99659 11.2565 2.38432 10.3701 3.04135 9.70205C3.69837 9.03403 4.57867 8.63121 5.51411 8.57051L117.808 1.13918C118.778 1.07515 119.736 1.38254 120.487 1.99886C121.238 2.61518 121.726 3.49416 121.852 4.45711L120.637 30.5505C120.461 32.366 120.405 34.1912 120.469 36.0141L120.867 55.66L54.8674 60.1084C54.1044 60.1607 53.3745 60.4398 52.7716 60.9098C52.1686 61.3799 51.72 62.0193 51.4836 62.746L28.9074 132.757C28.623 133.668 28.0096 134.44 27.1866 134.924C26.3636 135.408 25.3899 135.568 24.4551 135.374L17.4989 133.867C16.9132 133.736 16.3668 133.469 15.9043 133.087C15.4418 132.705 15.0764 132.219 14.8379 131.669Z" fill="white" stroke="black" stroke-miterlimit="10"/>
<path d="M62.6211 156.611C59.5935 149.765 49.8297 122.782 52.6269 63.6142C52.6809 62.6822 53.0738 61.8021 53.7316 61.1391C54.3894 60.4761 55.2669 60.0759 56.1992 60.0137L143.152 54.257C144.122 54.1904 145.081 54.4969 145.833 55.1137C146.585 55.7305 147.072 56.6109 147.195 57.5749L146.389 97.0447L94.8983 100.635C94.1322 100.686 93.3991 100.966 92.7939 101.438C92.1887 101.91 91.7393 102.553 91.504 103.283L74.124 157.218C73.8312 158.122 73.2122 158.885 72.3874 159.359C71.5626 159.833 70.5909 159.984 69.6611 159.782L65.3135 158.84C64.7206 158.707 64.1677 158.435 63.6998 158.048C63.2319 157.66 62.8623 157.168 62.6211 156.611Z" fill="white" stroke="black" stroke-miterlimit="10"/>
<path d="M109.933 181.501L102.987 182.38C102.302 182.466 101.607 182.324 101.01 181.976C100.414 181.628 99.9488 181.093 99.6871 180.454C96.89 173.797 89.4519 151.294 91.61 104.047C91.6516 103.106 92.039 102.213 92.698 101.539C93.357 100.866 94.2415 100.458 95.1823 100.394L165.907 95.7054C166.452 95.6698 166.999 95.7511 167.51 95.9438C168.022 96.1366 168.486 96.4362 168.872 96.8228C169.257 97.2093 169.556 97.6738 169.748 98.1851C169.939 98.6964 170.019 99.2427 169.982 99.7874L169.144 113.52C168.296 127.438 170.201 141.387 174.749 154.57L179.861 169.391C180.023 169.837 180.081 170.314 180.031 170.786C179.981 171.259 179.824 171.713 179.573 172.116C179.322 172.519 178.983 172.86 178.581 173.113C178.179 173.366 177.725 173.525 177.253 173.577L147.291 177.136" fill="white"/>
<path d="M109.933 181.501L102.987 182.38C102.302 182.466 101.607 182.324 101.01 181.976C100.414 181.628 99.9488 181.093 99.6871 180.454C96.89 173.797 89.4519 151.294 91.61 104.047C91.6516 103.106 92.039 102.213 92.698 101.539C93.357 100.866 94.2415 100.458 95.1823 100.394L165.907 95.7054C166.452 95.6698 166.999 95.7511 167.51 95.9438C168.022 96.1366 168.486 96.4362 168.872 96.8228C169.257 97.2093 169.556 97.6738 169.748 98.1851C169.939 98.6964 170.019 99.2427 169.982 99.7874L169.144 113.52C168.296 127.438 170.201 141.387 174.749 154.57L179.861 169.391C180.023 169.837 180.081 170.314 180.031 170.786C179.981 171.259 179.824 171.713 179.573 172.116C179.322 172.519 178.983 172.86 178.581 173.113C178.179 173.366 177.725 173.525 177.253 173.577L147.291 177.136" stroke="black" stroke-miterlimit="10"/>
<path d="M237.939 162.315C246.383 149.451 245.493 136.598 235.215 127.409C226.834 119.904 206.511 123.002 204.583 140.691C204.258 143.737 204.154 149.797 203.294 150.111C191.823 154.978 192.881 155.041 199.753 162.032C203.504 165.853 200.026 176.215 206.814 178.465C209.605 179.368 212.571 179.598 215.468 179.135L215.698 185.844C215.698 185.844 227.222 193.171 238.264 186.545L237.939 162.315Z" fill="#999999" stroke="black" stroke-miterlimit="10"/>
<path d="M237.907 162.303L233.455 158.117C233.455 158.117 244.413 145.044 226.509 145.128L224.55 137.801C224.55 137.801 212.901 140.009 206.07 134.797C211.308 122.394 227.84 120.834 235.194 127.407C245.471 136.597 246.351 149.45 237.907 162.303Z" fill="black"/>
<path d="M208.22 146.248C207.707 147.598 207.173 148.802 209.844 150.769C212.264 152.528 217.827 151.481 218.341 150.131C218.854 148.781 217.366 145.348 214.569 144.28C211.772 143.212 208.734 144.908 208.22 146.248Z" fill="white" stroke="black" stroke-miterlimit="10"/>
<path d="M210.546 150.11C213.908 150.11 213.919 144.877 210.546 144.877C207.172 144.877 207.162 150.11 210.546 150.11Z" fill="black"/>
<path d="M191.396 144.113C190.883 145.463 190.349 146.666 193.02 148.634C195.44 150.393 201.003 149.335 201.516 147.996C202.03 146.656 200.542 143.213 197.745 142.134C194.948 141.056 191.91 142.773 191.396 144.113Z" fill="white" stroke="black" stroke-miterlimit="10"/>
<path d="M193.721 147.933C197.084 147.933 197.095 142.699 193.721 142.699C190.348 142.699 190.338 147.933 193.721 147.933Z" fill="black"/>
<path d="M213.688 162.586C212.708 161.653 211.484 161.014 210.157 160.744C208.864 160.377 207.486 160.45 206.239 160.953C205.88 161.116 205.568 161.368 205.333 161.685C205.099 162.002 204.949 162.373 204.898 162.764C204.904 163.138 204.993 163.507 205.16 163.842C205.327 164.177 205.567 164.47 205.862 164.7C206.37 165.232 206.92 165.722 207.507 166.166C207.846 166.394 208.227 166.553 208.629 166.632C209.03 166.711 209.443 166.709 209.843 166.626C211.344 166.325 212.669 165.455 213.541 164.198C213.644 164.018 213.691 163.811 213.676 163.604C213.661 163.398 213.585 163.2 213.457 163.036C213.327 162.878 213.155 162.759 212.961 162.693C212.767 162.626 212.558 162.615 212.357 162.659C211.461 162.718 210.565 162.553 209.749 162.178C208.806 161.833 207.245 161.403 206.606 162.482C206.476 162.784 206.44 163.119 206.504 163.442C206.567 163.765 206.727 164.062 206.962 164.292C207.369 164.714 207.918 164.971 208.502 165.014C209.053 165.058 209.607 165.023 210.147 164.91C210.691 164.815 211.217 164.638 211.708 164.386C211.908 164.27 212.063 164.091 212.15 163.877C212.238 163.663 212.251 163.426 212.19 163.204C212.126 162.977 211.989 162.779 211.799 162.64C211.609 162.502 211.377 162.431 211.142 162.44C211.31 162.44 210.891 162.356 211.027 162.44C210.87 162.377 210.723 162.283 210.577 162.209C210.182 161.985 209.748 161.839 209.298 161.78C208.88 161.728 208.457 161.825 208.104 162.055C207.751 162.285 207.491 162.633 207.371 163.036C207.311 163.235 207.293 163.444 207.317 163.65C207.341 163.856 207.407 164.055 207.511 164.234C207.615 164.414 207.755 164.57 207.922 164.693C208.089 164.817 208.279 164.905 208.481 164.952C208.896 164.985 209.312 164.923 209.699 164.771C210.086 164.618 210.433 164.379 210.713 164.072C210.832 164.003 210.936 163.911 211.02 163.802C211.103 163.692 211.164 163.567 211.199 163.434C211.234 163.301 211.243 163.162 211.224 163.025C211.205 162.889 211.16 162.757 211.09 162.639C211.021 162.519 210.928 162.415 210.819 162.332C210.709 162.248 210.584 162.187 210.451 162.152C210.317 162.117 210.178 162.109 210.042 162.128C209.905 162.147 209.774 162.192 209.655 162.262L209.099 162.691L208.879 162.848L208.743 162.932H208.806C208.869 162.932 208.963 162.932 209.037 162.932C209.219 163.053 209.347 163.241 209.393 163.455C209.393 163.738 209.257 163.717 209.099 163.853C208.942 163.989 209.099 163.853 209.173 163.853C209.037 163.853 209.33 163.905 209.246 163.853C209.407 163.928 209.565 164.012 209.717 164.104C210.154 164.353 210.641 164.503 211.142 164.543L210.608 162.586C210.163 162.781 209.689 162.902 209.204 162.942C208.97 162.997 208.726 162.997 208.492 162.942C208.659 163.026 208.335 162.942 208.492 162.942C208.408 162.858 208.397 162.848 208.492 162.942C208.527 163.036 208.54 163.137 208.529 163.237C208.519 163.337 208.484 163.434 208.429 163.518L208.052 163.895C207.978 163.947 207.758 163.895 207.989 163.947H208.23C208.083 163.947 208.418 163.947 208.408 163.947L208.691 164.031C209.099 164.156 209.487 164.313 209.885 164.449C210.849 164.757 211.872 164.832 212.871 164.669L211.687 163.13C211.593 163.267 211.687 163.13 211.582 163.267L211.362 163.507L211.132 163.727L211.006 163.832C210.87 163.947 211.1 163.758 210.954 163.832C210.78 163.959 210.598 164.074 210.409 164.177C210.298 164.241 210.182 164.297 210.063 164.345L209.864 164.418C209.665 164.481 209.462 164.53 209.257 164.564H209.057H208.879C208.478 164.348 208.122 164.057 207.832 163.706C207.643 163.539 207.455 163.35 207.277 163.172L207.036 162.921C206.952 162.837 207.036 162.921 207.036 162.921C206.99 162.867 206.951 162.807 206.92 162.743C206.92 162.743 206.92 162.953 206.92 162.973C206.92 162.994 206.92 163.047 206.868 163.047C206.908 163.014 206.943 162.975 206.973 162.932L207.088 162.827C207.088 162.827 206.973 162.911 207.088 162.827C207.203 162.743 207.392 162.691 207.235 162.743L207.528 162.659C207.528 162.659 207.832 162.659 207.664 162.659C207.887 162.644 208.111 162.644 208.335 162.659H208.995C209.12 162.659 208.995 162.659 208.995 162.659H209.162L209.55 162.733C209.827 162.789 210.1 162.862 210.367 162.953C210.57 163.013 210.767 163.093 210.954 163.193C211.401 163.401 211.808 163.684 212.158 164.031C212.355 164.226 212.62 164.335 212.897 164.335C213.174 164.335 213.439 164.226 213.636 164.031C213.831 163.835 213.94 163.569 213.94 163.293C213.94 163.016 213.831 162.751 213.636 162.555L213.688 162.586Z" fill="black"/>
<path d="M185.549 208.231L194.286 245.42L174.035 253.646C160.94 259.476 154.927 259.989 139.537 253.311L137.913 252.191C131.402 247.702 125.803 242.02 121.413 235.445L120.743 234.398C115.253 226.15 113.032 211.842 115.829 202.506C116.877 198.885 117.851 195.117 118.553 192.04C118.976 190.178 118.916 188.24 118.379 186.408C117.841 184.576 116.845 182.912 115.484 181.573L110.382 176.559C109.771 175.961 109.365 175.186 109.222 174.344C109.079 173.502 109.207 172.636 109.586 171.87L111.115 171.033L108.496 166.972C108.194 166.435 108.062 165.82 108.118 165.206C108.174 164.593 108.416 164.012 108.81 163.539L111.084 161.582L110.738 159.781C110.728 159.014 111 158.269 111.503 157.688C112.355 156.516 113.542 155.629 114.908 155.145L117.883 153.857C117.907 152.92 118.238 152.017 118.824 151.286C119.411 150.554 120.221 150.035 121.13 149.807L121.612 149.691C124.267 149.856 126.774 150.971 128.673 152.831L136.3 160.231C140.538 164.16 143.898 168.938 146.16 174.254C148.422 179.569 149.535 185.302 149.427 191.077L149.28 198.759C149.175 202.883 150.328 206.033 151.92 209.843C155.723 217.934 155.953 223.597 168.923 217.767C170.63 216.898 185.549 208.231 185.549 208.231Z" fill="#999999" stroke="black" stroke-miterlimit="10"/>
<path d="M136.667 171.839C136.667 171.839 122.136 154.338 114.918 155.092" stroke="black" stroke-miterlimit="10"/>
<path d="M124.726 180.379C124.726 180.379 118.953 175.366 114.909 172.487C114.33 172.058 113.668 171.754 112.964 171.596C112.26 171.437 111.531 171.427 110.824 171.566L109.305 172.613" stroke="black" stroke-miterlimit="10"/>
<path d="M109.93 162.525C112.402 161.593 115 164.168 117.263 165.518C123.004 168.941 129.834 176.246 129.834 176.246" stroke="black" stroke-miterlimit="10"/>
<path d="M121.824 157.699C121.824 157.699 123.626 167.297 111.117 158.233" stroke="black" stroke-miterlimit="10"/>
<path d="M127.344 151.492C127.344 151.492 128.811 155.072 126.087 156.213C125.536 156.423 124.943 156.502 124.356 156.444C123.768 156.386 123.203 156.192 122.703 155.878L118.324 153.366" stroke="black" stroke-miterlimit="10"/>
<path d="M118.051 166.187C118.051 166.187 119.507 168.793 117.642 169.599C117.226 169.763 116.773 169.813 116.331 169.743C115.888 169.673 115.473 169.486 115.128 169.201L108.664 164.156" stroke="black" stroke-miterlimit="10"/>
<path d="M118.051 175.502L115.223 177.072C115.223 177.072 110.152 174.571 110.152 171.996" stroke="black" stroke-miterlimit="10"/>
<path d="M125.645 136.756C116.759 137.017 107.895 137.793 99.0983 139.079C98.4383 139.184 98.7212 140.199 99.3812 140.126C108.083 138.849 116.853 138.084 125.645 137.834C126.315 137.834 126.315 136.787 125.645 136.787V136.756Z" fill="black"/>
<path d="M164.522 134.494L163.076 134.703C163.009 134.717 162.946 134.746 162.892 134.788C162.837 134.83 162.793 134.883 162.762 134.944C162.733 135.006 162.719 135.074 162.719 135.143C162.719 135.211 162.733 135.279 162.762 135.341C162.798 135.474 162.884 135.586 163.003 135.655H163.128C163.217 135.687 163.313 135.687 163.401 135.655L164.857 135.446C164.921 135.428 164.981 135.397 165.033 135.356C165.085 135.315 165.129 135.264 165.161 135.205C165.189 135.141 165.204 135.072 165.204 135.001C165.204 134.931 165.189 134.861 165.161 134.797C165.145 134.734 165.117 134.674 165.077 134.622C165.037 134.569 164.987 134.526 164.93 134.494L164.805 134.441C164.713 134.41 164.613 134.41 164.522 134.441V134.494Z" fill="black"/>
<path d="M129.89 128.884C124.484 129.386 119.089 130.255 113.641 130.255C111.08 130.189 108.523 129.986 105.983 129.648C103.66 129.274 101.28 129.516 99.0795 130.349C98.4614 130.621 98.9957 131.521 99.6033 131.26C101.835 130.286 104.318 130.495 106.664 130.778C109.148 131.109 111.649 131.284 114.155 131.301C119.393 131.249 124.631 130.412 129.869 129.93C130.54 129.867 130.54 128.821 129.869 128.884H129.89Z" fill="black"/>
<path d="M136.928 118.322C132.225 118.458 127.5 118.49 122.796 118.563C120.46 118.563 118.124 118.689 115.808 118.95C113.493 119.212 111.367 119.672 109.156 120.112C106.631 120.688 104.046 120.958 101.456 120.918C100.775 120.918 100.775 121.965 101.456 121.965C105.992 122.164 110.361 120.751 114.813 120.123C119.507 119.632 124.227 119.44 128.946 119.547C131.607 119.505 134.267 119.446 136.928 119.369C137.067 119.369 137.201 119.314 137.299 119.216C137.397 119.118 137.452 118.984 137.452 118.846C137.452 118.707 137.397 118.574 137.299 118.476C137.201 118.377 137.067 118.322 136.928 118.322V118.322Z" fill="black"/>
<path d="M163.998 105.805C156.204 108.495 147.875 108.16 139.809 108.16C135.524 108.16 131.26 108.443 126.986 108.652C122.702 108.835 118.412 108.804 114.132 108.558C109.457 108.158 104.75 108.412 100.146 109.311C99.4858 109.468 99.7687 110.473 100.418 110.358C104.553 109.522 108.783 109.261 112.99 109.584C117.264 109.772 121.517 109.971 125.802 109.793C130.087 109.615 134.382 109.28 138.698 109.249C142.784 109.249 146.88 109.311 150.966 109.113C155.502 108.983 159.996 108.208 164.312 106.81C164.941 106.59 164.669 105.585 164.03 105.763L163.998 105.805Z" fill="black"/>
<path d="M142.02 64.2637C131.072 66.4931 119.904 65.2476 108.789 65.4569C103.335 65.5993 97.9026 66.2051 92.5511 67.2676C87.2096 68.4664 81.811 69.3956 76.3759 70.0518C73.4364 70.3557 70.4734 70.3557 67.534 70.0518C64.6425 69.7064 61.5311 68.3666 58.6292 69.2354C57.9902 69.4342 58.2625 70.4495 58.9121 70.282C60.2859 69.9243 61.7287 69.9243 63.1025 70.282C64.3911 70.5437 65.6692 70.8368 66.9787 71.0043C69.6257 71.3426 72.2995 71.4197 74.9616 71.2345C80.3306 70.7464 85.6609 69.9002 90.9168 68.7016C96.3195 67.5603 101.806 66.8602 107.323 66.6083C112.864 66.4199 118.417 66.6606 123.969 66.7129C130.111 66.8623 136.252 66.3712 142.292 65.2476C142.952 65.1115 142.68 64.0962 142.02 64.2009V64.2637Z" fill="black"/>
<path d="M141.662 75.1166C139.63 76.5296 136.749 76.247 134.392 76.2993C131.71 76.3621 129.018 76.3726 126.336 76.2993C123.654 76.226 120.878 76.069 118.143 76.0795C115.582 76.0909 113.038 76.4969 110.6 77.2832C108.201 78.1296 105.752 78.8287 103.267 79.3765C100.698 79.8538 98.0824 80.0295 95.4728 79.8998C94.131 79.8368 92.7944 79.6899 91.4709 79.4602C90.2242 79.2404 88.988 78.9369 87.7309 78.7694C85.0909 78.4136 82.3776 78.9578 79.769 79.3032C73.7766 80.0917 67.8122 81.0686 61.8757 82.2339C61.2157 82.37 61.4985 83.3748 62.1585 83.2806C67.5293 82.2199 72.935 81.3163 78.3757 80.5697C79.7271 80.3813 81.089 80.2138 82.4404 80.0464C83.7335 79.8446 85.0394 79.7361 86.348 79.7219C87.7353 79.8247 89.112 80.0382 90.4652 80.3604C91.6766 80.6035 92.9007 80.7783 94.1318 80.8837C96.7047 81.1107 99.2951 81.0439 101.853 80.6848C104.43 80.3151 106.966 79.7018 109.427 78.8532C111.875 77.9355 114.445 77.3853 117.054 77.2204C119.767 77.1157 122.491 77.325 125.204 77.3878C128.284 77.4611 131.354 77.4611 134.434 77.3878C136.99 77.3878 140.028 77.5867 142.228 76.0586C142.783 75.6818 142.228 74.7712 141.704 75.1584L141.662 75.1166Z" fill="black"/>
<path d="M141.432 87.4997C130.799 86.8403 120.207 88.3894 109.721 89.9489C99.2341 91.5084 88.5379 92.9842 77.7893 92.4714C71.996 92.1992 66.0246 91.7492 60.4303 93.6541C59.8017 93.8739 60.0741 94.8787 60.7131 94.7008C65.7103 92.9947 71.0217 93.2145 76.2179 93.4762C81.493 93.7605 86.7812 93.6941 92.0474 93.2773C102.628 92.3876 113.052 90.2838 123.602 89.1534C129.512 88.4659 135.469 88.2733 141.411 88.5778C142.092 88.5778 142.082 87.5311 141.411 87.5311L141.432 87.4997Z" fill="black"/>
<path d="M87.209 110.599C83.668 112.075 79.6766 111.437 75.9471 111.426C71.8952 111.421 67.8481 111.704 63.8366 112.274C63.1766 112.358 63.4594 113.321 64.1194 113.321C68.2076 112.749 72.3325 112.479 76.4604 112.515C80.1166 112.515 84.0033 113.101 87.4814 111.646C88.0994 111.395 87.8271 110.379 87.209 110.599V110.599Z" fill="black"/>
<path d="M82.3889 121.904C82.1689 122.416 80.7547 122.322 80.2937 122.354C79.508 122.406 78.7223 122.437 77.947 122.448C76.3337 122.448 74.7204 122.448 73.107 122.448C69.9378 122.354 66.7695 122.663 63.6785 123.369C63.6097 123.387 63.5451 123.418 63.4884 123.461C63.4317 123.504 63.384 123.557 63.348 123.618C63.312 123.68 63.2884 123.747 63.2786 123.818C63.2688 123.888 63.273 123.96 63.2909 124.028C63.3087 124.097 63.34 124.162 63.3828 124.218C63.4257 124.275 63.4793 124.323 63.5406 124.358C63.6019 124.394 63.6696 124.418 63.74 124.428C63.8104 124.438 63.8821 124.433 63.9508 124.416C67.4381 123.659 71.0091 123.36 74.5737 123.526C76.3128 123.526 78.0413 123.526 79.8118 123.442C81.0166 123.369 82.8185 123.515 83.3737 122.197C83.6356 121.569 82.6194 121.307 82.3261 121.914L82.3889 121.904Z" fill="black"/>
<path d="M79.248 131.291L71.6214 131.647C69.2213 131.617 66.8263 131.874 64.4871 132.411C64.3482 132.448 64.2298 132.54 64.1581 132.664C64.0864 132.789 64.0672 132.937 64.1047 133.076C64.1422 133.214 64.2334 133.333 64.3581 133.404C64.4829 133.476 64.631 133.495 64.7699 133.458C67.1041 132.936 69.4916 132.69 71.8833 132.725L79.2166 132.38C79.8976 132.38 79.8976 131.333 79.2166 131.333L79.248 131.291Z" fill="black"/>
<path d="M77.331 140.932C73.3924 140.523 69.412 140.879 65.6082 141.978C65.5394 141.996 65.4748 142.027 65.4181 142.07C65.3614 142.113 65.3136 142.166 65.2777 142.228C65.2417 142.289 65.2181 142.357 65.2083 142.427C65.1985 142.497 65.2027 142.569 65.2205 142.638C65.2384 142.706 65.2697 142.771 65.3125 142.827C65.3554 142.884 65.409 142.932 65.4703 142.968C65.5315 143.004 65.5993 143.027 65.6697 143.037C65.7401 143.047 65.8117 143.043 65.8805 143.025C69.5998 141.971 73.487 141.641 77.331 142.051C78.0015 142.125 78.0015 141.068 77.331 141.005V140.932Z" fill="black"/>
<path d="M74.6998 148.98C72.6646 149.557 70.5112 149.575 68.4665 149.032C68.3276 148.996 68.18 149.016 68.0562 149.089C67.9324 149.162 67.8426 149.28 67.8065 149.419C67.7704 149.558 67.7909 149.706 67.8636 149.829C67.9363 149.953 68.0552 150.043 68.1941 150.079C70.4215 150.663 72.7645 150.645 74.9827 150.026C75.1216 149.989 75.24 149.898 75.3117 149.773C75.3834 149.649 75.4026 149.501 75.3651 149.362C75.3276 149.223 75.2364 149.105 75.1117 149.033C74.9869 148.961 74.8388 148.942 74.6998 148.98V148.98Z" fill="black"/>
<path d="M141.903 96.5097L109.846 98.7391L93.7966 99.7858C91.209 99.9637 88.5585 100.121 86.0233 100.456C83.488 100.791 80.9109 101.408 78.3338 101.722C72.8442 102.382 67.1871 101.272 61.8128 102.905C61.1738 103.104 61.4461 104.119 62.0957 103.952C66.8938 102.486 71.9328 103.282 76.8566 102.905C79.3604 102.727 81.8223 102.193 84.2947 101.774C86.8878 101.368 89.4996 101.092 92.1204 100.948L123.937 98.7391L141.903 97.5564C142.574 97.504 142.574 96.4574 141.903 96.5097Z" fill="black"/>
<path d="M114.015 27.9648C101.234 30.1942 88.2648 31.0316 75.3267 31.6596C62.2839 32.3085 49.1467 32.926 36.0934 33.8471C28.7182 34.3356 21.3429 34.8833 13.9677 35.4904C13.3077 35.4904 13.2972 36.537 13.9677 36.537C27.1328 35.4415 40.3188 34.524 53.5258 33.7843C66.5372 33.0726 79.5801 32.7376 92.581 31.691C99.8515 31.1048 107.101 30.278 114.288 29.022C114.958 28.9068 114.675 27.902 114.015 27.9753V27.9648Z" fill="black"/>
<path d="M114.131 41.2773C100.512 42.0728 86.893 42.795 73.2215 43.6637C69.911 43.8731 66.611 44.1557 63.3215 44.6162C60.032 45.0767 56.7844 45.6629 53.5158 46.1862C46.7864 47.2687 39.9866 47.8564 33.171 47.9446C29.5882 47.9446 26.0053 47.7771 22.4225 47.8085C19.1106 47.7166 15.8153 48.3081 12.7425 49.546C12.1349 49.8286 12.6587 50.7288 13.2768 50.4566C16.1063 49.3126 19.1405 48.7605 22.192 48.8343C25.3349 48.8343 28.4777 48.9808 31.6206 48.9703C38.2348 48.9646 44.8405 48.4959 51.3891 47.5678C54.6368 47.0968 57.853 46.5211 61.0796 45.9978C64.3063 45.4745 67.7844 45.0977 71.1577 44.8569C77.873 44.365 84.5987 44.0405 91.3139 43.6533L114.131 42.324C114.802 42.324 114.802 41.2773 114.131 41.2773Z" fill="black"/>
<path d="M114.553 51.922C101.174 52.6966 87.7963 53.4397 74.4182 54.3712C61.0401 55.3028 47.6935 56.4646 34.3887 58.0764C30.743 58.5265 27.1077 59.0289 23.4725 59.5418C19.7064 60.1408 15.8984 60.4383 12.0849 60.4314C11.4144 60.4314 11.4144 61.4781 12.0849 61.4781C18.7792 61.6351 25.4525 60.264 32.0735 59.3848C38.6944 58.5056 45.2944 57.8252 51.9782 57.1972C65.3249 55.9412 78.703 55.1039 92.0916 54.2561C99.5925 53.8025 107.097 53.3629 114.605 52.9373C115.275 52.9373 115.275 51.8906 114.605 51.8906L114.553 51.922Z" fill="black"/>
<path d="M45.7965 69.0662C37.2584 70.6152 28.5527 70.1128 19.9412 70.5943C17.5317 70.7303 15.1431 70.9606 12.7546 71.3165C12.0946 71.4212 12.3774 72.426 13.0374 72.3632C21.6069 71.0758 30.3022 71.6619 38.9241 71.0025C41.3228 70.8231 43.7109 70.5226 46.0793 70.1023C46.7393 69.9872 46.4565 68.9719 45.7965 69.0557V69.0662Z" fill="black"/>
<path d="M41.3847 81.293C36.4923 82.1094 31.5371 81.5023 26.6132 81.6384C21.7881 81.9369 17.0211 82.8514 12.4285 84.3597C12.3597 84.3783 12.2952 84.4102 12.2388 84.4536C12.1824 84.497 12.135 84.5512 12.0995 84.6129C12.0278 84.7375 12.0086 84.8855 12.0461 85.0243C12.0836 85.1631 12.1748 85.2813 12.2995 85.353C12.4243 85.4246 12.5724 85.4438 12.7113 85.4064C17.3711 83.8709 22.2158 82.9662 27.1161 82.7164C31.9771 82.6222 36.838 83.1456 41.6571 82.3501C42.3171 82.235 42.0447 81.2302 41.3847 81.3034V81.293Z" fill="black"/>
<path d="M37.8554 93.0147C34.1925 93.9632 30.3954 94.2852 26.6249 93.9672C23.1992 93.7369 19.6792 93.4753 16.463 95.0139C15.8554 95.2965 16.3897 96.1966 16.9973 95.914C20.224 94.4173 23.8906 94.8673 27.3268 95.1185C30.9603 95.3691 34.6102 95.0154 38.1278 94.0719C38.2667 94.0358 38.3856 93.946 38.4583 93.8224C38.531 93.6987 38.5515 93.5513 38.5154 93.4125C38.4793 93.2737 38.3895 93.1549 38.2657 93.0823C38.1419 93.0097 37.9943 92.9891 37.8554 93.0252V93.0147Z" fill="black"/>
<path d="M34.4818 104.319C31.9465 105.962 28.8351 105.366 26.0065 105.24C24.5373 105.143 23.0619 105.284 21.638 105.659C20.1709 106.167 18.6537 106.518 17.1123 106.705C16.4418 106.705 16.4313 107.752 17.1123 107.752C18.6354 107.577 20.133 107.226 21.5751 106.705C23.1809 106.268 24.851 106.116 26.5094 106.255C29.3799 106.433 32.4599 106.821 35.0056 105.209C35.5713 104.842 35.0056 103.932 34.4818 104.298V104.319Z" fill="black"/>
<path d="M32.1359 116.293C29.475 116.188 26.8035 116.063 24.1426 115.989C21.7468 115.798 19.3389 116.156 17.1026 117.036C16.4845 117.308 17.0188 118.208 17.6369 117.936C19.8627 117.105 22.2492 116.794 24.614 117.026C27.1178 117.109 29.6216 117.225 32.1359 117.319C32.8064 117.319 32.8064 116.272 32.1359 116.272V116.293Z" fill="black"/>
<path d="M27.4837 125.461C26.0171 126.1 24.3409 125.828 22.7904 125.692C21.2425 125.445 19.6564 125.637 18.2123 126.246C17.6151 126.55 18.139 127.45 18.7466 127.146C20.1713 126.424 21.8894 126.654 23.3666 126.791C24.9248 127.048 26.5232 126.901 28.0075 126.361C28.6256 126.1 28.0913 125.2 27.4837 125.461V125.461Z" fill="black"/>
<path d="M173.898 167.893C171.968 168.489 169.937 168.692 167.927 168.49C166.105 168.456 164.285 168.597 162.49 168.909C158.509 169.589 154.58 170.562 150.641 171.421C149.981 171.557 150.253 172.572 150.913 172.467C154.852 171.62 158.792 170.636 162.762 169.966C164.746 169.645 166.757 169.523 168.765 169.6C170.596 169.743 172.438 169.519 174.181 168.94C174.799 168.699 174.527 167.684 173.898 167.893V167.893Z" fill="#231F20"/>
<path d="M170.463 158.704C166.723 161.216 162.155 160.264 157.944 160.055C155.856 159.961 153.765 160.159 151.732 160.641C149.602 161.272 147.403 161.641 145.184 161.74C145.045 161.74 144.912 161.795 144.814 161.893C144.715 161.991 144.66 162.124 144.66 162.263C144.66 162.402 144.715 162.535 144.814 162.633C144.912 162.731 145.045 162.786 145.184 162.786C147.347 162.711 149.491 162.359 151.564 161.74C153.964 161.17 156.437 160.973 158.897 161.154C162.993 161.436 167.362 162.022 170.966 159.594C171.521 159.217 170.966 158.317 170.442 158.694L170.463 158.704Z" fill="#231F20"/>
<path d="M167.79 151.712C165.286 152.884 162.552 152.685 159.838 152.58C157.392 152.449 154.941 152.732 152.589 153.418C151.291 153.847 149.941 154.097 148.576 154.161C147.172 154.161 145.779 154.046 144.386 154.098C141.662 154.284 138.958 154.687 136.298 155.302C135.638 155.427 135.921 156.443 136.571 156.348C139.455 155.668 142.399 155.272 145.36 155.166C146.753 155.166 148.157 155.323 149.551 155.166C150.826 155.005 152.083 154.718 153.301 154.307C155.875 153.666 158.538 153.461 161.179 153.7C163.607 153.933 166.055 153.574 168.313 152.654C168.921 152.371 168.387 151.471 167.779 151.753L167.79 151.712Z" fill="#231F20"/>
<path d="M127.846 146.458C125.164 146.458 122.503 145.976 119.811 145.914C117.426 145.894 115.044 146.069 112.687 146.437C107.449 147.18 102.148 148.185 96.8995 149.085C96.229 149.2 96.5119 150.205 97.1719 150.132C102.263 149.263 107.355 148.3 112.467 147.546C115.061 147.128 117.687 146.949 120.314 147.013C122.839 147.107 125.332 147.504 127.846 147.536C127.985 147.536 128.118 147.481 128.217 147.383C128.315 147.284 128.37 147.151 128.37 147.013C128.37 146.874 128.315 146.741 128.217 146.642C128.118 146.544 127.985 146.489 127.846 146.489V146.458Z" fill="#231F20"/>
<path d="M164.857 142.502C164.005 143.111 163 143.474 161.955 143.548C160.739 143.695 159.503 143.789 158.288 143.883C157.618 143.883 157.618 144.93 158.288 144.93C159.629 144.825 160.98 144.731 162.311 144.553C163.502 144.434 164.636 143.988 165.59 143.266C165.639 143.217 165.678 143.159 165.705 143.095C165.731 143.032 165.745 142.963 165.745 142.894C165.745 142.825 165.731 142.757 165.705 142.693C165.678 142.629 165.639 142.571 165.59 142.523C165.492 142.427 165.36 142.373 165.223 142.373C165.086 142.373 164.954 142.427 164.857 142.523V142.502Z" fill="#231F20"/>
<path d="M109.168 157.5C105.774 158.546 102.107 157.688 98.6921 158.4C98.0321 158.536 98.3149 159.551 98.9749 159.446C102.432 158.724 106.078 159.614 109.451 158.536C110.09 158.337 109.818 157.332 109.179 157.489L109.168 157.5Z" fill="#231F20"/>
<path d="M106.106 165.109C105.158 165.55 104.084 165.635 103.078 165.35C101.957 165.08 100.776 165.218 99.7468 165.737C99.1811 166.093 99.7468 167.004 100.281 166.638C101.273 166.204 102.386 166.133 103.424 166.439C104.526 166.695 105.684 166.542 106.682 166.01C107.248 165.643 106.682 164.743 106.158 165.109H106.106Z" fill="#231F20"/>
<path d="M107.07 174.718C106.632 174.854 106.177 174.928 105.719 174.938C105.245 174.917 104.772 174.864 104.305 174.781C103.882 174.698 103.444 174.746 103.051 174.921C102.657 175.095 102.327 175.386 102.105 175.754C101.801 176.351 102.702 176.874 103.016 176.278C103.073 176.164 103.155 176.065 103.257 175.988C103.359 175.912 103.477 175.861 103.603 175.838C103.952 175.792 104.307 175.81 104.65 175.89C105.541 176.037 106.454 175.984 107.322 175.733C107.391 175.715 107.455 175.683 107.512 175.639C107.568 175.596 107.615 175.542 107.651 175.48C107.686 175.418 107.709 175.35 107.718 175.28C107.728 175.209 107.723 175.137 107.704 175.069C107.686 175 107.654 174.936 107.61 174.879C107.567 174.823 107.513 174.776 107.451 174.74C107.389 174.705 107.321 174.682 107.25 174.672C107.18 174.663 107.108 174.668 107.039 174.687L107.07 174.718Z" fill="#231F20"/>
<path d="M159.065 140.028C165.989 129.947 167.309 118.832 162.014 115.202C156.719 111.571 146.813 116.8 139.889 126.88C132.965 136.961 131.644 148.076 136.94 151.707C142.235 155.337 152.141 150.109 159.065 140.028Z" fill="white" stroke="#231F20" stroke-miterlimit="10"/>
<path d="M135.828 122.657C144.01 113.027 149.447 109.584 155.586 110.767L162.343 115.456" stroke="#231F20" stroke-miterlimit="10"/>
<path d="M135.903 122.551C128.183 133.415 126.056 139.779 128.78 145.389L135.223 150.56" stroke="#231F20" stroke-miterlimit="10"/>
<path d="M112.058 178.402L105.824 187.226L108.81 189.937L115.127 181.207L112.058 178.402Z" fill="white" stroke="#231F20" stroke-miterlimit="10"/>
<path d="M136.438 151.775L133.033 156.16L129.891 152.895L132.709 148.75L136.438 151.775Z" stroke="#231F20" stroke-miterlimit="10"/>
<path d="M317.234 239.057L327.03 254.453H257.143L239.574 241.893C230.146 235.613 224.415 234.483 213.929 238.753L193.511 246.478L184.773 207.866L221.44 179.554C237.835 166.91 269.17 170.615 282.139 186.755L317.234 239.057Z" fill="black"/>
<path d="M375.365 16.9434L344.827 56.7376L339.505 38.5047L375.365 16.9434L321.004 24.4375L339.505 38.5047" fill="white"/>
<path d="M375.365 16.9434L344.827 56.7376L339.505 38.5047L375.365 16.9434ZM375.365 16.9434L321.004 24.4375L339.505 38.5047" stroke="black" stroke-miterlimit="10"/>
<path d="M212.011 83.417C223.172 89.4622 236.13 91.3185 248.542 88.6503C254.745 87.3714 260.663 84.9737 266.006 81.5748C271.244 78.2255 276.587 73.6516 278.43 67.5181C278.648 66.7671 278.809 66.0009 278.912 65.2259C278.996 64.556 279.247 63.6978 278.619 63.2686C277.57 62.5576 276.367 62.1056 275.109 61.9498C272.528 61.6361 269.922 62.2724 267.776 63.7396C265.602 65.1561 264.048 67.3447 263.428 69.8626C262.83 72.7017 263.233 75.6604 264.57 78.236C265.896 80.9217 268.037 83.1198 270.688 84.516C273.649 85.9881 276.96 86.6078 280.253 86.3058C287.22 85.751 293.191 81.7318 297.874 76.7706C302.557 71.8094 305.7 65.7702 310.959 61.5626C313.205 59.6883 315.943 58.5001 318.847 58.14C321.47 57.7776 324.137 58.3283 326.401 59.6995C327.429 60.3876 328.28 61.3094 328.884 62.3894C328.96 62.4942 329.072 62.567 329.199 62.5937C329.326 62.6204 329.458 62.5992 329.571 62.534C329.683 62.4689 329.767 62.3646 329.806 62.2412C329.846 62.1178 329.838 61.9841 329.785 61.8661C326.736 56.4444 319.308 56.078 314.175 58.3388C310.959 59.9403 308.145 62.244 305.941 65.0794C303.468 67.9891 301.342 71.171 298.869 74.0807C293.83 80.0153 287.084 85.1963 278.965 85.3219C275.182 85.4782 271.477 84.2206 268.572 81.7946C266.016 79.5472 264.447 76.3855 264.204 72.9922C264.101 71.4341 264.393 69.8754 265.052 68.4597C265.712 67.044 266.717 65.8167 267.975 64.891C269.14 64.0046 270.494 63.3997 271.931 63.1236C273.369 62.8476 274.851 62.908 276.262 63.3C276.951 63.5345 277.604 63.8658 278.2 64.2839L277.938 63.8338C277.791 69.1404 274.334 73.5888 270.479 76.9381C266.66 80.2151 262.337 82.8552 257.677 84.7567C248.386 88.5926 238.202 89.7352 228.291 88.0537C222.758 87.1187 217.424 85.2537 212.514 82.5378C212.454 82.5027 212.388 82.4798 212.319 82.4703C212.251 82.4608 212.181 82.4649 212.114 82.4824C212.047 82.4999 211.984 82.5304 211.928 82.5722C211.873 82.6141 211.826 82.6664 211.791 82.7262C211.756 82.7859 211.733 82.8521 211.724 82.9207C211.714 82.9894 211.718 83.0592 211.736 83.1263C211.753 83.1933 211.784 83.2563 211.826 83.3116C211.868 83.3668 211.92 83.4133 211.98 83.4484L212.011 83.417Z" fill="black"/>
<path d="M13.2261 185.666L60.0966 172.636C60.3255 172.572 60.566 172.561 60.7997 172.604C61.0335 172.647 61.2542 172.743 61.4452 172.884C61.6362 173.026 61.7924 173.209 61.9018 173.42C62.0112 173.63 62.071 173.863 62.0766 174.101C62.3176 179.334 63.2918 194.092 67.0842 206.411C69.5147 214.345 74.4804 221.274 77.6757 224.016C77.8636 224.181 78.0094 224.387 78.1007 224.62C78.1921 224.852 78.2264 225.102 78.2007 225.351C78.1751 225.599 78.0902 225.837 77.9533 226.046C77.8163 226.254 77.6313 226.427 77.4138 226.549C69.7661 230.862 45.6185 244.552 41.3547 247.818C41.1201 248.002 40.8372 248.115 40.5398 248.143C40.2424 248.171 39.9434 248.112 39.6785 247.975C36.3025 246.064 33.1172 243.835 30.1661 241.318C22.4033 235.038 17.3223 222.038 12.1052 187.446C12.0387 187.063 12.1165 186.67 12.3235 186.341C12.5306 186.012 12.8521 185.772 13.2261 185.666V185.666Z" fill="white" stroke="#231F20" stroke-miterlimit="10"/>
<path d="M19.5847 203.846C22.7276 202.286 25.8705 200.496 29.1181 199.178C32.3657 197.859 35.5295 198.476 38.7981 198.058C42.0666 197.639 44.6543 195.598 47.8076 194.719C49.4524 194.258 51.139 193.944 52.7733 193.431C54.4076 192.919 56.22 192.165 57.9066 191.464C58.6714 191.139 58.3362 189.873 57.5609 190.197C55.8638 190.909 54.1771 191.61 52.4276 192.165C50.6781 192.72 49.1066 192.992 47.4514 193.452C45.9547 193.907 44.5084 194.514 43.1352 195.263C41.4523 196.163 39.601 196.705 37.6981 196.854C34.4505 197.105 31.4124 196.781 28.3533 198.089C25.2943 199.397 22.0676 201.166 18.9247 202.715C18.1705 203.092 18.8409 204.223 19.5847 203.846V203.846Z" fill="#231F20"/>
<path d="M21.9715 211.037C28.8543 209.425 34.92 205.354 41.8762 204.129C45.0191 203.585 48.2562 203.522 51.1686 202.151C52.5654 201.372 53.8574 200.419 55.0134 199.314C56.5913 198.004 58.5669 197.266 60.6181 197.221C61.4562 197.221 61.4562 195.881 60.6181 195.913C59.0155 195.947 57.4421 196.348 56.0191 197.085C54.4686 197.901 53.3686 199.178 51.9543 200.225C49.0629 202.318 45.3229 202.318 41.9496 202.842C34.7838 203.993 28.6029 208.18 21.5838 209.823C20.7667 210.011 21.1124 211.278 21.9296 211.079L21.9715 211.037Z" fill="#231F20"/>
<path d="M24.1322 218.332C25.3162 217.007 26.7894 215.972 28.4379 215.307C30.2132 214.885 32.022 214.619 33.8436 214.512C37.1544 214.035 40.3813 213.094 43.4294 211.717C44.9425 211.015 46.415 210.229 47.8398 209.362C49.492 208.446 51.3364 207.93 53.2246 207.855C54.6037 207.699 55.9463 207.309 57.1951 206.704C58.8084 205.961 60.3379 205.071 62.2027 205.144C63.0408 205.144 63.0408 203.867 62.2027 203.836C60.7414 203.838 59.3028 204.198 58.0122 204.883C56.3851 205.768 54.6101 206.35 52.7741 206.599C51.1725 206.661 49.5989 207.038 48.1436 207.709C46.457 208.577 44.9065 209.624 43.1884 210.419C39.6768 212.046 35.9153 213.069 32.0627 213.444C30.3698 213.506 28.7003 213.86 27.1284 214.491C25.657 215.257 24.3254 216.266 23.1894 217.474C22.5922 218.071 23.5141 218.992 24.1217 218.406L24.1322 218.332Z" fill="#231F20"/>
<path d="M26.3944 226.203C29.7782 225.941 32.8686 224.109 35.9277 222.759C37.8134 221.929 39.7096 221.13 41.6163 220.362C43.1982 219.724 44.8429 218.824 46.5925 218.876C48.0803 219.013 49.5806 218.885 51.0239 218.499C52.4814 217.991 53.8629 217.286 55.1306 216.406C58.0639 214.47 60.8296 211.853 64.4648 211.382C65.2925 211.267 65.3029 209.958 64.4648 210.074C61.2487 210.492 58.682 212.282 56.0839 214.135C54.7237 215.175 53.2598 216.073 51.7153 216.814C50.0832 217.476 48.314 217.732 46.561 217.557C45.0359 217.625 43.5429 218.018 42.182 218.709C40.5617 219.357 38.9448 220.027 37.3315 220.718C35.6134 221.44 33.9163 222.194 32.2191 222.958C30.393 223.933 28.4117 224.585 26.3629 224.884C25.5353 224.947 25.5248 226.255 26.3629 226.192L26.3944 226.203Z" fill="#231F20"/>
<path d="M30.1235 233.76L30.6054 232.106C30.6752 231.617 30.8163 231.141 31.0245 230.693C31.0245 230.39 31.1712 230.358 31.454 230.578C31.7369 230.798 31.9883 230.756 32.2502 230.861C32.5121 230.965 33.0359 231.206 33.434 231.352C34.8547 231.897 36.4335 231.855 37.8235 231.237C39.7512 230.442 41.2597 228.872 43.2188 228.097C45.0102 227.417 46.9797 227.511 48.8131 226.956C50.4059 226.375 51.9084 225.572 53.2759 224.57C55.0123 223.567 56.8355 222.723 58.7235 222.048C60.4312 221.336 61.9607 220.404 63.5845 219.536C64.4672 219.225 65.3802 219.007 66.3083 218.887C67.0341 218.657 67.6852 218.238 68.194 217.673C68.7807 217.066 67.8588 216.144 67.2721 216.752C66.2978 217.798 65.334 217.589 64.1293 217.903C63.4779 218.113 62.8604 218.416 62.2959 218.803C60.4114 219.893 58.4342 220.814 56.3874 221.556C54.693 222.254 53.0747 223.124 51.5578 224.151C49.9555 225.205 48.1367 225.884 46.2359 226.14C44.4342 226.309 42.6867 226.847 41.1026 227.721C39.3321 228.767 37.5197 230.547 35.2988 230.431C33.895 230.369 31.9045 228.61 30.5321 229.249C30.3664 229.334 30.2208 229.454 30.1052 229.6C29.9896 229.746 29.9065 229.916 29.8616 230.096C29.475 231.174 29.1463 232.271 28.8769 233.383C28.8432 233.546 28.8727 233.716 28.9595 233.859C29.0463 234.001 29.184 234.106 29.3447 234.151C29.5055 234.196 29.6774 234.179 29.8258 234.102C29.9742 234.026 30.0881 233.896 30.1445 233.739L30.1235 233.76Z" fill="#231F20"/>
<path d="M34.9756 240.039C40.8632 235.727 48.1861 234.544 54.8071 231.802C57.8194 230.618 60.6076 228.93 63.0518 226.809C64.2555 225.549 65.8166 224.687 67.5252 224.339C68.997 224.202 70.424 223.76 71.7156 223.041C72.4071 222.581 71.7156 221.45 71.0556 221.911C69.6518 222.842 68.0071 222.853 66.4147 223.23C65.0288 223.599 63.7621 224.32 62.7375 225.323C60.071 227.696 56.9976 229.568 53.6651 230.849C47.1594 233.414 40.0461 234.68 34.3366 238.888C33.6661 239.38 34.3366 240.521 34.9966 240.018L34.9756 240.039Z" fill="#231F20"/>
<path d="M18.6951 193.84C25.2637 195.933 30.8999 189.936 36.7875 188.167C38.494 187.656 40.2498 187.326 42.0256 187.183C43.2513 187.089 44.8856 187.413 46.017 186.859C46.4309 186.667 46.754 186.321 46.918 185.896C47.3056 184.964 47.2532 184.284 48.4684 184.127C50.3856 183.865 52.3237 183.687 54.2618 183.467C55.0894 183.373 55.0894 182.065 54.2618 182.159C52.4075 182.368 50.5637 182.567 48.7199 182.787C47.7351 182.902 46.6246 182.965 46.0903 183.938C45.556 184.912 45.8389 185.582 44.6865 185.802C43.9574 185.849 43.2261 185.849 42.497 185.802C40.8904 185.893 39.2952 186.128 37.7303 186.503C34.6816 187.337 31.7652 188.595 29.0665 190.239C25.997 191.966 22.5713 193.662 18.9884 192.542C18.1818 192.291 17.8361 193.589 18.6427 193.798L18.6951 193.84Z" fill="#231F20"/>
<path d="M26.49 147.389L18.4653 148.98C16.1165 149.334 13.7876 149.809 11.4881 150.404C10.6412 150.61 9.87008 151.052 9.26388 151.678C8.65769 152.304 8.24116 153.089 8.06243 153.941C7.60137 155.834 7.44576 157.788 7.60147 159.73C7.64467 160.605 7.8707 161.461 8.26503 162.244C8.65936 163.026 9.21326 163.718 9.89112 164.274C10.569 164.83 11.3558 165.238 12.201 165.472C13.0462 165.706 13.931 165.761 14.7986 165.633C15.713 165.531 16.6087 165.302 17.4596 164.952C18.4443 164.544 19.2929 163.801 20.2672 163.414C20.6758 163.006 21.1577 163.047 21.6919 163.529C21.8491 163.78 22.0062 164.031 22.1529 164.283C22.4986 164.858 22.8338 165.434 23.2005 165.999L25.2957 169.443C25.3544 169.54 25.4373 169.621 25.5365 169.677C25.6356 169.733 25.7476 169.762 25.8615 169.762C25.9754 169.762 26.0873 169.733 26.1865 169.677C26.2856 169.621 26.3685 169.54 26.4272 169.443C28.24 167.037 29.5607 164.299 30.3138 161.383C30.3627 161.009 30.4505 160.64 30.5757 160.284L30.6491 159.907L31.6967 159.447C32.1681 159.447 32.6605 160.651 32.9957 161.027C33.3223 161.415 33.7488 161.705 34.229 161.868C34.7091 162.03 35.2246 162.058 35.7196 161.948C38.15 161.383 38.8624 158.808 38.6005 156.663C38.3176 154.297 37.7834 151.88 35.311 151.021C34.0538 150.592 32.4615 150.561 31.6967 149.305C30.9319 148.049 31.0786 146.594 30.9424 145.265C30.7329 143.171 29.8948 140.942 27.5377 140.67C25.1805 140.398 22.8653 141.852 21.2519 143.433C20.3445 144.337 19.5205 145.322 18.79 146.374C17.9708 147.274 17.4702 148.417 17.3653 149.629C17.4281 151.095 18.6958 151.335 19.5234 152.246C19.9071 152.855 20.1967 153.518 20.3824 154.214C20.6414 154.773 20.9959 155.283 21.43 155.721C22.2525 156.567 23.3067 157.151 24.4604 157.401C25.6141 157.65 26.8158 157.554 27.9148 157.123L27.1815 156.16C25.9977 158.662 24.2796 161.781 20.9796 160.986C18.5072 160.399 14.4005 156.673 17.2186 154.266C18.2999 153.478 19.5292 152.915 20.8329 152.612L25.6519 151.136L27.0977 150.686C27.2862 150.624 27.8729 150.33 28.0615 150.393C28.6062 150.561 28.5643 151.932 28.3758 152.392C27.831 153.722 26.4796 153.083 26.1024 152.026C25.8872 151.045 25.9636 150.023 26.3224 149.085C26.3502 148.923 26.3168 148.757 26.2286 148.619C26.1405 148.481 26.0039 148.38 25.8456 148.337C25.6873 148.294 25.5186 148.311 25.3724 148.386C25.2262 148.46 25.113 148.586 25.0548 148.74C24.6567 150.31 24.2691 152.194 25.4738 153.533C25.6708 153.791 25.9171 154.006 26.1984 154.168C26.4798 154.329 26.7904 154.433 27.1123 154.473C27.4342 154.512 27.7608 154.488 28.073 154.4C28.3853 154.313 28.677 154.164 28.931 153.962C29.3878 153.396 29.6858 152.719 29.7944 152C29.903 151.281 29.8183 150.546 29.5491 149.87C28.8996 148.237 26.6681 149.451 25.5472 149.797C23.3786 150.467 21.1367 151.032 19.0205 151.89C17.5934 152.305 16.3421 153.176 15.4586 154.371C13.5834 157.406 17.0824 160.944 19.7434 162.011C23.9967 163.728 26.6786 160.326 28.3129 156.872C28.5224 156.422 28.1558 155.668 27.5691 155.909C26.642 156.301 25.6135 156.385 24.6348 156.15C23.6561 155.914 22.7788 155.371 22.1319 154.601C21.4615 153.784 21.3986 152.759 20.8853 151.869C20.3719 150.979 18.9786 150.686 18.79 149.619C18.6015 148.551 19.6596 147.295 20.351 146.395C21.0837 145.409 21.9273 144.51 22.8653 143.716C24.751 142.166 28.3129 140.753 29.3291 143.914C29.8843 145.683 29.4967 147.62 30.2196 149.357C30.9424 151.095 32.4929 151.628 34.2319 152.11C34.8631 152.212 35.4479 152.505 35.9084 152.948C36.3689 153.391 36.6831 153.964 36.8091 154.59C37.289 155.931 37.4258 157.37 37.2072 158.777C36.8824 160.012 35.3948 161.32 34.1377 160.358C33.3519 159.75 33.09 158.735 32.1681 158.264C31.8561 158.062 31.4923 157.955 31.1205 157.955C30.7488 157.955 30.3849 158.062 30.0729 158.264C29.2243 158.882 29.1824 160.138 28.9519 161.059C28.2184 163.862 26.9406 166.494 25.191 168.804H26.3224C25.1491 166.847 24.07 164.764 22.771 162.89C22.6218 162.615 22.4125 162.376 22.1585 162.192C21.9045 162.007 21.6124 161.883 21.3037 161.826C20.9949 161.77 20.6775 161.784 20.3748 161.867C20.0721 161.949 19.7919 162.099 19.5548 162.304C17.711 163.414 15.8462 164.513 13.6148 164.398C12.587 164.382 11.5914 164.037 10.7748 163.413C9.95811 162.789 9.36353 161.92 9.07861 160.933C8.6769 159.009 8.69477 157.02 9.13099 155.103C9.1408 154.526 9.28055 153.958 9.53987 153.441C9.7992 152.925 10.1715 152.473 10.6291 152.12C11.4019 151.693 12.2473 151.413 13.1224 151.293C17.6796 150.362 22.2681 149.504 26.8357 148.603C27.6634 148.446 27.3177 147.18 26.49 147.347V147.389Z" fill="#231F20"/>
<path d="M20.0664 14.9644V26.6347L102.304 23.3168L103.844 10.0137L20.0664 14.9644Z" fill="#231F20"/>
</svg>
