<svg width="300" height="300" viewBox="0 0 300 300" fill="none" xmlns="http://www.w3.org/2000/svg">
<path d="M171.208 80.6632L241.648 73.0132C241.988 72.9764 242.333 73.0167 242.655 73.1311C242.978 73.2456 243.271 73.4312 243.512 73.6742C243.753 73.9172 243.936 74.2115 244.048 74.535C244.16 74.8586 244.197 75.2032 244.158 75.5432C243.258 83.1332 241.158 104.543 243.688 123.193C245.308 135.193 250.798 146.333 254.688 151.023C254.921 151.305 255.083 151.64 255.159 151.998C255.235 152.356 255.224 152.727 255.126 153.079C255.028 153.432 254.845 153.756 254.595 154.023C254.345 154.29 254.034 154.492 253.688 154.613C241.688 159.003 203.688 172.973 196.828 176.663C196.446 176.87 196.012 176.965 195.578 176.934C195.144 176.904 194.728 176.751 194.378 176.493C192.518 175.103 188.678 171.843 182.288 164.673C172.618 153.823 168.398 133.893 169.098 82.9032C169.106 82.3338 169.328 81.7881 169.718 81.3736C170.109 80.959 170.64 80.7056 171.208 80.6632V80.6632Z" stroke="#231F20" stroke-miterlimit="10"/>
<path d="M185.637 86.4641V93.7741L229.637 87.6341V79.9141L185.637 86.4641Z" fill="#231F20"/>
<path d="M175.855 108.024C180.735 106.524 185.615 104.754 190.575 103.574C193.206 102.996 195.925 102.945 198.575 103.424C200.858 103.845 203.167 104.112 205.485 104.224C207.762 104.228 210.024 103.849 212.175 103.104C214.571 102.273 217.054 101.716 219.575 101.444C221.945 101.234 224.315 101.134 226.665 100.774C229.015 100.414 231.665 99.7741 234.085 99.2341C234.865 99.0441 234.535 97.8341 233.745 98.0241C231.295 98.6041 228.835 99.1941 226.335 99.5741C223.835 99.9541 221.215 100.004 218.655 100.284C216.335 100.588 214.053 101.131 211.845 101.904C209.502 102.689 207.033 103.028 204.565 102.904C202.125 102.774 199.735 102.264 197.315 101.964C194.938 101.679 192.528 101.832 190.205 102.414C185.205 103.594 180.365 105.364 175.485 106.864C174.715 107.104 175.045 108.304 175.815 108.064L175.855 108.024Z" fill="#231F20"/>
<path d="M177.658 118.905C185.658 118.385 193.268 115.605 201.148 114.305C205.122 113.751 209.141 113.584 213.148 113.805C216.708 113.895 220.398 113.805 223.708 112.325C225.598 111.475 227.208 110.155 229.068 109.265C231.402 108.158 234.01 107.762 236.568 108.125C237.358 108.225 237.698 107.025 236.908 106.915C233.226 106.43 229.493 107.293 226.398 109.345C224.754 110.48 222.947 111.357 221.038 111.945C219.092 112.407 217.097 112.622 215.098 112.585C211.188 112.585 207.328 112.265 203.428 112.725C199.442 113.273 195.495 114.068 191.608 115.105C187.025 116.363 182.34 117.216 177.608 117.655C176.808 117.655 176.798 118.955 177.608 118.905H177.658Z" fill="#231F20"/>
<path d="M178.886 129.985C180.472 128.773 182.219 127.787 184.076 127.055C186.052 126.448 188.133 126.261 190.186 126.505C194.111 126.822 198.058 126.738 201.966 126.255C205.742 125.749 209.448 124.819 213.016 123.485C214.721 122.739 216.484 122.13 218.286 121.665C220.386 121.255 222.506 121.745 224.616 121.765C228.806 121.815 232.766 119.015 236.956 119.925C237.746 120.095 238.076 118.925 237.286 118.725C233.646 117.925 230.366 119.725 226.856 120.325C224.686 120.725 222.566 120.325 220.396 120.245C218.461 120.279 216.551 120.693 214.776 121.465C207.135 124.544 198.896 125.854 190.676 125.295C188.423 125.013 186.136 125.176 183.946 125.775C181.904 126.537 179.984 127.591 178.246 128.905C177.596 129.365 178.246 130.445 178.886 129.985V129.985Z" fill="#231F20"/>
<path d="M180.675 141.754C184.565 142.134 188.355 140.754 192.065 139.814C196.145 138.748 200.245 137.748 204.365 136.814C206.225 136.394 208.285 135.674 210.215 135.814C212.145 135.954 213.895 136.714 215.865 136.664C219.535 136.574 222.995 135.044 226.235 133.444C230.235 131.444 234.305 129.284 238.885 129.444C239.695 129.444 239.685 128.224 238.885 128.194C231.045 127.864 225.145 134.024 217.675 135.194C215.665 135.441 213.626 135.288 211.675 134.744C210.012 134.448 208.303 134.53 206.675 134.984C202.635 135.864 198.609 136.811 194.595 137.824C190.125 138.954 185.365 140.904 180.705 140.454C179.905 140.384 179.905 141.634 180.705 141.704L180.675 141.754Z" fill="#231F20"/>
<path d="M183.758 153.714L185.148 150.844C185.324 150.338 185.559 149.855 185.848 149.404C186.368 148.784 186.918 149.234 187.518 149.574C189.088 150.474 190.518 151.574 192.348 151.874C196.808 152.534 200.348 149.124 204.528 148.404C206.808 148.014 209.118 148.404 211.418 148.244C213.388 148.093 215.316 147.603 217.118 146.794C219.062 145.876 221.066 145.094 223.118 144.454C225.278 143.894 227.488 143.584 229.648 143.004C230.808 142.684 231.958 142.324 233.088 141.914C234.265 141.334 235.512 140.907 236.798 140.644C237.88 140.709 238.966 140.709 240.048 140.644C240.95 140.429 241.791 140.012 242.508 139.424C243.138 138.934 242.248 138.054 241.618 138.544C239.708 140.024 237.618 139.064 235.518 139.694C233.418 140.324 231.438 141.274 229.318 141.844C227.198 142.414 224.948 142.734 222.788 143.304C220.879 143.87 219.014 144.575 217.208 145.414C215.123 146.393 212.86 146.937 210.558 147.014C208.45 146.899 206.336 146.959 204.238 147.194C199.968 147.954 195.598 152.194 191.118 150.194C189.608 149.514 187.818 147.564 186.118 147.684C185.118 147.754 184.838 148.794 184.458 149.564L182.768 153.054C182.418 153.774 183.498 154.404 183.848 153.684L183.758 153.714Z" fill="#231F20"/>
<path d="M189.548 163.595C196.778 159.905 204.938 159.065 212.848 157.825C216.623 157.304 220.354 156.499 224.008 155.415C227.54 154.262 230.903 152.645 234.008 150.605C235.965 149.372 238.247 148.756 240.558 148.835C242.534 148.97 244.515 148.662 246.358 147.935C247.088 147.605 246.448 146.525 245.728 146.855C243.838 147.735 241.728 147.545 239.728 147.595C238.062 147.584 236.415 147.946 234.908 148.655C233.158 149.525 231.608 150.755 229.908 151.655C228.126 152.589 226.27 153.371 224.358 153.995C216.988 156.435 209.178 156.905 201.598 158.405C197.223 159.189 192.979 160.579 188.988 162.535C188.268 162.895 188.908 163.975 189.618 163.605L189.548 163.595Z" fill="#231F20"/>
<path d="M55.2082 189.495C52.5382 183.645 42.6682 157.795 45.5082 99.4948C45.5413 98.7882 45.8342 98.1188 46.3307 97.615C46.8271 97.1111 47.4922 96.8084 48.1982 96.7648L132.688 91.1648C133.419 91.1153 134.142 91.3464 134.708 91.8108C135.275 92.2753 135.643 92.9383 135.738 93.6648L134.858 113.325C134.72 114.693 134.676 116.07 134.728 117.445L135.028 132.245L85.3382 135.595C84.7615 135.634 84.2099 135.845 83.7551 136.202C83.3004 136.559 82.9634 137.044 82.7882 137.595L65.7882 190.335C65.5706 191.016 65.1065 191.591 64.4869 191.948C63.8672 192.305 63.1366 192.418 62.4382 192.265L57.2082 191.105C56.773 191.009 56.3659 190.814 56.0188 190.535C55.6718 190.256 55.3943 189.9 55.2082 189.495V189.495Z" stroke="#231F20" stroke-miterlimit="10"/>
<path d="M91.2059 208.284C88.9259 203.124 81.5859 182.794 83.6859 138.214C83.7189 137.509 84.0104 136.841 84.5047 136.338C84.9991 135.834 85.6617 135.53 86.3659 135.484L151.836 131.144C152.559 131.108 153.268 131.345 153.824 131.808C154.38 132.271 154.741 132.927 154.836 133.644L154.206 163.414L115.446 166.124C114.869 166.163 114.318 166.375 113.863 166.732C113.408 167.088 113.071 167.574 112.896 168.124L99.8359 208.714C99.6163 209.396 99.1503 209.972 98.529 210.329C97.9077 210.686 97.1757 210.798 96.4759 210.644L93.2059 209.934C92.7671 209.834 92.3577 209.633 92.0105 209.346C91.6633 209.06 91.3878 208.696 91.2059 208.284V208.284Z" stroke="#231F20" stroke-miterlimit="10"/>
<path d="M119.075 226.244C116.965 221.244 111.365 204.244 112.985 168.684C113.018 167.975 113.31 167.303 113.806 166.796C114.302 166.289 114.968 165.982 115.675 165.934L168.915 162.414C169.319 162.388 169.724 162.448 170.103 162.589C170.483 162.73 170.828 162.948 171.117 163.231C171.407 163.514 171.634 163.854 171.783 164.23C171.933 164.606 172.002 165.01 171.985 165.414L171.345 175.784C170.704 186.268 172.138 196.775 175.565 206.704L179.415 217.864C179.531 218.203 179.57 218.564 179.528 218.919C179.486 219.275 179.364 219.617 179.172 219.919C178.98 220.222 178.722 220.477 178.418 220.667C178.114 220.856 177.771 220.975 177.415 221.014L121.525 227.654C121.02 227.713 120.508 227.608 120.067 227.354C119.626 227.1 119.278 226.711 119.075 226.244V226.244Z" stroke="#231F20" stroke-miterlimit="10"/>
<path d="M64.3555 192.033L85.7455 189.943" stroke="#231F20" stroke-miterlimit="10"/>
<path d="M97.1875 210.715L114.958 208.635" stroke="#231F20" stroke-miterlimit="10"/>
<path d="M124.877 219.814C130.357 217.614 136.327 217.814 142.127 217.714C148.421 217.627 154.707 217.321 160.987 216.794C164.507 216.494 168.024 216.127 171.537 215.694C172.167 215.614 172.177 214.614 171.537 214.694C165.244 215.474 158.934 216.031 152.607 216.364C149.407 216.537 146.201 216.651 142.987 216.704C140.067 216.704 137.137 216.704 134.217 216.904C130.934 217.04 127.693 217.698 124.617 218.854C124.027 219.084 124.277 220.054 124.877 219.854V219.814Z" fill="#231F20"/>
<path d="M123.028 210.914C135.508 210.774 147.948 209.684 160.388 208.714L165.558 208.304C166.558 208.234 168.448 208.374 168.668 207.054C168.778 206.424 167.818 206.154 167.668 206.784C167.518 207.414 166.508 207.234 166.128 207.254L163.918 207.434L159.488 207.784L150.708 208.464C144.828 208.914 138.948 209.344 133.068 209.614C129.735 209.774 126.375 209.874 122.988 209.914C122.856 209.914 122.729 209.967 122.635 210.061C122.541 210.155 122.488 210.282 122.488 210.414C122.488 210.547 122.541 210.674 122.635 210.768C122.729 210.862 122.856 210.914 122.988 210.914H123.028Z" fill="#231F20"/>
<path d="M122.126 201.234C127.986 201.614 133.796 200.594 139.566 199.644C142.566 199.154 145.566 198.644 148.566 198.434C151.608 198.199 154.664 198.199 157.706 198.434C161.246 198.714 164.706 199.224 168.266 199.744C168.896 199.834 169.176 198.874 168.536 198.744C162.396 197.844 156.196 196.944 149.976 197.284C143.976 197.614 138.136 198.954 132.206 199.724C128.872 200.199 125.5 200.35 122.136 200.174C121.496 200.174 121.496 201.174 122.136 201.174L122.126 201.234Z" fill="#231F20"/>
<path d="M124.987 193.414C134.773 193.403 144.544 192.617 154.207 191.064C156.905 190.475 159.689 190.394 162.417 190.824C163.047 190.964 163.317 190.004 162.687 189.824C160.371 189.413 158.002 189.413 155.687 189.824C153.207 190.164 150.687 190.594 148.247 190.914C143.333 191.541 138.4 191.971 133.447 192.204C130.627 192.331 127.803 192.391 124.977 192.384C124.844 192.384 124.717 192.437 124.623 192.531C124.529 192.624 124.477 192.752 124.477 192.884C124.477 193.017 124.529 193.144 124.623 193.238C124.717 193.332 124.844 193.384 124.977 193.384L124.987 193.414Z" fill="#231F20"/>
<path d="M120.207 184.795C131.347 183.981 142.493 183.331 153.647 182.845C156.787 182.705 159.937 182.585 163.077 182.475C163.717 182.475 163.717 181.475 163.077 181.475C151.917 181.861 140.763 182.418 129.617 183.145C126.477 183.355 123.347 183.565 120.207 183.795C119.567 183.845 119.567 184.845 120.207 184.795Z" fill="#231F20"/>
<path d="M123.735 176.114C133.856 174.412 144.078 173.386 154.335 173.044C157.255 172.957 160.169 172.917 163.075 172.924C163.208 172.924 163.335 172.871 163.429 172.777C163.523 172.684 163.575 172.556 163.575 172.424C163.575 172.291 163.523 172.164 163.429 172.07C163.335 171.977 163.208 171.924 163.075 171.924C152.731 171.881 142.395 172.526 132.135 173.854C129.235 174.234 126.355 174.664 123.475 175.144C122.845 175.254 123.105 176.224 123.735 176.144V176.114Z" fill="#231F20"/>
<path d="M93.3861 201.965C95.7063 201.847 98.0083 201.492 100.256 200.905C100.389 200.869 100.502 200.782 100.57 200.663C100.639 200.544 100.657 200.402 100.621 200.27C100.585 200.137 100.498 200.024 100.379 199.956C100.26 199.887 100.119 199.869 99.9861 199.905C97.8269 200.467 95.6149 200.802 93.3861 200.905C92.7461 200.905 92.7361 201.905 93.3861 201.905V201.965Z" fill="#231F20"/>
<path d="M90.8588 195.334C94.1388 195.174 97.4288 194.974 100.709 194.734C101.349 194.734 101.359 193.734 100.709 193.734C97.4288 193.974 94.1388 194.174 90.8588 194.334C90.2188 194.334 90.2088 195.334 90.8588 195.334Z" fill="#231F20"/>
<path d="M90.5778 187.474L103.808 186.414C104.438 186.364 104.448 185.364 103.808 185.414L90.5778 186.474C89.9478 186.524 89.9378 187.524 90.5778 187.474Z" fill="#231F20"/>
<path d="M89.4359 179.804C90.8486 179.757 92.2496 179.532 93.6059 179.134C94.9459 178.734 96.3059 177.794 97.7259 178.304C98.3459 178.524 98.9159 178.884 99.5159 179.134C100.117 179.394 100.749 179.575 101.396 179.674C102.741 179.883 104.117 179.749 105.396 179.284C105.996 179.064 105.746 178.104 105.136 178.284C103.835 178.772 102.42 178.866 101.066 178.554C99.7959 178.254 98.7259 177.384 97.4459 177.144C96.1659 176.904 94.9959 177.614 93.8159 178.004C92.4128 178.464 90.9517 178.723 89.4759 178.774C88.8359 178.774 88.8259 179.774 89.4759 179.774L89.4359 179.804Z" fill="#231F20"/>
<path d="M88.8981 171.645C94.9685 170.867 101.092 170.583 107.208 170.795C107.858 170.795 107.858 169.795 107.208 169.795C101.092 169.583 94.9685 169.867 88.8981 170.645C88.2681 170.735 88.2581 171.735 88.8981 171.645Z" fill="#231F20"/>
<path d="M89.1159 163.714C97.1487 163.688 105.169 163.087 113.116 161.914C121.116 160.914 129.056 159.694 137.116 159.184C141.627 158.883 146.153 158.866 150.666 159.134C151.306 159.134 151.306 158.134 150.666 158.134C142.652 157.737 134.619 158.072 126.666 159.134C118.666 160.084 110.666 161.344 102.666 162.084C98.1531 162.524 93.62 162.724 89.0859 162.684C88.9533 162.684 88.8261 162.737 88.7324 162.831C88.6386 162.924 88.5859 163.052 88.5859 163.184C88.5859 163.317 88.6386 163.444 88.7324 163.538C88.8261 163.631 88.9533 163.684 89.0859 163.684L89.1159 163.714Z" fill="#231F20"/>
<path d="M88.3576 154.234C92.0676 154.894 95.8077 154.514 99.5277 154.164C103.401 153.791 107.271 153.458 111.138 153.164C118.891 152.584 126.651 152.158 134.418 151.884C138.791 151.738 143.168 151.634 147.548 151.574C147.68 151.574 147.807 151.522 147.901 151.428C147.995 151.334 148.048 151.207 148.048 151.074C148.048 150.942 147.995 150.814 147.901 150.721C147.807 150.627 147.68 150.574 147.548 150.574C132.174 150.768 116.841 151.564 101.548 152.964C97.2876 153.354 92.9176 154.014 88.6576 153.264C88.0276 153.144 87.7577 154.114 88.3977 154.264L88.3576 154.234Z" fill="#231F20"/>
<path d="M92.4369 146.605C99.5669 147.895 106.617 145.855 113.627 144.805C120.971 143.834 128.402 143.696 135.777 144.395C139.947 144.715 144.117 145.175 148.277 145.635C148.917 145.705 148.917 144.705 148.277 144.635C140.954 143.698 133.587 143.144 126.207 142.975C122.531 142.938 118.856 143.142 115.207 143.585C111.747 144.025 108.347 144.755 104.907 145.315C100.892 146.119 96.7693 146.231 92.7169 145.645C92.0969 145.525 91.8269 146.485 92.4569 146.645L92.4369 146.605Z" fill="#231F20"/>
<path d="M58.0071 184.574C60.2582 184.031 62.5546 183.697 64.8671 183.574C65.5171 183.574 65.5171 182.574 64.8671 182.574C62.4646 182.687 60.0778 183.022 57.7371 183.574C57.1171 183.724 57.3771 184.694 58.0071 184.574Z" fill="#231F20"/>
<path d="M57.6685 177.855C60.3896 177.155 63.2053 176.895 66.0085 177.085C66.6485 177.085 66.6485 176.085 66.0085 176.085C63.1137 175.893 60.2069 176.167 57.3985 176.895C57.3329 176.912 57.2713 176.943 57.2175 176.984C57.1636 177.026 57.1184 177.078 57.0845 177.137C57.0161 177.256 56.9977 177.397 57.0335 177.53C57.0693 177.662 57.1564 177.775 57.2754 177.844C57.3945 177.912 57.5359 177.93 57.6685 177.895V177.855Z" fill="#231F20"/>
<path d="M55.8472 170.273C60.5472 170.553 65.2872 169.803 69.9472 169.343C70.5872 169.283 70.5872 168.273 69.9472 168.343C65.2872 168.803 60.5472 169.553 55.8472 169.273C55.2072 169.273 55.2072 170.273 55.8472 170.273V170.273Z" fill="#231F20"/>
<path d="M54.148 163.135C60.0822 163.34 66.0234 163.18 71.938 162.655C72.568 162.595 72.578 161.595 71.938 161.655C66.0234 162.18 60.0822 162.34 54.148 162.135C53.508 162.135 53.508 163.135 54.148 163.135Z" fill="#231F20"/>
<path d="M52.6051 155.615C54.1786 155.945 55.8002 155.975 57.3851 155.705C59.0951 155.485 60.7951 155.235 62.5151 155.115C65.9361 154.878 69.3721 154.972 72.7751 155.395C73.4051 155.465 73.4051 154.465 72.7751 154.395C69.4582 153.985 66.1101 153.888 62.7751 154.105C61.1651 154.205 59.5751 154.405 57.9851 154.625C56.3045 154.955 54.5757 154.955 52.8951 154.625C52.7625 154.589 52.6211 154.607 52.502 154.676C52.3829 154.744 52.2959 154.857 52.2601 154.99C52.2243 155.122 52.2426 155.264 52.3111 155.383C52.3795 155.502 52.4925 155.589 52.6251 155.625L52.6051 155.615Z" fill="#231F20"/>
<path d="M51.8281 147.574C52.8177 147.936 53.8493 148.171 54.8981 148.274C55.7973 148.292 56.6912 148.133 57.5281 147.804C58.4081 147.484 59.2581 147.064 60.1681 146.804C61.2156 146.544 62.3107 146.544 63.3581 146.804C64.3581 147.004 65.2781 147.254 66.2581 147.364C67.3385 147.464 68.4248 147.484 69.5081 147.424C71.7281 147.344 73.9381 147.244 76.1581 147.154C76.7981 147.154 76.7981 146.154 76.1581 146.154C73.9381 146.244 71.7281 146.344 69.5081 146.424C68.5092 146.488 67.5071 146.488 66.5081 146.424C65.5081 146.324 64.4481 146.034 63.4081 145.834C62.4959 145.629 61.5546 145.588 60.6281 145.714C59.7416 145.897 58.8792 146.182 58.0581 146.564C57.2157 146.967 56.3083 147.218 55.3781 147.304C54.2603 147.276 53.1563 147.049 52.1181 146.634C51.5081 146.434 51.2381 147.404 51.8481 147.634L51.8281 147.574Z" fill="#231F20"/>
<path d="M52.777 139.214C57.077 138.804 61.387 138.404 65.717 138.394C67.8512 138.377 69.9845 138.481 72.107 138.704C74.206 139.015 76.3251 139.172 78.447 139.174C79.087 139.174 79.097 138.174 78.447 138.174C76.3656 138.174 74.2868 138.024 72.227 137.724C70.0652 137.489 67.8916 137.379 65.717 137.394C61.387 137.394 57.077 137.804 52.777 138.214C52.147 138.274 52.137 139.274 52.777 139.214V139.214Z" fill="#231F20"/>
<path d="M51.0688 130.054L81.7988 129.184C86.7146 129.151 91.6237 128.817 96.4987 128.184C98.9187 127.824 101.259 127.184 103.659 126.654C106.201 126.314 108.779 126.355 111.309 126.774L128.309 128.414C128.949 128.474 128.939 127.474 128.309 127.414L113.209 125.964C110.722 125.598 108.212 125.411 105.699 125.404C103.259 125.524 100.909 126.404 98.5188 126.844C93.616 127.681 88.6523 128.109 83.6788 128.124L68.3488 128.564L51.1088 129.054C50.4688 129.054 50.4588 130.054 51.1088 130.054H51.0688Z" fill="#231F20"/>
<path d="M52.6486 121.705L67.4886 119.625L74.9086 118.625C77.3402 118.141 79.8248 117.98 82.2986 118.145C84.6086 118.445 86.7886 119.355 89.0586 119.845C91.3636 120.289 93.7165 120.434 96.0586 120.275C100.989 120.055 105.919 119.595 110.849 119.275L127.779 118.045C128.419 117.995 128.419 116.995 127.779 117.045C117.779 117.765 107.779 118.555 97.7186 119.225C95.3187 119.452 92.9013 119.418 90.5086 119.125C88.1786 118.785 85.9886 117.895 83.6986 117.415C81.3828 117.01 79.0144 117.01 76.6986 117.415C74.1986 117.755 71.6986 118.125 69.1786 118.475L52.3586 120.835C51.7286 120.915 51.9986 121.835 52.6286 121.835L52.6486 121.705Z" fill="#231F20"/>
<path d="M54.4363 111.975C64.1181 112.063 73.798 111.646 83.4362 110.725C85.8062 110.495 88.1662 110.235 90.5462 110.145C92.9783 110.07 95.412 110.22 97.8163 110.595C102.397 111.353 107.033 111.737 111.676 111.745C116.906 111.67 122.109 110.999 127.186 109.745C127.816 109.595 127.546 108.625 126.926 108.745C122.401 109.884 117.769 110.555 113.106 110.745C108.421 110.877 103.734 110.568 99.1062 109.825C96.793 109.424 94.4532 109.197 92.1062 109.145C89.7362 109.145 87.3663 109.365 85.0063 109.595C80.2263 110.065 75.4462 110.445 70.6562 110.685C65.2496 110.945 59.8329 111.051 54.4062 111.005C54.2736 111.005 54.1465 111.057 54.0527 111.151C53.9589 111.245 53.9062 111.372 53.9062 111.505C53.9062 111.637 53.9589 111.764 54.0527 111.858C54.1465 111.952 54.2736 112.005 54.4062 112.005L54.4363 111.975Z" fill="#231F20"/>
<path d="M64.418 100.434V105.884L119.678 103.844L120.718 95.6641L64.418 100.434Z" fill="#231F20"/>
</svg>
