<svg width="1921" height="1080" viewBox="0 0 1921 1080" fill="none" xmlns="http://www.w3.org/2000/svg">
<rect width="1920.06" height="1080" fill="white"/>
<rect x="145" y="280" width="530" height="656" rx="25" fill="url(#paint0_radial)" fill-opacity="0.1"/>
<rect x="695" y="280" width="530" height="656" rx="25" fill="url(#paint1_radial)" fill-opacity="0.1"/>
<rect x="1245" y="280" width="530" height="656" rx="25" fill="url(#paint2_radial)" fill-opacity="0.1"/>
<path d="M321.496 344.755C321.496 346.178 321.146 347.473 320.446 348.64C319.746 349.783 318.696 350.693 317.296 351.37C315.896 352.023 314.134 352.35 312.011 352.35C310.518 352.35 309.188 352.222 308.021 351.965C306.878 351.708 305.758 351.323 304.661 350.81V345.385C305.921 345.968 307.204 346.458 308.511 346.855C309.841 347.252 311.113 347.45 312.326 347.45C313.493 347.45 314.321 347.24 314.811 346.82C315.324 346.4 315.581 345.852 315.581 345.175C315.581 344.358 315.173 343.705 314.356 343.215C313.563 342.725 312.408 342.13 310.891 341.43C309.911 340.963 308.954 340.438 308.021 339.855C307.111 339.248 306.364 338.478 305.781 337.545C305.198 336.588 304.906 335.363 304.906 333.87C304.906 331.537 305.711 329.752 307.321 328.515C308.931 327.278 311.089 326.66 313.796 326.66C315.243 326.66 316.584 326.823 317.821 327.15C319.081 327.477 320.294 327.897 321.461 328.41L319.571 333.065C318.451 332.575 317.401 332.202 316.421 331.945C315.464 331.665 314.531 331.525 313.621 331.525C312.664 331.525 311.953 331.723 311.486 332.12C311.019 332.517 310.786 333.018 310.786 333.625C310.786 334.115 310.949 334.547 311.276 334.92C311.603 335.27 312.116 335.632 312.816 336.005C313.516 336.378 314.438 336.833 315.581 337.37C316.818 337.93 317.879 338.537 318.766 339.19C319.653 339.843 320.329 340.613 320.796 341.5C321.263 342.387 321.496 343.472 321.496 344.755ZM348.743 339.47C348.743 342.06 348.323 344.323 347.483 346.26C346.643 348.173 345.336 349.667 343.563 350.74C341.813 351.813 339.538 352.35 336.738 352.35C333.984 352.35 331.721 351.813 329.948 350.74C328.174 349.667 326.856 348.162 325.993 346.225C325.153 344.288 324.733 342.025 324.733 339.435C324.733 336.845 325.153 334.593 325.993 332.68C326.856 330.767 328.174 329.285 329.948 328.235C331.721 327.162 333.996 326.625 336.773 326.625C339.549 326.625 341.813 327.162 343.563 328.235C345.336 329.285 346.643 330.778 347.483 332.715C348.323 334.628 348.743 336.88 348.743 339.47ZM330.998 339.47C330.998 341.92 331.441 343.845 332.328 345.245C333.238 346.645 334.708 347.345 336.738 347.345C338.791 347.345 340.261 346.645 341.148 345.245C342.034 343.845 342.478 341.92 342.478 339.47C342.478 337.02 342.034 335.095 341.148 333.695C340.284 332.272 338.826 331.56 336.773 331.56C334.719 331.56 333.238 332.272 332.328 333.695C331.441 335.095 330.998 337.02 330.998 339.47ZM359.484 352H353.604V327.01H368.129V331.84H359.484V337.51H367.499V342.34H359.484V352ZM382.897 352H376.947V331.945H370.472V327.01H389.372V331.945H382.897V352ZM417.678 344.755C417.678 346.178 417.328 347.473 416.628 348.64C415.928 349.783 414.878 350.693 413.478 351.37C412.078 352.023 410.316 352.35 408.193 352.35C406.699 352.35 405.369 352.222 404.203 351.965C403.059 351.708 401.939 351.323 400.843 350.81V345.385C402.103 345.968 403.386 346.458 404.693 346.855C406.023 347.252 407.294 347.45 408.508 347.45C409.674 347.45 410.503 347.24 410.993 346.82C411.506 346.4 411.763 345.852 411.763 345.175C411.763 344.358 411.354 343.705 410.538 343.215C409.744 342.725 408.589 342.13 407.073 341.43C406.093 340.963 405.136 340.438 404.203 339.855C403.293 339.248 402.546 338.478 401.963 337.545C401.379 336.588 401.088 335.363 401.088 333.87C401.088 331.537 401.893 329.752 403.503 328.515C405.113 327.278 407.271 326.66 409.978 326.66C411.424 326.66 412.766 326.823 414.003 327.15C415.263 327.477 416.476 327.897 417.643 328.41L415.753 333.065C414.633 332.575 413.583 332.202 412.603 331.945C411.646 331.665 410.713 331.525 409.803 331.525C408.846 331.525 408.134 331.723 407.668 332.12C407.201 332.517 406.968 333.018 406.968 333.625C406.968 334.115 407.131 334.547 407.458 334.92C407.784 335.27 408.298 335.632 408.998 336.005C409.698 336.378 410.619 336.833 411.763 337.37C412.999 337.93 414.061 338.537 414.948 339.19C415.834 339.843 416.511 340.613 416.978 341.5C417.444 342.387 417.678 343.472 417.678 344.755ZM442.614 352H435.824L430.049 341.92L427.914 343.32V352H421.929V327.01H427.914V338.175C428.218 337.662 428.544 337.148 428.894 336.635C429.268 336.122 429.629 335.62 429.979 335.13L436.069 327.01H442.614L434.284 338.14L442.614 352ZM455.907 352H443.762V348.605L446.842 347.31V331.7L443.762 330.405V327.01H455.907V330.405L452.827 331.7V347.31L455.907 348.605V352ZM460.005 352V327.01H465.955V347.135H475.86V352H460.005ZM480.069 352V327.01H486.019V347.135H495.924V352H480.069ZM515.602 344.755C515.602 346.178 515.252 347.473 514.552 348.64C513.852 349.783 512.802 350.693 511.402 351.37C510.002 352.023 508.241 352.35 506.117 352.35C504.624 352.35 503.294 352.222 502.127 351.965C500.984 351.708 499.864 351.323 498.767 350.81V345.385C500.027 345.968 501.311 346.458 502.617 346.855C503.947 347.252 505.219 347.45 506.432 347.45C507.599 347.45 508.427 347.24 508.917 346.82C509.431 346.4 509.687 345.852 509.687 345.175C509.687 344.358 509.279 343.705 508.462 343.215C507.669 342.725 506.514 342.13 504.997 341.43C504.017 340.963 503.061 340.438 502.127 339.855C501.217 339.248 500.471 338.478 499.887 337.545C499.304 336.588 499.012 335.363 499.012 333.87C499.012 331.537 499.817 329.752 501.427 328.515C503.037 327.278 505.196 326.66 507.902 326.66C509.349 326.66 510.691 326.823 511.927 327.15C513.187 327.477 514.401 327.897 515.567 328.41L513.677 333.065C512.557 332.575 511.507 332.202 510.527 331.945C509.571 331.665 508.637 331.525 507.727 331.525C506.771 331.525 506.059 331.723 505.592 332.12C505.126 332.517 504.892 333.018 504.892 333.625C504.892 334.115 505.056 334.547 505.382 334.92C505.709 335.27 506.222 335.632 506.922 336.005C507.622 336.378 508.544 336.833 509.687 337.37C510.924 337.93 511.986 338.537 512.872 339.19C513.759 339.843 514.436 340.613 514.902 341.5C515.369 342.387 515.602 343.472 515.602 344.755Z" fill="#252525"/>
<path d="M774.622 154.093C772.997 153.295 770.887 152.753 768.72 152.753C762.847 152.753 759.112 156.403 759.112 162.162C759.112 168.149 762.875 171.428 768.577 171.428C770.659 171.428 773.025 170.914 774.422 170.145L773.481 166.125C772.141 167.009 770.516 167.579 768.777 167.579C765.555 167.579 763.674 165.44 763.674 162.048C763.674 158.683 765.669 156.602 768.749 156.602C770.345 156.602 771.913 157.087 773.253 157.885L774.622 154.093ZM787.117 153.181H781.444L775.114 171H779.619L780.902 167.208H787.517L788.828 171H793.333L787.117 153.181ZM786.519 163.673H781.871L784.238 156.688L786.519 163.673ZM799.337 165.184L801.418 165.013L804.982 171H810.085L805.523 163.958C807.918 163.046 809.173 161.221 809.173 158.826C809.173 155.376 806.692 153.181 801.959 153.181C802.131 153.181 794.803 153.181 794.803 153.181V171H799.337V165.184ZM799.251 161.82V156.773C799.251 156.773 801.076 156.773 801.161 156.773C803.442 156.773 804.525 157.543 804.525 159.111C804.525 160.822 803.471 161.62 801.532 161.763L799.251 161.82ZM825.001 171V167.351H816.42V163.872H823.319V160.251H816.42V156.83H825.001V153.181H811.972V171H825.001ZM840.695 171V167.351H832.113V163.872H839.012V160.251H832.113V156.83H840.695V153.181H827.665V171H840.695ZM847.892 165.184L849.973 165.013L853.537 171H858.64L854.078 163.958C856.473 163.046 857.728 161.221 857.728 158.826C857.728 155.376 855.247 153.181 850.515 153.181C850.686 153.181 843.358 153.181 843.358 153.181V171H847.892V165.184ZM847.806 161.82V156.773C847.806 156.773 849.631 156.773 849.716 156.773C851.997 156.773 853.081 157.543 853.081 159.111C853.081 160.822 852.026 161.62 850.087 161.763L847.806 161.82ZM883.123 161.962C883.123 156.659 879.559 153.181 873.287 153.181C872.061 153.181 866.587 153.181 866.587 153.181V171C866.587 171 872.888 171 872.973 171C879.502 171 883.123 167.436 883.123 161.962ZM878.561 162.133C878.561 165.697 876.509 167.379 873.23 167.379H871.12V156.802H873.002C876.708 156.802 878.561 158.455 878.561 162.133ZM898.31 171V167.351H889.728V163.872H896.628V160.251H889.728V156.83H898.31V153.181H885.28V171H898.31ZM916.797 153.181H912.064L907.873 166.609L903.653 153.181H898.978L904.993 171H910.667L916.797 153.181ZM931.075 171V167.351H922.493V163.872H929.393V160.251H922.493V156.83H931.075V153.181H918.045V171H931.075ZM945.456 171V167.208H937.987V153.181H933.453V171H945.456ZM964.317 162.019C964.317 156.003 960.297 152.753 954.994 152.753C949.691 152.753 945.642 156.488 945.642 162.133C945.642 168.149 949.662 171.428 954.937 171.428C960.24 171.428 964.317 167.664 964.317 162.019ZM959.755 162.133C959.755 165.469 958.016 167.778 955.022 167.778C951.971 167.778 950.204 165.44 950.204 162.019C950.204 158.683 951.914 156.403 954.937 156.403C957.959 156.403 959.755 158.712 959.755 162.133ZM980.779 159.368C980.779 155.69 978.156 153.181 973.166 153.181C973.138 153.181 966.58 153.181 966.58 153.181V171H971.114V165.84L972.853 165.811C977.956 165.811 980.779 163.53 980.779 159.368ZM976.274 159.482C976.274 161.278 975.162 162.276 972.824 162.304L970.999 162.333V156.773C970.999 156.773 972.396 156.773 972.824 156.773C975.105 156.773 976.274 157.686 976.274 159.482ZM998.163 171H1002.47L1001.87 153.181H995.54L991.834 166.552L988.127 153.181H981.712L981.085 171H985.305L985.419 157.286L989.325 170.715H994.172L998.078 157.258L998.163 171ZM1017.94 171V167.351H1009.36V163.872H1016.26V160.251H1009.36V156.83H1017.94V153.181H1004.91V171H1017.94ZM1032.49 164.756L1025.08 153.181H1020.17V171H1024.42V159.453L1031.92 171.171H1036.74V153.181H1032.49V164.756ZM1054.24 156.973V153.181H1038.36V156.973H1044.04V171H1048.57V156.973H1054.24ZM772.056 189.84L771.97 186.532H767.266V181.686H763.759V186.532H759.055L758.969 189.84H763.759V194.686H767.266V189.84H772.056ZM791.412 182.313L794.862 195H799.594L804.356 177.181H799.708L797.314 189.783L794.063 177.181H788.874L785.681 189.783L783.286 177.181H778.44L783.201 195H787.905L791.412 182.313ZM823.137 186.019C823.137 180.003 819.117 176.753 813.814 176.753C808.511 176.753 804.463 180.488 804.463 186.133C804.463 192.149 808.483 195.428 813.757 195.428C819.06 195.428 823.137 191.664 823.137 186.019ZM818.576 186.133C818.576 189.469 816.837 191.778 813.843 191.778C810.792 191.778 809.025 189.44 809.025 186.019C809.025 182.683 810.735 180.403 813.757 180.403C816.779 180.403 818.576 182.712 818.576 186.133ZM829.792 189.184L831.873 189.013L835.437 195H840.54L835.979 187.958C838.373 187.046 839.628 185.221 839.628 182.826C839.628 179.376 837.147 177.181 832.415 177.181C832.586 177.181 825.259 177.181 825.259 177.181V195H829.792V189.184ZM829.706 185.82V180.773C829.706 180.773 831.531 180.773 831.616 180.773C833.897 180.773 834.981 181.543 834.981 183.111C834.981 184.822 833.926 185.62 831.987 185.763L829.706 185.82ZM846.533 185.05V177.181H842V195H846.533C846.533 195 846.533 187.673 846.533 187.16H846.561L852.435 195H857.852L850.638 185.877L857.681 177.181H852.492L846.561 185.05H846.533ZM869.157 195V177.181H864.624V195H869.157ZM884.667 188.756L877.254 177.181H872.35V195H876.598V183.453L884.097 195.171H888.915V177.181H884.667V188.756ZM906.704 180.973V177.181H890.823V180.973H896.497V195H901.03V180.973H906.704ZM921.659 195V191.351H913.078V187.872H919.977V184.251H913.078V180.83H921.659V177.181H908.63V195H921.659ZM939.783 193.774V184.964H931.287V188.557H935.678V191.18C934.937 191.493 933.853 191.721 932.827 191.721C929.434 191.721 927.638 189.611 927.638 186.048C927.638 182.74 929.691 180.602 932.884 180.602C934.594 180.602 936.334 181.115 938.016 182.085L939.441 178.293C937.731 177.266 935.022 176.753 932.741 176.753C926.897 176.753 923.133 180.317 923.133 186.162C923.133 192.035 927.011 195.428 932.713 195.428C935.307 195.428 937.845 194.829 939.783 193.774ZM947.021 189.184L949.102 189.013L952.666 195H957.769L953.208 187.958C955.603 187.046 956.857 185.221 956.857 182.826C956.857 179.376 954.377 177.181 949.644 177.181C949.815 177.181 942.488 177.181 942.488 177.181V195H947.021V189.184ZM946.935 185.82V180.773C946.935 180.773 948.76 180.773 948.846 180.773C951.126 180.773 952.21 181.543 952.21 183.111C952.21 184.822 951.155 185.62 949.216 185.763L946.935 185.82ZM969.359 177.181H963.685L957.356 195H961.86L963.143 191.208H969.758L971.069 195H975.574L969.359 177.181ZM968.76 187.673H964.113L966.479 180.688L968.76 187.673ZM989.663 180.973V177.181H973.783V180.973H979.456V195H983.99V180.973H989.663ZM1004.62 195V191.351H996.037V187.872H1002.94V184.251H996.037V180.83H1004.62V177.181H991.59V195H1004.62ZM1023.68 185.962C1023.68 180.659 1020.11 177.181 1013.84 177.181C1012.61 177.181 1007.14 177.181 1007.14 177.181V195C1007.14 195 1013.44 195 1013.53 195C1020.06 195 1023.68 191.436 1023.68 185.962ZM1019.11 186.133C1019.11 189.697 1017.06 191.379 1013.78 191.379H1011.67V180.802H1013.56C1017.26 180.802 1019.11 182.455 1019.11 186.133ZM1043.9 195V191.208H1036.43V177.181H1031.89V195H1043.9ZM1059.16 195V191.351H1050.58V187.872H1057.48V184.251H1050.58V180.83H1059.16V177.181H1046.14V195H1059.16ZM1071.89 177.181H1066.22L1059.89 195H1064.39L1065.68 191.208H1072.29L1073.6 195H1078.11L1071.89 177.181ZM1071.29 187.673H1066.65L1069.01 180.688L1071.29 187.673ZM1083.97 189.184L1086.05 189.013L1089.61 195H1094.72L1090.16 187.958C1092.55 187.046 1093.81 185.221 1093.81 182.826C1093.81 179.376 1091.32 177.181 1086.59 177.181C1086.76 177.181 1079.44 177.181 1079.44 177.181V195H1083.97V189.184ZM1083.88 185.82V180.773C1083.88 180.773 1085.71 180.773 1085.79 180.773C1088.07 180.773 1089.16 181.543 1089.16 183.111C1089.16 184.822 1088.1 185.62 1086.16 185.763L1083.88 185.82ZM1108.78 188.756L1101.37 177.181H1096.46V195H1100.71V183.453L1108.21 195.171H1113.03V177.181H1108.78V188.756ZM1120.72 195V177.181H1116.19V195H1120.72ZM1136.23 188.756L1128.82 177.181H1123.92V195H1128.16V183.453L1135.66 195.171H1140.48V177.181H1136.23V188.756ZM1159.52 193.774V184.964H1151.03V188.557H1155.42V191.18C1154.68 191.493 1153.59 191.721 1152.57 191.721C1149.17 191.721 1147.38 189.611 1147.38 186.048C1147.38 182.74 1149.43 180.602 1152.62 180.602C1154.34 180.602 1156.07 181.115 1157.76 182.085L1159.18 178.293C1157.47 177.266 1154.76 176.753 1152.48 176.753C1146.64 176.753 1142.87 180.317 1142.87 186.162C1142.87 192.035 1146.75 195.428 1152.45 195.428C1155.05 195.428 1157.59 194.829 1159.52 193.774Z" fill="#252525"/>
<path d="M763.202 204.953H762.336L759.599 212.17H760.35L761.112 210.103H764.379L765.141 212.17H765.892L763.202 204.953ZM764.125 209.433H761.366L762.751 205.68L764.125 209.433ZM771.289 205.646V204.953H765.469V205.646H768.01V212.17H768.749V205.646H771.289Z" fill="#252525"/>
<path d="M787.006 216.18V214.831H779.824V209.685H785.816V208.359H779.824V203.236H787.006V201.887H778.361V216.18H787.006ZM802.324 216.18H803.811L803.353 201.887H801.41L796.653 214.511L791.827 201.887H789.86L789.38 216.18H790.821L791.073 203.671L795.807 216.089H797.407L802.096 203.694L802.324 216.18ZM808.379 216.18V201.887H806.938V216.18H808.379ZM820.398 216.18V214.808H813.331V201.887H811.867V216.18H820.398ZM831.077 201.887H829.453L825.405 208.999L821.289 201.887H819.642L824.628 210.44V216.18H826.092V210.44L831.077 201.887ZM848.503 202.756C847.451 202.116 845.827 201.59 844.089 201.59C840.087 201.59 837.182 204.517 837.182 209.068C837.182 213.596 839.949 216.478 844.089 216.478C845.758 216.478 847.336 215.997 848.388 215.311L848.114 213.871C847.13 214.602 845.667 215.151 844.112 215.151C840.841 215.151 838.669 212.796 838.669 209.022C838.669 205.134 840.956 202.916 844.066 202.916C845.575 202.916 846.902 203.328 848.045 204.06L848.503 202.756ZM856.757 201.887H855.042L849.622 216.18H851.108L852.618 212.087H859.09L860.599 216.18H862.086L856.757 201.887ZM858.587 210.76H853.121L855.865 203.328L858.587 210.76ZM865.498 210.463L868.356 210.28L872.016 216.18H873.708L869.751 210.029C871.604 209.457 873.068 208.153 873.068 206.003C873.068 203.511 871.398 201.887 867.876 201.887C867.808 201.887 864.034 201.887 864.034 201.887V216.18H865.498V210.463ZM865.498 209.159V203.213C865.498 203.213 867.647 203.213 867.716 203.213C870.209 203.213 871.604 204.197 871.604 206.072C871.604 207.947 869.957 208.999 868.059 209.068L865.498 209.159ZM877.374 210.463L880.233 210.28L883.892 216.18H885.584L881.628 210.029C883.48 209.457 884.944 208.153 884.944 206.003C884.944 203.511 883.274 201.887 879.752 201.887C879.684 201.887 875.91 201.887 875.91 201.887V216.18H877.374V210.463ZM877.374 209.159V203.213C877.374 203.213 879.524 203.213 879.592 203.213C882.085 203.213 883.48 204.197 883.48 206.072C883.48 207.947 881.833 208.999 879.935 209.068L877.374 209.159Z" fill="#252525"/>
<path d="M870.119 352H864.169V341.5H855.209V352H849.224V327.01H855.209V336.565H864.169V327.01H870.119V352ZM891.282 352L889.742 346.645H881.097L879.557 352H873.047L881.552 326.905H889.182L897.792 352H891.282ZM888.412 341.675L886.942 336.67C886.825 336.25 886.662 335.69 886.452 334.99C886.265 334.267 886.067 333.532 885.857 332.785C885.67 332.038 885.519 331.408 885.402 330.895C885.285 331.408 885.134 332.05 884.947 332.82C884.76 333.567 884.574 334.302 884.387 335.025C884.2 335.725 884.049 336.273 883.932 336.67L882.462 341.675H888.412ZM908.433 327.01C915.153 327.01 918.513 329.495 918.513 334.465C918.513 336.098 918.081 337.452 917.218 338.525C916.378 339.598 915.316 340.462 914.033 341.115L921.348 352H914.663L909.028 342.62H906.683V352H900.733V327.01H908.433ZM908.188 331.7H906.683V337.965H908.188C909.611 337.965 910.673 337.708 911.373 337.195C912.096 336.658 912.458 335.818 912.458 334.675C912.458 333.672 912.12 332.925 911.443 332.435C910.766 331.945 909.681 331.7 908.188 331.7ZM945.042 339.12C945.042 343.413 943.852 346.633 941.472 348.78C939.092 350.927 935.814 352 931.637 352H924.112V327.01H932.337C936.28 327.01 939.384 328.048 941.647 330.125C943.91 332.178 945.042 335.177 945.042 339.12ZM938.882 339.33C938.882 336.787 938.334 334.908 937.237 333.695C936.164 332.482 934.589 331.875 932.512 331.875H930.062V347.1H931.987C934.344 347.1 936.082 346.458 937.202 345.175C938.322 343.868 938.882 341.92 938.882 339.33ZM974.479 344.755C974.479 346.178 974.129 347.473 973.429 348.64C972.729 349.783 971.679 350.693 970.279 351.37C968.879 352.023 967.118 352.35 964.994 352.35C963.501 352.35 962.171 352.222 961.004 351.965C959.861 351.708 958.741 351.323 957.644 350.81V345.385C958.904 345.968 960.188 346.458 961.494 346.855C962.824 347.252 964.096 347.45 965.309 347.45C966.476 347.45 967.304 347.24 967.794 346.82C968.308 346.4 968.564 345.852 968.564 345.175C968.564 344.358 968.156 343.705 967.339 343.215C966.546 342.725 965.391 342.13 963.874 341.43C962.894 340.963 961.938 340.438 961.004 339.855C960.094 339.248 959.348 338.478 958.764 337.545C958.181 336.588 957.889 335.363 957.889 333.87C957.889 331.537 958.694 329.752 960.304 328.515C961.914 327.278 964.073 326.66 966.779 326.66C968.226 326.66 969.568 326.823 970.804 327.15C972.064 327.477 973.278 327.897 974.444 328.41L972.554 333.065C971.434 332.575 970.384 332.202 969.404 331.945C968.448 331.665 967.514 331.525 966.604 331.525C965.648 331.525 964.936 331.723 964.469 332.12C964.003 332.517 963.769 333.018 963.769 333.625C963.769 334.115 963.933 334.547 964.259 334.92C964.586 335.27 965.099 335.632 965.799 336.005C966.499 336.378 967.421 336.833 968.564 337.37C969.801 337.93 970.863 338.537 971.749 339.19C972.636 339.843 973.313 340.613 973.779 341.5C974.246 342.387 974.479 343.472 974.479 344.755ZM999.416 352H992.626L986.851 341.92L984.716 343.32V352H978.731V327.01H984.716V338.175C985.019 337.662 985.346 337.148 985.696 336.635C986.069 336.122 986.431 335.62 986.781 335.13L992.871 327.01H999.416L991.086 338.14L999.416 352ZM1012.71 352H1000.56V348.605L1003.64 347.31V331.7L1000.56 330.405V327.01H1012.71V330.405L1009.63 331.7V347.31L1012.71 348.605V352ZM1016.81 352V327.01H1022.76V347.135H1032.66V352H1016.81ZM1036.87 352V327.01H1042.82V347.135H1052.73V352H1036.87ZM1072.4 344.755C1072.4 346.178 1072.05 347.473 1071.35 348.64C1070.65 349.783 1069.6 350.693 1068.2 351.37C1066.8 352.023 1065.04 352.35 1062.92 352.35C1061.43 352.35 1060.1 352.222 1058.93 351.965C1057.79 351.708 1056.67 351.323 1055.57 350.81V345.385C1056.83 345.968 1058.11 346.458 1059.42 346.855C1060.75 347.252 1062.02 347.45 1063.23 347.45C1064.4 347.45 1065.23 347.24 1065.72 346.82C1066.23 346.4 1066.49 345.852 1066.49 345.175C1066.49 344.358 1066.08 343.705 1065.26 343.215C1064.47 342.725 1063.32 342.13 1061.8 341.43C1060.82 340.963 1059.86 340.438 1058.93 339.855C1058.02 339.248 1057.27 338.478 1056.69 337.545C1056.11 336.588 1055.81 335.363 1055.81 333.87C1055.81 331.537 1056.62 329.752 1058.23 328.515C1059.84 327.278 1062 326.66 1064.7 326.66C1066.15 326.66 1067.49 326.823 1068.73 327.15C1069.99 327.477 1071.2 327.897 1072.37 328.41L1070.48 333.065C1069.36 332.575 1068.31 332.202 1067.33 331.945C1066.37 331.665 1065.44 331.525 1064.53 331.525C1063.57 331.525 1062.86 331.723 1062.39 332.12C1061.93 332.517 1061.69 333.018 1061.69 333.625C1061.69 334.115 1061.86 334.547 1062.18 334.92C1062.51 335.27 1063.02 335.632 1063.72 336.005C1064.42 336.378 1065.35 336.833 1066.49 337.37C1067.73 337.93 1068.79 338.537 1069.67 339.19C1070.56 339.843 1071.24 340.613 1071.7 341.5C1072.17 342.387 1072.4 343.472 1072.4 344.755Z" fill="#252525"/>
<path d="M1434.3 344.755C1434.3 346.178 1433.95 347.473 1433.25 348.64C1432.55 349.783 1431.5 350.693 1430.1 351.37C1428.7 352.023 1426.93 352.35 1424.81 352.35C1423.32 352.35 1421.99 352.222 1420.82 351.965C1419.68 351.708 1418.56 351.323 1417.46 350.81V345.385C1418.72 345.968 1420 346.458 1421.31 346.855C1422.64 347.252 1423.91 347.45 1425.13 347.45C1426.29 347.45 1427.12 347.24 1427.61 346.82C1428.12 346.4 1428.38 345.852 1428.38 345.175C1428.38 344.358 1427.97 343.705 1427.16 343.215C1426.36 342.725 1425.21 342.13 1423.69 341.43C1422.71 340.963 1421.75 340.438 1420.82 339.855C1419.91 339.248 1419.16 338.478 1418.58 337.545C1418 336.588 1417.71 335.363 1417.71 333.87C1417.71 331.537 1418.51 329.752 1420.12 328.515C1421.73 327.278 1423.89 326.66 1426.6 326.66C1428.04 326.66 1429.38 326.823 1430.62 327.15C1431.88 327.477 1433.09 327.897 1434.26 328.41L1432.37 333.065C1431.25 332.575 1430.2 332.202 1429.22 331.945C1428.26 331.665 1427.33 331.525 1426.42 331.525C1425.46 331.525 1424.75 331.723 1424.29 332.12C1423.82 332.517 1423.59 333.018 1423.59 333.625C1423.59 334.115 1423.75 334.547 1424.08 334.92C1424.4 335.27 1424.92 335.632 1425.62 336.005C1426.32 336.378 1427.24 336.833 1428.38 337.37C1429.62 337.93 1430.68 338.537 1431.57 339.19C1432.45 339.843 1433.13 340.613 1433.6 341.5C1434.06 342.387 1434.3 343.472 1434.3 344.755ZM1461.54 339.47C1461.54 342.06 1461.12 344.323 1460.28 346.26C1459.44 348.173 1458.14 349.667 1456.36 350.74C1454.61 351.813 1452.34 352.35 1449.54 352.35C1446.78 352.35 1444.52 351.813 1442.75 350.74C1440.97 349.667 1439.66 348.162 1438.79 346.225C1437.95 344.288 1437.53 342.025 1437.53 339.435C1437.53 336.845 1437.95 334.593 1438.79 332.68C1439.66 330.767 1440.97 329.285 1442.75 328.235C1444.52 327.162 1446.8 326.625 1449.57 326.625C1452.35 326.625 1454.61 327.162 1456.36 328.235C1458.14 329.285 1459.44 330.778 1460.28 332.715C1461.12 334.628 1461.54 336.88 1461.54 339.47ZM1443.8 339.47C1443.8 341.92 1444.24 343.845 1445.13 345.245C1446.04 346.645 1447.51 347.345 1449.54 347.345C1451.59 347.345 1453.06 346.645 1453.95 345.245C1454.83 343.845 1455.28 341.92 1455.28 339.47C1455.28 337.02 1454.83 335.095 1453.95 333.695C1453.08 332.272 1451.63 331.56 1449.57 331.56C1447.52 331.56 1446.04 332.272 1445.13 333.695C1444.24 335.095 1443.8 337.02 1443.8 339.47ZM1472.28 352H1466.4V327.01H1480.93V331.84H1472.28V337.51H1480.3V342.34H1472.28V352ZM1495.7 352H1489.75V331.945H1483.27V327.01H1502.17V331.945H1495.7V352ZM1537.73 327.01L1531.47 352H1524.54L1521.63 339.925C1521.58 339.692 1521.5 339.318 1521.39 338.805C1521.27 338.292 1521.15 337.732 1521.04 337.125C1520.92 336.518 1520.8 335.935 1520.69 335.375C1520.59 334.792 1520.53 334.313 1520.51 333.94C1520.46 334.313 1520.38 334.792 1520.27 335.375C1520.17 335.935 1520.07 336.518 1519.95 337.125C1519.83 337.732 1519.72 338.292 1519.6 338.805C1519.51 339.295 1519.43 339.668 1519.36 339.925L1516.42 352H1509.52L1503.22 327.01H1509.03L1512.01 340.135C1512.12 340.625 1512.26 341.278 1512.43 342.095C1512.59 342.912 1512.74 343.752 1512.88 344.615C1513.04 345.478 1513.16 346.178 1513.23 346.715C1513.32 345.968 1513.46 345.093 1513.65 344.09C1513.84 343.063 1514.02 342.083 1514.21 341.15C1514.42 340.193 1514.6 339.447 1514.74 338.91L1517.71 327.01H1523.28L1526.25 338.91C1526.34 339.307 1526.45 339.832 1526.57 340.485C1526.71 341.138 1526.85 341.85 1526.99 342.62C1527.15 343.367 1527.29 344.102 1527.41 344.825C1527.55 345.548 1527.65 346.178 1527.72 346.715C1527.79 346.132 1527.9 345.432 1528.04 344.615C1528.2 343.775 1528.36 342.947 1528.53 342.13C1528.69 341.313 1528.83 340.66 1528.95 340.17L1531.92 327.01H1537.73ZM1554.81 352L1553.27 346.645H1544.62L1543.08 352H1536.57L1545.08 326.905H1552.71L1561.32 352H1554.81ZM1551.94 341.675L1550.47 336.67C1550.35 336.25 1550.19 335.69 1549.98 334.99C1549.79 334.267 1549.59 333.532 1549.38 332.785C1549.2 332.038 1549.05 331.408 1548.93 330.895C1548.81 331.408 1548.66 332.05 1548.47 332.82C1548.29 333.567 1548.1 334.302 1547.91 335.025C1547.73 335.725 1547.58 336.273 1547.46 336.67L1545.99 341.675H1551.94ZM1571.96 327.01C1578.68 327.01 1582.04 329.495 1582.04 334.465C1582.04 336.098 1581.61 337.452 1580.75 338.525C1579.91 339.598 1578.84 340.462 1577.56 341.115L1584.88 352H1578.19L1572.56 342.62H1570.21V352H1564.26V327.01H1571.96ZM1571.72 331.7H1570.21V337.965H1571.72C1573.14 337.965 1574.2 337.708 1574.9 337.195C1575.62 336.658 1575.99 335.818 1575.99 334.675C1575.99 333.672 1575.65 332.925 1574.97 332.435C1574.29 331.945 1573.21 331.7 1571.72 331.7ZM1602.23 352H1587.64V327.01H1602.23V331.84H1593.59V336.635H1601.6V341.465H1593.59V347.1H1602.23V352Z" fill="#252525"/>
<path d="M197.552 195.037C197.552 198.837 196.586 202.411 194.654 205.76C192.787 209.045 189.856 211.749 185.863 213.875C181.935 215.936 176.815 216.966 170.503 216.966C167.348 216.966 164.578 216.805 162.195 216.483C159.877 216.225 157.687 215.775 155.626 215.131C153.566 214.487 151.44 213.649 149.251 212.619V196.003C152.986 197.871 156.753 199.32 160.553 200.35C164.353 201.316 167.798 201.799 170.89 201.799C173.659 201.799 175.688 201.316 176.976 200.35C178.264 199.384 178.908 198.161 178.908 196.679C178.908 194.876 177.942 193.427 176.01 192.332C174.142 191.237 170.954 189.659 166.446 187.598C163.033 186.053 160.07 184.378 157.558 182.575C155.047 180.772 153.115 178.582 151.762 176.006C150.41 173.43 149.734 170.178 149.734 166.249C149.734 161.805 150.828 158.102 153.018 155.14C155.208 152.113 158.235 149.859 162.099 148.377C166.027 146.832 170.568 146.059 175.72 146.059C180.228 146.059 184.286 146.574 187.892 147.605C191.499 148.635 194.719 149.762 197.552 150.986L191.853 165.38C188.89 164.027 185.96 162.965 183.062 162.192C180.228 161.354 177.588 160.936 175.14 160.936C172.693 160.936 170.922 161.354 169.827 162.192C168.732 163.029 168.185 164.092 168.185 165.38C168.185 166.474 168.604 167.44 169.441 168.278C170.278 169.115 171.663 170.049 173.595 171.079C175.591 172.045 178.296 173.301 181.709 174.847C185.058 176.392 187.892 178.035 190.211 179.774C192.593 181.512 194.397 183.606 195.62 186.053C196.908 188.5 197.552 191.495 197.552 195.037ZM267.122 216H246.062L232.441 189.627L226.934 192.912V216H208.193V147.025H226.934V176.972C227.707 175.491 228.609 174.01 229.639 172.528C230.67 170.983 231.668 169.534 232.634 168.181L247.125 147.025H267.508L245.772 177.938L267.122 216ZM306.297 216H270.36V205.374L278.958 202.089V160.839L270.36 157.651V147.025H306.297V157.651L297.699 160.839V202.089L306.297 205.374V216ZM317.061 216V147.025H335.706V200.93H362.272V216H317.061ZM373.288 216V147.025H391.932V200.93H418.498V216H373.288ZM474.628 195.037C474.628 198.837 473.662 202.411 471.73 205.76C469.862 209.045 466.932 211.749 462.939 213.875C459.01 215.936 453.89 216.966 447.579 216.966C444.423 216.966 441.654 216.805 439.271 216.483C436.952 216.225 434.763 215.775 432.702 215.131C430.641 214.487 428.516 213.649 426.326 212.619V196.003C430.061 197.871 433.829 199.32 437.629 200.35C441.428 201.316 444.874 201.799 447.965 201.799C450.735 201.799 452.763 201.316 454.051 200.35C455.339 199.384 455.983 198.161 455.983 196.679C455.983 194.876 455.017 193.427 453.085 192.332C451.218 191.237 448.03 189.659 443.522 187.598C440.108 186.053 437.146 184.378 434.634 182.575C432.122 180.772 430.19 178.582 428.838 176.006C427.485 173.43 426.809 170.178 426.809 166.249C426.809 161.805 427.904 158.102 430.094 155.14C432.283 152.113 435.31 149.859 439.174 148.377C443.103 146.832 447.643 146.059 452.795 146.059C457.304 146.059 461.361 146.574 464.968 147.605C468.574 148.635 471.794 149.762 474.628 150.986L468.928 165.38C465.966 164.027 463.035 162.965 460.137 162.192C457.304 161.354 454.663 160.936 452.216 160.936C449.769 160.936 447.997 161.354 446.903 162.192C445.808 163.029 445.26 164.092 445.26 165.38C445.26 166.474 445.679 167.44 446.516 168.278C447.353 169.115 448.738 170.049 450.67 171.079C452.667 172.045 455.372 173.301 458.785 174.847C462.134 176.392 464.968 178.035 467.286 179.774C469.669 181.512 471.472 183.606 472.696 186.053C473.984 188.5 474.628 191.495 474.628 195.037ZM510.363 216V147.025H529.008V200.93H555.574V216H510.363ZM598.372 216H562.435V205.374L571.033 202.089V160.839L562.435 157.651V147.025H598.372V157.651L589.774 160.839V202.089L598.372 205.374V216ZM654.251 195.037C654.251 198.837 653.285 202.411 651.352 205.76C649.485 209.045 646.554 211.749 642.562 213.875C638.633 215.936 633.513 216.966 627.202 216.966C624.046 216.966 621.276 216.805 618.894 216.483C616.575 216.225 614.385 215.775 612.325 215.131C610.264 214.487 608.138 213.649 605.949 212.619V196.003C609.684 197.871 613.452 199.32 617.251 200.35C621.051 201.316 624.497 201.799 627.588 201.799C630.357 201.799 632.386 201.316 633.674 200.35C634.962 199.384 635.606 198.161 635.606 196.679C635.606 194.876 634.64 193.427 632.708 192.332C630.84 191.237 627.652 189.659 623.144 187.598C619.731 186.053 616.768 184.378 614.257 182.575C611.745 180.772 609.813 178.582 608.46 176.006C607.108 173.43 606.432 170.178 606.432 166.249C606.432 161.805 607.527 158.102 609.716 155.14C611.906 152.113 614.933 149.859 618.797 148.377C622.726 146.832 627.266 146.059 632.418 146.059C636.926 146.059 640.984 146.574 644.59 147.605C648.197 148.635 651.417 149.762 654.251 150.986L648.551 165.38C645.588 164.027 642.658 162.965 639.76 162.192C636.926 161.354 634.286 160.936 631.838 160.936C629.391 160.936 627.62 161.354 626.525 162.192C625.43 163.029 624.883 164.092 624.883 165.38C624.883 166.474 625.302 167.44 626.139 168.278C626.976 169.115 628.361 170.049 630.293 171.079C632.289 172.045 634.994 173.301 638.408 174.847C641.756 176.392 644.59 178.035 646.909 179.774C649.292 181.512 651.095 183.606 652.319 186.053C653.607 188.5 654.251 191.495 654.251 195.037ZM695.322 216H676.677V162.288H659.868V147.025H712.131V162.288H695.322V216Z" fill="#252525"/>
<defs>
<radialGradient id="paint0_radial" cx="0" cy="0" r="1" gradientUnits="userSpaceOnUse" gradientTransform="translate(410 280) rotate(90) scale(807.783 720.809)">
<stop stop-color="#008868"/>
<stop offset="1" stop-color="#005695"/>
</radialGradient>
<radialGradient id="paint1_radial" cx="0" cy="0" r="1" gradientUnits="userSpaceOnUse" gradientTransform="translate(960 280) rotate(90) scale(807.783 720.809)">
<stop stop-color="#008868"/>
<stop offset="1" stop-color="#005695"/>
</radialGradient>
<radialGradient id="paint2_radial" cx="0" cy="0" r="1" gradientUnits="userSpaceOnUse" gradientTransform="translate(1510 280) rotate(90) scale(807.783 720.809)">
<stop stop-color="#008868"/>
<stop offset="1" stop-color="#005695"/>
</radialGradient>
</defs>
</svg>
