<svg width="437" height="275" viewBox="0 0 437 275" fill="none" xmlns="http://www.w3.org/2000/svg">
<rect x="1" y="1" width="412" height="267" rx="24" stroke="black" stroke-width="2"/>
<path d="M150.392 268.431C168.375 261.777 186.301 253.254 200.726 240.325C209.81 232.375 216.823 222.314 221.154 211.018C224.287 202.576 225.515 193.718 226.616 184.826C227.339 179.06 227.764 171.886 231.838 167.307C232.717 166.307 233.761 165.468 234.925 164.827C238.368 162.913 242.075 161.748 245.254 159.268C246.787 158.086 248.045 156.582 248.941 154.861C249.837 153.14 250.349 151.244 250.441 149.304C250.716 145.659 250.326 141.715 252.14 138.393C253.325 136.4 255.092 134.822 257.201 133.872C257.31 133.81 257.401 133.719 257.463 133.61C257.526 133.5 257.558 133.376 257.556 133.249L253.62 92.5596L252.679 82.7217C252.576 81.6837 252.794 79.5039 252.002 78.7196C251.28 78.226 250.511 77.8049 249.707 77.4625C248.919 76.9831 248.181 76.4268 247.503 75.8017C246.081 74.3921 245.09 72.6033 244.646 70.6463C243.498 66.4366 244.267 61.881 245.151 57.7059C246.711 50.2438 249.213 42.874 248.134 35.1582C247.703 31.6417 246.384 28.2947 244.301 25.4356C241.926 22.3216 238.563 20.384 235.12 18.7463C231.677 17.1086 227.592 15.5285 224.562 12.772C221.541 9.86751 219.158 5.03682 218 0.999319C217.713 0.122786 216.213 0.622719 216.5 1.49925C218.336 7.15059 221.751 13.1642 226.88 16.2897C232.01 19.4152 238.357 20.8338 242.511 25.5164C246.665 30.1989 247.4 36.4615 246.883 42.2628C246.252 49.4365 243.509 56.2296 242.855 63.4034C242.344 67.0239 242.882 70.7159 244.405 74.0371C245.885 76.8281 248.57 78.6504 251.29 79.9883L250.935 79.3655L252.679 97.5766L255.456 126.606L256.099 133.284L256.455 132.661C254.681 133.482 253.13 134.72 251.932 136.269C250.733 137.819 249.923 139.635 249.569 141.565C248.926 145.025 249.477 148.727 248.57 152.175C247.297 157.008 242.603 159.695 238.414 161.667C236.337 162.474 234.358 163.515 232.515 164.77C227.707 168.541 226.559 175.15 225.744 180.836C224.597 189.197 223.816 197.594 221.429 205.736C218.159 216.761 212.248 226.812 204.215 235.008C191.522 248.144 174.928 257.036 158.207 263.841C155.499 264.994 152.756 266.009 150.001 267.024C149.141 267.347 149.519 268.731 150.392 268.42V268.431Z" fill="black"/>
<path d="M412 30.5V268H151.5L152.103 267.61C251.863 230.152 212.984 174.098 236.256 163.67C241.29 161.375 246.897 158.989 249.208 153.93C252.057 147.711 247.286 138.132 257.32 133.199L252.171 79.1522C249.345 77.7181 246.725 75.9743 245.364 73.0373C244.128 70.0826 243.675 66.8579 244.048 63.6758C244.586 56.7924 247.011 50.4022 247.938 43.6335C248.865 36.8647 247.938 29.0864 242.95 24.0271C237.961 18.9677 230.638 17.9582 225.318 13.5642C221.837 10.4972 218.5 5.5 218 1H303H388.5C392.274 1.01503 395.019 2.03681 398.5 3.5C401.981 4.96319 404.343 7.31175 407 10C409.657 12.6882 410.073 15.4966 411.5 19C412.5 22.5 412.02 26.7156 412 30.5Z" fill="white"/>
<path d="M323.336 134.081L352.6 134.461L353.599 117.588L323.37 106.182L323.336 134.081Z" stroke="black" stroke-miterlimit="10"/>
<path d="M306.871 99.9654L251.602 79.1016L256.8 133.308C257.282 133.308 274.347 133.458 293.937 133.7" stroke="black" stroke-miterlimit="10"/>
<path d="M322.81 133.723V140.193L330.487 153.445L309.153 190.179L297.895 144.922L292.559 137.333L306.881 99.9535C307.627 97.9929 310.22 98.9617 311.471 98.3043L311.919 98.1428C312.453 97.9474 313.021 97.865 313.587 97.9007C314.154 97.9364 314.708 98.0895 315.213 98.3504L316.957 98.5465C317.764 98.6303 318.52 98.9836 319.103 99.5499L320.847 101.222C321.419 101.438 321.911 101.825 322.257 102.33C322.604 102.835 322.789 103.434 322.787 104.048V133.723" fill="white"/>
<path d="M322.81 133.723V140.193L330.487 153.445L309.153 190.179L297.895 144.922L292.559 137.333L306.881 99.9535C307.627 97.9929 310.22 98.9617 311.471 98.3043L311.919 98.1428C312.453 97.9474 313.021 97.865 313.587 97.9007C314.154 97.9364 314.708 98.0895 315.213 98.3504L316.957 98.5465C317.764 98.6303 318.52 98.9836 319.103 99.5499L320.847 101.222C321.419 101.438 321.911 101.825 322.257 102.33C322.604 102.835 322.789 103.434 322.787 104.048V133.723" stroke="black" stroke-miterlimit="10"/>
<path d="M330.796 152.914L307.844 190.017L342.399 270.369C342.399 270.369 350.329 280.542 374.716 269.331L420.035 269.02L436.434 198.667C440.164 179.752 419.025 163.859 399.194 170.087L384 174.862C379.742 176.2 375.76 178.302 372.248 181.067L356.181 195.334L330.796 152.914Z" fill="black"/>
<path d="M357.398 130.402L363.825 132.051L364.376 122.571L358.156 122.352L357.398 130.402Z" stroke="black" stroke-miterlimit="10"/>
<path d="M353.38 123.885L357.994 124.231L357.581 128.037L353.082 127.483L353.38 123.885Z" stroke="black" stroke-miterlimit="10"/>
<path d="M146.753 7.46683C147.057 7.46683 147.349 7.34532 147.565 7.12902C147.78 6.91273 147.901 6.61938 147.901 6.31349C147.901 6.00761 147.78 5.71425 147.565 5.49796C147.349 5.28167 147.057 5.16016 146.753 5.16016C146.449 5.16016 146.157 5.28167 145.942 5.49796C145.726 5.71425 145.605 6.00761 145.605 6.31349C145.605 6.61938 145.726 6.91273 145.942 7.12902C146.157 7.34532 146.449 7.46683 146.753 7.46683Z" fill="black"/>
<path d="M173.136 11.6875C173.44 11.6875 173.732 11.566 173.947 11.3497C174.163 11.1334 174.284 10.8401 174.284 10.5342C174.284 10.2283 174.163 9.93495 173.947 9.71866C173.732 9.50237 173.44 9.38086 173.136 9.38086C172.832 9.38086 172.54 9.50237 172.324 9.71866C172.109 9.93495 171.988 10.2283 171.988 10.5342C171.988 10.8401 172.109 11.1334 172.324 11.3497C172.54 11.566 172.832 11.6875 173.136 11.6875Z" fill="black"/>
<path d="M150.194 35.9082C150.499 35.9082 150.791 35.7867 151.006 35.5704C151.221 35.3541 151.342 35.0608 151.342 34.7549C151.342 34.449 151.221 34.1557 151.006 33.9394C150.791 33.7231 150.499 33.6016 150.194 33.6016C149.89 33.6016 149.598 33.7231 149.383 33.9394C149.168 34.1557 149.047 34.449 149.047 34.7549C149.047 35.0608 149.168 35.3541 149.383 35.5704C149.598 35.7867 149.89 35.9082 150.194 35.9082Z" fill="black"/>
<path d="M144.456 62.8047C144.761 62.8047 145.052 62.6832 145.268 62.4669C145.483 62.2506 145.604 61.9573 145.604 61.6514C145.604 61.3455 145.483 61.0521 145.268 60.8358C145.052 60.6196 144.761 60.498 144.456 60.498C144.152 60.498 143.86 60.6196 143.645 60.8358C143.43 61.0521 143.309 61.3455 143.309 61.6514C143.309 61.9573 143.43 62.2506 143.645 62.4669C143.86 62.6832 144.152 62.8047 144.456 62.8047Z" fill="black"/>
<path d="M182.698 74.3379C183.003 74.3379 183.295 74.2164 183.51 74.0001C183.725 73.7838 183.846 73.4905 183.846 73.1846C183.846 72.8787 183.725 72.5853 183.51 72.3691C183.295 72.1528 183.003 72.0312 182.698 72.0312C182.394 72.0312 182.102 72.1528 181.887 72.3691C181.672 72.5853 181.551 72.8787 181.551 73.1846C181.551 73.4905 181.672 73.7838 181.887 74.0001C182.102 74.2164 182.394 74.3379 182.698 74.3379Z" fill="black"/>
<path d="M189.202 38.5957C189.507 38.5957 189.799 38.4742 190.014 38.2579C190.229 38.0416 190.35 37.7483 190.35 37.4424C190.35 37.1365 190.229 36.8432 190.014 36.6269C189.799 36.4106 189.507 36.2891 189.202 36.2891C188.898 36.2891 188.606 36.4106 188.391 36.6269C188.176 36.8432 188.055 37.1365 188.055 37.4424C188.055 37.7483 188.176 38.0416 188.391 38.2579C188.606 38.4742 188.898 38.5957 189.202 38.5957Z" fill="black"/>
<path d="M186.999 125.025C187.304 125.025 187.595 124.904 187.811 124.688C188.026 124.471 188.147 124.178 188.147 123.872C188.147 123.566 188.026 123.273 187.811 123.057C187.595 122.84 187.304 122.719 186.999 122.719C186.695 122.719 186.403 122.84 186.188 123.057C185.972 123.273 185.852 123.566 185.852 123.872C185.852 124.178 185.972 124.471 186.188 124.688C186.403 124.904 186.695 125.025 186.999 125.025Z" fill="black"/>
<path d="M219.421 117.438C219.725 117.438 220.017 117.316 220.233 117.1C220.448 116.883 220.569 116.59 220.569 116.284C220.569 115.978 220.448 115.685 220.233 115.469C220.017 115.252 219.725 115.131 219.421 115.131C219.117 115.131 218.825 115.252 218.61 115.469C218.394 115.685 218.273 115.978 218.273 116.284C218.273 116.59 218.394 116.883 218.61 117.1C218.825 117.316 219.117 117.438 219.421 117.438Z" fill="black"/>
<path d="M225.398 155.232C225.702 155.232 225.994 155.111 226.209 154.895C226.424 154.678 226.545 154.385 226.545 154.079C226.545 153.773 226.424 153.48 226.209 153.264C225.994 153.047 225.702 152.926 225.398 152.926C225.093 152.926 224.801 153.047 224.586 153.264C224.371 153.48 224.25 153.773 224.25 154.079C224.25 154.385 224.371 154.678 224.586 154.895C224.801 155.111 225.093 155.232 225.398 155.232Z" fill="black"/>
<path d="M135.554 211.191C135.858 211.191 136.15 211.07 136.365 210.854C136.581 210.637 136.701 210.344 136.701 210.038C136.701 209.732 136.581 209.439 136.365 209.223C136.15 209.006 135.858 208.885 135.554 208.885C135.249 208.885 134.958 209.006 134.742 209.223C134.527 209.439 134.406 209.732 134.406 210.038C134.406 210.344 134.527 210.637 134.742 210.854C134.958 211.07 135.249 211.191 135.554 211.191Z" fill="black"/>
<path d="M105.323 217.973C105.628 217.973 105.92 217.851 106.135 217.635C106.35 217.419 106.471 217.125 106.471 216.819C106.471 216.513 106.35 216.22 106.135 216.004C105.92 215.788 105.628 215.666 105.323 215.666C105.019 215.666 104.727 215.788 104.512 216.004C104.297 216.22 104.176 216.513 104.176 216.819C104.176 217.125 104.297 217.419 104.512 217.635C104.727 217.851 105.019 217.973 105.323 217.973Z" fill="black"/>
<path d="M72.3429 211.191C72.6473 211.191 72.9392 211.07 73.1544 210.854C73.3696 210.637 73.4905 210.344 73.4905 210.038C73.4905 209.732 73.3696 209.439 73.1544 209.223C72.9392 209.006 72.6473 208.885 72.3429 208.885C72.0386 208.885 71.7467 209.006 71.5314 209.223C71.3162 209.439 71.1953 209.732 71.1953 210.038C71.1953 210.344 71.3162 210.637 71.5314 210.854C71.7467 211.07 72.0386 211.191 72.3429 211.191Z" fill="black"/>
<path d="M45.2687 183.004C45.5731 183.004 45.865 182.882 46.0802 182.666C46.2954 182.45 46.4163 182.156 46.4163 181.851C46.4163 181.545 46.2954 181.251 46.0802 181.035C45.865 180.819 45.5731 180.697 45.2687 180.697C44.9643 180.697 44.6724 180.819 44.4572 181.035C44.242 181.251 44.1211 181.545 44.1211 181.851C44.1211 182.156 44.242 182.45 44.4572 182.666C44.6724 182.882 44.9643 183.004 45.2687 183.004Z" fill="black"/>
<path d="M88.3039 183.004C88.6082 183.004 88.9001 182.882 89.1154 182.666C89.3306 182.45 89.4515 182.156 89.4515 181.851C89.4515 181.545 89.3306 181.251 89.1154 181.035C88.9001 180.819 88.6082 180.697 88.3039 180.697C87.9995 180.697 87.7076 180.819 87.4924 181.035C87.2772 181.251 87.1562 181.545 87.1562 181.851C87.1562 182.156 87.2772 182.45 87.4924 182.666C87.7076 182.882 87.9995 183.004 88.3039 183.004Z" fill="black"/>
<path d="M123.042 101.625C123.347 101.625 123.638 101.504 123.854 101.287C124.069 101.071 124.19 100.778 124.19 100.472C124.19 100.166 124.069 99.8725 123.854 99.6562C123.638 99.4399 123.347 99.3184 123.042 99.3184C122.738 99.3184 122.446 99.4399 122.231 99.6562C122.015 99.8725 121.895 100.166 121.895 100.472C121.895 100.778 122.015 101.071 122.231 101.287C122.446 101.504 122.738 101.625 123.042 101.625Z" fill="black"/>
<path d="M101.882 149.904C102.186 149.904 102.478 149.783 102.693 149.566C102.909 149.35 103.03 149.057 103.03 148.751C103.03 148.445 102.909 148.152 102.693 147.935C102.478 147.719 102.186 147.598 101.882 147.598C101.578 147.598 101.286 147.719 101.071 147.935C100.855 148.152 100.734 148.445 100.734 148.751C100.734 149.057 100.855 149.35 101.071 149.566C101.286 149.783 101.578 149.904 101.882 149.904Z" fill="black"/>
<path d="M69.1867 107.969C69.491 107.969 69.7829 107.847 69.9982 107.631C70.2134 107.415 70.3343 107.121 70.3343 106.815C70.3343 106.51 70.2134 106.216 69.9982 106C69.7829 105.784 69.491 105.662 69.1867 105.662C68.8823 105.662 68.5904 105.784 68.3752 106C68.16 106.216 68.0391 106.51 68.0391 106.815C68.0391 107.121 68.16 107.415 68.3752 107.631C68.5904 107.847 68.8823 107.969 69.1867 107.969Z" fill="black"/>
<path d="M209.265 85.1778C209.569 85.1778 209.861 85.0563 210.076 84.84C210.292 84.6237 210.412 84.3303 210.412 84.0244C210.412 83.7185 210.292 83.4252 210.076 83.2089C209.861 82.9926 209.569 82.8711 209.265 82.8711C208.96 82.8711 208.669 82.9926 208.453 83.2089C208.238 83.4252 208.117 83.7185 208.117 84.0244C208.117 84.3303 208.238 84.6237 208.453 84.84C208.669 85.0563 208.96 85.1778 209.265 85.1778Z" fill="black"/>
<path d="M14.1476 236.307C14.452 236.307 14.7439 236.185 14.9591 235.969C15.1743 235.753 15.2952 235.459 15.2952 235.153C15.2952 234.847 15.1743 234.554 14.9591 234.338C14.7439 234.122 14.452 234 14.1476 234C13.8432 234 13.5513 234.122 13.3361 234.338C13.1209 234.554 13 234.847 13 235.153C13 235.459 13.1209 235.753 13.3361 235.969C13.5513 236.185 13.8432 236.307 14.1476 236.307Z" fill="black"/>
<path d="M104.396 61.6513C116.699 61.6513 126.672 51.6287 126.672 39.2651C126.672 26.9015 116.699 16.8789 104.396 16.8789C92.0941 16.8789 82.1211 26.9015 82.1211 39.2651C82.1211 51.6287 92.0941 61.6513 104.396 61.6513Z" fill="black"/>
<path d="M168.375 179.521C173.135 177.083 177.714 174.304 182.077 171.205C179.759 176.866 175.489 181.498 170.048 184.251C164.608 187.005 158.363 187.696 152.457 186.198C157.928 184.392 163.25 182.16 168.375 179.521Z" fill="black"/>
<path d="M183.992 161.494C183.992 162.013 183.407 162.186 183.361 162.648C179 167.261 173.032 171.205 164.999 175.334C159.209 178.445 153.035 180.772 146.637 182.254C141.151 179.117 136.423 175.265 134.484 169.118C134.119 167.938 133.847 166.731 133.669 165.508C133.432 164.168 133.317 162.809 133.325 161.448C133.329 156.436 134.806 151.537 137.57 147.365C140.334 143.193 144.262 139.934 148.862 137.996C153.462 136.059 158.528 135.529 163.426 136.474C168.324 137.418 172.835 139.795 176.395 143.306C177.618 144.517 178.724 145.842 179.7 147.262C182.501 151.475 183.995 156.428 183.992 161.494Z" fill="black"/>
<path d="M182.075 171.207C172.989 177.64 163.008 182.692 152.455 186.2C137.972 190.952 126.117 190.894 123.237 185.22C120.838 180.514 125.142 173.075 133.669 165.544C133.846 166.766 134.119 167.973 134.484 169.154C130.203 173.767 128.298 178.138 129.801 181.091C131.603 184.631 137.835 185.358 146.097 183.605C152.625 182.128 158.932 179.801 164.861 176.685C171.915 173.215 178.358 168.61 183.934 163.052C188.525 158.243 190.522 153.757 188.984 150.723C187.745 148.29 184.393 147.183 179.7 147.263C178.724 145.843 177.618 144.519 176.395 143.307C187.963 140.47 196.925 141.231 199.347 146.075C202.354 151.923 195.02 161.98 182.075 171.207Z" fill="black"/>
<path d="M128.391 99.7559L142.633 102.72" stroke="black" stroke-miterlimit="10"/>
<path d="M143.277 66.8633L148.671 96.2387" stroke="black" stroke-miterlimit="10"/>
<path d="M148.371 61.6504L178.806 71.6267" stroke="black" stroke-miterlimit="10"/>
<path d="M47.3242 184.492L70.1389 207.294" stroke="black" stroke-miterlimit="10"/>
<path d="M71.0898 213.717L72.3407 234.165" stroke="black" stroke-miterlimit="10"/>
<path d="M145.973 10.5352L148.67 31.2029" stroke="black" stroke-miterlimit="10"/>
<path d="M152.938 32.1713L171.047 13.7871" stroke="black" stroke-miterlimit="10"/>
<path d="M202.663 16.4395C202.968 16.4395 203.26 16.318 203.475 16.1017C203.69 15.8854 203.811 15.592 203.811 15.2861C203.811 14.9803 203.69 14.6869 203.475 14.4706C203.26 14.2543 202.968 14.1328 202.663 14.1328C202.359 14.1328 202.067 14.2543 201.852 14.4706C201.637 14.6869 201.516 14.9803 201.516 15.2861C201.516 15.592 201.637 15.8854 201.852 16.1017C202.067 16.318 202.359 16.4395 202.663 16.4395Z" fill="black"/>
<path d="M244.382 106.504C244.686 106.504 244.978 106.382 245.193 106.166C245.409 105.95 245.53 105.656 245.53 105.351C245.53 105.045 245.409 104.751 245.193 104.535C244.978 104.319 244.686 104.197 244.382 104.197C244.078 104.197 243.786 104.319 243.571 104.535C243.355 104.751 243.234 105.045 243.234 105.351C243.234 105.656 243.355 105.95 243.571 106.166C243.786 106.382 244.078 106.504 244.382 106.504Z" fill="black"/>
<path d="M173.296 199.877C173.6 199.877 173.892 199.755 174.108 199.539C174.323 199.323 174.444 199.03 174.444 198.724C174.444 198.418 174.323 198.124 174.108 197.908C173.892 197.692 173.6 197.57 173.296 197.57C172.992 197.57 172.7 197.692 172.485 197.908C172.269 198.124 172.148 198.418 172.148 198.724C172.148 199.03 172.269 199.323 172.485 199.539C172.7 199.755 172.992 199.877 173.296 199.877Z" fill="black"/>
<path d="M200.038 228.504C200.343 228.504 200.635 228.382 200.85 228.166C201.065 227.95 201.186 227.657 201.186 227.351C201.186 227.045 201.065 226.751 200.85 226.535C200.635 226.319 200.343 226.197 200.038 226.197C199.734 226.197 199.442 226.319 199.227 226.535C199.012 226.751 198.891 227.045 198.891 227.351C198.891 227.657 199.012 227.95 199.227 228.166C199.442 228.382 199.734 228.504 200.038 228.504Z" fill="black"/>
<path d="M123.042 262.33C123.347 262.33 123.638 262.209 123.854 261.992C124.069 261.776 124.19 261.483 124.19 261.177C124.19 260.871 124.069 260.578 123.854 260.361C123.638 260.145 123.347 260.023 123.042 260.023C122.738 260.023 122.446 260.145 122.231 260.361C122.015 260.578 121.895 260.871 121.895 261.177C121.895 261.483 122.015 261.776 122.231 261.992C122.446 262.209 122.738 262.33 123.042 262.33Z" fill="black"/>
<path d="M141.566 128.186C141.87 128.186 142.162 128.064 142.377 127.848C142.592 127.631 142.713 127.338 142.713 127.032C142.713 126.726 142.592 126.433 142.377 126.217C142.162 126 141.87 125.879 141.566 125.879C141.261 125.879 140.969 126 140.754 126.217C140.539 126.433 140.418 126.726 140.418 127.032C140.418 127.338 140.539 127.631 140.754 127.848C140.969 128.064 141.261 128.186 141.566 128.186Z" fill="black"/>
<path d="M25.382 80.2539C25.6864 80.2539 25.9783 80.1324 26.1935 79.9161C26.4087 79.6998 26.5296 79.4065 26.5296 79.1006C26.5296 78.7947 26.4087 78.5014 26.1935 78.2851C25.9783 78.0688 25.6864 77.9473 25.382 77.9473C25.0776 77.9473 24.7857 78.0688 24.5705 78.2851C24.3553 78.5014 24.2344 78.7947 24.2344 79.1006C24.2344 79.4065 24.3553 79.6998 24.5705 79.9161C24.7857 80.1324 25.0776 80.2539 25.382 80.2539Z" fill="black"/>
<path d="M6.14762 114.83C6.45199 114.83 6.74389 114.709 6.95911 114.492C7.17433 114.276 7.29524 113.983 7.29524 113.677C7.29524 113.371 7.17433 113.078 6.95911 112.861C6.74389 112.645 6.45199 112.523 6.14762 112.523C5.84325 112.523 5.55135 112.645 5.33613 112.861C5.12091 113.078 5 113.371 5 113.677C5 113.983 5.12091 114.276 5.33613 114.492C5.55135 114.709 5.84325 114.83 6.14762 114.83Z" fill="black"/>
<path d="M144.456 235.285C144.761 235.285 145.052 235.164 145.268 234.947C145.483 234.731 145.604 234.438 145.604 234.132C145.604 233.826 145.483 233.533 145.268 233.316C145.052 233.1 144.761 232.979 144.456 232.979C144.152 232.979 143.86 233.1 143.645 233.316C143.43 233.533 143.309 233.826 143.309 234.132C143.309 234.438 143.43 234.731 143.645 234.947C143.86 235.164 144.152 235.285 144.456 235.285Z" fill="black"/>
<path d="M2.14762 174.307C2.45199 174.307 2.74389 174.185 2.95911 173.969C3.17433 173.753 3.29524 173.459 3.29524 173.153C3.29524 172.847 3.17433 172.554 2.95911 172.338C2.74389 172.122 2.45199 172 2.14762 172C1.84325 172 1.55135 172.122 1.33613 172.338C1.12091 172.554 1 172.847 1 173.153C1 173.459 1.12091 173.753 1.33613 173.969C1.55135 174.185 1.84325 174.307 2.14762 174.307Z" fill="black"/>
<path d="M38.589 40.418C38.8934 40.418 39.1853 40.2965 39.4005 40.0802C39.6157 39.8639 39.7366 39.5705 39.7366 39.2647C39.7366 38.9588 39.6157 38.6654 39.4005 38.4491C39.1853 38.2328 38.8934 38.1113 38.589 38.1113C38.2847 38.1113 37.9928 38.2328 37.7775 38.4491C37.5623 38.6654 37.4414 38.9588 37.4414 39.2647C37.4414 39.5705 37.5623 39.8639 37.7775 40.0802C37.9928 40.2965 38.2847 40.418 38.589 40.418Z" fill="black"/>
<path d="M32.4484 123.481C32.7528 123.481 33.0447 123.359 33.2599 123.143C33.4751 122.926 33.596 122.633 33.596 122.327C33.596 122.021 33.4751 121.728 33.2599 121.512C33.0447 121.295 32.7528 121.174 32.4484 121.174C32.144 121.174 31.8521 121.295 31.6369 121.512C31.4217 121.728 31.3008 122.021 31.3008 122.327C31.3008 122.633 31.4217 122.926 31.6369 123.143C31.8521 123.359 32.144 123.481 32.4484 123.481Z" fill="black"/>
<path d="M69.839 133.988C70.1434 133.988 70.4353 133.867 70.6505 133.651C70.8657 133.434 70.9866 133.141 70.9866 132.835C70.9866 132.529 70.8657 132.236 70.6505 132.019C70.4353 131.803 70.1434 131.682 69.839 131.682C69.5347 131.682 69.2428 131.803 69.0275 132.019C68.8123 132.236 68.6914 132.529 68.6914 132.835C68.6914 133.141 68.8123 133.434 69.0275 133.651C69.2428 133.867 69.5347 133.988 69.839 133.988Z" fill="black"/>
<path d="M33.6554 11.6875C33.9598 11.6875 34.2517 11.566 34.4669 11.3497C34.6821 11.1334 34.8031 10.8401 34.8031 10.5342C34.8031 10.2283 34.6821 9.93495 34.4669 9.71866C34.2517 9.50237 33.9598 9.38086 33.6554 9.38086C33.3511 9.38086 33.0592 9.50237 32.8439 9.71866C32.6287 9.93495 32.5078 10.2283 32.5078 10.5342C32.5078 10.8401 32.6287 11.1334 32.8439 11.3497C33.0592 11.566 33.3511 11.6875 33.6554 11.6875Z" fill="black"/>
<path d="M9.31559 197.041C9.61996 197.041 9.91186 196.92 10.1271 196.703C10.3423 196.487 10.4632 196.194 10.4632 195.888C10.4632 195.582 10.3423 195.288 10.1271 195.072C9.91186 194.856 9.61996 194.734 9.31559 194.734C9.01122 194.734 8.71932 194.856 8.5041 195.072C8.28888 195.288 8.16797 195.582 8.16797 195.888C8.16797 196.194 8.28888 196.487 8.5041 196.703C8.71932 196.92 9.01122 197.041 9.31559 197.041Z" fill="black"/>
<path d="M72.3429 238.398C72.6473 238.398 72.9392 238.277 73.1544 238.061C73.3696 237.844 73.4905 237.551 73.4905 237.245C73.4905 236.939 73.3696 236.646 73.1544 236.43C72.9392 236.213 72.6473 236.092 72.3429 236.092C72.0386 236.092 71.7467 236.213 71.5314 236.43C71.3162 236.646 71.1953 236.939 71.1953 237.245C71.1953 237.551 71.3162 237.844 71.5314 238.061C71.7467 238.277 72.0386 238.398 72.3429 238.398Z" fill="black"/>
<path d="M95.2922 243.647C95.5965 243.647 95.8884 243.525 96.1037 243.309C96.3189 243.092 96.4398 242.799 96.4398 242.493C96.4398 242.187 96.3189 241.894 96.1037 241.678C95.8884 241.461 95.5965 241.34 95.2922 241.34C94.9878 241.34 94.6959 241.461 94.4807 241.678C94.2654 241.894 94.1445 242.187 94.1445 242.493C94.1445 242.799 94.2654 243.092 94.4807 243.309C94.6959 243.525 94.9878 243.647 95.2922 243.647Z" fill="black"/>
<path d="M74.7305 211.377L101.883 215.644" stroke="black" stroke-miterlimit="10"/>
<path d="M42.8351 262.33C43.1395 262.33 43.4314 262.209 43.6466 261.992C43.8618 261.776 43.9827 261.483 43.9827 261.177C43.9827 260.871 43.8618 260.578 43.6466 260.361C43.4314 260.145 43.1395 260.023 42.8351 260.023C42.5308 260.023 42.2389 260.145 42.0236 260.361C41.8084 260.578 41.6875 260.871 41.6875 261.177C41.6875 261.483 41.8084 261.776 42.0236 261.992C42.2389 262.209 42.5308 262.33 42.8351 262.33Z" fill="black"/>
<path d="M212.972 189.729C213.276 189.729 213.568 189.607 213.783 189.391C213.999 189.174 214.119 188.881 214.119 188.575C214.119 188.269 213.999 187.976 213.783 187.76C213.568 187.543 213.276 187.422 212.972 187.422C212.667 187.422 212.376 187.543 212.16 187.76C211.945 187.976 211.824 188.269 211.824 188.575C211.824 188.881 211.945 189.174 212.16 189.391C212.376 189.607 212.667 189.729 212.972 189.729Z" fill="black"/>
<path d="M312.377 97.9922L306.73 114.831" stroke="black" stroke-miterlimit="10"/>
<path d="M315.912 98.6836L312.469 113.677" stroke="black" stroke-miterlimit="10"/>
<path d="M318.504 115.351L319.651 100.357" stroke="black" stroke-miterlimit="10"/>
<path d="M177.901 102.767L180.197 97.0577C180.237 96.9115 180.248 96.7588 180.229 96.6084C180.21 96.458 180.162 96.3127 180.088 96.181C180.013 96.0492 179.913 95.9335 179.794 95.8405C179.675 95.7476 179.539 95.6791 179.393 95.639C179.248 95.5988 179.096 95.5878 178.946 95.6066C178.797 95.6254 178.652 95.6736 178.521 95.7486C178.39 95.8236 178.275 95.9238 178.182 96.0435C178.09 96.1633 178.022 96.3002 177.982 96.4464L175.687 102.155C175.605 102.449 175.643 102.763 175.791 103.029C175.94 103.295 176.187 103.491 176.478 103.574C176.624 103.614 176.776 103.625 176.925 103.606C177.075 103.588 177.22 103.539 177.351 103.464C177.482 103.389 177.597 103.289 177.689 103.169C177.782 103.05 177.85 102.913 177.89 102.767H177.901Z" fill="black"/>
<path d="M172.723 96.7239L180.756 102.398C181.018 102.55 181.329 102.591 181.622 102.513C181.914 102.435 182.164 102.245 182.317 101.983C182.469 101.721 182.511 101.41 182.436 101.116C182.361 100.823 182.174 100.57 181.915 100.415L173.882 94.7286C173.752 94.6518 173.608 94.6017 173.458 94.581C173.308 94.5604 173.156 94.5696 173.01 94.6082C172.864 94.6468 172.727 94.7139 172.607 94.8058C172.487 94.8977 172.386 95.0126 172.31 95.1438C172.233 95.2747 172.184 95.4195 172.163 95.5699C172.142 95.7203 172.152 95.8732 172.19 96.02C172.228 96.1668 172.295 96.3045 172.387 96.4253C172.478 96.5461 172.592 96.6475 172.723 96.7239Z" fill="black"/>
<path d="M63.0131 58.2715L56.1274 61.5586C55.9902 61.6307 55.869 61.7299 55.771 61.8503C55.673 61.9707 55.6003 62.1098 55.5572 62.2592C55.514 62.4086 55.5014 62.5652 55.5201 62.7196C55.5388 62.874 55.5883 63.023 55.6658 63.1577C55.7432 63.2924 55.847 63.4099 55.9708 63.5032C56.0946 63.5965 56.236 63.6637 56.3863 63.7007C56.5366 63.7377 56.6929 63.7438 56.8456 63.7186C56.9983 63.6933 57.1444 63.6373 57.275 63.5538L64.1607 60.2668C64.2913 60.1905 64.4055 60.0891 64.497 59.9683C64.5884 59.8475 64.6553 59.7098 64.6937 59.563C64.732 59.4162 64.7412 59.2632 64.7207 59.1129C64.7001 58.9625 64.6502 58.8177 64.5739 58.6867C64.4979 58.5556 64.397 58.4407 64.2768 58.3488C64.1566 58.2569 64.0196 58.1897 63.8735 58.1512C63.7274 58.1126 63.5752 58.1034 63.4256 58.124C63.276 58.1447 63.1319 58.1948 63.0016 58.2715H63.0131Z" fill="black"/>
<path d="M62.1739 63.2647L59.259 57.2558C59.1859 57.1217 59.0871 57.0036 58.9682 56.9082C58.8494 56.8128 58.7128 56.7422 58.5665 56.7003C58.4202 56.6585 58.2671 56.6463 58.1161 56.6644C57.965 56.6826 57.8191 56.7307 57.6867 56.806C57.4262 56.9601 57.2367 57.2112 57.1593 57.5049C57.082 57.7986 57.123 58.1111 57.2736 58.3746L60.1886 64.3834C60.2576 64.5214 60.3535 64.6441 60.4706 64.7441C60.5877 64.8441 60.7236 64.9195 60.8702 64.9658C61.0169 65.012 61.1713 65.0282 61.3242 65.0134C61.4772 64.9985 61.6257 64.9529 61.7608 64.8793C61.8913 64.803 62.0056 64.7016 62.0971 64.5808C62.1885 64.46 62.2554 64.3223 62.2937 64.1755C62.3321 64.0287 62.3413 63.8757 62.3207 63.7254C62.3002 63.575 62.2503 63.4302 62.1739 63.2993V63.2647Z" fill="black"/>
<path d="M60.0373 66.1598L62.5851 57.7636C62.6251 57.6174 62.6361 57.4647 62.6174 57.3143C62.5987 57.1639 62.5507 57.0186 62.476 56.8869C62.4014 56.7551 62.3017 56.6394 62.1826 56.5465C62.0634 56.4535 61.9272 56.385 61.7817 56.345C61.4896 56.2632 61.1771 56.3011 60.9126 56.4502C60.6481 56.5993 60.4531 56.8476 60.3702 57.1408L57.8224 65.5485C57.7824 65.6947 57.7714 65.8474 57.7901 65.9978C57.8088 66.1482 57.8568 66.2935 57.9315 66.4252C58.0061 66.557 58.1058 66.6727 58.2249 66.7656C58.3441 66.8586 58.4803 66.9271 58.6258 66.9671C58.7712 67.0074 58.9231 67.0184 59.0728 66.9996C59.2225 66.9808 59.367 66.9326 59.4981 66.8576C59.6292 66.7826 59.7443 66.6824 59.8368 66.5626C59.9294 66.4429 59.9975 66.306 60.0373 66.1598Z" fill="black"/>
<path d="M235.178 140.169L235.351 139.939L235.167 140.169C235.451 139.804 235.778 139.474 236.142 139.189L235.913 139.374C236.263 139.093 236.649 138.86 237.061 138.682L236.785 138.797L237.095 138.67C237.385 138.591 237.632 138.4 237.784 138.14C237.861 138.007 237.91 137.86 237.93 137.707C237.95 137.555 237.939 137.4 237.898 137.252C237.817 136.965 237.627 136.721 237.37 136.571C237.238 136.494 237.092 136.443 236.94 136.424C236.788 136.404 236.634 136.415 236.487 136.456C235.853 136.668 235.256 136.979 234.719 137.378C234.422 137.599 234.142 137.842 233.882 138.105C233.619 138.384 233.381 138.685 233.17 139.005C233.09 139.138 233.037 139.287 233.015 139.441C232.993 139.596 233.003 139.753 233.044 139.904C233.126 140.191 233.315 140.435 233.572 140.585C233.704 140.662 233.85 140.712 234.002 140.732C234.154 140.752 234.308 140.741 234.455 140.7C234.742 140.614 234.987 140.425 235.144 140.169H235.178Z" fill="black"/>
<path d="M232.974 136.663L236.968 141.991C237.124 142.247 237.37 142.436 237.656 142.522C237.804 142.563 237.958 142.574 238.11 142.554C238.261 142.534 238.408 142.484 238.54 142.406C238.67 142.33 238.785 142.229 238.876 142.108C238.968 141.987 239.034 141.849 239.073 141.703C239.111 141.556 239.12 141.403 239.1 141.252C239.079 141.102 239.029 140.957 238.953 140.826L234.959 135.498C234.802 135.242 234.557 135.053 234.271 134.967C234.123 134.926 233.969 134.916 233.817 134.935C233.665 134.955 233.519 135.005 233.387 135.083C233.256 135.159 233.142 135.261 233.051 135.381C232.959 135.502 232.892 135.64 232.854 135.787C232.816 135.933 232.807 136.086 232.827 136.237C232.848 136.387 232.898 136.532 232.974 136.663Z" fill="black"/>
<path d="M52.7171 153.756L58.2487 147.262C58.4624 147.046 58.5824 146.754 58.5824 146.449C58.5824 146.145 58.4624 145.852 58.2487 145.636C58.0336 145.421 57.7428 145.301 57.4396 145.301C57.1364 145.301 56.8455 145.421 56.6305 145.636L51.0875 152.118C50.8714 152.335 50.75 152.63 50.75 152.937C50.75 153.244 50.8714 153.538 51.0875 153.756C51.3036 153.973 51.5967 154.095 51.9023 154.095C52.2079 154.095 52.501 153.973 52.7171 153.756Z" fill="black"/>
<path d="M49.0663 147.355C50.8959 149.285 53.0726 150.851 55.4815 151.968C55.6113 152.063 55.7596 152.129 55.9166 152.163C56.0736 152.197 56.236 152.197 56.3931 152.164C56.5502 152.13 56.6986 152.064 56.8288 151.97C56.9589 151.875 57.0679 151.754 57.1486 151.615C57.2293 151.475 57.28 151.32 57.2973 151.16C57.3147 150.999 57.2984 150.837 57.2494 150.683C57.2005 150.53 57.1199 150.388 57.0131 150.268C56.9062 150.147 56.7754 150.051 56.6291 149.984C55.4846 149.461 54.3931 148.827 53.3698 148.093L53.0256 147.85L52.8075 147.689C52.8993 147.758 52.8075 147.689 52.8075 147.689L52.073 147.078C51.5918 146.659 51.1322 146.217 50.6959 145.751C50.4809 145.537 50.19 145.416 49.8868 145.416C49.5836 145.416 49.2928 145.537 49.0777 145.751C48.9702 145.859 48.8848 145.986 48.8265 146.127C48.7683 146.267 48.7383 146.418 48.7383 146.57C48.7383 146.723 48.7683 146.873 48.8265 147.014C48.8848 147.154 48.9702 147.282 49.0777 147.389L49.0663 147.355Z" fill="black"/>
<path d="M154.211 256.334L160.822 248.26C161.035 248.044 161.155 247.752 161.155 247.447C161.155 247.143 161.035 246.85 160.822 246.634C160.607 246.419 160.316 246.299 160.013 246.299C159.709 246.299 159.418 246.419 159.203 246.634L152.582 254.708C152.474 254.815 152.389 254.942 152.33 255.083C152.272 255.223 152.242 255.374 152.242 255.526C152.242 255.679 152.272 255.829 152.33 255.97C152.389 256.111 152.474 256.238 152.582 256.345C152.688 256.453 152.815 256.539 152.955 256.598C153.095 256.656 153.245 256.687 153.396 256.687C153.548 256.687 153.698 256.656 153.838 256.598C153.978 256.539 154.105 256.453 154.211 256.345V256.334Z" fill="black"/>
<path d="M152.181 248.918L158.757 252.378C158.887 252.454 159.031 252.505 159.181 252.525C159.33 252.546 159.482 252.537 159.628 252.498C159.774 252.46 159.911 252.392 160.032 252.3C160.152 252.209 160.253 252.094 160.329 251.963C160.405 251.832 160.455 251.687 160.476 251.536C160.496 251.386 160.487 251.233 160.449 251.086C160.41 250.94 160.343 250.802 160.252 250.681C160.16 250.56 160.046 250.459 159.916 250.382L153.34 246.922C153.077 246.785 152.772 246.754 152.488 246.837C152.204 246.92 151.962 247.11 151.814 247.367C151.666 247.625 151.623 247.93 151.693 248.219C151.764 248.508 151.942 248.758 152.192 248.918H152.181Z" fill="black"/>
<path d="M156.209 245.411C155.932 248.204 156.154 251.024 156.864 253.738C156.904 253.884 156.972 254.021 157.064 254.141C157.157 254.26 157.272 254.361 157.403 254.436C157.534 254.511 157.679 254.559 157.828 254.578C157.978 254.597 158.13 254.586 158.275 254.545C158.421 254.505 158.557 254.437 158.676 254.344C158.795 254.251 158.895 254.135 158.969 254.003C159.044 253.872 159.092 253.726 159.111 253.576C159.129 253.426 159.118 253.273 159.079 253.127C158.429 250.61 158.235 247.997 158.505 245.411C158.505 245.105 158.384 244.812 158.169 244.596C157.953 244.379 157.661 244.258 157.357 244.258C157.053 244.258 156.761 244.379 156.546 244.596C156.33 244.812 156.209 245.105 156.209 245.411Z" fill="black"/>
<path d="M204.009 58.3177C204.366 57.9084 204.749 57.5231 205.157 57.1644L205.455 56.9222C205.317 57.026 205.513 56.9222 205.535 56.853L206.178 56.4147C206.596 56.1415 207.034 55.8986 207.486 55.6881C207.544 55.6881 207.785 55.5036 207.842 55.5267C207.9 55.5497 207.659 55.6074 207.842 55.5267L208.003 55.4575L208.783 55.1922C208.929 55.1522 209.065 55.0837 209.184 54.9907C209.303 54.8977 209.403 54.782 209.478 54.6503C209.552 54.5185 209.6 54.3733 209.619 54.2229C209.638 54.0724 209.627 53.9198 209.587 53.7736C209.547 53.6261 209.478 53.4881 209.385 53.3674C209.292 53.2468 209.175 53.146 209.043 53.0709C208.911 52.9957 208.765 52.9478 208.614 52.9299C208.463 52.9119 208.31 52.9243 208.164 52.9663C205.954 53.6576 203.971 54.9369 202.425 56.6685C202.318 56.7757 202.232 56.9033 202.174 57.0438C202.116 57.1843 202.086 57.3351 202.086 57.4873C202.086 57.6396 202.116 57.7903 202.174 57.9309C202.232 58.0714 202.318 58.199 202.425 58.3062C202.64 58.521 202.931 58.6416 203.234 58.6416C203.538 58.6416 203.829 58.521 204.044 58.3062L204.009 58.3177Z" fill="black"/>
<path d="M202.641 53.7502L209.32 58.3636C209.45 58.4403 209.594 58.4905 209.744 58.5111C209.894 58.5318 210.046 58.5226 210.192 58.484C210.338 58.4454 210.475 58.3782 210.595 58.2863C210.715 58.1944 210.816 58.0796 210.892 57.9484C210.969 57.8174 211.019 57.6726 211.039 57.5223C211.06 57.3719 211.05 57.219 211.012 57.0722C210.974 56.9254 210.907 56.7876 210.815 56.6669C210.724 56.5461 210.61 56.4446 210.479 56.3683L203.8 51.755C203.538 51.599 203.226 51.5539 202.931 51.6296C202.636 51.7053 202.383 51.8956 202.228 52.1587C202.151 52.2896 202.102 52.4344 202.081 52.5848C202.06 52.7351 202.07 52.8881 202.108 53.0349C202.146 53.1817 202.213 53.3194 202.305 53.4402C202.396 53.561 202.51 53.6624 202.641 53.7387V53.7502Z" fill="black"/>
<path d="M30.3733 219.691C31.1996 217.223 31.7389 214.663 32.5652 212.194C32.6053 212.048 32.6163 211.896 32.5976 211.745C32.5789 211.595 32.5308 211.449 32.4562 211.318C32.3816 211.186 32.2819 211.07 32.1627 210.977C32.0436 210.884 31.9074 210.816 31.7619 210.776C31.6165 210.736 31.4646 210.724 31.3149 210.743C31.1652 210.762 31.0207 210.81 30.8896 210.885C30.7585 210.96 30.6434 211.061 30.5508 211.18C30.4583 211.3 30.3902 211.437 30.3503 211.583C29.524 214.051 28.9847 216.612 28.1584 219.08C28.1183 219.226 28.1073 219.379 28.126 219.529C28.1448 219.679 28.1928 219.825 28.2674 219.956C28.342 220.088 28.4417 220.204 28.5609 220.297C28.68 220.39 28.8162 220.458 28.9617 220.498C29.1071 220.539 29.259 220.55 29.4087 220.531C29.5584 220.512 29.7029 220.464 29.834 220.389C29.9651 220.314 30.0803 220.214 30.1728 220.094C30.2653 219.974 30.3334 219.837 30.3733 219.691Z" fill="black"/>
<path d="M26.4009 213.775C28.769 216.118 31.3554 218.227 34.1244 220.073C34.2542 220.168 34.4025 220.234 34.5595 220.268C34.7166 220.301 34.8789 220.302 35.036 220.268C35.1931 220.235 35.3416 220.169 35.4717 220.075C35.6018 219.98 35.7108 219.859 35.7915 219.72C35.8722 219.58 35.9229 219.425 35.9403 219.265C35.9576 219.104 35.9413 218.942 35.8923 218.788C35.8434 218.634 35.7629 218.493 35.656 218.372C35.5492 218.252 35.4183 218.155 35.272 218.089C32.6651 216.35 30.2322 214.361 28.0076 212.149C27.9047 212.029 27.7781 211.93 27.6357 211.861C27.4933 211.792 27.3382 211.753 27.1802 211.747C27.0221 211.741 26.8645 211.768 26.7173 211.826C26.57 211.884 26.4363 211.971 26.3244 212.084C26.2126 212.196 26.1251 212.331 26.0674 212.479C26.0097 212.627 25.983 212.785 25.9891 212.944C25.9952 213.103 26.034 213.259 26.1028 213.402C26.1717 213.545 26.2693 213.672 26.3894 213.775H26.4009Z" fill="black"/>
<path d="M13.2157 26.9638C14.0535 24.4956 14.5929 21.9352 15.4192 19.4671C15.4599 19.321 15.4715 19.1682 15.4534 19.0175C15.4354 18.8668 15.388 18.7212 15.3139 18.5889C15.2398 18.4567 15.1406 18.3403 15.0218 18.2466C14.903 18.1529 14.767 18.0836 14.6216 18.0427C14.4761 18.0018 14.3241 17.9901 14.1742 18.0083C14.0242 18.0264 13.8793 18.0741 13.7477 18.1485C13.6161 18.223 13.5004 18.3227 13.4071 18.4421C13.3139 18.5615 13.245 18.6982 13.2043 18.8443C12.378 21.347 11.8386 23.8844 11.0123 26.3525C10.9726 26.5002 10.9626 26.6544 10.9828 26.806C11.003 26.9576 11.053 27.1037 11.1299 27.2357C11.2068 27.3677 11.309 27.4831 11.4307 27.575C11.5524 27.6669 11.691 27.7336 11.8386 27.7711C11.984 27.8114 12.1359 27.8224 12.2856 27.8036C12.4353 27.7848 12.5798 27.7365 12.7109 27.6616C12.842 27.5866 12.9571 27.4863 13.0497 27.3666C13.1422 27.2469 13.2103 27.11 13.2502 26.9638H13.2157Z" fill="black"/>
<path d="M9.34898 21.4242C11.7201 23.7634 14.3061 25.8718 17.0725 27.7214C17.3347 27.8593 17.6399 27.89 17.9242 27.8071C18.2084 27.7242 18.4499 27.5342 18.598 27.2766C18.7461 27.0191 18.7895 26.714 18.7191 26.425C18.6487 26.1361 18.4699 25.8857 18.2201 25.7261C15.619 23.9839 13.1902 21.9949 10.9671 19.7864C10.751 19.5693 10.4579 19.4473 10.1523 19.4473C9.8467 19.4473 9.5536 19.5693 9.3375 19.7864C9.1214 20.0036 9 20.2982 9 20.6053C9 20.9125 9.1214 21.207 9.3375 21.4242H9.34898Z" fill="black"/>
<path d="M205.384 51.6516C205.384 51.7785 205.384 51.7785 205.384 51.6516C205.384 51.6516 205.384 51.7439 205.384 51.79V52.136V52.7357C205.407 53.1775 205.407 53.6202 205.384 54.0621V54.4081C205.384 54.4081 205.384 54.7656 205.384 54.4888C205.372 54.7034 205.338 54.9161 205.28 55.1231C205.192 55.5594 205.081 55.9906 204.947 56.4149C204.907 56.561 204.896 56.7137 204.915 56.8641C204.934 57.0145 204.982 57.1598 205.056 57.2915C205.131 57.4233 205.231 57.539 205.35 57.632C205.469 57.7249 205.605 57.7934 205.751 57.8335C205.896 57.8737 206.048 57.8848 206.198 57.866C206.347 57.8472 206.492 57.7989 206.623 57.7239C206.754 57.6489 206.869 57.5487 206.962 57.429C207.054 57.3092 207.122 57.1723 207.162 57.0261C207.754 55.0931 207.903 53.0509 207.598 51.0519C207.559 50.9056 207.49 50.7687 207.398 50.649C207.305 50.5293 207.19 50.4291 207.059 50.3541C206.928 50.2791 206.784 50.2308 206.634 50.212C206.484 50.1932 206.332 50.2043 206.187 50.2445C206.041 50.2846 205.905 50.353 205.786 50.446C205.667 50.539 205.567 50.6547 205.493 50.7864C205.418 50.9182 205.37 51.0634 205.351 51.2139C205.332 51.3643 205.343 51.517 205.384 51.6631V51.6516Z" fill="black"/>
<path d="M7.96908 258.115C8.32604 257.706 8.70941 257.321 9.1167 256.962L9.41508 256.72C9.41508 256.72 9.58722 256.581 9.41508 256.72L9.50689 256.651L10.1381 256.212C10.5603 255.939 11.0013 255.696 11.4578 255.486C11.4578 255.486 11.7562 255.301 11.8136 255.324C11.871 255.347 11.6185 255.393 11.8136 255.324L11.9743 255.255L12.7432 254.99C13.0369 254.909 13.2865 254.714 13.4372 254.448C13.5878 254.182 13.6272 253.866 13.5465 253.571C13.4659 253.276 13.2718 253.025 13.0071 252.874C12.7424 252.722 12.4287 252.683 12.1349 252.764C9.90427 253.446 7.90068 254.726 6.33946 256.466C6.2319 256.573 6.14652 256.701 6.08826 256.841C6.03 256.982 6 257.133 6 257.285C6 257.437 6.03 257.588 6.08826 257.728C6.14652 257.869 6.2319 257.997 6.33946 258.104C6.44615 258.212 6.57308 258.298 6.71293 258.356C6.85277 258.415 7.00277 258.445 7.15427 258.445C7.30577 258.445 7.45577 258.415 7.59562 258.356C7.73547 258.298 7.8624 258.212 7.96908 258.104V258.115Z" fill="black"/>
<path d="M6.60187 253.547L13.281 258.161C13.4113 258.237 13.5554 258.287 13.705 258.308C13.8546 258.329 14.0068 258.32 14.1529 258.281C14.299 258.242 14.436 258.175 14.5562 258.083C14.6764 257.991 14.7773 257.877 14.8533 257.745C14.9296 257.614 14.9795 257.47 15 257.319C15.0206 257.169 15.0114 257.016 14.9731 256.869C14.9347 256.722 14.8678 256.585 14.7764 256.464C14.6849 256.343 14.5707 256.242 14.4401 256.165L7.76097 251.552C7.4992 251.396 7.18652 251.351 6.89168 251.427C6.59684 251.502 6.34399 251.693 6.18873 251.956C6.11238 252.086 6.06249 252.231 6.04193 252.382C6.02137 252.532 6.03055 252.685 6.06893 252.832C6.10731 252.979 6.17414 253.116 6.2656 253.237C6.35705 253.358 6.47133 253.459 6.60187 253.536V253.547Z" fill="black"/>
<path d="M9.33383 251.448C9.33383 251.575 9.33383 251.575 9.33383 251.448C9.33383 251.448 9.33383 251.541 9.33383 251.587V251.933V252.533C9.35684 252.974 9.35684 253.417 9.33383 253.859V254.205C9.33383 254.205 9.33383 254.562 9.33383 254.286C9.31153 254.499 9.27704 254.711 9.23054 254.92C9.13873 255.358 9.02397 255.785 8.89773 256.212C8.84158 256.362 8.81714 256.522 8.82598 256.682C8.83482 256.842 8.87674 256.998 8.94907 257.141C9.0214 257.284 9.12255 257.41 9.24607 257.511C9.36958 257.613 9.51276 257.687 9.66647 257.73C9.82017 257.772 9.98104 257.782 10.1388 257.759C10.2966 257.736 10.4477 257.68 10.5827 257.594C10.7177 257.509 10.8335 257.396 10.9228 257.264C11.0121 257.131 11.0728 256.981 11.1012 256.823C11.7036 254.892 11.8529 252.847 11.5373 250.849C11.4974 250.703 11.4293 250.566 11.3368 250.446C11.2442 250.326 11.1291 250.226 10.998 250.151C10.8669 250.076 10.7224 250.028 10.5727 250.009C10.423 249.99 10.2711 250.001 10.1257 250.041C9.98019 250.081 9.84398 250.15 9.72485 250.243C9.60571 250.336 9.50599 250.452 9.43137 250.583C9.35676 250.715 9.30873 250.86 9.29002 251.011C9.27132 251.161 9.2823 251.314 9.32235 251.46L9.33383 251.448Z" fill="black"/>
<path d="M114.679 77.4043C114.983 77.4043 115.275 77.2828 115.49 77.0665C115.706 76.8502 115.826 76.5569 115.826 76.251C115.826 75.9451 115.706 75.6518 115.49 75.4355C115.275 75.2192 114.983 75.0977 114.679 75.0977C114.374 75.0977 114.083 75.2192 113.867 75.4355C113.652 75.6518 113.531 75.9451 113.531 76.251C113.531 76.5569 113.652 76.8502 113.867 77.0665C114.083 77.2828 114.374 77.4043 114.679 77.4043Z" fill="black"/>
<path d="M68.6711 22.6094C68.9754 22.6094 69.2673 22.4879 69.4826 22.2716C69.6978 22.0553 69.8187 21.7619 69.8187 21.4561C69.8187 21.1502 69.6978 20.8568 69.4826 20.6405C69.2673 20.4242 68.9754 20.3027 68.6711 20.3027C68.3667 20.3027 68.0748 20.4242 67.8596 20.6405C67.6443 20.8568 67.5234 21.1502 67.5234 21.4561C67.5234 21.7619 67.6443 22.0553 67.8596 22.2716C68.0748 22.4879 68.3667 22.6094 68.6711 22.6094Z" fill="black"/>
<path d="M147.03 102.998C147.335 102.998 147.627 102.877 147.842 102.66C148.057 102.444 148.178 102.151 148.178 101.845C148.178 101.539 148.057 101.245 147.842 101.029C147.627 100.813 147.335 100.691 147.03 100.691C146.726 100.691 146.434 100.813 146.219 101.029C146.004 101.245 145.883 101.539 145.883 101.845C145.883 102.151 146.004 102.444 146.219 102.66C146.434 102.877 146.726 102.998 147.03 102.998Z" fill="black"/>
<path d="M417.167 147.309C426.669 133.792 426.21 119.941 415.571 109.664C406.884 101.28 385.033 103.829 382.29 122.789C381.82 126.053 381.476 132.558 380.558 132.916C368.106 137.725 369.231 137.829 376.311 145.602C380.179 149.858 376.07 160.872 383.197 163.548C386.133 164.617 389.278 164.976 392.378 164.598V171.818C392.378 171.818 404.405 180.122 416.478 173.432L417.167 147.309Z" fill="white" stroke="black" stroke-miterlimit="10"/>
<path d="M416.717 166.015L416.993 150.376L412.483 142.637C412.483 142.637 424.693 128.993 405.597 128.405L403.772 120.436C403.772 120.436 391.24 122.362 384.125 116.503C390.219 103.366 407.938 102.317 415.558 109.652C420.461 114.428 423.408 120.875 423.821 127.725L430.959 160.272L416.717 166.015Z" fill="#808080" stroke="black" stroke-miterlimit="10"/>
<path d="M385.986 128.912C385.389 130.331 384.746 131.611 387.558 133.825C390.083 135.821 396.062 134.886 396.67 133.468" stroke="black" stroke-miterlimit="10"/>
<path d="M368.081 126.006C367.473 127.436 366.83 128.705 369.642 130.931C372.167 132.915 378.146 131.992 378.754 130.562C379.362 129.132 377.882 125.383 374.932 124.126C371.983 122.869 368.678 124.541 368.081 126.006Z" fill="white" stroke="black" stroke-miterlimit="10"/>
<path d="M370.514 130.274C374.198 130.274 374.209 124.508 370.514 124.508C366.819 124.508 366.807 130.274 370.514 130.274Z" fill="black"/>
<path d="M386.882 152.406C388.675 151.425 390.344 150.228 391.851 148.842C392.065 148.626 392.185 148.334 392.185 148.029C392.185 147.725 392.065 147.432 391.851 147.216C391.636 147.001 391.345 146.881 391.042 146.881C390.739 146.881 390.448 147.001 390.233 147.216C389.877 147.539 389.51 147.851 389.143 148.15L388.879 148.37C388.752 148.473 388.879 148.37 388.879 148.37C388.879 148.37 388.741 148.473 388.706 148.496L388.133 148.923C387.345 149.47 386.529 149.975 385.688 150.434C385.438 150.594 385.26 150.844 385.189 151.133C385.119 151.422 385.162 151.727 385.31 151.985C385.458 152.242 385.7 152.432 385.984 152.515C386.268 152.598 386.574 152.567 386.836 152.429L386.882 152.406Z" fill="black"/>
<path d="M36.595 44.0039L25.3828 71.9146" stroke="black" stroke-miterlimit="10"/>
<path d="M4.67969 173.789L40.2559 179.014" stroke="black" stroke-miterlimit="10"/>
<path d="M74.8438 239.426L91.8515 241.721" stroke="black" stroke-miterlimit="10"/>
<path d="M103.798 220.477L96.4648 238.053" stroke="black" stroke-miterlimit="10"/>
<path d="M37.2227 118.464L63.2162 108.234" stroke="black" stroke-miterlimit="10"/>
<path d="M69.8413 111.336L69.7266 127.067" stroke="black" stroke-miterlimit="10"/>
<path d="M35.6875 124.174L65.7436 132.835" stroke="black" stroke-miterlimit="10"/>
<path d="M306.879 99.9531L293.934 133.723" stroke="black" stroke-miterlimit="10"/>
<path d="M81.3625 260.44C81.6668 260.44 81.9587 260.318 82.1739 260.102C82.3892 259.885 82.5101 259.592 82.5101 259.286C82.5101 258.98 82.3892 258.687 82.1739 258.471C81.9587 258.254 81.6668 258.133 81.3625 258.133C81.0581 258.133 80.7662 258.254 80.551 258.471C80.3358 258.687 80.2148 258.98 80.2148 259.286C80.2148 259.592 80.3358 259.885 80.551 260.102C80.7662 260.318 81.0581 260.44 81.3625 260.44Z" fill="black"/>
<path d="M11.8039 144.76C12.1082 144.76 12.4001 144.638 12.6154 144.422C12.8306 144.206 12.9515 143.912 12.9515 143.606C12.9515 143.301 12.8306 143.007 12.6154 142.791C12.4001 142.575 12.1082 142.453 11.8039 142.453C11.4995 142.453 11.2076 142.575 10.9924 142.791C10.7772 143.007 10.6562 143.301 10.6562 143.606C10.6562 143.912 10.7772 144.206 10.9924 144.422C11.2076 144.638 11.4995 144.76 11.8039 144.76Z" fill="black"/>
<path d="M2.14762 59.3067C2.45199 59.3067 2.74389 59.1852 2.95911 58.9689C3.17433 58.7526 3.29524 58.4592 3.29524 58.1533C3.29524 57.8475 3.17433 57.5541 2.95911 57.3378C2.74389 57.1215 2.45199 57 2.14762 57C1.84325 57 1.55135 57.1215 1.33613 57.3378C1.12091 57.5541 1 57.8475 1 58.1533C1 58.4592 1.12091 58.7526 1.33613 58.9689C1.55135 59.1852 1.84325 59.3067 2.14762 59.3067Z" fill="black"/>
<path d="M86.3664 96.9883C86.6707 96.9883 86.9626 96.8668 87.1778 96.6505C87.3931 96.4342 87.514 96.1409 87.514 95.835C87.514 95.5291 87.3931 95.2357 87.1778 95.0195C86.9626 94.8032 86.6707 94.6816 86.3664 94.6816C86.062 94.6816 85.7701 94.8032 85.5549 95.0195C85.3397 95.2357 85.2188 95.5291 85.2188 95.835C85.2188 96.1409 85.3397 96.4342 85.5549 96.6505C85.7701 96.8668 86.062 96.9883 86.3664 96.9883Z" fill="black"/>
<path d="M106.39 123.699C106.694 123.699 106.986 123.578 107.201 123.361C107.417 123.145 107.537 122.852 107.537 122.546C107.537 122.24 107.417 121.947 107.201 121.73C106.986 121.514 106.694 121.393 106.39 121.393C106.085 121.393 105.794 121.514 105.578 121.73C105.363 121.947 105.242 122.24 105.242 122.546C105.242 122.852 105.363 123.145 105.578 123.361C105.794 123.578 106.085 123.699 106.39 123.699Z" fill="black"/>
<path d="M238.218 33.8906C238.522 33.8906 238.814 33.7691 239.029 33.5528C239.245 33.3366 239.366 33.0432 239.366 32.7373C239.366 32.4314 239.245 32.1381 239.029 31.9218C238.814 31.7055 238.522 31.584 238.218 31.584C237.914 31.584 237.622 31.7055 237.406 31.9218C237.191 32.1381 237.07 32.4314 237.07 32.7373C237.07 33.0432 237.191 33.3366 237.406 33.5528C237.622 33.7691 237.914 33.8906 238.218 33.8906Z" fill="black"/>
</svg>
