<svg width="388" height="376" viewBox="0 0 388 376" fill="none" xmlns="http://www.w3.org/2000/svg">
<path d="M156.89 253.276C181.13 252.825 204.49 265.68 228.07 269.734C251.65 273.787 277.14 274.316 300.43 269.195C357.43 256.673 394.91 214.788 382.88 168.978C373.31 132.547 403.88 84.8661 374.44 49.2965C344.63 13.2766 307.79 5.02305 263.5 2.0271C222.57 -0.74366 151.65 -4.13124 126.89 33.5825C98.5999 76.6615 166.32 126.594 111.7 153.636C68.0599 175.175 20.7499 213.026 45.9999 262.528C72.7399 315.025 116.89 254.01 156.89 253.276Z" fill="#00A8E0"/>
<path opacity="0.9" d="M156.89 253.276C181.13 252.825 204.49 265.68 228.07 269.734C251.65 273.787 277.14 274.316 300.43 269.195C357.43 256.673 394.91 214.788 382.88 168.978C373.31 132.547 403.88 84.8661 374.44 49.2965C344.63 13.2766 307.79 5.02305 263.5 2.0271C222.57 -0.74366 151.65 -4.13124 126.89 33.5825C98.5999 76.6615 166.32 126.594 111.7 153.636C68.0599 175.175 20.7499 213.026 45.9999 262.528C72.7399 315.025 116.89 254.01 156.89 253.276Z" fill="white"/>
<path d="M193.89 375.767C300.972 375.767 387.78 370.805 387.78 364.684C387.78 358.563 300.972 353.601 193.89 353.601C86.8075 353.601 0 358.563 0 364.684C0 370.805 86.8075 375.767 193.89 375.767Z" fill="#F5F5F5"/>
<path d="M323.13 92.6883C323.084 92.6978 323.036 92.6978 322.99 92.6883C322.863 92.652 322.755 92.5676 322.692 92.4538C322.628 92.3399 322.613 92.206 322.65 92.0813C331.6 62.8953 325.17 37.2535 305.45 23.3605C287.37 10.6816 262.71 10.8774 244.08 23.8696C191.37 60.6141 151.08 67.7319 109.32 47.6904C109.261 47.6621 109.208 47.6227 109.164 47.5744C109.121 47.5261 109.088 47.4699 109.066 47.409C109.045 47.3481 109.036 47.2837 109.04 47.2194C109.044 47.1551 109.061 47.0922 109.09 47.0344C109.119 46.9765 109.159 46.9248 109.208 46.8822C109.258 46.8395 109.315 46.8068 109.377 46.7859C109.44 46.765 109.505 46.7563 109.571 46.7603C109.637 46.7643 109.701 46.7809 109.76 46.8092C151.14 66.6745 191.13 59.5371 243.5 23.0668C262.5 9.83956 287.61 9.64375 306.03 22.5675C326.12 36.666 332.69 62.7093 323.61 92.3653C323.574 92.4615 323.509 92.5443 323.423 92.6023C323.337 92.6602 323.234 92.6903 323.13 92.6883V92.6883Z" fill="#00A8E0"/>
<path d="M290.04 242.721C279.933 242.674 269.979 240.303 260.98 235.799C223.98 217.558 195.2 218.381 184.11 237.992C184.079 238.048 184.036 238.098 183.985 238.139C183.934 238.179 183.875 238.21 183.811 238.228C183.748 238.246 183.682 238.252 183.617 238.245C183.551 238.238 183.488 238.218 183.43 238.187C183.315 238.123 183.23 238.018 183.192 237.894C183.155 237.77 183.169 237.636 183.23 237.522C194.62 217.392 223.85 216.423 261.43 234.917C270.415 239.47 280.397 241.811 290.513 241.738C300.629 241.664 310.575 239.179 319.49 234.496C341.58 223.247 358.16 200.562 361.73 176.731C361.74 176.668 361.762 176.606 361.796 176.551C361.83 176.496 361.875 176.448 361.928 176.41C361.981 176.372 362.041 176.344 362.105 176.329C362.169 176.313 362.235 176.31 362.3 176.32C362.43 176.342 362.547 176.412 362.625 176.516C362.703 176.62 362.737 176.75 362.72 176.878C359.1 201.042 342.31 224.001 319.95 235.387C310.731 240.162 300.469 242.678 290.04 242.721V242.721Z" fill="#00A8E0"/>
<path d="M352.09 185.523H351.92C351.795 185.479 351.694 185.388 351.637 185.271C351.581 185.153 351.575 185.019 351.62 184.897C362.35 156.024 347.04 144.491 332.23 133.329C318.23 122.755 303.68 111.79 311.95 86.3928C311.969 86.3309 312.001 86.2736 312.043 86.2241C312.086 86.1746 312.138 86.134 312.197 86.1048C312.256 86.0755 312.32 86.0582 312.386 86.0538C312.452 86.0495 312.518 86.0582 312.58 86.0794C312.642 86.0984 312.699 86.1291 312.749 86.17C312.799 86.2108 312.84 86.261 312.87 86.3174C312.899 86.3739 312.917 86.4356 312.923 86.499C312.928 86.5623 312.92 86.6261 312.9 86.6865C304.89 111.437 318.44 121.639 332.89 132.526C347.98 143.893 363.59 155.652 352.61 185.2C352.576 185.305 352.505 185.395 352.41 185.454C352.315 185.513 352.202 185.538 352.09 185.523Z" fill="#00A8E0"/>
<path opacity="0.1" d="M342.62 190.233C335.31 214.563 307.43 233.205 282.21 227.438C251.63 220.398 235.51 194.884 240.93 170.084C246.35 145.284 274.58 158.022 299.93 152.706C332.45 145.842 349.89 165.894 342.62 190.233Z" fill="#00A8E0"/>
<path d="M197.08 50.4224C197.165 51.087 197.046 51.7613 196.739 52.3597C196.431 52.958 195.949 53.4534 195.353 53.7828C194.758 54.1121 194.075 54.2607 193.393 54.2096C192.711 54.1584 192.06 53.9098 191.522 53.4955C190.985 53.0811 190.585 52.5196 190.375 51.8824C190.164 51.2452 190.151 50.561 190.339 49.9168C190.526 49.2726 190.905 48.6974 191.427 48.2645C191.948 47.8315 192.59 47.5602 193.27 47.4852C194.172 47.3856 195.078 47.638 195.791 48.1878C196.504 48.7376 196.967 49.5405 197.08 50.4224V50.4224Z" fill="white"/>
<path d="M193.65 54.6516C192.89 54.6507 192.146 54.4345 191.508 54.029C190.871 53.6235 190.367 53.046 190.057 52.3663C189.747 51.6865 189.644 50.9335 189.762 50.1981C189.879 49.4626 190.212 48.7762 190.719 48.2215C191.226 47.6668 191.886 47.2676 192.619 47.072C193.353 46.8765 194.129 46.8929 194.853 47.1193C195.577 47.3457 196.219 47.7725 196.701 48.3481C197.183 48.9237 197.485 49.6235 197.57 50.3633V50.3633C197.672 51.3784 197.365 52.3924 196.715 53.1896C196.065 53.9868 195.124 54.5043 194.09 54.632C193.944 54.6481 193.797 54.6547 193.65 54.6516V54.6516ZM193.65 47.9058H193.33C192.752 47.9692 192.207 48.1988 191.763 48.5656C191.318 48.9324 190.995 49.42 190.833 49.9666C190.672 50.5133 190.68 51.0945 190.855 51.6369C191.031 52.1793 191.367 52.6586 191.821 53.0141C192.275 53.3695 192.826 53.5853 193.405 53.6342C193.984 53.683 194.565 53.5628 195.074 53.2885C195.584 53.0143 195.999 52.5984 196.266 52.0934C196.534 51.5884 196.644 51.017 196.58 50.4514V50.4514C196.484 49.7537 196.136 49.113 195.598 48.6458C195.06 48.1785 194.369 47.916 193.65 47.9058Z" fill="#00A8E0"/>
<path d="M315.89 86.1381C315.975 86.8032 315.856 87.478 315.549 88.0768C315.241 88.6755 314.758 89.1711 314.162 89.5004C313.566 89.8297 312.883 89.978 312.2 89.9262C311.518 89.8744 310.866 89.625 310.329 89.2096C309.792 88.7943 309.393 88.2319 309.183 87.5939C308.973 86.9559 308.962 86.2711 309.151 85.6269C309.339 84.9826 309.72 84.4079 310.243 83.9759C310.767 83.5439 311.409 83.2741 312.09 83.2009C312.99 83.104 313.894 83.3577 314.605 83.9073C315.316 84.4568 315.777 85.2581 315.89 86.1381V86.1381Z" fill="white"/>
<path d="M312.42 90.378C311.785 90.3842 311.158 90.2405 310.591 89.9589C310.025 89.6773 309.537 89.2662 309.167 88.7605C308.798 88.2547 308.558 87.6692 308.469 87.0536C308.38 86.438 308.444 85.8104 308.655 85.224C308.867 84.6377 309.219 84.1099 309.683 83.6853C310.147 83.2608 310.709 82.952 311.321 82.7853C311.933 82.6185 312.576 82.5986 313.198 82.7273C313.819 82.856 314.399 83.1295 314.89 83.5245C315.705 84.1689 316.229 85.1004 316.35 86.119V86.119C316.459 87.1366 316.158 88.1557 315.51 88.9583C314.851 89.7276 313.91 90.2128 312.89 90.3094C312.735 90.3435 312.578 90.3664 312.42 90.378V90.378ZM312.42 83.6322C312.31 83.6225 312.2 83.6225 312.09 83.6322C311.701 83.6675 311.323 83.7794 310.98 83.9611C310.636 84.1428 310.333 84.3906 310.09 84.6896C309.847 84.9856 309.666 85.3256 309.558 85.6903C309.45 86.0549 309.417 86.4369 309.46 86.8142C309.56 87.5677 309.955 88.2538 310.561 88.7285C311.167 89.2032 311.937 89.4294 312.71 89.3597C313.494 89.2753 314.212 88.8919 314.71 88.2926C314.952 87.9982 315.131 87.6595 315.238 87.2964C315.344 86.9332 315.375 86.5529 315.33 86.1778C315.255 85.4716 314.915 84.8177 314.375 84.3436C313.836 83.8694 313.135 83.6089 312.41 83.6126L312.42 83.6322Z" fill="#00A8E0"/>
<path d="M350.24 211.713C350.323 212.376 350.203 213.048 349.895 213.643C349.587 214.239 349.106 214.732 348.511 215.059C347.917 215.386 347.237 215.533 346.557 215.481C345.878 215.429 345.229 215.18 344.694 214.766C344.159 214.353 343.761 213.793 343.552 213.158C343.342 212.522 343.33 211.841 343.518 211.199C343.705 210.557 344.082 209.984 344.603 209.552C345.123 209.121 345.762 208.851 346.44 208.776C347.34 208.679 348.244 208.933 348.955 209.483C349.666 210.032 350.127 210.833 350.24 211.713V211.713Z" fill="white"/>
<path d="M346.81 215.973C346.047 215.972 345.301 215.755 344.661 215.349C344.022 214.942 343.516 214.362 343.206 213.68C342.895 212.998 342.793 212.242 342.911 211.505C343.03 210.767 343.364 210.079 343.873 209.523C344.383 208.967 345.046 208.567 345.782 208.372C346.518 208.177 347.296 208.195 348.023 208.424C348.749 208.653 349.392 209.082 349.874 209.661C350.356 210.239 350.657 210.942 350.74 211.685V211.685C350.797 212.189 350.752 212.699 350.607 213.186C350.462 213.673 350.221 214.127 349.897 214.523C349.573 214.918 349.172 215.247 348.718 215.491C348.264 215.735 347.765 215.889 347.25 215.944C347.104 215.963 346.957 215.973 346.81 215.973V215.973ZM346.81 209.227C346.7 209.218 346.59 209.218 346.48 209.227C345.903 209.292 345.359 209.524 344.916 209.891C344.473 210.259 344.151 210.747 343.991 211.294C343.831 211.84 343.84 212.421 344.017 212.963C344.194 213.504 344.53 213.982 344.984 214.337C345.438 214.692 345.989 214.906 346.568 214.955C347.147 215.003 347.727 214.882 348.236 214.608C348.744 214.334 349.159 213.918 349.426 213.413C349.694 212.909 349.803 212.338 349.74 211.773C349.654 211.005 349.262 210.302 348.65 209.815C348.125 209.423 347.48 209.216 346.82 209.227H346.81Z" fill="#00A8E0"/>
<path d="M314.96 211.244C314.643 211.833 314.155 212.317 313.558 212.635C312.96 212.953 312.28 213.09 311.603 213.03C310.926 212.969 310.282 212.713 309.753 212.295C309.224 211.876 308.834 211.314 308.632 210.678C308.429 210.043 308.424 209.363 308.616 208.724C308.808 208.085 309.189 207.517 309.711 207.09C310.233 206.663 310.873 206.398 311.549 206.327C312.225 206.256 312.907 206.383 313.51 206.691C313.913 206.895 314.27 207.174 314.562 207.514C314.853 207.854 315.073 208.247 315.208 208.671C315.343 209.094 315.39 209.54 315.348 209.982C315.305 210.423 315.173 210.852 314.96 211.244V211.244Z" fill="white"/>
<path d="M311.89 213.545C311.253 213.543 310.625 213.392 310.06 213.104C309.143 212.618 308.456 211.8 308.146 210.825C307.836 209.851 307.927 208.796 308.4 207.886C308.894 206.993 309.728 206.327 310.72 206.031C311.712 205.734 312.783 205.832 313.702 206.302C314.622 206.773 315.315 207.579 315.632 208.545C315.95 209.512 315.867 210.562 315.4 211.469V211.469C315.061 212.093 314.555 212.615 313.937 212.981C313.319 213.346 312.612 213.541 311.89 213.545ZM311.89 206.799C311.369 206.799 310.857 206.934 310.407 207.191C309.957 207.448 309.585 207.818 309.329 208.262C309.073 208.706 308.942 209.209 308.949 209.719C308.956 210.229 309.102 210.728 309.371 211.164C309.64 211.601 310.023 211.96 310.48 212.204C310.938 212.449 311.453 212.57 311.974 212.555C312.495 212.54 313.002 212.39 313.444 212.12C313.886 211.85 314.247 211.47 314.49 211.019V211.019C314.846 210.337 314.915 209.545 314.683 208.814C314.452 208.082 313.937 207.468 313.25 207.103C312.826 206.905 312.36 206.808 311.89 206.819V206.799Z" fill="#00A8E0"/>
<path d="M324.8 197.879C324.707 197.877 324.619 197.842 324.55 197.781L304.37 179.943C304.313 179.874 304.282 179.788 304.284 179.699C304.286 179.611 304.32 179.526 304.381 179.46C304.441 179.393 304.523 179.351 304.613 179.339C304.703 179.327 304.794 179.347 304.87 179.395L324.52 196.763L327.23 175.801C327.236 175.754 327.252 175.708 327.276 175.666C327.301 175.624 327.334 175.588 327.373 175.558C327.412 175.529 327.457 175.508 327.504 175.496C327.552 175.484 327.601 175.481 327.65 175.488C327.699 175.494 327.746 175.51 327.788 175.534C327.831 175.558 327.868 175.59 327.898 175.628C327.928 175.666 327.95 175.71 327.962 175.757C327.974 175.803 327.977 175.852 327.97 175.899L325.17 197.556C325.162 197.622 325.136 197.685 325.093 197.737C325.051 197.789 324.994 197.828 324.93 197.85C324.89 197.87 324.845 197.88 324.8 197.879Z" fill="#263238"/>
<path d="M311.89 210.049C311.839 210.049 311.789 210.038 311.742 210.018C311.696 209.998 311.654 209.968 311.62 209.932C311.551 209.862 311.512 209.769 311.512 209.672C311.512 209.575 311.551 209.482 311.62 209.413L324.51 197.243C324.581 197.176 324.676 197.138 324.775 197.138C324.874 197.138 324.969 197.176 325.04 197.243C325.075 197.277 325.103 197.317 325.123 197.362C325.142 197.406 325.152 197.454 325.152 197.503C325.152 197.551 325.142 197.599 325.123 197.643C325.103 197.688 325.075 197.728 325.04 197.762L312.15 209.932C312.117 209.968 312.077 209.997 312.032 210.017C311.988 210.037 311.939 210.048 311.89 210.049V210.049Z" fill="#263238"/>
<path d="M307.28 181.03C307.011 181.551 306.59 181.982 306.071 182.267C305.551 182.553 304.956 182.681 304.362 182.635C303.768 182.588 303.201 182.369 302.735 182.006C302.268 181.643 301.922 181.152 301.742 180.596C301.562 180.039 301.555 179.443 301.722 178.883C301.889 178.323 302.223 177.824 302.681 177.45C303.139 177.077 303.7 176.845 304.293 176.785C304.886 176.725 305.484 176.839 306.01 177.113C306.703 177.474 307.223 178.086 307.461 178.818C307.698 179.55 307.633 180.344 307.28 181.03V181.03Z" fill="#00A8E0"/>
<path d="M329.48 176.81C329.286 177.174 328.986 177.473 328.619 177.67C328.251 177.868 327.832 177.954 327.414 177.918C326.996 177.882 326.599 177.725 326.272 177.468C325.945 177.211 325.704 176.865 325.578 176.473C325.452 176.082 325.448 175.662 325.565 175.268C325.683 174.874 325.917 174.523 326.238 174.259C326.56 173.996 326.954 173.831 327.37 173.787C327.787 173.742 328.208 173.82 328.58 174.009C328.827 174.135 329.046 174.308 329.225 174.517C329.404 174.726 329.539 174.967 329.622 175.227C329.706 175.487 329.736 175.761 329.712 176.032C329.687 176.304 329.609 176.568 329.48 176.81V176.81Z" fill="#263238"/>
<path d="M208.24 135.288C208.256 134.622 208.473 133.976 208.864 133.431C209.255 132.886 209.803 132.467 210.437 132.226C211.072 131.986 211.765 131.935 212.429 132.08C213.093 132.225 213.698 132.56 214.167 133.042C214.637 133.523 214.95 134.131 215.068 134.787C215.185 135.443 215.101 136.118 214.826 136.727C214.551 137.337 214.098 137.853 213.524 138.21C212.95 138.567 212.28 138.749 211.6 138.734C211.148 138.725 210.702 138.629 210.288 138.451C209.874 138.272 209.5 138.016 209.188 137.695C208.875 137.375 208.631 136.997 208.468 136.584C208.306 136.171 208.228 135.73 208.24 135.288V135.288Z" fill="white"/>
<path d="M211.68 139.262H211.58C210.541 139.239 209.554 138.814 208.834 138.08C208.115 137.346 207.721 136.363 207.74 135.346C207.764 134.328 208.197 133.361 208.947 132.654C209.696 131.948 210.7 131.561 211.74 131.577C212.752 131.638 213.702 132.077 214.392 132.805C215.082 133.533 215.46 134.493 215.447 135.486C215.434 136.479 215.032 137.429 214.323 138.139C213.614 138.85 212.654 139.266 211.64 139.301L211.68 139.262ZM211.68 132.517C210.912 132.516 210.175 132.81 209.625 133.335C209.076 133.86 208.758 134.575 208.74 135.326C208.724 136.088 209.017 136.825 209.555 137.376C210.093 137.926 210.832 138.246 211.61 138.264C211.997 138.279 212.382 138.216 212.744 138.08C213.105 137.943 213.434 137.736 213.71 137.471C214.134 137.076 214.428 136.565 214.554 136.006C214.681 135.446 214.633 134.862 214.418 134.329C214.204 133.796 213.831 133.337 213.348 133.013C212.866 132.688 212.295 132.512 211.71 132.507L211.68 132.517Z" fill="#00A8E0"/>
<path d="M198.97 135.346C198.877 135.347 198.787 135.315 198.717 135.255C198.647 135.196 198.602 135.113 198.59 135.023L197.44 124.841C197.43 124.792 197.43 124.742 197.44 124.694L201.44 111.085C201.474 111 201.539 110.931 201.622 110.891C201.705 110.851 201.801 110.844 201.89 110.869C201.987 110.897 202.068 110.961 202.117 111.047C202.166 111.133 202.178 111.235 202.15 111.33L198.21 124.87L199.36 134.974C199.369 135.071 199.339 135.167 199.278 135.244C199.217 135.32 199.128 135.371 199.03 135.385L198.97 135.346Z" fill="#263238"/>
<path d="M211.68 135.738C211.597 135.736 211.516 135.709 211.45 135.66L197.58 125.076C197.502 125.015 197.453 124.926 197.441 124.829C197.43 124.732 197.458 124.634 197.52 124.557C197.55 124.52 197.588 124.489 197.63 124.466C197.673 124.442 197.719 124.428 197.768 124.422C197.816 124.417 197.865 124.421 197.911 124.434C197.958 124.447 198.002 124.469 198.04 124.498L211.89 135.082C211.966 135.142 212.016 135.228 212.029 135.323C212.042 135.418 212.017 135.514 211.96 135.591C211.927 135.634 211.885 135.669 211.836 135.695C211.788 135.72 211.735 135.735 211.68 135.738V135.738Z" fill="#263238"/>
<path d="M198.77 111.104C198.784 110.524 198.974 109.96 199.315 109.485C199.656 109.009 200.133 108.644 200.686 108.434C201.24 108.225 201.844 108.18 202.423 108.307C203.002 108.434 203.53 108.725 203.939 109.146C204.349 109.566 204.622 110.096 204.724 110.668C204.827 111.24 204.753 111.829 204.513 112.36C204.274 112.892 203.879 113.341 203.378 113.653C202.877 113.964 202.293 114.123 201.7 114.11C201.306 114.101 200.918 114.016 200.557 113.86C200.197 113.705 199.871 113.481 199.599 113.201C199.327 112.922 199.114 112.593 198.971 112.234C198.829 111.874 198.761 111.49 198.77 111.104V111.104Z" fill="#00A8E0"/>
<path d="M196.89 134.916C196.898 134.502 197.031 134.101 197.273 133.762C197.514 133.423 197.853 133.162 198.247 133.012C198.64 132.862 199.07 132.83 199.482 132.92C199.894 133.01 200.269 133.217 200.561 133.516C200.852 133.815 201.046 134.192 201.118 134.599C201.19 135.006 201.137 135.425 200.966 135.803C200.794 136.181 200.512 136.5 200.155 136.72C199.798 136.94 199.382 137.052 198.96 137.04C198.398 137.025 197.866 136.793 197.478 136.395C197.091 135.997 196.879 135.465 196.89 134.916V134.916Z" fill="#263238"/>
<path d="M297.56 121.718L305.08 138.362C305.18 138.588 305.234 138.83 305.239 139.076C305.243 139.322 305.197 139.567 305.104 139.795C305.011 140.024 304.872 140.232 304.697 140.408C304.521 140.584 304.311 140.724 304.08 140.82C303.614 141.013 303.089 141.019 302.619 140.835C302.149 140.652 301.772 140.295 301.57 139.84L294.04 123.196C293.842 122.74 293.837 122.226 294.024 121.766C294.211 121.306 294.576 120.937 295.04 120.739V120.739C295.507 120.542 296.034 120.535 296.507 120.718C296.979 120.902 297.358 121.261 297.56 121.718V121.718Z" fill="#00A8E0"/>
<path d="M248.44 217.745L274.13 215.983C274.436 215.964 274.737 216.065 274.968 216.263C275.198 216.461 275.339 216.74 275.36 217.04V217.04C275.379 217.338 275.278 217.632 275.077 217.857C274.877 218.083 274.594 218.222 274.29 218.244L248.6 220.007C248.448 220.017 248.295 219.998 248.151 219.951C248.007 219.903 247.874 219.828 247.759 219.73C247.645 219.631 247.551 219.512 247.485 219.378C247.418 219.244 247.379 219.098 247.37 218.949V218.949C247.359 218.801 247.378 218.653 247.426 218.512C247.474 218.371 247.55 218.241 247.649 218.129C247.749 218.018 247.87 217.926 248.005 217.86C248.141 217.794 248.289 217.755 248.44 217.745V217.745Z" fill="#263238"/>
<path d="M203.99 79.7255L228.78 86.579C228.926 86.6195 229.063 86.688 229.182 86.7805C229.301 86.873 229.4 86.9876 229.473 87.1178C229.547 87.2479 229.593 87.3911 229.61 87.5389C229.626 87.6867 229.613 87.8363 229.57 87.979C229.486 88.2662 229.29 88.5094 229.024 88.656C228.758 88.8026 228.444 88.8408 228.15 88.7623L203.36 81.9088C203.214 81.8682 203.077 81.7997 202.958 81.7073C202.839 81.6148 202.74 81.5001 202.667 81.37C202.593 81.2398 202.547 81.0967 202.53 80.9488C202.514 80.801 202.527 80.6514 202.57 80.5087V80.5087C202.654 80.2216 202.85 79.9784 203.116 79.8318C203.381 79.6852 203.696 79.647 203.99 79.7255Z" fill="#263238"/>
<path d="M185.5 65.8326L172.5 73.9589C172.148 74.1761 171.723 74.2486 171.316 74.1606C170.91 74.0726 170.556 73.8313 170.33 73.4889V73.4889C170.105 73.1435 170.029 72.7247 170.119 72.3246C170.209 71.9244 170.458 71.5756 170.81 71.3546L183.81 63.2283C184.165 63.0115 184.592 62.9403 185 63.0301C185.409 63.1199 185.764 63.3635 185.99 63.7081V63.7081C186.101 63.879 186.176 64.0696 186.211 64.269C186.246 64.4683 186.241 64.6726 186.196 64.87C186.15 65.0674 186.065 65.254 185.946 65.4192C185.826 65.5844 185.675 65.7249 185.5 65.8326V65.8326Z" fill="#00A8E0"/>
<path d="M252.82 124.714C252.739 124.713 252.66 124.687 252.596 124.639C252.531 124.592 252.483 124.525 252.46 124.449C252.436 124.355 252.45 124.254 252.501 124.17C252.551 124.086 252.634 124.024 252.73 123.999L269.93 119.466C270.023 119.449 270.12 119.468 270.2 119.517C270.28 119.567 270.338 119.644 270.363 119.734C270.388 119.823 270.378 119.919 270.335 120.001C270.292 120.084 270.219 120.148 270.13 120.181L252.89 124.704L252.82 124.714Z" fill="#263238"/>
<path d="M268.89 120.436C268.767 120.222 268.712 119.977 268.731 119.732C268.75 119.487 268.843 119.253 268.998 119.06C269.152 118.867 269.362 118.723 269.6 118.646C269.838 118.569 270.094 118.563 270.335 118.628C270.577 118.693 270.793 118.827 270.958 119.013C271.122 119.198 271.226 119.427 271.258 119.671C271.289 119.914 271.246 120.162 271.135 120.381C271.023 120.601 270.847 120.784 270.63 120.906C270.485 120.989 270.324 121.043 270.157 121.065C269.99 121.086 269.821 121.074 269.659 121.031C269.496 120.987 269.345 120.912 269.213 120.809C269.081 120.707 268.971 120.58 268.89 120.436V120.436Z" fill="#00A8E0"/>
<path d="M251.71 124.97C251.545 124.68 251.503 124.338 251.595 124.018C251.687 123.699 251.905 123.428 252.2 123.265C252.345 123.184 252.505 123.131 252.67 123.11C252.836 123.09 253.004 123.102 253.165 123.146C253.326 123.189 253.477 123.264 253.608 123.365C253.739 123.467 253.849 123.592 253.93 123.735C254.028 123.879 254.095 124.04 254.127 124.21C254.159 124.38 254.154 124.555 254.114 124.723C254.073 124.891 253.998 125.049 253.892 125.187C253.787 125.325 253.653 125.441 253.5 125.526C253.346 125.611 253.177 125.664 253.001 125.682C252.826 125.7 252.649 125.683 252.481 125.631C252.313 125.578 252.158 125.493 252.025 125.379C251.892 125.265 251.785 125.126 251.71 124.97Z" fill="#00A8E0"/>
<path d="M281.28 164.113C281.442 163.721 281.477 163.289 281.378 162.877C281.28 162.465 281.053 162.093 280.73 161.812L250.51 138.128C250.372 138.009 250.207 137.925 250.028 137.884C249.849 137.842 249.663 137.845 249.486 137.892C249.308 137.938 249.145 138.027 249.012 138.15C248.878 138.274 248.778 138.428 248.72 138.598L239.09 160.138L219.89 174.266C219.731 174.359 219.598 174.489 219.504 174.645C219.41 174.8 219.357 174.977 219.35 175.158C219.343 175.339 219.382 175.518 219.464 175.681C219.546 175.843 219.669 175.983 219.82 176.087L250.04 199.771C250.39 200.015 250.81 200.146 251.24 200.146C251.67 200.146 252.089 200.015 252.44 199.771L271.69 185.613L281.28 164.113Z" fill="#00A8E0"/>
<path d="M270.72 184.888L238.16 159.374L247.8 137.834C247.856 137.664 247.955 137.51 248.088 137.386C248.221 137.263 248.383 137.174 248.56 137.127C248.736 137.08 248.922 137.078 249.1 137.119C249.279 137.161 249.443 137.245 249.58 137.364L279.81 161.048C280.132 161.33 280.356 161.703 280.453 162.115C280.55 162.527 280.514 162.958 280.35 163.349L270.72 184.888Z" fill="#00A8E0"/>
<path d="M269.97 182.079C269.914 182.079 269.86 182.058 269.82 182.021L240.6 159.13C240.505 159.035 240.44 158.915 240.412 158.785C240.383 158.655 240.393 158.52 240.44 158.396L248.89 139.451C248.906 139.416 248.93 139.385 248.959 139.36C248.988 139.334 249.023 139.315 249.06 139.304C249.098 139.297 249.137 139.297 249.175 139.306C249.213 139.314 249.249 139.33 249.28 139.353L278.49 162.243C278.588 162.337 278.655 162.456 278.684 162.587C278.712 162.717 278.7 162.854 278.65 162.978L270.16 181.932C270.145 181.967 270.121 181.997 270.092 182.021C270.062 182.045 270.027 182.062 269.99 182.07L269.97 182.079ZM240.97 158.758L269.89 181.443L278.24 162.762C278.254 162.708 278.254 162.65 278.24 162.596L249.29 139.921L240.89 158.591C240.871 158.645 240.871 158.704 240.89 158.758H240.97Z" fill="white"/>
<path d="M270.72 184.889L238.16 159.374L218.89 173.531C218.733 173.626 218.603 173.757 218.51 173.912C218.417 174.068 218.365 174.244 218.358 174.424C218.351 174.604 218.39 174.783 218.47 174.945C218.551 175.107 218.671 175.247 218.82 175.352L249.05 199.036C249.4 199.282 249.819 199.414 250.25 199.414C250.68 199.414 251.1 199.282 251.45 199.036L270.72 184.889Z" fill="#00A8E0"/>
<path opacity="0.3" d="M228.89 169.615L236.7 163.877C237.077 163.61 237.53 163.467 237.995 163.467C238.46 163.467 238.913 163.61 239.29 163.877L264.79 183.85C264.948 183.965 265.076 184.116 265.161 184.291C265.247 184.465 265.287 184.657 265.279 184.85C265.271 185.043 265.215 185.231 265.116 185.398C265.017 185.565 264.877 185.706 264.71 185.808L256.91 191.546C256.53 191.81 256.076 191.953 255.61 191.953C255.144 191.953 254.689 191.81 254.31 191.546L228.82 171.573C228.665 171.456 228.54 171.304 228.457 171.131C228.373 170.958 228.334 170.767 228.34 170.576C228.347 170.384 228.401 170.197 228.496 170.03C228.592 169.863 228.727 169.72 228.89 169.615V169.615Z" fill="white"/>
<path opacity="0.3" d="M230.29 181.08L234.23 178.143C234.4 178.023 234.605 177.958 234.815 177.958C235.025 177.958 235.229 178.023 235.4 178.143L245.89 186.397C245.964 186.446 246.025 186.512 246.067 186.59C246.109 186.668 246.131 186.754 246.131 186.842C246.131 186.93 246.109 187.016 246.067 187.094C246.025 187.172 245.964 187.238 245.89 187.287L241.89 190.176C241.719 190.296 241.515 190.361 241.305 190.361C241.095 190.361 240.89 190.296 240.72 190.176L230.25 181.971C230.178 181.919 230.12 181.85 230.081 181.77C230.043 181.691 230.024 181.603 230.028 181.515C230.032 181.427 230.058 181.342 230.104 181.266C230.149 181.19 230.213 181.126 230.29 181.08V181.08Z" fill="white"/>
<path opacity="0.4" d="M302.89 69.6222C304.353 64.5255 304.474 59.1489 303.24 53.9944C302.006 48.8398 299.458 44.0754 295.835 40.1461C292.211 36.2167 287.629 33.2505 282.517 31.5244C277.405 29.7983 271.93 29.3687 266.602 30.2756C261.275 31.1825 256.269 33.3964 252.052 36.7106C247.835 40.0247 244.545 44.331 242.489 49.2274C240.432 54.1238 239.676 59.4506 240.292 64.7103C240.908 69.9701 242.875 74.9913 246.01 79.3051C247.135 80.8114 247.903 82.5437 248.26 84.3767C248.668 86.6042 249.707 88.675 251.257 90.3537C252.807 92.0325 254.807 93.2519 257.03 93.8737L267.22 96.7032C269.445 97.3239 271.803 97.3199 274.025 96.6915C276.248 96.0631 278.245 94.8356 279.79 93.1491C281.058 91.7784 282.627 90.7072 284.38 90.0161C288.836 88.2032 292.816 85.4271 296.021 81.8954C299.227 78.3637 301.575 74.1679 302.89 69.6222V69.6222Z" fill="#00A8E0"/>
<path d="M268.54 104.467L251.8 99.8066C251.194 99.6356 250.681 99.2372 250.374 98.698C250.067 98.1589 249.99 97.5227 250.16 96.9281V96.9281C250.247 96.6286 250.394 96.349 250.593 96.1056C250.791 95.8623 251.037 95.66 251.316 95.5106C251.596 95.3612 251.902 95.2676 252.219 95.2353C252.535 95.203 252.855 95.2326 253.16 95.3224L269.89 99.9828C270.496 100.154 271.008 100.552 271.315 101.091C271.622 101.631 271.699 102.267 271.53 102.861V102.861C271.444 103.16 271.297 103.44 271.1 103.683C270.902 103.926 270.657 104.129 270.379 104.278C270.1 104.428 269.794 104.521 269.479 104.554C269.163 104.586 268.844 104.557 268.54 104.467V104.467Z" fill="#00A8E0"/>
<path d="M265.02 110.527L251.54 106.778C250.933 106.605 250.421 106.204 250.114 105.663C249.806 105.123 249.73 104.485 249.9 103.889V103.889C250.074 103.296 250.481 102.794 251.032 102.494C251.583 102.193 252.232 102.117 252.84 102.284L266.32 106.043C266.926 106.214 267.438 106.613 267.745 107.152C268.052 107.691 268.129 108.327 267.96 108.922V108.922C267.785 109.515 267.378 110.017 266.827 110.317C266.277 110.618 265.627 110.694 265.02 110.527Z" fill="#00A8E0"/>
<path d="M267.26 97.1638H267.17C267.039 97.1399 266.924 97.0672 266.847 96.9612C266.771 96.8552 266.739 96.7242 266.76 96.5959C266.92 95.6169 269.53 80.5784 274.49 69.231C273.11 68.9764 271.62 68.6337 270.02 68.1931C268.42 67.7526 266.96 67.2728 265.65 66.7735C263.78 78.9727 257.9 93.1202 257.53 94.0308C257.479 94.1515 257.382 94.2477 257.259 94.2982C257.136 94.3487 256.998 94.3493 256.875 94.3C256.751 94.2507 256.653 94.1554 256.602 94.0351C256.55 93.9149 256.549 93.7795 256.6 93.6587C256.69 93.4335 262.81 78.6986 264.69 66.3917C254.98 62.4754 253.54 57.3451 253.41 55.1226C253.302 53.8956 253.585 52.666 254.221 51.6034C254.857 50.5408 255.814 49.6974 256.96 49.1894C259.24 48.2691 261.77 49.0132 263.73 51.1476C266.37 54.0848 266.64 59.6067 265.8 65.7748C267.13 66.2938 268.63 66.7539 270.29 67.2532C271.95 67.7526 273.49 68.0561 274.91 68.3106C277.51 62.632 280.72 58.05 284.53 56.9339C287.36 56.1017 289.91 56.7772 291.35 58.7255C292.044 59.7472 292.399 60.9536 292.366 62.1802C292.334 63.4067 291.916 64.5936 291.17 65.579C289.86 67.4099 285.9 70.9933 275.51 69.3582C270.51 80.7938 267.79 96.4686 267.75 96.7134C267.742 96.8355 267.687 96.9501 267.596 97.0338C267.505 97.1175 267.385 97.164 267.26 97.1638V97.1638ZM275.93 68.4771C285.88 69.9457 289.42 66.3623 290.35 65.0699C290.988 64.2467 291.35 63.2494 291.384 62.2162C291.418 61.183 291.123 60.165 290.54 59.3032C289.36 57.6975 287.22 57.159 284.81 57.8738C281.36 58.9116 278.38 63.1607 275.89 68.5064L275.93 68.4771ZM258.89 49.7867C258.348 49.7861 257.811 49.8892 257.31 50.0902C256.351 50.5235 255.553 51.2375 255.027 52.1336C254.5 53.0298 254.27 54.0639 254.37 55.0932C254.47 56.6793 255.55 61.5453 264.81 65.4126C265.59 59.6067 265.34 54.4666 262.95 51.8231C262.459 51.2214 261.843 50.7287 261.143 50.3776C260.443 50.0265 259.675 49.8251 258.89 49.7867V49.7867Z" fill="white"/>
<path opacity="0.3" d="M163.815 234.466C187.41 222.994 187.877 176.908 164.86 131.53C141.842 86.1515 104.056 58.6654 80.461 70.1377C56.8665 81.61 56.3987 127.696 79.4162 173.075C102.434 218.453 140.22 245.939 163.815 234.466Z" fill="#00A8E0"/>
<path d="M101.61 357.263L109.01 357.146L110.71 340.345L103.31 340.452L101.61 357.263Z" fill="#B55B52"/>
<path d="M51.8898 344.036L58.9398 346.229L66.8898 331.102L59.8398 328.909L51.8898 344.036Z" fill="#B55B52"/>
<path opacity="0.2" d="M110.71 340.345L109.83 349.01L102.43 349.127L103.31 340.462L110.71 340.345Z" fill="black"/>
<path opacity="0.2" d="M59.8299 328.909L66.8898 331.102L62.7898 338.896L55.7299 336.712L59.8299 328.909Z" fill="black"/>
<path d="M112.58 347.296L100.05 347.482C100.05 347.482 105.05 299.831 106.62 277.312C107.032 268.329 106.925 259.33 106.3 250.358C105.55 237.219 105.07 231.962 104.06 215.357C103.34 203.51 102.46 195.844 102.46 195.844L128.39 197.929C128.39 197.929 129.39 255.41 126.47 277.332C123.41 300.124 112.58 347.296 112.58 347.296Z" fill="#00A8E0"/>
<path opacity="0.2" d="M109.59 211.764C112.84 223.591 109.69 250.055 106.64 257.251C106.55 254.999 106.43 252.698 106.3 250.398C105.55 237.259 105.06 232.001 104.05 215.396C104.05 215.063 104.05 214.74 104.05 214.417C105.727 213.227 107.601 212.329 109.59 211.764V211.764Z" fill="black"/>
<path d="M114.4 196.803C114.4 196.803 102.4 255.861 96.3998 276.255C89.8398 298.597 66.5698 338.318 66.5698 338.318L53.6498 334.313C53.6498 334.313 68.5298 300.682 74.0198 278.673C80.2798 253.589 88.9398 194.757 88.9398 194.757L114.4 196.803Z" fill="#00A8E0"/>
<path d="M60.4399 345.75L52.2799 341.99C52.1462 341.929 51.9951 341.914 51.8515 341.947C51.7079 341.981 51.5804 342.062 51.4899 342.176L47.3799 347.395C47.2794 347.522 47.2098 347.671 47.1765 347.829C47.1431 347.987 47.1467 348.15 47.1872 348.307C47.2276 348.463 47.3037 348.609 47.4099 348.732C47.516 348.856 47.6493 348.954 47.7999 349.02C50.4499 350.175 52.4299 350.909 55.7399 352.427C57.7399 353.406 62.4998 355.736 65.3098 357.029C68.1198 358.321 69.7498 355.834 68.7598 354.992C64.3499 351.252 62.2898 348.863 61.3398 346.65C61.1643 346.251 60.8435 345.93 60.4399 345.75V345.75Z" fill="#263238"/>
<path d="M108.95 356.304L100.87 356.431C100.722 356.433 100.58 356.485 100.467 356.577C100.354 356.67 100.277 356.798 100.25 356.94L98.8898 363.392C98.8547 363.548 98.8564 363.71 98.8948 363.865C98.9333 364.02 99.0075 364.165 99.1117 364.287C99.2159 364.41 99.3473 364.508 99.4961 364.573C99.6448 364.639 99.8069 364.67 99.9698 364.665C102.89 364.577 107.09 364.342 110.76 364.283C115.04 364.224 115.53 364.391 120.55 364.283C123.55 364.283 124.38 361.219 123.11 360.964C117.3 359.819 115.79 359.76 110.74 356.813C110.201 356.488 109.582 356.312 108.95 356.304V356.304Z" fill="#263238"/>
<path d="M95.6299 130.873C104.925 130.207 114.267 130.535 123.49 131.852C126.235 132.28 128.75 133.609 130.622 135.621C132.494 137.634 133.611 140.209 133.79 142.926C134.42 152.471 134.2 171.23 129.61 206.418C123.91 208.866 99.0299 206.506 86.8099 202.747C87.4699 198.723 91.3399 166.257 88.4999 139.107C88.4026 138.106 88.5111 137.095 88.8189 136.136C89.1267 135.176 89.6276 134.286 90.292 133.519C90.9565 132.751 91.7711 132.122 92.6878 131.668C93.6045 131.213 94.6049 130.943 95.6299 130.873V130.873Z" fill="#263238"/>
<path d="M97.6799 143.875L96.1599 146.92C95.6599 147.964 95.1699 149.021 94.6899 150.092C93.6899 152.216 92.8399 154.36 91.9899 156.514C91.1399 158.668 90.4099 160.842 89.7399 163.006C89.1051 165.145 88.5844 167.315 88.1799 169.507L87.1799 166.168C88.0341 167.265 89.1789 168.111 90.4899 168.616C92.1705 169.271 93.9386 169.686 95.7399 169.849C97.7325 170.057 99.7385 170.112 101.74 170.016C103.808 169.938 105.871 169.755 107.92 169.468H108.07C108.668 169.387 109.276 169.522 109.78 169.847C110.284 170.172 110.65 170.666 110.811 171.236C110.971 171.806 110.914 172.413 110.651 172.945C110.388 173.477 109.936 173.898 109.38 174.128C108.21 174.617 107.16 174.98 106.03 175.332C104.9 175.685 103.79 175.998 102.64 176.252C100.297 176.801 97.9063 177.129 95.4999 177.232C92.8905 177.358 90.2773 177.074 87.7599 176.39C84.8359 175.607 82.2043 174.016 80.1799 171.807C79.8055 171.386 79.5236 170.894 79.3516 170.362C79.1796 169.83 79.1211 169.269 79.1799 168.714V168.469C79.4367 165.833 79.8676 163.217 80.4699 160.636C81.0799 158.12 81.7899 155.643 82.6299 153.235C83.4699 150.826 84.3999 148.447 85.4299 146.127C85.9499 144.961 86.4799 143.816 87.0399 142.67C87.5999 141.525 88.1599 140.419 88.8499 139.204C89.4939 138.119 90.539 137.318 91.7693 136.965C92.9997 136.613 94.3212 136.737 95.461 137.311C96.6008 137.885 97.4718 138.866 97.894 140.051C98.3163 141.236 98.2575 142.535 97.7299 143.679L97.6799 143.875Z" fill="#B55B52"/>
<path d="M105.48 169.958L109.48 165.562L116.03 171.436C116.03 171.436 111.58 176.273 106.86 173.737L105.48 169.958Z" fill="#B55B52"/>
<path d="M116.01 163.868L118.64 166.56C118.855 166.781 119.019 167.045 119.121 167.333C119.223 167.622 119.262 167.928 119.233 168.232C119.205 168.536 119.11 168.831 118.956 169.096C118.802 169.362 118.592 169.592 118.34 169.771L116.01 171.426L109.46 165.552L113.38 163.456C113.804 163.234 114.291 163.154 114.766 163.228C115.241 163.302 115.678 163.527 116.01 163.868V163.868Z" fill="#B55B52"/>
<path d="M92.0698 132.009C86.0698 135.612 80.0698 154.733 80.0698 154.733L95.8698 160.411C98.7956 155.871 100.991 150.918 102.38 145.725C104.77 136.865 98.6999 128.043 92.0698 132.009Z" fill="#263238"/>
<path d="M126.08 132.302C125.95 132.302 126.26 132.302 126.41 132.302L127.02 132.351C127.46 132.351 127.9 132.41 128.37 132.41C129.3 132.41 130.27 132.41 131.24 132.41C133.24 132.351 135.24 132.136 137.24 131.901C138.24 131.773 139.24 131.626 140.24 131.44C141.24 131.254 142.24 131.078 143.3 130.892L146.38 130.226L149.45 129.482L145.75 133.888C146.064 132.12 146.191 130.326 146.13 128.533C146.058 126.584 145.861 124.641 145.54 122.717C145.22 120.759 144.803 118.761 144.29 116.725C143.8 114.767 143.18 112.672 142.61 110.782L142.55 110.606C142.356 109.942 142.407 109.233 142.694 108.603C142.981 107.972 143.486 107.461 144.119 107.159C144.753 106.856 145.475 106.782 146.159 106.948C146.843 107.115 147.445 107.512 147.86 108.07C149.222 109.98 150.439 111.986 151.5 114.072C152.57 116.157 153.499 118.309 154.28 120.514C155.091 122.79 155.706 125.128 156.12 127.505C156.565 130.032 156.696 132.603 156.51 135.161C156.433 136.113 156.076 137.023 155.484 137.782C154.891 138.541 154.088 139.116 153.17 139.439L152.81 139.567L149.47 140.742C148.34 141.104 147.21 141.447 146.06 141.721C143.758 142.384 141.421 142.926 139.06 143.346C136.635 143.786 134.183 144.071 131.72 144.198C130.46 144.198 129.2 144.286 127.89 144.198C127.24 144.198 126.57 144.129 125.89 144.061L124.83 143.933C124.43 143.875 124.18 143.845 123.5 143.698C121.995 143.322 120.697 142.389 119.88 141.096C119.063 139.802 118.79 138.249 119.119 136.762C119.448 135.275 120.353 133.972 121.644 133.125C122.935 132.279 124.511 131.956 126.04 132.224L126.08 132.302Z" fill="#B55B52"/>
<path d="M141.62 110.606L138.71 105.829L147.21 103.371C147.21 103.371 148.95 107.209 148.21 109.843C148.056 110.347 147.754 110.796 147.342 111.134C146.929 111.472 146.424 111.683 145.89 111.742L144.37 111.928C143.83 111.992 143.283 111.901 142.795 111.666C142.307 111.432 141.898 111.064 141.62 110.606V110.606Z" fill="#B55B52"/>
<path d="M140.79 98.2112L143.14 97.9468C143.847 97.8761 144.558 98.0539 145.144 98.4485C145.73 98.843 146.154 99.4286 146.34 100.101L147.21 103.371L138.71 105.828L138.18 101.432C138.098 100.668 138.325 99.9023 138.813 99.3C139.301 98.6978 140.011 98.3069 140.79 98.2112V98.2112Z" fill="#B55B52"/>
<path d="M116.98 130.55C123.98 131.147 139.2 129.434 139.2 129.434L140.08 148.153C134.903 149.805 129.352 149.975 124.08 148.643C114.96 146.372 109.25 129.894 116.98 130.55Z" fill="#263238"/>
<path d="M105.29 112.212C106.11 117.558 106.72 127.299 102.77 130.667C105.58 133.654 109.65 137.521 116.07 138.04C120.14 136.287 121.17 133.771 119.58 131.411C113.58 129.737 113.97 125.361 115.21 121.298L105.29 112.212Z" fill="#B55B52"/>
<path opacity="0.2" d="M109.34 115.923L115.21 121.288C114.904 122.247 114.684 123.23 114.55 124.225C112.27 123.804 109.22 121.18 109.08 118.811C108.978 117.841 109.066 116.861 109.34 115.923V115.923Z" fill="black"/>
<path d="M117.09 94.2266C124.57 99.1219 118.17 106.954 118.17 106.954C118.17 106.954 114.46 100.532 117.09 94.2266Z" fill="white"/>
<path d="M101.34 106.504C103.12 113.475 103.8 117.646 108.12 120.603C114.63 125.057 122.91 120.211 123.3 112.858C123.64 106.24 120.67 95.94 113.09 94.4126C111.417 94.0634 109.682 94.1399 108.048 94.6348C106.414 95.1297 104.938 96.0264 103.759 97.2393C102.58 98.4523 101.739 99.9409 101.316 101.563C100.892 103.185 100.9 104.886 101.34 106.504Z" fill="#B55B52"/>
<path opacity="0.2" d="M113.15 106.2C112.609 106.161 112.065 106.228 111.55 106.396C111.035 106.564 110.559 106.831 110.15 107.181C111.206 107.05 112.225 106.717 113.15 106.2V106.2Z" fill="black"/>
<path opacity="0.2" d="M113.34 106.954C112.853 107.02 112.387 107.189 111.974 107.45C111.562 107.71 111.212 108.056 110.95 108.463C111.848 108.134 112.663 107.619 113.34 106.954V106.954Z" fill="black"/>
<path opacity="0.2" d="M113.54 111.458C113.377 111.391 113.201 111.36 113.025 111.369C112.849 111.377 112.677 111.425 112.522 111.508C112.367 111.591 112.233 111.707 112.131 111.848C112.028 111.989 111.96 112.15 111.93 112.321C112.382 111.902 112.936 111.605 113.54 111.458Z" fill="black"/>
<path opacity="0.2" d="M117.78 98.75C115.192 99.0111 112.634 99.5065 110.14 100.23C114.43 99.534 117.78 98.75 117.78 98.75Z" fill="black"/>
<path opacity="0.2" d="M119.06 99.2295C119.06 99.2295 113.24 100.405 110.68 101.796C113.522 101.102 116.32 100.245 119.06 99.2295V99.2295Z" fill="black"/>
<path d="M103.36 111.37C106.36 111.076 105.02 106.582 103.86 105.564C106.19 104.585 108.15 100.757 106.52 98.7104C115.15 99.3664 120.08 98.4657 120.74 90.8779C118.27 91.3674 115.67 88.9197 112.35 91.201C112.591 90.7305 112.731 90.2163 112.761 89.6905C112.79 89.1648 112.708 88.6387 112.521 88.1452C112.333 87.6518 112.043 87.2015 111.67 86.8227C111.296 86.4438 110.847 86.1445 110.35 85.9434C110.35 85.9434 109.81 90.8387 106.02 91.573C102.23 92.3073 98.2199 94.9116 97.9699 97.653C97.0699 95.3914 96.1399 95.2445 96.1399 95.2445C96.5659 96.0912 96.7875 97.0225 96.7875 97.9664C96.7875 98.9102 96.5659 99.8415 96.1399 100.688C94.7199 103.811 97.1399 104.839 97.1399 104.839C97.1399 104.839 94.0399 104.839 95.9899 108.932C97.4299 111.791 102.69 115.462 103.36 111.37Z" fill="white"/>
<path d="M99.3999 113.054C100.343 114.482 101.823 115.489 103.52 115.854C105.77 116.314 106.74 114.307 105.99 112.3C105.31 110.498 103.33 108.09 101.13 108.53C100.651 108.634 100.206 108.853 99.836 109.167C99.4657 109.482 99.1817 109.882 99.0098 110.332C98.8378 110.781 98.7835 111.266 98.8516 111.741C98.9197 112.217 99.1082 112.668 99.3999 113.054V113.054Z" fill="#B55B52"/>
<path d="M68.0399 339.072L52.8298 334.353L54.2698 329.908L71.3599 333.638L68.0399 339.072Z" fill="#00A8E0"/>
<path opacity="0.3" d="M68.0399 339.072L52.8298 334.353L54.2698 329.908L71.3599 333.638L68.0399 339.072Z" fill="black"/>
<path d="M114.16 347.551L99.2298 347.786L99.1498 343.057L115.12 342.558L114.16 347.551Z" fill="#00A8E0"/>
<path opacity="0.3" d="M114.16 347.551L99.2298 347.786L99.1498 343.057L115.12 342.558L114.16 347.551Z" fill="black"/>
<path d="M113.76 106.28C113.85 106.858 114.23 107.26 114.62 107.26C115.01 107.26 115.25 106.691 115.16 106.113C115.07 105.535 114.69 105.134 114.3 105.134C113.91 105.134 113.67 105.702 113.76 106.28Z" fill="#263238"/>
<path d="M120.43 105.31C120.52 105.888 120.9 106.29 121.29 106.29C121.68 106.29 121.92 105.722 121.83 105.144C121.74 104.566 121.36 104.164 120.97 104.164C120.58 104.164 120.34 104.732 120.43 105.31Z" fill="#263238"/>
<path d="M118.36 105.897C119.328 107.564 120.53 109.09 121.93 110.431C121.57 110.772 121.138 111.031 120.665 111.192C120.192 111.353 119.688 111.41 119.19 111.361L118.36 105.897Z" fill="#A02724"/>
<path d="M117.02 113.584C116.356 113.684 115.679 113.649 115.03 113.48C114.382 113.311 113.775 113.013 113.25 112.604C113.233 112.589 113.219 112.571 113.209 112.551C113.199 112.531 113.193 112.509 113.192 112.487C113.19 112.465 113.193 112.442 113.201 112.421C113.208 112.4 113.22 112.381 113.235 112.364C113.25 112.347 113.268 112.334 113.289 112.324C113.309 112.314 113.331 112.308 113.354 112.307C113.377 112.306 113.4 112.309 113.421 112.316C113.443 112.323 113.463 112.335 113.48 112.349C114.076 112.783 114.767 113.073 115.499 113.195C116.23 113.318 116.981 113.27 117.69 113.055C117.712 113.049 117.734 113.047 117.757 113.05C117.779 113.053 117.8 113.06 117.82 113.071C117.839 113.082 117.857 113.096 117.87 113.114C117.884 113.131 117.894 113.151 117.9 113.172C117.907 113.194 117.91 113.218 117.908 113.241C117.906 113.264 117.9 113.286 117.888 113.306C117.877 113.326 117.861 113.344 117.843 113.358C117.824 113.372 117.803 113.383 117.78 113.388C117.532 113.471 117.278 113.537 117.02 113.584V113.584Z" fill="#263238"/>
<path d="M110.2 104.763C110.144 104.777 110.086 104.777 110.03 104.763C109.987 104.744 109.949 104.717 109.918 104.683C109.887 104.649 109.863 104.61 109.848 104.567C109.833 104.523 109.827 104.478 109.831 104.432C109.835 104.387 109.848 104.343 109.87 104.302C110.108 103.81 110.463 103.381 110.905 103.051C111.347 102.72 111.863 102.498 112.41 102.402C112.502 102.393 112.594 102.42 112.667 102.477C112.74 102.534 112.787 102.615 112.8 102.706C112.808 102.796 112.781 102.886 112.723 102.958C112.665 103.029 112.582 103.075 112.49 103.088C112.055 103.165 111.646 103.344 111.298 103.61C110.949 103.877 110.672 104.222 110.49 104.616C110.456 104.66 110.412 104.696 110.362 104.721C110.312 104.747 110.256 104.761 110.2 104.763V104.763Z" fill="white"/>
<path d="M121.71 102.53C121.652 102.533 121.595 102.522 121.542 102.498C121.49 102.474 121.444 102.438 121.41 102.393C121.16 102.038 120.827 101.746 120.439 101.542C120.052 101.337 119.62 101.226 119.18 101.217C119.087 101.217 118.998 101.181 118.932 101.117C118.867 101.052 118.83 100.965 118.83 100.874C118.83 100.783 118.867 100.696 118.932 100.632C118.998 100.567 119.087 100.531 119.18 100.531C119.735 100.534 120.282 100.667 120.775 100.919C121.267 101.172 121.691 101.536 122.01 101.981C122.037 102.017 122.057 102.058 122.069 102.102C122.08 102.145 122.083 102.191 122.076 102.235C122.07 102.28 122.054 102.323 122.031 102.362C122.008 102.4 121.977 102.434 121.94 102.461C121.873 102.509 121.792 102.533 121.71 102.53V102.53Z" fill="white"/>
<path d="M62.1099 347.914C61.5243 347.626 60.9741 347.275 60.4699 346.865C60.442 346.846 60.4211 346.819 60.4103 346.787C60.3995 346.755 60.3994 346.721 60.4099 346.689C60.4194 346.656 60.4387 346.626 60.4653 346.603C60.492 346.581 60.5249 346.566 60.5599 346.562C60.8699 346.562 63.6598 346.219 64.2198 346.934C64.2832 347.014 64.3224 347.109 64.333 347.21C64.3436 347.31 64.3252 347.411 64.2798 347.502C64.2242 347.662 64.1296 347.807 64.0041 347.923C63.8787 348.039 63.7261 348.123 63.5598 348.168C63.061 348.245 62.5503 348.155 62.1099 347.914V347.914ZM61.0299 346.826C61.6852 347.447 62.5585 347.797 63.4698 347.806C63.5828 347.775 63.686 347.716 63.7699 347.636C63.8538 347.555 63.9157 347.455 63.9498 347.345C63.9498 347.218 63.9498 347.159 63.9498 347.12C63.6498 346.826 62.1499 346.767 61.0299 346.826Z" fill="#00A8E0"/>
<path d="M60.4998 346.896C60.4717 346.879 60.4478 346.855 60.4298 346.828C60.415 346.8 60.4072 346.77 60.4072 346.739C60.4072 346.709 60.415 346.678 60.4298 346.651C60.4298 346.573 61.5399 344.76 62.6199 344.486C62.7493 344.451 62.8851 344.443 63.0179 344.463C63.1507 344.483 63.2776 344.531 63.3899 344.604V344.604C63.5061 344.661 63.5995 344.755 63.6555 344.87C63.7116 344.986 63.7272 345.116 63.6999 345.241C63.4899 346.034 61.4598 346.857 60.5898 346.906L60.4998 346.896ZM63.1299 344.858C62.991 344.809 62.8388 344.809 62.6999 344.858C62.0099 345.035 61.2698 346.034 60.9298 346.553C61.8599 346.357 63.2299 345.662 63.3599 345.192C63.3599 345.192 63.3599 345.054 63.1999 344.927L63.1299 344.858Z" fill="#00A8E0"/>
<path d="M109.69 357.293C109.66 357.284 109.634 357.267 109.613 357.245C109.592 357.222 109.577 357.195 109.57 357.166C109.566 357.13 109.572 357.093 109.588 357.06C109.604 357.027 109.629 356.999 109.66 356.98C109.99 356.813 112.95 355.285 113.85 355.765C113.936 355.807 114.01 355.871 114.063 355.95C114.115 356.029 114.146 356.121 114.15 356.215C114.169 356.371 114.15 356.528 114.094 356.675C114.039 356.821 113.948 356.953 113.83 357.058C113.03 357.773 110.91 357.518 109.71 357.303L109.69 357.293ZM113.62 356.039C113.06 355.853 111.46 356.48 110.29 357.019C111.93 357.264 113.15 357.175 113.6 356.774C113.676 356.703 113.733 356.615 113.768 356.518C113.802 356.421 113.813 356.317 113.8 356.215C113.801 356.179 113.792 356.142 113.772 356.111C113.753 356.08 113.724 356.055 113.69 356.039H113.62Z" fill="#00A8E0"/>
<path d="M109.69 357.294H109.64C109.614 357.277 109.594 357.254 109.581 357.226C109.569 357.198 109.565 357.167 109.57 357.137C109.57 357.059 109.74 355.1 110.67 354.336C110.805 354.219 110.964 354.13 111.136 354.076C111.308 354.022 111.49 354.004 111.67 354.023V354.023C112.15 354.023 112.3 354.297 112.33 354.493C112.48 355.316 110.74 356.902 109.85 357.313C109.824 357.325 109.795 357.33 109.767 357.327C109.739 357.323 109.712 357.312 109.69 357.294V357.294ZM111.79 354.356H111.61C111.482 354.344 111.353 354.358 111.231 354.396C111.109 354.435 110.996 354.498 110.9 354.581C110.356 355.219 110.028 356.006 109.96 356.834C110.86 356.285 112.04 355.032 111.96 354.542C111.95 354.503 111.94 354.424 111.79 354.375V354.356Z" fill="#00A8E0"/>
<path d="M45.5398 115.041C44.3554 104.656 44.8991 94.1512 47.1498 83.9363L48.1498 84.1615C45.9257 94.274 45.3888 104.673 46.5598 114.953L45.5398 115.041ZM50.5398 76.2506L49.6098 75.9177C50.5323 73.4636 51.6283 71.0754 52.8898 68.7705L53.7798 69.2307C52.5308 71.495 51.4415 73.8405 50.5198 76.2506H50.5398Z" fill="#00A8E0"/>
<path d="M80.7998 51.54C114.08 45.0292 159.01 82.4199 181.17 135.045C203.33 187.67 194.32 235.615 161.06 242.116C127.8 248.617 82.8898 211.236 60.6898 158.611C38.4898 105.986 47.5398 58.0019 80.7998 51.54ZM78.1798 155.194C97.7598 201.71 135.18 235.213 161.64 230.024C188.1 224.835 193.76 182.931 174.18 136.415C154.6 89.8999 117.18 56.3864 90.7099 61.5755C64.2398 66.7646 58.5898 108.669 78.1798 155.194ZM51.4898 129.866C53.5698 126.292 65.8798 121.534 68.5998 124.187L51.4898 129.866ZM175.6 222.162C178.73 221.79 181.81 229.172 179.72 231.904L175.6 222.162ZM129.19 74.7146C131.29 74.1565 133.13 71.327 133.38 69.6724Z" fill="white"/>
<path d="M153.34 243.34C120.97 243.34 80.7499 207.535 60.2299 158.797C45.9499 124.902 44.1399 90.938 55.4899 70.1622C61.1599 59.784 69.8799 53.1753 80.6999 51.0605C114.14 44.5204 159.42 82.1068 181.63 134.859C195.9 168.764 197.72 202.728 186.36 223.494C184.667 226.635 182.57 229.55 180.12 232.169V232.169C175.109 237.529 168.474 241.173 161.19 242.566C158.606 243.078 155.976 243.338 153.34 243.34V243.34ZM52.0499 129.915C54.2006 139.667 57.2463 149.209 61.1499 158.425C83.1499 210.756 127.96 248.088 160.96 241.646C168.034 240.29 174.478 236.753 179.35 231.552C180.35 230.054 179.76 226.96 178.54 224.904C177.7 223.474 176.69 222.652 175.79 222.652C172.1 226.688 167.168 229.437 161.74 230.485C135.05 235.723 97.3599 202.003 77.7399 155.361C73.4989 145.388 70.2927 135.023 68.1699 124.422C67.5299 123.913 66.2399 123.766 64.4999 123.991C59.8899 124.579 53.6499 127.594 52.0499 129.915ZM78.6399 155.008C98.1098 201.24 135.3 234.685 161.55 229.545C169.27 228.037 175.29 223.416 179.45 215.838C189.07 198.214 186.87 167.863 173.71 136.641C154.24 90.3995 117.06 56.9643 90.8099 62.0946C83.0799 63.6024 77.0499 68.2334 72.8899 75.8016C63.2799 93.4052 65.4799 123.747 78.6399 155.008V155.008ZM176.56 221.781C177.808 222.281 178.823 223.215 179.41 224.405C180.4 226.046 180.912 227.922 180.89 229.829C182.655 227.72 184.199 225.444 185.5 223.034C196.72 202.522 194.89 168.872 180.73 135.231C169.46 108.463 152.23 85.6216 133.73 70.5538C133.087 72.3515 131.834 73.879 130.18 74.8813C147.27 88.3434 163.77 110.284 174.7 136.23C187.97 167.746 190.15 198.41 180.4 216.259C179.313 218.221 178.027 220.071 176.56 221.781ZM80.8899 52.02C70.3699 54.0761 61.8899 60.5085 56.3599 70.6223C48.4899 85.0244 47.0399 105.869 51.7799 128.671C54.2199 126.126 60.2299 123.57 64.3299 123.032C65.5176 122.816 66.7403 122.877 67.8999 123.208C64.3599 104.018 65.6499 86.9825 71.9999 75.3316C76.2499 67.5578 82.6799 62.6037 90.5999 61.0862C102.19 58.8245 115.86 63.8961 129.22 74.1861C130.9 73.6085 132.45 71.337 132.82 69.8684C115.35 55.9363 96.7599 48.9164 80.8899 52.02Z" fill="#00A8E0"/>
<path d="M125.97 107.199L157.14 104.046L156.4 98.5049L125.45 103.283L125.97 107.199Z" fill="#00A8E0"/>
<path opacity="0.2" d="M143.45 100.502L144.1 105.358L157.13 104.046L156.39 98.5049L143.45 100.502Z" fill="black"/>
<path d="M145.78 105.075C145.82 105.304 145.943 105.513 146.127 105.662C146.31 105.811 146.542 105.891 146.78 105.887L182.93 102.617C184.37 102.431 183.14 93.2181 181.71 93.4041L145.9 99.2785C145.66 99.3279 145.447 99.462 145.301 99.6551C145.156 99.8482 145.087 100.087 145.11 100.326L145.78 105.075Z" fill="#00A8E0"/>
<path d="M126.08 108.002C126.243 107.983 126.391 107.9 126.493 107.774C126.594 107.647 126.64 107.486 126.62 107.327L126.04 102.999C126.017 102.839 125.931 102.693 125.8 102.594C125.67 102.495 125.504 102.451 125.34 102.47C125.178 102.495 125.032 102.58 124.933 102.708C124.834 102.836 124.79 102.996 124.81 103.156L125.39 107.483C125.4 107.562 125.425 107.638 125.466 107.707C125.506 107.776 125.56 107.836 125.624 107.884C125.688 107.933 125.761 107.968 125.84 107.988C125.918 108.008 126 108.013 126.08 108.002V108.002Z" fill="#00A8E0"/>
<path d="M256.5 255.978C256.565 255.725 256.73 255.507 256.959 255.373C257.187 255.239 257.461 255.199 257.72 255.263C257.978 255.327 258.201 255.488 258.337 255.712C258.474 255.936 258.515 256.204 258.45 256.458C258.604 259.517 257.913 262.561 256.45 265.269C253.29 270.586 246.72 272.475 246.72 272.475L256.5 255.978Z" fill="#00A8E0"/>
<path d="M248.4 283.979C242.84 284.056 237.41 282.335 232.95 279.084C229.319 276.106 226.411 272.374 224.44 268.157C224.355 268.056 224.292 267.939 224.253 267.813C224.215 267.688 224.202 267.556 224.215 267.425C224.229 267.295 224.268 267.168 224.332 267.053C224.395 266.937 224.481 266.835 224.585 266.752C224.689 266.669 224.808 266.607 224.936 266.57C225.065 266.532 225.199 266.519 225.332 266.532C225.466 266.546 225.595 266.584 225.713 266.646C225.831 266.709 225.935 266.793 226.02 266.894L248.4 283.979Z" fill="#00A8E0"/>
<path d="M267.3 296.306C261.51 304.648 250.5 306.988 250.5 306.988L269.76 279.27C269.853 279.045 270.028 278.861 270.251 278.755C270.475 278.649 270.73 278.628 270.969 278.697C271.207 278.765 271.411 278.918 271.54 279.125C271.67 279.333 271.716 279.58 271.67 279.818C271.74 283.666 271.23 290.637 267.3 296.306Z" fill="#00A8E0"/>
<path d="M250.26 341.118H250.2C250.141 341.111 250.084 341.092 250.033 341.063C249.981 341.033 249.936 340.994 249.901 340.948C249.865 340.901 249.84 340.848 249.826 340.791C249.812 340.735 249.81 340.676 249.82 340.618C252.82 319.823 247.33 264.349 240.89 250.681C240.865 250.628 240.851 250.571 240.848 250.513C240.846 250.455 240.855 250.397 240.876 250.343C240.896 250.288 240.927 250.238 240.967 250.195C241.008 250.153 241.056 250.118 241.11 250.094C241.164 250.069 241.222 250.056 241.281 250.053C241.34 250.051 241.4 250.06 241.455 250.08C241.511 250.1 241.562 250.13 241.606 250.17C241.65 250.209 241.685 250.256 241.71 250.309C248.2 264.016 253.71 319.823 250.71 340.746C250.693 340.85 250.638 340.945 250.556 341.014C250.473 341.082 250.368 341.119 250.26 341.118V341.118Z" fill="#263238"/>
<path d="M237.71 316.475H262.81C263.123 316.474 263.434 316.536 263.721 316.659C264.008 316.782 264.267 316.961 264.479 317.187C264.692 317.413 264.854 317.679 264.956 317.969C265.057 318.26 265.096 318.568 265.07 318.873L261.52 362.784C261.475 363.34 261.217 363.859 260.798 364.236C260.379 364.614 259.829 364.823 259.26 364.821H241.26C240.69 364.823 240.141 364.614 239.722 364.236C239.303 363.859 239.045 363.34 239 362.784L235.44 318.873C235.415 318.567 235.455 318.259 235.558 317.969C235.661 317.678 235.824 317.412 236.037 317.187C236.251 316.961 236.51 316.782 236.797 316.659C237.085 316.536 237.396 316.474 237.71 316.475V316.475Z" fill="#00A8E0"/>
<path d="M237.57 252.943C238.066 253.667 238.771 254.23 239.594 254.562C240.418 254.893 241.323 254.978 242.196 254.806C243.069 254.633 243.87 254.211 244.497 253.593C245.125 252.974 245.551 252.188 245.722 251.332C245.893 250.477 245.801 249.591 245.457 248.787C245.113 247.982 244.534 247.296 243.792 246.814C243.049 246.333 242.178 246.078 241.288 246.081C240.397 246.085 239.528 246.346 238.79 246.834C237.801 247.486 237.118 248.496 236.889 249.641C236.66 250.787 236.905 251.974 237.57 252.943V252.943Z" fill="white"/>
<path d="M241.31 255.479C240.087 255.481 238.905 255.053 237.977 254.273C237.05 253.493 236.44 252.413 236.258 251.229C236.076 250.046 236.334 248.837 236.985 247.825C237.637 246.812 238.638 246.062 239.807 245.711C240.976 245.361 242.235 245.433 243.354 245.915C244.473 246.396 245.378 247.256 245.904 248.336C246.43 249.416 246.543 250.646 246.221 251.801C245.899 252.955 245.164 253.958 244.15 254.627C243.311 255.181 242.322 255.477 241.31 255.479V255.479ZM241.31 246.667C240.443 246.67 239.601 246.956 238.919 247.48C238.237 248.004 237.753 248.737 237.545 249.561C237.337 250.385 237.416 251.254 237.77 252.029C238.123 252.804 238.731 253.442 239.497 253.84C240.263 254.238 241.143 254.374 241.997 254.226C242.851 254.079 243.63 253.656 244.211 253.026C244.792 252.395 245.14 251.592 245.202 250.745C245.263 249.898 245.034 249.056 244.55 248.351C244.189 247.831 243.702 247.407 243.134 247.115C242.565 246.823 241.932 246.672 241.29 246.677L241.31 246.667Z" fill="#00A8E0"/>
<path d="M241.62 265.445C241.657 265.811 241.804 266.158 242.043 266.442C242.281 266.726 242.6 266.934 242.959 267.041C243.319 267.148 243.702 267.148 244.061 267.041C244.421 266.934 244.74 266.726 244.978 266.442C245.217 266.158 245.364 265.811 245.401 265.446C245.438 265.08 245.364 264.711 245.188 264.387C245.011 264.062 244.741 263.796 244.41 263.622C244.079 263.448 243.704 263.374 243.33 263.409C243.081 263.432 242.839 263.503 242.618 263.618C242.397 263.733 242.202 263.89 242.043 264.079C241.884 264.269 241.765 264.487 241.692 264.721C241.62 264.955 241.595 265.202 241.62 265.445Z" fill="#263238"/>
<path d="M246.52 303.228C246.52 303.596 246.631 303.956 246.84 304.262C247.049 304.568 247.345 304.806 247.693 304.947C248.04 305.088 248.422 305.125 248.79 305.053C249.159 304.981 249.498 304.804 249.763 304.544C250.029 304.284 250.21 303.952 250.283 303.591C250.357 303.23 250.319 302.856 250.175 302.516C250.031 302.177 249.788 301.886 249.475 301.682C249.163 301.477 248.796 301.368 248.42 301.368C247.916 301.368 247.433 301.564 247.076 301.913C246.72 302.262 246.52 302.735 246.52 303.228Z" fill="#263238"/>
<path d="M252.11 291.166C252.661 291.087 253.176 290.85 253.59 290.485C254.004 290.12 254.298 289.643 254.436 289.115C254.573 288.586 254.547 288.03 254.362 287.516C254.177 287.001 253.84 286.552 253.395 286.225C252.949 285.898 252.414 285.707 251.858 285.677C251.302 285.647 250.749 285.779 250.27 286.056C249.79 286.333 249.405 286.743 249.163 287.234C248.921 287.726 248.833 288.276 248.91 288.816C249.016 289.543 249.413 290.199 250.013 290.639C250.613 291.08 251.367 291.269 252.11 291.166V291.166Z" fill="#263238"/>
</svg>
