<svg width="436" height="275" viewBox="0 0 436 275" fill="none" xmlns="http://www.w3.org/2000/svg">
<path d="M149.876 265.966C167.852 259.359 185.771 250.898 200.191 238.062C209.272 230.169 216.282 220.181 220.611 208.966C223.743 200.584 224.97 191.79 226.072 182.962C226.795 177.236 227.219 170.114 231.291 165.568C232.17 164.576 233.214 163.743 234.377 163.107C237.819 161.206 241.524 160.049 244.702 157.587C246.235 156.413 247.492 154.92 248.388 153.212C249.283 151.503 249.795 149.62 249.887 147.694C250.163 144.076 249.773 140.16 251.585 136.862C252.771 134.884 254.537 133.317 256.644 132.373C256.754 132.312 256.845 132.222 256.907 132.113C256.97 132.004 257.002 131.881 257 131.755L253.065 91.3577L252.124 81.5904C252.021 80.5599 252.239 78.3957 251.448 77.6171C250.726 77.127 249.957 76.709 249.153 76.369C248.366 75.8931 247.629 75.3408 246.951 74.7201C245.529 73.3206 244.538 71.5448 244.094 69.6018C242.947 65.4223 243.715 60.8994 244.599 56.7543C246.159 49.3459 248.66 42.029 247.582 34.3686C247.151 30.8774 245.831 27.5543 243.75 24.7158C241.375 21.6242 238.014 19.7005 234.572 18.0745C231.131 16.4486 227.047 14.8798 224.018 12.1432C220.998 9.25952 218.616 4.46352 217.459 0.455012C217.172 -0.415226 215.672 0.0811163 215.959 0.951355C217.795 6.5621 221.208 12.5325 226.336 15.6356C231.464 18.7387 237.807 20.1471 241.96 24.796C246.113 29.4449 246.847 35.6625 246.331 41.4221C245.7 48.5443 242.958 55.2887 242.304 62.4109C241.793 66.0054 242.331 69.6709 243.853 72.9682C245.333 75.7392 248.017 77.5484 250.736 78.8767L250.381 78.2583L252.124 96.3387L254.901 125.16L255.543 131.789L255.899 131.171C254.126 131.986 252.575 133.215 251.377 134.753C250.179 136.292 249.369 138.095 249.016 140.011C248.373 143.446 248.924 147.122 248.017 150.545C246.744 155.343 242.052 158.011 237.865 159.969C235.789 160.77 233.811 161.803 231.968 163.049C227.162 166.794 226.014 173.355 225.2 179C224.053 187.301 223.273 195.637 220.886 203.722C217.617 214.667 211.709 224.646 203.679 232.783C190.991 245.825 174.402 254.653 157.688 261.409C154.981 262.554 152.239 263.562 149.486 264.569C148.625 264.89 149.004 266.264 149.876 265.955V265.966Z" fill="black"/>
<path d="M410.868 29.3895V266H151L151.602 265.611C251.119 228.294 212.335 172.45 235.551 162.06C240.573 159.774 246.165 157.397 248.471 152.357C251.313 146.162 246.554 136.618 256.563 131.704L251.427 77.8595C248.608 76.4308 245.994 74.6935 244.636 71.7675C243.403 68.8239 242.951 65.6112 243.323 62.4411C243.86 55.5834 246.28 49.2172 247.204 42.4738C248.129 35.7304 247.204 27.9812 242.228 22.9408C237.251 17.9004 229.946 16.8947 224.639 12.5172C221.166 9.46165 217.837 4.48315 217.339 0H302.132H387.425C391.19 0.0149704 393.928 1.03293 397.401 2.49064C400.873 3.94834 403.23 6.28811 405.88 8.96629C408.53 11.6445 408.945 14.4423 410.369 17.9326C411.367 21.4195 410.887 25.6193 410.868 29.3895Z" fill="white"/>
<path d="M322.336 133.54L351.6 133.92L352.599 117.047L322.37 105.641L322.336 133.54Z" stroke="black" stroke-miterlimit="10"/>
<path d="M305.871 99.4243L250.602 78.5605L255.8 132.767C256.282 132.767 273.347 132.917 292.937 133.159" stroke="black" stroke-miterlimit="10"/>
<path d="M321.81 133.182V139.652L329.487 152.904L308.153 189.638L296.895 144.381L291.559 136.792L305.881 99.4125C306.627 97.4519 309.22 98.4207 310.471 97.7633L310.919 97.6018C311.453 97.4064 312.021 97.324 312.587 97.3597C313.154 97.3954 313.708 97.5485 314.213 97.8094L315.957 98.0055C316.764 98.0893 317.52 98.4426 318.103 99.0089L319.847 100.681C320.419 100.897 320.911 101.284 321.257 101.789C321.604 102.294 321.789 102.893 321.787 103.507V133.182" fill="white"/>
<path d="M321.81 133.182V139.652L329.487 152.904L308.153 189.638L296.895 144.381L291.559 136.792L305.881 99.4125C306.627 97.4519 309.22 98.4207 310.471 97.7633L310.919 97.6018C311.453 97.4064 312.021 97.324 312.587 97.3597C313.154 97.3954 313.708 97.5485 314.213 97.8094L315.957 98.0055C316.764 98.0893 317.52 98.4426 318.103 99.0089L319.847 100.681C320.419 100.897 320.911 101.284 321.257 101.789C321.604 102.294 321.789 102.893 321.787 103.507V133.182" stroke="black" stroke-miterlimit="10"/>
<path d="M329.796 152.373L306.844 189.476L341.399 269.828C341.399 269.828 349.329 280.001 373.716 268.79L419.035 268.479L435.434 198.126C439.164 179.211 418.025 163.318 398.194 169.546L383 174.321C378.742 175.659 374.76 177.761 371.248 180.526L355.181 194.793L329.796 152.373Z" fill="black"/>
<path d="M356.398 129.861L362.825 131.51L363.376 122.03L357.156 121.811L356.398 129.861Z" stroke="black" stroke-miterlimit="10"/>
<path d="M352.38 123.344L356.994 123.69L356.581 127.496L352.082 126.942L352.38 123.344Z" stroke="black" stroke-miterlimit="10"/>
<path d="M145.753 6.92582C146.057 6.92582 146.349 6.8043 146.565 6.58801C146.78 6.37171 146.901 6.07836 146.901 5.77248C146.901 5.46659 146.78 5.17324 146.565 4.95694C146.349 4.74065 146.057 4.61914 145.753 4.61914C145.449 4.61914 145.157 4.74065 144.942 4.95694C144.726 5.17324 144.605 5.46659 144.605 5.77248C144.605 6.07836 144.726 6.37171 144.942 6.58801C145.157 6.8043 145.449 6.92582 145.753 6.92582Z" fill="black"/>
<path d="M172.136 11.1465C172.44 11.1465 172.732 11.025 172.947 10.8087C173.163 10.5924 173.284 10.2991 173.284 9.99318C173.284 9.68729 173.163 9.39394 172.947 9.17765C172.732 8.96135 172.44 8.83984 172.136 8.83984C171.832 8.83984 171.54 8.96135 171.324 9.17765C171.109 9.39394 170.988 9.68729 170.988 9.99318C170.988 10.2991 171.109 10.5924 171.324 10.8087C171.54 11.025 171.832 11.1465 172.136 11.1465Z" fill="black"/>
<path d="M149.194 35.3672C149.499 35.3672 149.791 35.2457 150.006 35.0294C150.221 34.8131 150.342 34.5198 150.342 34.2139C150.342 33.908 150.221 33.6146 150.006 33.3984C149.791 33.1821 149.499 33.0605 149.194 33.0605C148.89 33.0605 148.598 33.1821 148.383 33.3984C148.168 33.6146 148.047 33.908 148.047 34.2139C148.047 34.5198 148.168 34.8131 148.383 35.0294C148.598 35.2457 148.89 35.3672 149.194 35.3672Z" fill="black"/>
<path d="M143.456 62.2637C143.761 62.2637 144.052 62.1422 144.268 61.9259C144.483 61.7096 144.604 61.4162 144.604 61.1104C144.604 60.8045 144.483 60.5111 144.268 60.2948C144.052 60.0785 143.761 59.957 143.456 59.957C143.152 59.957 142.86 60.0785 142.645 60.2948C142.43 60.5111 142.309 60.8045 142.309 61.1104C142.309 61.4162 142.43 61.7096 142.645 61.9259C142.86 62.1422 143.152 62.2637 143.456 62.2637Z" fill="black"/>
<path d="M181.698 73.7969C182.003 73.7969 182.295 73.6754 182.51 73.4591C182.725 73.2428 182.846 72.9494 182.846 72.6436C182.846 72.3377 182.725 72.0443 182.51 71.828C182.295 71.6117 182.003 71.4902 181.698 71.4902C181.394 71.4902 181.102 71.6117 180.887 71.828C180.672 72.0443 180.551 72.3377 180.551 72.6436C180.551 72.9494 180.672 73.2428 180.887 73.4591C181.102 73.6754 181.394 73.7969 181.698 73.7969Z" fill="black"/>
<path d="M188.202 38.0547C188.507 38.0547 188.799 37.9332 189.014 37.7169C189.229 37.5006 189.35 37.2073 189.35 36.9014C189.35 36.5955 189.229 36.3021 189.014 36.0859C188.799 35.8696 188.507 35.748 188.202 35.748C187.898 35.748 187.606 35.8696 187.391 36.0859C187.176 36.3021 187.055 36.5955 187.055 36.9014C187.055 37.2073 187.176 37.5006 187.391 37.7169C187.606 37.9332 187.898 38.0547 188.202 38.0547Z" fill="black"/>
<path d="M185.999 124.484C186.304 124.484 186.595 124.363 186.811 124.147C187.026 123.93 187.147 123.637 187.147 123.331C187.147 123.025 187.026 122.732 186.811 122.516C186.595 122.299 186.304 122.178 185.999 122.178C185.695 122.178 185.403 122.299 185.188 122.516C184.972 122.732 184.852 123.025 184.852 123.331C184.852 123.637 184.972 123.93 185.188 124.147C185.403 124.363 185.695 124.484 185.999 124.484Z" fill="black"/>
<path d="M218.421 116.896C218.725 116.896 219.017 116.775 219.233 116.559C219.448 116.342 219.569 116.049 219.569 115.743C219.569 115.437 219.448 115.144 219.233 114.928C219.017 114.711 218.725 114.59 218.421 114.59C218.117 114.59 217.825 114.711 217.61 114.928C217.394 115.144 217.273 115.437 217.273 115.743C217.273 116.049 217.394 116.342 217.61 116.559C217.825 116.775 218.117 116.896 218.421 116.896Z" fill="black"/>
<path d="M224.398 154.691C224.702 154.691 224.994 154.57 225.209 154.354C225.424 154.137 225.545 153.844 225.545 153.538C225.545 153.232 225.424 152.939 225.209 152.723C224.994 152.506 224.702 152.385 224.398 152.385C224.093 152.385 223.801 152.506 223.586 152.723C223.371 152.939 223.25 153.232 223.25 153.538C223.25 153.844 223.371 154.137 223.586 154.354C223.801 154.57 224.093 154.691 224.398 154.691Z" fill="black"/>
<path d="M134.554 210.65C134.858 210.65 135.15 210.529 135.365 210.313C135.581 210.096 135.701 209.803 135.701 209.497C135.701 209.191 135.581 208.898 135.365 208.682C135.15 208.465 134.858 208.344 134.554 208.344C134.249 208.344 133.958 208.465 133.742 208.682C133.527 208.898 133.406 209.191 133.406 209.497C133.406 209.803 133.527 210.096 133.742 210.313C133.958 210.529 134.249 210.65 134.554 210.65Z" fill="black"/>
<path d="M104.323 217.432C104.628 217.432 104.92 217.31 105.135 217.094C105.35 216.878 105.471 216.584 105.471 216.278C105.471 215.972 105.35 215.679 105.135 215.463C104.92 215.247 104.628 215.125 104.323 215.125C104.019 215.125 103.727 215.247 103.512 215.463C103.297 215.679 103.176 215.972 103.176 216.278C103.176 216.584 103.297 216.878 103.512 217.094C103.727 217.31 104.019 217.432 104.323 217.432Z" fill="black"/>
<path d="M71.3429 210.65C71.6473 210.65 71.9392 210.529 72.1544 210.313C72.3696 210.096 72.4905 209.803 72.4905 209.497C72.4905 209.191 72.3696 208.898 72.1544 208.682C71.9392 208.465 71.6473 208.344 71.3429 208.344C71.0386 208.344 70.7467 208.465 70.5314 208.682C70.3162 208.898 70.1953 209.191 70.1953 209.497C70.1953 209.803 70.3162 210.096 70.5314 210.313C70.7467 210.529 71.0386 210.65 71.3429 210.65Z" fill="black"/>
<path d="M44.2687 182.463C44.5731 182.463 44.865 182.341 45.0802 182.125C45.2954 181.909 45.4163 181.615 45.4163 181.31C45.4163 181.004 45.2954 180.71 45.0802 180.494C44.865 180.278 44.5731 180.156 44.2687 180.156C43.9643 180.156 43.6724 180.278 43.4572 180.494C43.242 180.71 43.1211 181.004 43.1211 181.31C43.1211 181.615 43.242 181.909 43.4572 182.125C43.6724 182.341 43.9643 182.463 44.2687 182.463Z" fill="black"/>
<path d="M87.3039 182.463C87.6082 182.463 87.9001 182.341 88.1154 182.125C88.3306 181.909 88.4515 181.615 88.4515 181.31C88.4515 181.004 88.3306 180.71 88.1154 180.494C87.9001 180.278 87.6082 180.156 87.3039 180.156C86.9995 180.156 86.7076 180.278 86.4924 180.494C86.2772 180.71 86.1562 181.004 86.1562 181.31C86.1562 181.615 86.2772 181.909 86.4924 182.125C86.7076 182.341 86.9995 182.463 87.3039 182.463Z" fill="black"/>
<path d="M122.042 101.084C122.347 101.084 122.638 100.962 122.854 100.746C123.069 100.53 123.19 100.237 123.19 99.9307C123.19 99.6248 123.069 99.3314 122.854 99.1151C122.638 98.8989 122.347 98.7773 122.042 98.7773C121.738 98.7773 121.446 98.8989 121.231 99.1151C121.015 99.3314 120.895 99.6248 120.895 99.9307C120.895 100.237 121.015 100.53 121.231 100.746C121.446 100.962 121.738 101.084 122.042 101.084Z" fill="black"/>
<path d="M100.882 149.363C101.186 149.363 101.478 149.242 101.693 149.025C101.909 148.809 102.03 148.516 102.03 148.21C102.03 147.904 101.909 147.611 101.693 147.394C101.478 147.178 101.186 147.057 100.882 147.057C100.578 147.057 100.286 147.178 100.071 147.394C99.8553 147.611 99.7344 147.904 99.7344 148.21C99.7344 148.516 99.8553 148.809 100.071 149.025C100.286 149.242 100.578 149.363 100.882 149.363Z" fill="black"/>
<path d="M68.1867 107.428C68.491 107.428 68.7829 107.306 68.9982 107.09C69.2134 106.874 69.3343 106.58 69.3343 106.274C69.3343 105.969 69.2134 105.675 68.9982 105.459C68.7829 105.243 68.491 105.121 68.1867 105.121C67.8823 105.121 67.5904 105.243 67.3752 105.459C67.16 105.675 67.0391 105.969 67.0391 106.274C67.0391 106.58 67.16 106.874 67.3752 107.09C67.5904 107.306 67.8823 107.428 68.1867 107.428Z" fill="black"/>
<path d="M208.265 84.6367C208.569 84.6367 208.861 84.5152 209.076 84.2989C209.292 84.0827 209.412 83.7893 209.412 83.4834C209.412 83.1775 209.292 82.8842 209.076 82.6679C208.861 82.4516 208.569 82.3301 208.265 82.3301C207.96 82.3301 207.669 82.4516 207.453 82.6679C207.238 82.8842 207.117 83.1775 207.117 83.4834C207.117 83.7893 207.238 84.0827 207.453 84.2989C207.669 84.5152 207.96 84.6367 208.265 84.6367Z" fill="black"/>
<path d="M13.1476 235.766C13.452 235.766 13.7439 235.644 13.9591 235.428C14.1743 235.212 14.2952 234.918 14.2952 234.612C14.2952 234.306 14.1743 234.013 13.9591 233.797C13.7439 233.58 13.452 233.459 13.1476 233.459C12.8432 233.459 12.5513 233.58 12.3361 233.797C12.1209 234.013 12 234.306 12 234.612C12 234.918 12.1209 235.212 12.3361 235.428C12.5513 235.644 12.8432 235.766 13.1476 235.766Z" fill="black"/>
<path d="M103.396 61.1103C115.699 61.1103 125.672 51.0876 125.672 38.7241C125.672 26.3605 115.699 16.3379 103.396 16.3379C91.0941 16.3379 81.1211 26.3605 81.1211 38.7241C81.1211 51.0876 91.0941 61.1103 103.396 61.1103Z" fill="black"/>
<path d="M167.375 178.98C172.135 176.542 176.714 173.763 181.077 170.664C178.759 176.325 174.489 180.957 169.048 183.71C163.608 186.464 157.363 187.155 151.457 185.657C156.928 183.851 162.25 181.619 167.375 178.98Z" fill="black"/>
<path d="M182.992 160.953C182.992 161.472 182.407 161.645 182.361 162.107C178 166.72 172.032 170.664 163.999 174.793C158.209 177.904 152.035 180.231 145.637 181.713C140.151 178.576 135.423 174.724 133.484 168.577C133.119 167.397 132.847 166.19 132.669 164.967C132.432 163.627 132.317 162.268 132.325 160.907C132.329 155.895 133.806 150.996 136.57 146.824C139.334 142.652 143.262 139.393 147.862 137.455C152.462 135.518 157.528 134.988 162.426 135.933C167.324 136.877 171.835 139.254 175.395 142.765C176.618 143.976 177.724 145.301 178.7 146.721C181.501 150.934 182.995 155.887 182.992 160.953Z" fill="black"/>
<path d="M181.075 170.666C171.989 177.099 162.008 182.151 151.455 185.659C136.972 190.411 125.117 190.353 122.237 184.679C119.838 179.973 124.142 172.534 132.669 165.003C132.846 166.225 133.119 167.432 133.484 168.613C129.203 173.226 127.298 177.597 128.801 180.55C130.603 184.09 136.835 184.817 145.097 183.064C151.625 181.587 157.932 179.26 163.861 176.144C170.915 172.674 177.358 168.069 182.934 162.511C187.525 157.702 189.522 153.216 187.984 150.182C186.745 147.749 183.393 146.642 178.7 146.722C177.724 145.302 176.618 143.978 175.395 142.766C186.963 139.929 195.925 140.69 198.347 145.534C201.354 151.382 194.02 161.439 181.075 170.666Z" fill="black"/>
<path d="M127.391 99.2148L141.633 102.179" stroke="black" stroke-miterlimit="10"/>
<path d="M142.277 66.3223L147.671 95.6977" stroke="black" stroke-miterlimit="10"/>
<path d="M147.371 61.1094L177.806 71.0857" stroke="black" stroke-miterlimit="10"/>
<path d="M46.3242 183.951L69.1389 206.753" stroke="black" stroke-miterlimit="10"/>
<path d="M70.0898 213.176L71.3407 233.624" stroke="black" stroke-miterlimit="10"/>
<path d="M144.973 9.99414L147.67 30.6619" stroke="black" stroke-miterlimit="10"/>
<path d="M151.938 31.6302L170.047 13.2461" stroke="black" stroke-miterlimit="10"/>
<path d="M201.663 15.8985C201.968 15.8985 202.26 15.777 202.475 15.5607C202.69 15.3444 202.811 15.051 202.811 14.7451C202.811 14.4392 202.69 14.1459 202.475 13.9296C202.26 13.7133 201.968 13.5918 201.663 13.5918C201.359 13.5918 201.067 13.7133 200.852 13.9296C200.637 14.1459 200.516 14.4392 200.516 14.7451C200.516 15.051 200.637 15.3444 200.852 15.5607C201.067 15.777 201.359 15.8985 201.663 15.8985Z" fill="black"/>
<path d="M243.382 105.963C243.686 105.963 243.978 105.841 244.193 105.625C244.409 105.409 244.53 105.115 244.53 104.81C244.53 104.504 244.409 104.21 244.193 103.994C243.978 103.778 243.686 103.656 243.382 103.656C243.078 103.656 242.786 103.778 242.571 103.994C242.355 104.21 242.234 104.504 242.234 104.81C242.234 105.115 242.355 105.409 242.571 105.625C242.786 105.841 243.078 105.963 243.382 105.963Z" fill="black"/>
<path d="M172.296 199.336C172.6 199.336 172.892 199.214 173.108 198.998C173.323 198.782 173.444 198.489 173.444 198.183C173.444 197.877 173.323 197.583 173.108 197.367C172.892 197.151 172.6 197.029 172.296 197.029C171.992 197.029 171.7 197.151 171.485 197.367C171.269 197.583 171.148 197.877 171.148 198.183C171.148 198.489 171.269 198.782 171.485 198.998C171.7 199.214 171.992 199.336 172.296 199.336Z" fill="black"/>
<path d="M199.038 227.963C199.343 227.963 199.635 227.841 199.85 227.625C200.065 227.409 200.186 227.115 200.186 226.81C200.186 226.504 200.065 226.21 199.85 225.994C199.635 225.778 199.343 225.656 199.038 225.656C198.734 225.656 198.442 225.778 198.227 225.994C198.012 226.21 197.891 226.504 197.891 226.81C197.891 227.115 198.012 227.409 198.227 227.625C198.442 227.841 198.734 227.963 199.038 227.963Z" fill="black"/>
<path d="M122.042 261.789C122.347 261.789 122.638 261.668 122.854 261.451C123.069 261.235 123.19 260.942 123.19 260.636C123.19 260.33 123.069 260.037 122.854 259.82C122.638 259.604 122.347 259.482 122.042 259.482C121.738 259.482 121.446 259.604 121.231 259.82C121.015 260.037 120.895 260.33 120.895 260.636C120.895 260.942 121.015 261.235 121.231 261.451C121.446 261.668 121.738 261.789 122.042 261.789Z" fill="black"/>
<path d="M140.566 127.645C140.87 127.645 141.162 127.523 141.377 127.307C141.592 127.09 141.713 126.797 141.713 126.491C141.713 126.185 141.592 125.892 141.377 125.676C141.162 125.459 140.87 125.338 140.566 125.338C140.261 125.338 139.969 125.459 139.754 125.676C139.539 125.892 139.418 126.185 139.418 126.491C139.418 126.797 139.539 127.09 139.754 127.307C139.969 127.523 140.261 127.645 140.566 127.645Z" fill="black"/>
<path d="M24.382 79.7129C24.6864 79.7129 24.9783 79.5914 25.1935 79.3751C25.4087 79.1588 25.5296 78.8655 25.5296 78.5596C25.5296 78.2537 25.4087 77.9603 25.1935 77.7441C24.9783 77.5278 24.6864 77.4062 24.382 77.4062C24.0776 77.4062 23.7857 77.5278 23.5705 77.7441C23.3553 77.9603 23.2344 78.2537 23.2344 78.5596C23.2344 78.8655 23.3553 79.1588 23.5705 79.3751C23.7857 79.5914 24.0776 79.7129 24.382 79.7129Z" fill="black"/>
<path d="M5.14762 114.289C5.45199 114.289 5.74389 114.168 5.95911 113.951C6.17433 113.735 6.29524 113.442 6.29524 113.136C6.29524 112.83 6.17433 112.537 5.95911 112.32C5.74389 112.104 5.45199 111.982 5.14762 111.982C4.84325 111.982 4.55135 112.104 4.33613 112.32C4.12091 112.537 4 112.83 4 113.136C4 113.442 4.12091 113.735 4.33613 113.951C4.55135 114.168 4.84325 114.289 5.14762 114.289Z" fill="black"/>
<path d="M143.456 234.744C143.761 234.744 144.052 234.623 144.268 234.406C144.483 234.19 144.604 233.897 144.604 233.591C144.604 233.285 144.483 232.992 144.268 232.775C144.052 232.559 143.761 232.438 143.456 232.438C143.152 232.438 142.86 232.559 142.645 232.775C142.43 232.992 142.309 233.285 142.309 233.591C142.309 233.897 142.43 234.19 142.645 234.406C142.86 234.623 143.152 234.744 143.456 234.744Z" fill="black"/>
<path d="M1.14762 173.766C1.45199 173.766 1.74389 173.644 1.95911 173.428C2.17433 173.212 2.29524 172.918 2.29524 172.612C2.29524 172.306 2.17433 172.013 1.95911 171.797C1.74389 171.581 1.45199 171.459 1.14762 171.459C0.843253 171.459 0.551353 171.581 0.336132 171.797C0.120911 172.013 0 172.306 0 172.612C0 172.918 0.120911 173.212 0.336132 173.428C0.551353 173.644 0.843253 173.766 1.14762 173.766Z" fill="black"/>
<path d="M37.589 39.877C37.8934 39.877 38.1853 39.7555 38.4005 39.5392C38.6157 39.3229 38.7366 39.0295 38.7366 38.7236C38.7366 38.4178 38.6157 38.1244 38.4005 37.9081C38.1853 37.6918 37.8934 37.5703 37.589 37.5703C37.2847 37.5703 36.9928 37.6918 36.7775 37.9081C36.5623 38.1244 36.4414 38.4178 36.4414 38.7236C36.4414 39.0295 36.5623 39.3229 36.7775 39.5392C36.9928 39.7555 37.2847 39.877 37.589 39.877Z" fill="black"/>
<path d="M31.4484 122.939C31.7528 122.939 32.0447 122.818 32.2599 122.602C32.4751 122.385 32.596 122.092 32.596 121.786C32.596 121.48 32.4751 121.187 32.2599 120.971C32.0447 120.754 31.7528 120.633 31.4484 120.633C31.144 120.633 30.8521 120.754 30.6369 120.971C30.4217 121.187 30.3008 121.48 30.3008 121.786C30.3008 122.092 30.4217 122.385 30.6369 122.602C30.8521 122.818 31.144 122.939 31.4484 122.939Z" fill="black"/>
<path d="M68.839 133.447C69.1434 133.447 69.4353 133.326 69.6505 133.11C69.8657 132.893 69.9866 132.6 69.9866 132.294C69.9866 131.988 69.8657 131.695 69.6505 131.478C69.4353 131.262 69.1434 131.141 68.839 131.141C68.5347 131.141 68.2428 131.262 68.0275 131.478C67.8123 131.695 67.6914 131.988 67.6914 132.294C67.6914 132.6 67.8123 132.893 68.0275 133.11C68.2428 133.326 68.5347 133.447 68.839 133.447Z" fill="black"/>
<path d="M32.6554 11.1465C32.9598 11.1465 33.2517 11.025 33.4669 10.8087C33.6821 10.5924 33.8031 10.2991 33.8031 9.99318C33.8031 9.68729 33.6821 9.39394 33.4669 9.17765C33.2517 8.96135 32.9598 8.83984 32.6554 8.83984C32.3511 8.83984 32.0592 8.96135 31.8439 9.17765C31.6287 9.39394 31.5078 9.68729 31.5078 9.99318C31.5078 10.2991 31.6287 10.5924 31.8439 10.8087C32.0592 11.025 32.3511 11.1465 32.6554 11.1465Z" fill="black"/>
<path d="M8.31559 196.5C8.61996 196.5 8.91186 196.379 9.12708 196.162C9.3423 195.946 9.46321 195.653 9.46321 195.347C9.46321 195.041 9.3423 194.747 9.12708 194.531C8.91186 194.315 8.61996 194.193 8.31559 194.193C8.01122 194.193 7.71932 194.315 7.5041 194.531C7.28888 194.747 7.16797 195.041 7.16797 195.347C7.16797 195.653 7.28888 195.946 7.5041 196.162C7.71932 196.379 8.01122 196.5 8.31559 196.5Z" fill="black"/>
<path d="M71.3429 237.857C71.6473 237.857 71.9392 237.736 72.1544 237.52C72.3696 237.303 72.4905 237.01 72.4905 236.704C72.4905 236.398 72.3696 236.105 72.1544 235.889C71.9392 235.672 71.6473 235.551 71.3429 235.551C71.0386 235.551 70.7467 235.672 70.5314 235.889C70.3162 236.105 70.1953 236.398 70.1953 236.704C70.1953 237.01 70.3162 237.303 70.5314 237.52C70.7467 237.736 71.0386 237.857 71.3429 237.857Z" fill="black"/>
<path d="M94.2922 243.105C94.5965 243.105 94.8884 242.984 95.1037 242.768C95.3189 242.551 95.4398 242.258 95.4398 241.952C95.4398 241.646 95.3189 241.353 95.1037 241.137C94.8884 240.92 94.5965 240.799 94.2922 240.799C93.9878 240.799 93.6959 240.92 93.4807 241.137C93.2654 241.353 93.1445 241.646 93.1445 241.952C93.1445 242.258 93.2654 242.551 93.4807 242.768C93.6959 242.984 93.9878 243.105 94.2922 243.105Z" fill="black"/>
<path d="M73.7305 210.836L100.883 215.103" stroke="black" stroke-miterlimit="10"/>
<path d="M41.8351 261.789C42.1395 261.789 42.4314 261.668 42.6466 261.451C42.8618 261.235 42.9827 260.942 42.9827 260.636C42.9827 260.33 42.8618 260.037 42.6466 259.82C42.4314 259.604 42.1395 259.482 41.8351 259.482C41.5308 259.482 41.2389 259.604 41.0236 259.82C40.8084 260.037 40.6875 260.33 40.6875 260.636C40.6875 260.942 40.8084 261.235 41.0236 261.451C41.2389 261.668 41.5308 261.789 41.8351 261.789Z" fill="black"/>
<path d="M211.972 189.188C212.276 189.188 212.568 189.066 212.783 188.85C212.999 188.633 213.119 188.34 213.119 188.034C213.119 187.728 212.999 187.435 212.783 187.219C212.568 187.002 212.276 186.881 211.972 186.881C211.667 186.881 211.376 187.002 211.16 187.219C210.945 187.435 210.824 187.728 210.824 188.034C210.824 188.34 210.945 188.633 211.16 188.85C211.376 189.066 211.667 189.188 211.972 189.188Z" fill="black"/>
<path d="M311.377 97.4512L305.73 114.29" stroke="black" stroke-miterlimit="10"/>
<path d="M314.912 98.1426L311.469 113.136" stroke="black" stroke-miterlimit="10"/>
<path d="M317.504 114.81L318.651 99.8164" stroke="black" stroke-miterlimit="10"/>
<path d="M176.901 102.226L179.197 96.5166C179.237 96.3705 179.248 96.2178 179.229 96.0674C179.21 95.917 179.162 95.7717 179.088 95.64C179.013 95.5082 178.913 95.3925 178.794 95.2995C178.675 95.2065 178.539 95.1381 178.393 95.098C178.248 95.0578 178.096 95.0467 177.946 95.0655C177.797 95.0843 177.652 95.1326 177.521 95.2076C177.39 95.2826 177.275 95.3828 177.182 95.5025C177.09 95.6223 177.022 95.7592 176.982 95.9054L174.687 101.614C174.605 101.908 174.643 102.222 174.791 102.488C174.94 102.754 175.187 102.95 175.478 103.033C175.624 103.073 175.776 103.084 175.925 103.065C176.075 103.047 176.22 102.998 176.351 102.923C176.482 102.848 176.597 102.748 176.689 102.628C176.782 102.509 176.85 102.372 176.89 102.226H176.901Z" fill="black"/>
<path d="M171.723 96.1828L179.756 101.857C180.018 102.009 180.329 102.05 180.622 101.972C180.914 101.894 181.164 101.704 181.317 101.442C181.469 101.18 181.511 100.869 181.436 100.575C181.361 100.281 181.174 100.029 180.915 99.8735L172.882 94.1876C172.752 94.1108 172.608 94.0607 172.458 94.04C172.308 94.0194 172.156 94.0286 172.01 94.0672C171.864 94.1057 171.727 94.1729 171.607 94.2648C171.487 94.3567 171.386 94.4716 171.31 94.6028C171.233 94.7337 171.184 94.8785 171.163 95.0289C171.142 95.1792 171.152 95.3322 171.19 95.479C171.228 95.6258 171.295 95.7635 171.387 95.8843C171.478 96.0051 171.592 96.1065 171.723 96.1828Z" fill="black"/>
<path d="M62.0131 57.7305L55.1274 61.0175C54.9902 61.0896 54.869 61.1889 54.771 61.3093C54.673 61.4297 54.6003 61.5688 54.5572 61.7182C54.514 61.8675 54.5014 62.0241 54.5201 62.1786C54.5388 62.333 54.5883 62.482 54.6658 62.6167C54.7432 62.7513 54.847 62.8689 54.9708 62.9622C55.0946 63.0555 55.236 63.1227 55.3863 63.1597C55.5366 63.1967 55.6929 63.2028 55.8456 63.1775C55.9983 63.1523 56.1444 63.0963 56.275 63.0128L63.1607 59.7258C63.2913 59.6495 63.4055 59.548 63.497 59.4273C63.5884 59.3065 63.6553 59.1688 63.6937 59.022C63.732 58.8752 63.7412 58.7222 63.7207 58.5718C63.7001 58.4215 63.6502 58.2767 63.5739 58.1457C63.4979 58.0145 63.397 57.8997 63.2768 57.8078C63.1566 57.7159 63.0196 57.6487 62.8735 57.6101C62.7274 57.5716 62.5752 57.5623 62.4256 57.583C62.276 57.6037 62.1319 57.6538 62.0016 57.7305H62.0131Z" fill="black"/>
<path d="M61.1739 62.7237L58.259 56.7148C58.1859 56.5807 58.0871 56.4625 57.9682 56.3672C57.8494 56.2718 57.7128 56.2012 57.5665 56.1593C57.4202 56.1174 57.2671 56.1052 57.1161 56.1234C56.965 56.1415 56.8191 56.1897 56.6867 56.265C56.4262 56.4191 56.2367 56.6702 56.1593 56.9639C56.082 57.2576 56.123 57.5701 56.2736 57.8335L59.1886 63.8424C59.2576 63.9804 59.3535 64.103 59.4706 64.2031C59.5877 64.3031 59.7236 64.3785 59.8702 64.4248C60.0169 64.471 60.1713 64.4872 60.3242 64.4724C60.4772 64.4575 60.6257 64.4119 60.7608 64.3383C60.8913 64.262 61.0056 64.1606 61.0971 64.0398C61.1885 63.919 61.2554 63.7813 61.2937 63.6345C61.3321 63.4877 61.3413 63.3347 61.3207 63.1844C61.3002 63.034 61.2503 62.8892 61.1739 62.7583V62.7237Z" fill="black"/>
<path d="M59.0373 65.6188L61.5851 57.2225C61.6251 57.0764 61.6361 56.9237 61.6174 56.7733C61.5987 56.6229 61.5507 56.4776 61.476 56.3459C61.4014 56.2141 61.3017 56.0984 61.1826 56.0054C61.0634 55.9125 60.9272 55.844 60.7817 55.8039C60.4896 55.7222 60.1771 55.7601 59.9126 55.9092C59.6481 56.0583 59.4531 56.3066 59.3702 56.5997L56.8224 65.0075C56.7824 65.1537 56.7714 65.3063 56.7901 65.4568C56.8088 65.6072 56.8568 65.7525 56.9315 65.8842C57.0061 66.016 57.1058 66.1316 57.2249 66.2246C57.3441 66.3176 57.4803 66.3861 57.6258 66.4261C57.7712 66.4664 57.9231 66.4774 58.0728 66.4586C58.2225 66.4398 58.367 66.3915 58.4981 66.3166C58.6292 66.2416 58.7443 66.1414 58.8368 66.0216C58.9294 65.9019 58.9975 65.765 59.0373 65.6188Z" fill="black"/>
<path d="M234.178 139.628L234.351 139.398L234.167 139.628C234.451 139.263 234.778 138.933 235.142 138.648L234.913 138.833C235.263 138.552 235.649 138.319 236.061 138.141L235.785 138.256L236.095 138.129C236.385 138.05 236.632 137.859 236.784 137.599C236.861 137.466 236.91 137.319 236.93 137.166C236.95 137.014 236.939 136.859 236.898 136.711C236.817 136.424 236.627 136.18 236.37 136.03C236.238 135.953 236.092 135.902 235.94 135.883C235.788 135.863 235.634 135.874 235.487 135.915C234.853 136.127 234.256 136.438 233.719 136.837C233.422 137.058 233.142 137.301 232.882 137.564C232.619 137.843 232.381 138.144 232.17 138.464C232.09 138.597 232.037 138.746 232.015 138.9C231.993 139.055 232.003 139.212 232.044 139.363C232.126 139.65 232.315 139.894 232.572 140.044C232.704 140.121 232.85 140.171 233.002 140.191C233.154 140.211 233.308 140.2 233.455 140.159C233.742 140.073 233.987 139.884 234.144 139.628H234.178Z" fill="black"/>
<path d="M231.974 136.122L235.968 141.45C236.124 141.706 236.37 141.895 236.656 141.981C236.804 142.022 236.958 142.033 237.11 142.013C237.261 141.993 237.408 141.943 237.54 141.865C237.67 141.789 237.785 141.688 237.876 141.567C237.968 141.446 238.034 141.308 238.073 141.162C238.111 141.015 238.12 140.862 238.1 140.711C238.079 140.561 238.029 140.416 237.953 140.285L233.959 134.957C233.802 134.701 233.557 134.512 233.271 134.426C233.123 134.385 232.969 134.375 232.817 134.394C232.665 134.414 232.519 134.464 232.387 134.542C232.256 134.618 232.142 134.719 232.051 134.84C231.959 134.961 231.892 135.099 231.854 135.246C231.816 135.392 231.807 135.545 231.827 135.696C231.848 135.846 231.898 135.991 231.974 136.122Z" fill="black"/>
<path d="M51.7171 153.215L57.2487 146.721C57.4624 146.505 57.5824 146.213 57.5824 145.908C57.5824 145.604 57.4624 145.311 57.2487 145.095C57.0336 144.88 56.7428 144.76 56.4396 144.76C56.1364 144.76 55.8455 144.88 55.6305 145.095L50.0875 151.577C49.8714 151.794 49.75 152.089 49.75 152.396C49.75 152.703 49.8714 152.997 50.0875 153.215C50.3036 153.432 50.5967 153.554 50.9023 153.554C51.2079 153.554 51.501 153.432 51.7171 153.215Z" fill="black"/>
<path d="M48.0663 146.813C49.8959 148.744 52.0726 150.31 54.4815 151.427C54.6113 151.522 54.7596 151.588 54.9166 151.622C55.0736 151.656 55.236 151.656 55.3931 151.623C55.5502 151.589 55.6986 151.523 55.8288 151.429C55.9589 151.334 56.0679 151.213 56.1486 151.074C56.2293 150.934 56.28 150.779 56.2973 150.619C56.3147 150.458 56.2984 150.296 56.2494 150.142C56.2005 149.989 56.1199 149.847 56.0131 149.727C55.9062 149.606 55.7754 149.51 55.6291 149.443C54.4846 148.92 53.3931 148.286 52.3698 147.552L52.0256 147.309L51.8075 147.148C51.8993 147.217 51.8075 147.148 51.8075 147.148L51.073 146.537C50.5918 146.118 50.1322 145.676 49.6959 145.21C49.4809 144.996 49.19 144.875 48.8868 144.875C48.5836 144.875 48.2928 144.996 48.0777 145.21C47.9702 145.318 47.8848 145.445 47.8265 145.586C47.7683 145.726 47.7383 145.877 47.7383 146.029C47.7383 146.181 47.7683 146.332 47.8265 146.473C47.8848 146.613 47.9702 146.741 48.0777 146.848L48.0663 146.813Z" fill="black"/>
<path d="M153.211 255.793L159.822 247.719C160.035 247.503 160.155 247.211 160.155 246.906C160.155 246.602 160.035 246.309 159.822 246.093C159.607 245.878 159.316 245.758 159.013 245.758C158.709 245.758 158.418 245.878 158.203 246.093L151.582 254.167C151.474 254.274 151.389 254.401 151.33 254.542C151.272 254.682 151.242 254.833 151.242 254.985C151.242 255.138 151.272 255.288 151.33 255.429C151.389 255.57 151.474 255.697 151.582 255.804C151.688 255.912 151.815 255.998 151.955 256.057C152.095 256.115 152.245 256.146 152.396 256.146C152.548 256.146 152.698 256.115 152.838 256.057C152.978 255.998 153.105 255.912 153.211 255.804V255.793Z" fill="black"/>
<path d="M151.181 248.377L157.757 251.837C157.887 251.913 158.031 251.964 158.181 251.984C158.33 252.005 158.482 251.996 158.628 251.957C158.774 251.919 158.911 251.851 159.032 251.759C159.152 251.668 159.253 251.553 159.329 251.422C159.405 251.291 159.455 251.146 159.476 250.995C159.496 250.845 159.487 250.692 159.449 250.545C159.41 250.398 159.343 250.261 159.252 250.14C159.16 250.019 159.046 249.918 158.916 249.841L152.34 246.381C152.077 246.243 151.772 246.213 151.488 246.296C151.204 246.379 150.962 246.569 150.814 246.826C150.666 247.084 150.623 247.389 150.693 247.678C150.764 247.967 150.942 248.217 151.192 248.377H151.181Z" fill="black"/>
<path d="M155.209 244.87C154.932 247.663 155.154 250.483 155.864 253.197C155.904 253.343 155.972 253.48 156.064 253.6C156.157 253.719 156.272 253.82 156.403 253.895C156.534 253.97 156.679 254.018 156.828 254.037C156.978 254.056 157.13 254.045 157.275 254.004C157.421 253.964 157.557 253.896 157.676 253.803C157.795 253.71 157.895 253.594 157.969 253.462C158.044 253.331 158.092 253.185 158.111 253.035C158.129 252.885 158.118 252.732 158.079 252.586C157.429 250.069 157.235 247.456 157.505 244.87C157.505 244.564 157.384 244.271 157.169 244.055C156.953 243.838 156.661 243.717 156.357 243.717C156.053 243.717 155.761 243.838 155.546 244.055C155.33 244.271 155.209 244.564 155.209 244.87Z" fill="black"/>
<path d="M203.009 57.7767C203.366 57.3674 203.749 56.9821 204.157 56.6234L204.455 56.3812C204.317 56.485 204.513 56.3812 204.535 56.312L205.178 55.8737C205.596 55.6004 206.034 55.3576 206.486 55.1471C206.544 55.1471 206.785 54.9626 206.842 54.9857C206.9 55.0087 206.659 55.0664 206.842 54.9857L207.003 54.9165L207.783 54.6512C207.929 54.6112 208.065 54.5427 208.184 54.4497C208.303 54.3567 208.403 54.241 208.478 54.1093C208.552 53.9775 208.6 53.8323 208.619 53.6818C208.638 53.5314 208.627 53.3788 208.587 53.2326C208.547 53.0851 208.478 52.947 208.385 52.8264C208.292 52.7058 208.175 52.605 208.043 52.5298C207.911 52.4547 207.765 52.4068 207.614 52.3888C207.463 52.3709 207.31 52.3833 207.164 52.4253C204.954 53.1166 202.971 54.3958 201.425 56.1275C201.318 56.2347 201.232 56.3622 201.174 56.5028C201.116 56.6433 201.086 56.7941 201.086 56.9463C201.086 57.0986 201.116 57.2493 201.174 57.3899C201.232 57.5304 201.318 57.658 201.425 57.7652C201.64 57.98 201.931 58.1006 202.234 58.1006C202.538 58.1006 202.829 57.98 203.044 57.7652L203.009 57.7767Z" fill="black"/>
<path d="M201.641 53.2092L208.32 57.8226C208.45 57.8993 208.594 57.9494 208.744 57.9701C208.894 57.9908 209.046 57.9815 209.192 57.943C209.338 57.9044 209.475 57.8372 209.595 57.7453C209.715 57.6534 209.816 57.5386 209.892 57.4074C209.969 57.2764 210.019 57.1316 210.039 56.9813C210.06 56.8309 210.05 56.6779 210.012 56.5311C209.974 56.3844 209.907 56.2466 209.815 56.1258C209.724 56.0051 209.61 55.9036 209.479 55.8273L202.8 51.214C202.538 51.058 202.226 51.0129 201.931 51.0886C201.636 51.1643 201.383 51.3546 201.228 51.6176C201.151 51.7486 201.102 51.8934 201.081 52.0437C201.06 52.1941 201.07 52.3471 201.108 52.4939C201.146 52.6406 201.213 52.7784 201.305 52.8992C201.396 53.0199 201.51 53.1214 201.641 53.1977V53.2092Z" fill="black"/>
<path d="M29.3733 219.15C30.1996 216.682 30.7389 214.121 31.5652 211.653C31.6053 211.507 31.6163 211.355 31.5976 211.204C31.5789 211.054 31.5308 210.908 31.4562 210.777C31.3816 210.645 31.2819 210.529 31.1627 210.436C31.0436 210.343 30.9074 210.275 30.7619 210.235C30.6165 210.194 30.4646 210.183 30.3149 210.202C30.1652 210.221 30.0207 210.269 29.8896 210.344C29.7585 210.419 29.6434 210.52 29.5508 210.639C29.4583 210.759 29.3902 210.896 29.3503 211.042C28.524 213.51 27.9847 216.071 27.1584 218.539C27.1183 218.685 27.1073 218.838 27.126 218.988C27.1448 219.138 27.1928 219.284 27.2674 219.415C27.342 219.547 27.4417 219.663 27.5609 219.756C27.68 219.849 27.8162 219.917 27.9617 219.957C28.1071 219.998 28.259 220.009 28.4087 219.99C28.5584 219.971 28.7029 219.923 28.834 219.848C28.9651 219.773 29.0803 219.673 29.1728 219.553C29.2653 219.433 29.3334 219.296 29.3733 219.15Z" fill="black"/>
<path d="M25.4009 213.234C27.769 215.577 30.3554 217.686 33.1244 219.532C33.2542 219.627 33.4025 219.693 33.5595 219.727C33.7166 219.76 33.8789 219.761 34.036 219.727C34.1931 219.694 34.3416 219.628 34.4717 219.534C34.6018 219.439 34.7108 219.318 34.7915 219.179C34.8722 219.039 34.9229 218.884 34.9403 218.724C34.9576 218.563 34.9413 218.401 34.8923 218.247C34.8434 218.093 34.7629 217.952 34.656 217.831C34.5492 217.711 34.4183 217.614 34.272 217.548C31.6651 215.809 29.2322 213.82 27.0076 211.608C26.9047 211.487 26.7781 211.389 26.6357 211.32C26.4933 211.251 26.3382 211.212 26.1802 211.206C26.0221 211.2 25.8645 211.227 25.7173 211.285C25.57 211.343 25.4363 211.43 25.3244 211.543C25.2126 211.655 25.1251 211.79 25.0674 211.938C25.0097 212.086 24.983 212.244 24.9891 212.403C24.9952 212.562 25.034 212.718 25.1028 212.861C25.1717 213.004 25.2693 213.131 25.3894 213.234H25.4009Z" fill="black"/>
<path d="M12.2157 26.4228C13.0535 23.9546 13.5929 21.3942 14.4192 18.9261C14.4599 18.7799 14.4715 18.6272 14.4534 18.4765C14.4354 18.3258 14.388 18.1802 14.3139 18.0479C14.2398 17.9156 14.1406 17.7993 14.0218 17.7056C13.903 17.6119 13.767 17.5426 13.6216 17.5017C13.4761 17.4608 13.3241 17.4491 13.1742 17.4673C13.0242 17.4854 12.8793 17.5331 12.7477 17.6075C12.6161 17.6819 12.5004 17.7817 12.4071 17.9011C12.3139 18.0205 12.245 18.1571 12.2043 18.3033C11.378 20.806 10.8386 23.3434 10.0123 25.8115C9.97264 25.9592 9.96261 26.1133 9.98279 26.265C10.003 26.4166 10.053 26.5627 10.1299 26.6947C10.2068 26.8267 10.309 26.942 10.4307 27.034C10.5524 27.1259 10.691 27.1926 10.8386 27.2301C10.984 27.2704 11.1359 27.2814 11.2856 27.2626C11.4353 27.2438 11.5798 27.1955 11.7109 27.1205C11.842 27.0456 11.9571 26.9453 12.0497 26.8256C12.1422 26.7059 12.2103 26.569 12.2502 26.4228H12.2157Z" fill="black"/>
<path d="M8.34898 20.8832C10.7201 23.2223 13.3061 25.3308 16.0725 27.1804C16.3347 27.3183 16.6399 27.349 16.9242 27.2661C17.2084 27.1832 17.4499 26.9931 17.598 26.7356C17.7461 26.4781 17.7895 26.173 17.7191 25.884C17.6487 25.5951 17.4699 25.3447 17.2201 25.1851C14.619 23.4429 12.1902 21.4539 9.96712 19.2454C9.75102 19.0283 9.45793 18.9062 9.15231 18.9062C8.8467 18.9063 8.5536 19.0283 8.3375 19.2454C8.1214 19.4626 8 19.7572 8 20.0643C8 20.3714 8.1214 20.666 8.3375 20.8832H8.34898Z" fill="black"/>
<path d="M204.384 51.1106C204.384 51.2374 204.384 51.2374 204.384 51.1106C204.384 51.1106 204.384 51.2028 204.384 51.249V51.595V52.1947C204.407 52.6365 204.407 53.0792 204.384 53.521V53.867C204.384 53.867 204.384 54.2246 204.384 53.9478C204.372 54.1624 204.338 54.3751 204.28 54.5821C204.192 55.0183 204.081 55.4495 203.947 55.8738C203.907 56.02 203.896 56.1727 203.915 56.3231C203.934 56.4735 203.982 56.6188 204.056 56.7505C204.131 56.8823 204.231 56.998 204.35 57.0909C204.469 57.1839 204.605 57.2524 204.751 57.2924C204.896 57.3327 205.048 57.3437 205.198 57.3249C205.347 57.3061 205.492 57.2579 205.623 57.1829C205.754 57.1079 205.869 57.0077 205.962 56.8879C206.054 56.7682 206.122 56.6313 206.162 56.4851C206.754 54.5521 206.903 52.5099 206.598 50.5108C206.559 50.3646 206.49 50.2277 206.398 50.108C206.305 49.9883 206.19 49.8881 206.059 49.8131C205.928 49.7381 205.784 49.6898 205.634 49.671C205.484 49.6522 205.332 49.6632 205.187 49.7035C205.041 49.7435 204.905 49.812 204.786 49.905C204.667 49.998 204.567 50.1137 204.493 50.2454C204.418 50.3772 204.37 50.5224 204.351 50.6729C204.332 50.8233 204.343 50.9759 204.384 51.1221V51.1106Z" fill="black"/>
<path d="M6.96908 257.574C7.32604 257.165 7.70941 256.78 8.1167 256.421L8.41508 256.179C8.41508 256.179 8.58722 256.04 8.41508 256.179L8.50689 256.11L9.13808 255.671C9.56028 255.398 10.0013 255.155 10.4578 254.945C10.4578 254.945 10.7562 254.76 10.8136 254.783C10.871 254.806 10.6185 254.852 10.8136 254.783L10.9743 254.714L11.7432 254.449C12.0369 254.368 12.2865 254.173 12.4372 253.907C12.5878 253.641 12.6272 253.325 12.5465 253.03C12.4659 252.735 12.2718 252.484 12.0071 252.333C11.7424 252.181 11.4287 252.142 11.1349 252.223C8.90427 252.905 6.90068 254.185 5.33946 255.925C5.2319 256.032 5.14652 256.16 5.08826 256.3C5.03 256.441 5 256.592 5 256.744C5 256.896 5.03 257.047 5.08826 257.187C5.14652 257.328 5.2319 257.456 5.33946 257.563C5.44615 257.671 5.57308 257.757 5.71293 257.815C5.85277 257.874 6.00277 257.904 6.15427 257.904C6.30577 257.904 6.45577 257.874 6.59562 257.815C6.73547 257.757 6.8624 257.671 6.96908 257.563V257.574Z" fill="black"/>
<path d="M5.60187 253.006L12.281 257.62C12.4113 257.696 12.5554 257.746 12.705 257.767C12.8546 257.788 13.0068 257.778 13.1529 257.74C13.299 257.701 13.436 257.634 13.5562 257.542C13.6764 257.45 13.7773 257.335 13.8533 257.204C13.9296 257.073 13.9795 256.929 14 256.778C14.0206 256.628 14.0114 256.475 13.9731 256.328C13.9347 256.181 13.8678 256.044 13.7764 255.923C13.6849 255.802 13.5707 255.701 13.4401 255.624L6.76097 251.011C6.4992 250.855 6.18652 250.81 5.89168 250.886C5.59684 250.961 5.34399 251.151 5.18873 251.415C5.11238 251.545 5.06249 251.69 5.04193 251.841C5.02137 251.991 5.03055 252.144 5.06893 252.291C5.10731 252.438 5.17414 252.575 5.2656 252.696C5.35705 252.817 5.47133 252.918 5.60187 252.995V253.006Z" fill="black"/>
<path d="M8.33383 250.907C8.33383 251.034 8.33383 251.034 8.33383 250.907C8.33383 250.907 8.33383 251 8.33383 251.046V251.392V251.992C8.35684 252.433 8.35684 252.876 8.33383 253.318V253.664C8.33383 253.664 8.33383 254.021 8.33383 253.745C8.31153 253.958 8.27704 254.17 8.23054 254.379C8.13873 254.817 8.02397 255.244 7.89773 255.671C7.84158 255.821 7.81714 255.981 7.82598 256.141C7.83482 256.301 7.87674 256.457 7.94907 256.6C8.0214 256.743 8.12255 256.869 8.24607 256.97C8.36958 257.072 8.51276 257.146 8.66647 257.189C8.82017 257.231 8.98104 257.241 9.13879 257.218C9.29655 257.195 9.44775 257.139 9.58273 257.053C9.71772 256.968 9.83353 256.855 9.9228 256.722C10.0121 256.59 10.0728 256.44 10.1012 256.282C10.7036 254.351 10.8529 252.306 10.5373 250.308C10.4974 250.161 10.4293 250.025 10.3368 249.905C10.2442 249.785 10.1291 249.685 9.99802 249.61C9.86691 249.535 9.72239 249.487 9.5727 249.468C9.42302 249.449 9.27112 249.46 9.12568 249.5C8.98019 249.54 8.84398 249.609 8.72485 249.702C8.60571 249.795 8.50599 249.911 8.43137 250.042C8.35676 250.174 8.30873 250.319 8.29002 250.47C8.27132 250.62 8.2823 250.773 8.32235 250.919L8.33383 250.907Z" fill="black"/>
<path d="M113.679 76.8633C113.983 76.8633 114.275 76.7418 114.49 76.5255C114.706 76.3092 114.826 76.0159 114.826 75.71C114.826 75.4041 114.706 75.1107 114.49 74.8944C114.275 74.6782 113.983 74.5566 113.679 74.5566C113.374 74.5566 113.083 74.6782 112.867 74.8944C112.652 75.1107 112.531 75.4041 112.531 75.71C112.531 76.0159 112.652 76.3092 112.867 76.5255C113.083 76.7418 113.374 76.8633 113.679 76.8633Z" fill="black"/>
<path d="M67.6711 22.0684C67.9754 22.0684 68.2673 21.9469 68.4826 21.7306C68.6978 21.5143 68.8187 21.2209 68.8187 20.915C68.8187 20.6092 68.6978 20.3158 68.4826 20.0995C68.2673 19.8832 67.9754 19.7617 67.6711 19.7617C67.3667 19.7617 67.0748 19.8832 66.8596 20.0995C66.6443 20.3158 66.5234 20.6092 66.5234 20.915C66.5234 21.2209 66.6443 21.5143 66.8596 21.7306C67.0748 21.9469 67.3667 22.0684 67.6711 22.0684Z" fill="black"/>
<path d="M146.03 102.457C146.335 102.457 146.627 102.336 146.842 102.119C147.057 101.903 147.178 101.61 147.178 101.304C147.178 100.998 147.057 100.704 146.842 100.488C146.627 100.272 146.335 100.15 146.03 100.15C145.726 100.15 145.434 100.272 145.219 100.488C145.004 100.704 144.883 100.998 144.883 101.304C144.883 101.61 145.004 101.903 145.219 102.119C145.434 102.336 145.726 102.457 146.03 102.457Z" fill="black"/>
<path d="M416.167 146.768C425.669 133.251 425.21 119.4 414.571 109.123C405.884 100.739 384.033 103.288 381.29 122.248C380.82 125.512 380.476 132.017 379.558 132.375C367.106 137.184 368.231 137.288 375.311 145.061C379.179 149.317 375.07 160.331 382.197 163.007C385.133 164.076 388.278 164.435 391.378 164.057V171.277C391.378 171.277 403.405 179.581 415.478 172.891L416.167 146.768Z" fill="white" stroke="black" stroke-miterlimit="10"/>
<path d="M415.717 165.474L415.993 149.835L411.483 142.096C411.483 142.096 423.693 128.452 404.597 127.864L402.772 119.895C402.772 119.895 390.24 121.821 383.125 115.962C389.219 102.825 406.938 101.776 414.558 109.111C419.461 113.887 422.408 120.334 422.821 127.184L429.959 159.731L415.717 165.474Z" fill="#808080" stroke="black" stroke-miterlimit="10"/>
<path d="M384.986 128.371C384.389 129.79 383.746 131.07 386.558 133.284C389.083 135.28 395.062 134.345 395.67 132.927" stroke="black" stroke-miterlimit="10"/>
<path d="M367.081 125.465C366.473 126.895 365.83 128.164 368.642 130.39C371.167 132.374 377.146 131.451 377.754 130.021C378.362 128.591 376.882 124.842 373.932 123.585C370.983 122.328 367.678 124 367.081 125.465Z" fill="white" stroke="black" stroke-miterlimit="10"/>
<path d="M369.514 129.733C373.198 129.733 373.209 123.967 369.514 123.967C365.819 123.967 365.807 129.733 369.514 129.733Z" fill="black"/>
<path d="M385.882 151.865C387.675 150.884 389.344 149.687 390.851 148.301C391.065 148.085 391.185 147.793 391.185 147.488C391.185 147.184 391.065 146.891 390.851 146.675C390.636 146.46 390.345 146.34 390.042 146.34C389.739 146.34 389.448 146.46 389.233 146.675C388.877 146.998 388.51 147.31 388.143 147.609L387.879 147.829C387.752 147.932 387.879 147.829 387.879 147.829C387.879 147.829 387.741 147.932 387.706 147.955L387.133 148.382C386.345 148.929 385.529 149.434 384.688 149.893C384.438 150.053 384.26 150.303 384.189 150.592C384.119 150.881 384.162 151.186 384.31 151.444C384.458 151.701 384.7 151.891 384.984 151.974C385.268 152.057 385.574 152.026 385.836 151.888L385.882 151.865Z" fill="black"/>
<path d="M35.595 43.4629L24.3828 71.3736" stroke="black" stroke-miterlimit="10"/>
<path d="M3.67969 173.248L39.2559 178.473" stroke="black" stroke-miterlimit="10"/>
<path d="M73.8438 238.885L90.8515 241.18" stroke="black" stroke-miterlimit="10"/>
<path d="M102.798 219.936L95.4648 237.512" stroke="black" stroke-miterlimit="10"/>
<path d="M36.2227 117.923L62.2162 107.693" stroke="black" stroke-miterlimit="10"/>
<path d="M68.8413 110.795L68.7266 126.526" stroke="black" stroke-miterlimit="10"/>
<path d="M34.6875 123.633L64.7436 132.294" stroke="black" stroke-miterlimit="10"/>
<path d="M305.879 99.4121L292.934 133.182" stroke="black" stroke-miterlimit="10"/>
<path d="M80.3625 259.899C80.6668 259.899 80.9587 259.777 81.1739 259.561C81.3892 259.344 81.5101 259.051 81.5101 258.745C81.5101 258.439 81.3892 258.146 81.1739 257.93C80.9587 257.713 80.6668 257.592 80.3625 257.592C80.0581 257.592 79.7662 257.713 79.551 257.93C79.3358 258.146 79.2148 258.439 79.2148 258.745C79.2148 259.051 79.3358 259.344 79.551 259.561C79.7662 259.777 80.0581 259.899 80.3625 259.899Z" fill="black"/>
<path d="M10.8039 144.219C11.1082 144.219 11.4001 144.097 11.6154 143.881C11.8306 143.665 11.9515 143.371 11.9515 143.065C11.9515 142.76 11.8306 142.466 11.6154 142.25C11.4001 142.034 11.1082 141.912 10.8039 141.912C10.4995 141.912 10.2076 142.034 9.99238 142.25C9.77716 142.466 9.65625 142.76 9.65625 143.065C9.65625 143.371 9.77716 143.665 9.99238 143.881C10.2076 144.097 10.4995 144.219 10.8039 144.219Z" fill="black"/>
<path d="M1.14762 58.7657C1.45199 58.7657 1.74389 58.6441 1.95911 58.4279C2.17433 58.2116 2.29524 57.9182 2.29524 57.6123C2.29524 57.3064 2.17433 57.0131 1.95911 56.7968C1.74389 56.5805 1.45199 56.459 1.14762 56.459C0.843251 56.459 0.551351 56.5805 0.336131 56.7968C0.120911 57.0131 0 57.3064 0 57.6123C0 57.9182 0.120911 58.2116 0.336131 58.4279C0.551351 58.6441 0.843251 58.7657 1.14762 58.7657Z" fill="black"/>
<path d="M85.3664 96.4473C85.6707 96.4473 85.9626 96.3258 86.1778 96.1095C86.3931 95.8932 86.514 95.5998 86.514 95.294C86.514 94.9881 86.3931 94.6947 86.1778 94.4784C85.9626 94.2621 85.6707 94.1406 85.3664 94.1406C85.062 94.1406 84.7701 94.2621 84.5549 94.4784C84.3397 94.6947 84.2188 94.9881 84.2188 95.294C84.2188 95.5998 84.3397 95.8932 84.5549 96.1095C84.7701 96.3258 85.062 96.4473 85.3664 96.4473Z" fill="black"/>
<path d="M105.39 123.158C105.694 123.158 105.986 123.037 106.201 122.82C106.417 122.604 106.537 122.311 106.537 122.005C106.537 121.699 106.417 121.406 106.201 121.189C105.986 120.973 105.694 120.852 105.39 120.852C105.085 120.852 104.794 120.973 104.578 121.189C104.363 121.406 104.242 121.699 104.242 122.005C104.242 122.311 104.363 122.604 104.578 122.82C104.794 123.037 105.085 123.158 105.39 123.158Z" fill="black"/>
<path d="M237.218 33.3496C237.522 33.3496 237.814 33.2281 238.029 33.0118C238.245 32.7955 238.366 32.5022 238.366 32.1963C238.366 31.8904 238.245 31.5971 238.029 31.3808C237.814 31.1645 237.522 31.043 237.218 31.043C236.914 31.043 236.622 31.1645 236.406 31.3808C236.191 31.5971 236.07 31.8904 236.07 32.1963C236.07 32.5022 236.191 32.7955 236.406 33.0118C236.622 33.2281 236.914 33.3496 237.218 33.3496Z" fill="black"/>
</svg>
